<svg width="781" height="699" viewBox="0 0 781 699" fill="none" xmlns="http://www.w3.org/2000/svg">
<path d="M513.935 419.756C513.935 419.756 485.77 422.745 451.834 392.168C451.834 392.168 446.888 412.843 443.578 418.108C441.131 423.091 437.413 427.342 432.799 430.432C412.644 443.457 383.372 426.791 374.156 421.957C369.898 419.731 369.258 419.596 353.496 411.121C349.091 408.748 325.663 395.304 325.663 395.304C319.856 392.746 309.914 393.176 309.914 393.176L302.617 405.205C299.798 409.852 295.997 413.827 291.481 416.853C296.366 416.447 301.214 416.14 306.075 415.832C310.923 415.488 315.771 415.193 320.594 414.75C323.018 414.565 325.43 414.319 327.829 414.036C330.228 413.79 332.615 413.434 335.003 413.052C337.377 412.677 339.727 412.164 342.041 411.515C344.384 410.943 346.578 409.878 348.476 408.391C346.865 410.298 344.794 411.763 342.459 412.647C340.17 413.608 337.803 414.373 335.384 414.934C330.593 416.06 325.722 416.817 320.815 417.197C315.918 417.603 311.021 417.8 306.124 417.738C301.23 417.727 296.341 417.431 291.481 416.853H291.469C287.109 419.781 282.177 421.752 276.999 422.634L221.776 432.117C221.776 432.117 234.844 448.905 221.346 484.033C221.346 484.033 248.723 481.265 265.851 486.419C282.967 491.56 309.237 491.56 337.045 481.524C364.853 471.487 379.52 474.058 398.063 477.662C416.606 481.265 484.06 513.957 507.746 453.727C507.746 453.727 515.731 434.171 513.935 419.756ZM231.755 448.401C231.277 448.384 230.824 448.182 230.492 447.838C230.16 447.494 229.974 447.035 229.974 446.556C229.974 446.078 230.16 445.618 230.492 445.274C230.824 444.93 231.277 444.728 231.755 444.711C232.233 444.728 232.686 444.93 233.019 445.274C233.351 445.618 233.536 446.078 233.536 446.556C233.536 447.035 233.351 447.494 233.019 447.838C232.686 448.182 232.233 448.384 231.755 448.401ZM230.574 434.675C231.053 434.691 231.507 434.892 231.84 435.236C232.174 435.581 232.36 436.041 232.36 436.52C232.36 436.999 232.174 437.459 231.84 437.803C231.507 438.148 231.053 438.349 230.574 438.365C230.095 438.349 229.641 438.148 229.308 437.804C228.975 437.459 228.788 436.999 228.788 436.52C228.788 436.041 228.975 435.581 229.308 435.236C229.641 434.892 230.095 434.691 230.574 434.675H230.574ZM227.03 482.053C226.552 482.036 226.1 481.834 225.767 481.49C225.435 481.145 225.25 480.686 225.25 480.208C225.25 479.729 225.435 479.27 225.767 478.926C226.1 478.582 226.552 478.38 227.03 478.363C227.509 478.38 227.961 478.582 228.294 478.926C228.626 479.27 228.811 479.729 228.811 480.208C228.811 480.686 228.626 481.145 228.294 481.49C227.961 481.834 227.509 482.036 227.03 482.053H227.03ZM229.983 472.016C229.505 471.999 229.053 471.797 228.72 471.453C228.388 471.109 228.203 470.65 228.203 470.171C228.203 469.693 228.388 469.234 228.72 468.889C229.053 468.545 229.505 468.343 229.983 468.326C230.462 468.343 230.914 468.545 231.247 468.889C231.579 469.234 231.765 469.693 231.765 470.171C231.765 470.65 231.579 471.109 231.247 471.453C230.914 471.797 230.462 471.999 229.983 472.016ZM232.051 459.618C231.573 459.601 231.12 459.399 230.787 459.055C230.455 458.711 230.27 458.252 230.27 457.773C230.27 457.295 230.455 456.836 230.787 456.491C231.12 456.147 231.573 455.945 232.051 455.928C232.529 455.945 232.982 456.147 233.314 456.491C233.646 456.836 233.832 457.295 233.832 457.773C233.832 458.252 233.646 458.711 233.314 459.055C232.982 459.4 232.529 459.601 232.051 459.618H232.051Z" fill="#337B94"/>
<path d="M409.051 360.988C409.87 362.182 410.861 363.247 411.992 364.149C411.574 364.039 408.19 363.079 408.338 361.862V361.788C408.467 361.441 408.722 361.156 409.051 360.988Z" fill="#337B94"/>
<path d="M513 364.468C512.142 350.732 509.529 337.162 505.223 324.089C497.496 300.831 490.077 291.913 490.077 291.913C490.077 291.913 487.05 295.861 483.1 293.057C479.15 290.253 468.088 286.465 468.088 286.465C448.832 281.348 441.831 289.527 441.831 289.527C438.353 294.276 434.602 298.818 430.597 303.13C432.248 301.958 434.027 300.976 435.9 300.203C438.463 299.109 441.191 298.452 443.972 298.26C445.391 298.178 446.815 298.256 448.217 298.494C449.631 298.752 451.002 299.208 452.289 299.847C454.805 301.127 456.832 303.196 458.06 305.738C456.254 303.916 454.065 302.52 451.651 301.65C449.238 300.78 446.66 300.458 444.107 300.707C441.538 300.878 438.994 301.315 436.515 302.011C434.214 302.638 431.901 303.389 429.575 304.225L429.563 304.237C415.991 318.468 406.037 322.576 406.037 322.576C401.706 340.558 404.056 351.406 406.996 357.494C406.996 357.039 407.033 356.584 407.058 356.129C407.258 354.066 407.604 352.019 408.092 350.004C409.066 346.005 410.274 342.066 411.709 338.209C413.149 334.371 414.699 330.571 416.422 326.856C418.114 323.12 420.007 319.478 422.094 315.946C419.695 323.806 416.791 331.419 414.022 339.057C412.607 342.87 411.229 346.683 409.95 350.52C409.322 352.439 408.707 354.37 408.252 356.326C408.025 357.198 407.865 358.086 407.772 358.982C408.16 359.674 408.588 360.343 409.051 360.987C410.401 360.303 411.85 359.838 413.346 359.61C423.817 357.47 484.613 369.769 456.055 376.312L454.48 382.438C494.149 396.09 515.732 378.317 515.732 378.317C514.169 376.263 513.381 370.261 513 364.468ZM413.739 355.416C413.261 355.399 412.808 355.197 412.476 354.853C412.144 354.509 411.958 354.049 411.958 353.571C411.958 353.093 412.144 352.633 412.476 352.289C412.808 351.945 413.261 351.743 413.739 351.726C414.217 351.743 414.67 351.945 415.003 352.289C415.335 352.633 415.52 353.093 415.52 353.571C415.52 354.049 415.335 354.509 415.003 354.853C414.67 355.197 414.217 355.399 413.739 355.416ZM423.706 356.08C423.228 356.063 422.775 355.861 422.443 355.517C422.111 355.173 421.925 354.713 421.925 354.235C421.925 353.757 422.111 353.297 422.443 352.953C422.775 352.609 423.228 352.407 423.706 352.39C424.184 352.407 424.637 352.609 424.969 352.953C425.301 353.297 425.487 353.757 425.487 354.235C425.487 354.713 425.301 355.173 424.969 355.517C424.637 355.861 424.184 356.063 423.706 356.08V356.08ZM434.116 357.851C433.637 357.834 433.185 357.632 432.852 357.288C432.52 356.944 432.335 356.484 432.335 356.006C432.335 355.528 432.52 355.068 432.852 354.724C433.185 354.38 433.637 354.178 434.116 354.161C434.594 354.178 435.047 354.38 435.379 354.724C435.711 355.068 435.897 355.528 435.897 356.006C435.897 356.484 435.711 356.944 435.379 357.288C435.047 357.632 434.594 357.834 434.116 357.851ZM444.968 359.844C444.49 359.827 444.037 359.625 443.705 359.281C443.373 358.936 443.187 358.477 443.187 357.999C443.187 357.52 443.373 357.061 443.705 356.717C444.037 356.372 444.49 356.171 444.968 356.154C445.446 356.171 445.899 356.373 446.231 356.717C446.564 357.061 446.749 357.52 446.749 357.999C446.749 358.477 446.564 358.936 446.231 359.281C445.899 359.625 445.446 359.827 444.968 359.844ZM468.556 339.783C468.396 342.366 468.273 344.961 468.015 347.532L467.547 351.394C467.399 352.673 467.227 353.952 466.981 355.231C466.526 357.765 466.107 360.323 465.529 362.832C464.926 365.354 464.323 367.863 463.61 370.335C463.782 367.752 464.065 365.194 464.335 362.648C464.631 360.09 464.791 357.531 465.074 354.985C465.541 349.881 465.91 344.789 466.095 339.697C466.286 334.619 466.175 329.535 465.763 324.47C465.603 323.216 465.529 321.937 465.295 320.694L465 318.813C464.877 318.198 464.729 317.583 464.594 316.968C464.12 314.462 463.217 312.057 461.924 309.858C462.841 310.788 463.601 311.859 464.175 313.032C464.495 313.604 464.779 314.195 465.024 314.803C465.299 315.396 465.542 316.004 465.75 316.623C466.612 319.091 467.25 321.63 467.658 324.212C468.436 329.364 468.737 334.576 468.556 339.783V339.783Z" fill="#337B94"/>
<path d="M406.037 322.576C405.772 323.19 405.542 323.818 405.348 324.458C405.397 323.929 405.434 323.4 405.458 322.859C405.828 322.687 406.037 322.576 406.037 322.576Z" fill="#337B94"/>
<path d="M412.189 363.424L407.673 384.813L405.384 397.37L402.689 396.719C379.754 391.885 341.93 375.391 341.93 375.391L333.23 364.162C338.657 365.441 340.318 359.365 340.318 359.365C346.63 360.952 346.864 354.482 346.864 354.482C352.413 355.048 351.441 347.139 351.441 347.139C357.36 347.791 355.452 340.867 355.452 340.867C349.749 335.255 346.468 327.636 346.31 319.638C345.966 319.606 345.62 319.606 345.276 319.638C345.276 319.638 362.774 289.676 378.696 295.445L394.63 301.213C392.783 304.946 391.787 309.041 391.714 313.205C393.166 326.673 401.951 324.311 405.003 323.057C404.125 325.498 403.434 328.002 402.936 330.547C402.318 333.581 401.927 336.656 401.767 339.747C401.73 341.297 401.73 342.847 401.804 344.409C401.906 345.976 402.12 347.534 402.443 349.07C402.757 350.633 403.279 352.147 403.994 353.572C404.548 354.681 405.313 355.671 406.245 356.487C406.359 356.592 406.478 356.691 406.602 356.782L406.615 356.795C407.771 357.864 412.189 363.424 412.189 363.424Z" fill="#337B94"/>
<path d="M366.51 228.211C366.698 230.601 367.01 232.979 367.447 235.337C367.866 237.663 368.469 239.953 369.25 242.184C369.633 243.278 370.089 244.345 370.615 245.378C371.255 246.563 371.632 247.871 371.72 249.214C371.92 251.802 371.527 254.401 370.572 256.815L370.543 256.873L370.509 256.936C370.172 257.546 369.934 258.206 369.805 258.89C369.739 259.14 369.723 259.4 369.759 259.655C369.795 259.91 369.881 260.156 370.013 260.378C370.382 260.768 370.871 261.025 371.402 261.109C371.759 261.141 372.1 261.207 372.47 261.225L373.613 261.22L373.684 261.22C373.905 261.219 374.123 261.279 374.312 261.395C374.501 261.51 374.654 261.675 374.755 261.872C375.222 262.783 375.775 263.72 376.337 264.602C376.876 265.481 377.49 266.312 378.173 267.085C378.495 267.447 378.851 267.777 379.237 268.07C379.71 268.427 380.159 268.816 380.58 269.234C381.438 270.082 382.167 271.052 382.744 272.112L382.685 272.014C383.395 273.028 384.222 273.954 385.149 274.775C386.079 275.606 387.135 276.283 388.279 276.781C389.433 277.274 390.69 277.481 391.942 277.385C393.239 277.27 394.501 276.906 395.66 276.313C394.588 277.136 393.351 277.718 392.033 278.018C390.666 278.315 389.245 278.259 387.906 277.856C386.569 277.445 385.313 276.807 384.193 275.97C383.054 275.147 382.037 274.168 381.171 273.062L381.111 272.964C380.568 272.133 379.911 271.383 379.161 270.734C378.786 270.396 378.39 270.083 377.976 269.794C377.473 269.443 377.005 269.044 376.576 268.605C375.769 267.766 375.036 266.858 374.386 265.892C373.745 264.947 373.156 263.967 372.621 262.957L373.764 263.609L372.379 263.634C371.909 263.619 371.416 263.543 370.936 263.492C369.793 263.309 368.756 262.714 368.022 261.82C367.7 261.331 367.481 260.783 367.377 260.207C367.273 259.632 367.287 259.041 367.417 258.471C367.606 257.499 367.958 256.566 368.457 255.711L368.394 255.831C369.22 253.761 369.616 251.544 369.555 249.315C369.519 248.249 369.27 247.2 368.825 246.231C368.335 245.086 367.922 243.908 367.591 242.707C366.957 240.34 366.56 237.915 366.406 235.469C366.229 233.051 366.264 230.623 366.51 228.211Z" fill="#337B94"/>
<path d="M366.938 228.693C370.402 230.47 373.979 232.235 377.555 233.859C381.072 235.56 384.752 236.899 388.539 237.856C388.983 237.943 389.434 237.987 389.885 237.989C390.295 237.977 390.674 237.859 390.706 237.75C390.713 237.683 390.722 237.769 390.778 237.6L390.92 237.21C391.014 236.946 391.133 236.692 391.277 236.452C391.558 235.956 391.92 235.51 392.347 235.132C393.214 234.417 394.26 233.953 395.372 233.791C395.915 233.702 396.466 233.672 397.015 233.701C397.619 233.782 398.199 233.984 398.722 234.296C399.64 234.907 400.418 235.707 401.002 236.642C401.587 237.577 401.965 238.626 402.112 239.718C402.452 241.758 402.49 243.836 402.227 245.887L402.233 245.729C402.302 247.074 402.252 248.423 402.084 249.759C402.003 250.483 401.827 251.193 401.558 251.871C401.484 252.072 401.385 252.263 401.263 252.439C401.2 252.536 401.146 252.63 401.072 252.726C400.977 252.825 400.878 252.922 400.775 253.015C400.544 253.222 400.266 253.369 399.966 253.446C399.661 253.504 399.348 253.506 399.042 253.453L400.114 252.962C397.296 258.941 396.164 265.576 396.84 272.151C397.032 273.728 397.387 275.492 397.57 277.18C397.777 278.888 397.924 280.608 397.972 282.334C398.019 284.063 397.979 285.794 397.853 287.519C397.723 289.259 397.482 290.945 397.254 292.63C396.829 296.044 396.162 299.423 395.259 302.743C395.009 303.618 394.677 304.468 394.267 305.281L393.602 306.388C393.414 306.719 393.248 307.062 393.105 307.415C392.535 308.861 392.31 310.42 392.448 311.968C392.854 315.082 393.826 318.473 395.969 320.717C397.029 321.846 398.443 322.578 399.978 322.792C401.567 322.983 403.179 322.832 404.706 322.349C407.869 321.307 410.846 319.769 413.527 317.793C416.264 315.831 418.872 313.695 421.333 311.396C426.296 306.808 430.962 301.91 435.305 296.731C437.518 294.15 439.604 291.562 441.788 288.902C442.993 287.622 444.438 286.591 446.041 285.867C446.827 285.498 447.633 285.172 448.455 284.891C449.295 284.684 450.123 284.401 450.976 284.26C451.832 284.144 452.685 283.966 453.545 283.903L456.133 283.79C457.855 283.822 459.572 283.97 461.273 284.234C462.119 284.377 462.977 284.476 463.816 284.656L466.313 285.275C467.975 285.693 469.614 286.196 471.224 286.782C472.872 287.271 474.407 288.029 475.997 288.659C477.597 289.277 479.114 290.057 480.643 290.819L482.938 291.958L483.512 292.242C483.686 292.321 483.836 292.403 484.003 292.471C484.333 292.607 484.677 292.706 485.028 292.766C485.719 292.897 486.431 292.868 487.109 292.68C487.786 292.493 488.412 292.153 488.938 291.686C489.452 291.179 489.864 290.579 490.153 289.917C490.322 289.589 490.451 289.243 490.539 288.885L490.687 288.356L490.748 287.809C490.859 286.301 490.576 284.791 489.926 283.425C488.389 280.572 486.32 278.038 483.831 275.961C478.705 271.664 473.119 267.946 467.176 264.874C461.137 261.583 455.502 257.602 450.382 253.012C447.827 250.713 445.414 248.262 443.157 245.671C440.883 243.094 438.77 240.38 436.831 237.544C434.88 234.716 433.098 231.775 431.496 228.736C430.714 227.207 429.925 225.681 429.239 224.106C428.882 223.326 428.52 222.542 428.191 221.763L427.113 219.533L426.047 217.294L424.758 215.19C424.312 214.501 423.931 213.761 423.433 213.111L421.917 211.175L421.16 210.205L420.297 209.335L418.569 207.595L416.653 206.075C416.024 205.556 415.35 205.095 414.637 204.698C409.049 201.202 402.364 199.9 395.871 201.042L396.063 200.967C392.91 202.632 389.79 204.436 386.737 206.313C383.685 208.199 380.691 210.18 377.814 212.314C374.9 214.389 372.194 216.741 369.734 219.337C368.52 220.631 367.516 222.107 366.757 223.711C366.367 224.49 366.179 225.355 366.211 226.225C366.242 227.096 366.492 227.944 366.938 228.693ZM366.774 228.876C366.25 228.098 365.935 227.2 365.857 226.266C365.779 225.332 365.941 224.394 366.328 223.54C367.044 221.85 368.02 220.282 369.221 218.894C371.613 216.157 374.265 213.658 377.139 211.433C379.989 209.192 382.956 207.112 385.981 205.125C389.014 203.144 392.085 201.251 395.257 199.464L395.265 199.459C395.323 199.427 395.385 199.403 395.45 199.389C398.9 198.659 402.46 198.603 405.932 199.226C409.401 199.821 412.726 201.068 415.73 202.901C416.503 203.319 417.238 203.802 417.927 204.347L420.015 205.951L421.899 207.781L422.837 208.7L423.663 209.716L425.312 211.752C425.852 212.437 426.269 213.204 426.753 213.927L428.151 216.131L429.311 218.457L430.458 220.791C430.791 221.57 431.143 222.322 431.492 223.08C432.164 224.608 432.936 226.087 433.701 227.57C435.268 230.516 437.009 233.366 438.914 236.106C440.807 238.854 442.869 241.482 445.086 243.976C447.286 246.484 449.638 248.855 452.127 251.077C457.083 255.558 462.528 259.467 468.357 262.733C474.427 265.946 480.123 269.82 485.34 274.286C488.041 276.585 490.257 279.398 491.859 282.562C492.637 284.281 492.95 286.174 492.766 288.051L492.668 288.764C492.61 288.996 492.536 289.225 492.469 289.456C492.343 289.917 492.167 290.363 491.945 290.786C491.534 291.67 490.957 292.467 490.244 293.132C489.492 293.786 488.6 294.258 487.636 294.513C486.673 294.767 485.664 294.796 484.687 294.599C484.205 294.507 483.735 294.363 483.284 294.168C483.061 294.074 482.839 293.952 482.631 293.847L482.074 293.553L479.848 292.379C478.364 291.592 476.889 290.785 475.34 290.143C473.799 289.489 472.304 288.701 470.711 288.187C469.154 287.576 467.566 287.044 465.954 286.596L463.535 285.937C462.724 285.743 461.897 285.631 461.078 285.474C459.439 285.182 457.781 285.002 456.118 284.934L453.629 284.989C452.801 285.031 451.986 285.185 451.162 285.277C447.881 285.711 444.825 287.187 442.446 289.487C440.314 292.044 438.128 294.71 435.911 297.252C431.5 302.411 426.832 307.346 421.927 312.038C419.462 314.389 416.847 316.579 414.1 318.594C411.373 320.716 408.325 322.391 405.071 323.554C403.374 324.138 401.571 324.349 399.785 324.175C397.929 323.961 396.201 323.124 394.883 321.801C393.618 320.507 392.639 318.962 392.007 317.267C391.351 315.619 390.898 313.898 390.657 312.141C390.447 310.307 390.668 308.449 391.303 306.716C391.466 306.28 391.659 305.855 391.878 305.444L392.494 304.359C392.822 303.648 393.094 302.912 393.307 302.158C394.151 298.934 394.767 295.655 395.151 292.344C396.102 285.719 395.962 278.983 394.736 272.404C394.359 268.928 394.51 265.416 395.185 261.986C395.833 258.562 396.919 255.235 398.416 252.087L399.488 251.596C399.547 251.553 399.483 251.639 399.546 251.566C399.561 251.548 399.581 251.534 399.602 251.525L399.673 251.407C399.738 251.321 399.789 251.224 399.823 251.121C400.029 250.599 400.166 250.053 400.232 249.496C400.391 248.275 400.453 247.044 400.417 245.814L400.416 245.777C400.416 245.736 400.418 245.695 400.423 245.655C400.711 243.79 400.728 241.894 400.471 240.025C400.387 239.152 400.119 238.307 399.684 237.545C399.25 236.783 398.658 236.122 397.95 235.605C397.626 235.403 397.271 235.259 396.898 235.179C396.461 235.146 396.022 235.16 395.588 235.219C394.731 235.319 393.917 235.65 393.234 236.177C392.914 236.447 392.641 236.768 392.426 237.127C392.311 237.306 392.215 237.498 392.14 237.698L392.02 238C391.947 238.177 391.858 238.347 391.756 238.509C391.524 238.766 391.237 238.966 390.915 239.094C390.594 239.222 390.247 239.274 389.902 239.247C389.366 239.234 388.833 239.17 388.309 239.055C386.351 238.582 384.442 237.923 382.609 237.089C380.782 236.301 378.991 235.451 377.219 234.565C373.666 232.787 370.226 230.916 366.774 228.876V228.876Z" fill="#337B94"/>
<path d="M378.495 268.848C379.241 271.116 379.574 273.499 379.48 275.885C379.465 278.383 378.828 280.838 377.628 283.029C376.964 283.893 376.376 284.812 375.87 285.777C375.476 286.726 375.241 287.733 375.175 288.758C375.081 291.011 375.333 293.266 375.92 295.443C374.394 293.531 373.467 291.211 373.255 288.774C373.137 287.481 373.286 286.177 373.694 284.943C374.164 283.809 374.777 282.74 375.519 281.762C376.539 279.863 377.235 277.807 377.578 275.679C377.993 273.476 378.244 271.199 378.495 268.848Z" fill="#337B94"/>
<path d="M325.102 354.463C324.645 353.748 324.256 352.991 323.941 352.204C323.613 351.407 323.383 350.573 323.256 349.721C323.078 348.772 323.25 347.792 323.739 346.96C324.336 346.131 325.235 345.57 326.243 345.399L326.067 345.448C326.456 345.259 326.781 344.959 326.999 344.585C327.066 344.452 327.091 344.302 327.073 344.155C327.061 344.074 327.039 343.996 327.008 343.921L326.852 343.537C326.567 342.825 326.463 342.054 326.549 341.293C326.634 340.531 326.906 339.803 327.341 339.172C327.789 338.545 328.38 338.035 329.065 337.683C329.658 337.403 330.276 337.179 330.911 337.015C331.237 336.936 331.524 336.741 331.718 336.467C331.753 336.381 331.763 336.286 331.745 336.195C331.723 336.059 331.677 335.928 331.61 335.808C331.542 335.713 331.493 335.605 331.469 335.49L331.463 335.463C331.2 334.274 331.214 333.041 331.503 331.858C331.672 331.219 331.962 330.62 332.359 330.092C332.782 329.559 333.324 329.131 333.94 328.843C334.469 328.607 335.023 328.436 335.592 328.332C336.001 328.246 336.394 328.096 336.756 327.887C337.05 327.731 337.287 327.484 337.431 327.184C337.548 326.892 337.567 326.57 337.484 326.266L337.428 326.061C337.412 326.002 337.409 325.94 337.418 325.88C337.582 324.821 337.912 323.795 338.395 322.839C338.868 321.874 339.547 321.025 340.386 320.353C341.223 319.677 342.234 319.252 343.303 319.127C343.82 319.058 344.342 319.036 344.863 319.061C345.377 319.092 345.88 319.198 346.387 319.265C346.476 319.276 346.556 319.321 346.613 319.389C346.669 319.458 346.698 319.545 346.693 319.634L346.69 319.672C346.6 321.621 346.781 323.573 347.229 325.472C347.652 327.379 348.302 329.228 349.166 330.981C350.001 332.73 351.031 334.379 352.235 335.898C353.422 337.412 354.734 338.823 356.16 340.115C356.286 340.233 356.38 340.38 356.435 340.544C356.738 341.435 356.929 342.36 357.001 343.298C357.101 344.344 356.919 345.397 356.472 346.347C356.318 346.605 356.149 346.855 355.967 347.093C355.746 347.307 355.515 347.519 355.275 347.711C355.015 347.856 354.746 347.993 354.474 348.12C354.21 348.213 353.939 348.285 353.663 348.336C353.15 348.427 352.629 348.462 352.108 348.439C351.629 348.388 351.158 348.316 350.683 348.249L352.154 346.832C352.322 347.792 352.397 348.766 352.378 349.74C352.373 350.773 352.191 351.797 351.841 352.769C351.427 353.934 350.569 354.888 349.453 355.422C348.367 355.848 347.178 355.935 346.041 355.674L347.628 354.406C347.58 355.369 347.378 356.318 347.029 357.216C346.668 358.197 346.048 359.062 345.235 359.719C344.371 360.39 343.296 360.733 342.202 360.688C341.711 360.674 341.222 360.614 340.742 360.509C340.294 360.384 339.861 360.235 339.423 360.094L340.953 359.151C340.785 360.176 340.463 361.17 339.998 362.099C339.521 363.119 338.753 363.974 337.79 364.556C337.281 364.836 336.721 365.009 336.143 365.067C335.566 365.125 334.983 365.065 334.429 364.891C333.931 364.737 333.447 364.544 332.98 364.313L331.725 363.526C331.578 363.434 331.469 363.293 331.416 363.129C331.126 362.313 330.756 361.527 330.31 360.784C329.862 360.01 329.341 359.274 328.811 358.538C328.265 357.808 327.682 357.107 327.064 356.437C326.451 355.773 325.78 355.11 325.102 354.463ZM325.291 354.305C326.062 354.817 326.804 355.372 327.512 355.968C328.233 356.573 328.922 357.214 329.576 357.89C330.234 358.576 330.841 359.309 331.394 360.082C331.977 360.875 332.476 361.728 332.882 362.625L332.573 362.229L333.706 362.801C334.077 362.939 334.457 363.05 334.844 363.134C335.17 363.221 335.511 363.241 335.845 363.192C336.179 363.143 336.5 363.027 336.788 362.85C337.368 362.43 337.814 361.85 338.07 361.181C338.381 360.448 338.586 359.674 338.676 358.883C338.694 358.722 338.745 358.568 338.827 358.429C338.909 358.29 339.02 358.17 339.153 358.078C339.285 357.985 339.435 357.922 339.594 357.892C339.752 357.863 339.916 357.867 340.072 357.906L340.206 357.94L341.227 358.197C341.544 358.245 341.864 358.265 342.184 358.257C342.728 358.271 343.259 358.09 343.681 357.746C344.118 357.357 344.442 356.859 344.621 356.302C344.84 355.677 344.965 355.023 344.992 354.362C344.997 354.188 345.036 354.016 345.108 353.857C345.179 353.698 345.281 353.554 345.408 353.434C345.535 353.315 345.684 353.221 345.847 353.159C346.01 353.097 346.184 353.068 346.358 353.073L346.478 353.081L346.579 353.094C347.175 353.239 347.801 353.215 348.384 353.024C348.626 352.899 348.841 352.728 349.017 352.52C349.192 352.311 349.325 352.07 349.407 351.81C349.664 351.117 349.809 350.387 349.837 349.648C349.877 348.852 349.842 348.055 349.735 347.265C349.709 347.069 349.728 346.87 349.793 346.683C349.857 346.496 349.964 346.327 350.106 346.189C350.248 346.051 350.42 345.948 350.608 345.888C350.797 345.829 350.997 345.814 351.192 345.846L351.207 345.849L352.279 346.029C352.598 346.05 352.919 346.04 353.236 345.999C353.484 345.992 353.727 345.921 353.939 345.792C354.152 345.663 354.327 345.481 354.448 345.264C354.902 343.948 354.909 342.52 354.467 341.2L354.741 341.629C353.286 340.183 351.985 338.592 350.857 336.879C349.737 335.176 348.8 333.36 348.059 331.462C347.321 329.579 346.77 327.628 346.412 325.638C346.027 323.651 345.866 321.628 345.93 319.605L346.233 320.012C345.314 319.822 344.367 319.805 343.442 319.961C342.545 320.104 341.711 320.514 341.051 321.138C340.401 321.767 339.899 322.531 339.579 323.376C339.248 324.218 339.046 325.106 338.981 326.008L338.915 325.623C339.214 326.289 339.26 327.041 339.044 327.739C338.821 328.412 338.387 328.995 337.806 329.402C336.882 329.945 335.899 330.379 334.875 330.696C334.555 330.874 334.277 331.12 334.06 331.415C333.844 331.711 333.694 332.051 333.622 332.41C333.443 333.249 333.438 334.115 333.607 334.956L333.46 334.612C333.705 335.015 333.86 335.468 333.913 335.938C333.973 336.452 333.882 336.973 333.65 337.436C333.201 338.211 332.467 338.778 331.604 339.018C331.058 339.145 330.523 339.316 330.004 339.53C329.589 339.711 329.224 339.991 328.941 340.344C328.671 340.711 328.492 341.137 328.422 341.588C328.351 342.038 328.389 342.499 328.534 342.931L328.684 343.406C328.747 343.621 328.783 343.842 328.791 344.065C328.802 344.528 328.683 344.986 328.446 345.384C328.019 346.053 327.387 346.567 326.644 346.848C326.593 346.871 326.539 346.886 326.484 346.895L326.468 346.897C325.826 346.935 325.223 347.217 324.783 347.685C324.382 348.262 324.187 348.957 324.229 349.659C324.243 350.451 324.352 351.238 324.554 352.003C324.755 352.784 325.002 353.552 325.291 354.305Z" fill="#337B94"/>
<path d="M335.753 336.625C336.517 338.248 337.174 339.92 337.719 341.628C338.005 342.48 338.237 343.347 338.46 344.226C338.576 344.645 338.638 345.179 338.761 345.46C338.9 345.83 339.085 346.181 339.312 346.504C340.308 347.926 341.42 349.264 342.637 350.502L346.31 354.384C344.775 353.445 343.324 352.378 341.971 351.193C340.565 350.02 339.322 348.665 338.275 347.164C338 346.751 337.781 346.304 337.62 345.835C337.491 345.387 337.392 344.93 337.324 344.468C337.173 343.606 336.969 342.745 336.795 341.875C336.415 340.144 336.061 338.395 335.753 336.625Z" fill="#337B94"/>
<path d="M330.185 344.227C330.882 345.595 331.43 347.034 331.819 348.519C331.921 348.89 332.016 349.262 332.094 349.639C332.181 349.951 332.309 350.25 332.476 350.528C332.833 351.148 333.249 351.732 333.72 352.271C334.649 353.41 335.691 354.489 336.717 355.588C337.753 356.68 338.801 357.77 339.814 358.924C338.487 358.159 337.231 357.277 336.061 356.288C334.868 355.311 333.766 354.227 332.769 353.05C332.255 352.436 331.81 351.768 331.442 351.058C331.25 350.668 331.113 350.253 331.035 349.825L330.882 348.714L330.185 344.227Z" fill="#337B94"/>
<path d="M341.933 331.734C343.412 334.377 344.687 337.056 346.096 339.659C346.778 340.97 347.507 342.251 348.283 343.499C349.044 344.771 349.936 345.961 350.944 347.048C349.597 346.307 348.424 345.288 347.502 344.058C346.55 342.868 345.716 341.588 345.011 340.237C344.301 338.9 343.684 337.517 343.163 336.096C342.625 334.681 342.214 333.222 341.933 331.734Z" fill="#337B94"/>
<path d="M458.177 368.051C457.28 372.542 456.243 377 455.167 381.449C454.09 385.898 452.978 390.34 451.768 394.756C450.566 399.173 449.324 403.58 448.041 407.977C447.365 410.179 446.803 412.352 446.025 414.578C445.28 416.808 444.287 418.948 443.063 420.956C440.636 425.043 437.239 428.469 433.172 430.933C429.109 433.343 424.612 434.934 419.937 435.618C415.313 436.325 410.615 436.401 405.971 435.846C404.813 435.717 403.658 435.556 402.508 435.353C401.335 435.112 400.175 434.813 399.033 434.455L395.766 433.226L392.582 431.873C375.84 424.251 359.93 415.196 343.9 406.348C339.903 404.116 335.947 401.813 331.997 399.491C331.014 398.899 330.019 398.337 329.052 397.708C328.113 397.08 327.144 396.501 326.146 395.971C324.102 395.033 321.93 394.404 319.7 394.106C315.172 393.604 310.609 393.482 306.06 393.739C305.482 393.74 304.901 393.737 304.309 393.697C303.674 393.683 303.045 393.567 302.447 393.355C302.252 393.279 302.072 393.167 301.917 393.027L301.59 392.722L300.967 392.135L299.722 390.961L294.744 386.266L294.702 386.222C294.325 385.797 293.985 385.342 293.685 384.859C293.381 384.361 293.138 383.827 292.963 383.269C292.79 382.693 292.707 382.094 292.717 381.492C292.723 380.851 292.866 380.218 293.137 379.637L293.247 380.5C292.701 379.891 292.264 379.192 291.958 378.434C291.659 377.725 291.422 376.992 291.249 376.243C290.903 374.776 290.693 373.28 290.623 371.775L290.765 372.224C290.065 371.131 289.637 369.887 289.515 368.594C289.45 367.976 289.429 367.354 289.453 366.733C289.474 366.105 289.544 365.479 289.664 364.861L290.543 365.989C288.649 365.914 286.79 365.464 285.072 364.666C284.228 364.284 283.41 363.844 282.626 363.351C281.831 362.854 281.073 362.3 280.36 361.692C280.326 361.663 280.295 361.63 280.267 361.595L280.254 361.579C279.534 360.753 278.998 359.783 278.681 358.734C278.507 358.099 278.507 357.428 278.682 356.792C278.879 356.135 279.27 355.552 279.803 355.12C280.307 354.727 280.896 354.459 281.524 354.337C282.151 354.215 282.798 354.243 283.412 354.418L286.163 355.089L297.156 357.807L295.776 359.277C295.291 357.761 295.085 356.17 295.166 354.581C295.228 353.764 295.38 352.956 295.621 352.172C295.867 351.271 296.352 350.453 297.025 349.805C297.812 349.113 298.841 348.762 299.886 348.828C300.752 348.894 301.599 349.113 302.389 349.474C303.783 350.124 305.102 350.926 306.32 351.866C307.513 352.754 308.643 353.702 309.742 354.606L310.551 355.248C310.783 355.413 311.027 355.56 311.281 355.686C311.853 355.959 312.451 356.171 313.067 356.32C315.767 356.913 318.531 357.164 321.294 357.068L321.35 357.067C321.428 357.067 321.505 357.075 321.581 357.091C324.508 357.799 327.254 359.11 329.646 360.938C331.963 362.667 334.126 364.594 336.108 366.699C338.077 368.776 339.926 370.962 341.648 373.248C342.362 374.228 343.307 375.016 344.399 375.542L348.207 377.278C353.324 379.575 358.475 381.787 363.659 383.915C368.749 386.12 374.025 387.868 379.425 389.136L379.492 389.149L379.547 389.163C388.114 391.622 396.671 394.115 405.218 396.641L404.28 397.21L408.407 378.992L412.62 360.793C412.627 360.761 412.646 360.734 412.674 360.717C412.701 360.699 412.734 360.693 412.765 360.7C412.797 360.707 412.824 360.725 412.842 360.752C412.86 360.779 412.867 360.812 412.861 360.843L409.349 379.191L405.752 397.521C405.714 397.714 405.601 397.884 405.438 397.993C405.274 398.103 405.074 398.144 404.881 398.106L404.836 398.095L404.813 398.089C396.194 395.816 387.586 393.505 378.989 391.155L379.11 391.181C376.282 390.661 373.498 389.926 370.782 388.983C368.091 388.083 365.436 387.105 362.798 386.094C357.523 384.067 352.335 381.854 347.186 379.554L343.312 377.803C341.857 377.106 340.594 376.064 339.633 374.769C337.964 372.567 336.17 370.462 334.262 368.463C332.381 366.478 330.33 364.66 328.133 363.031C326.041 361.435 323.643 360.286 321.088 359.655L321.375 359.678C318.362 359.768 315.35 359.465 312.416 358.777C311.63 358.577 310.868 358.295 310.142 357.936C309.753 357.737 309.381 357.506 309.029 357.247C308.715 357.006 308.434 356.771 308.15 356.536C307.029 355.598 305.955 354.681 304.841 353.836C303.781 353 302.633 352.282 301.418 351.695C300.896 351.446 300.336 351.289 299.761 351.229C299.558 351.208 299.352 351.227 299.157 351.287C298.962 351.346 298.78 351.444 298.624 351.575C297.92 352.478 297.529 353.584 297.508 354.728C297.433 356.027 297.59 357.329 297.972 358.573L297.977 358.588C298.038 358.783 298.046 358.992 297.999 359.191C297.952 359.39 297.853 359.574 297.712 359.722C297.571 359.87 297.392 359.978 297.195 360.035C296.998 360.091 296.79 360.094 296.592 360.043L285.625 357.218L282.886 356.503C282.594 356.403 282.282 356.373 281.976 356.417C281.671 356.461 281.38 356.577 281.129 356.756C280.908 356.926 280.747 357.16 280.667 357.427C280.587 357.693 280.592 357.978 280.683 358.241C280.918 359.003 281.306 359.708 281.824 360.314L281.718 360.202C282.34 360.744 282.999 361.241 283.692 361.689C284.391 362.145 285.122 362.552 285.877 362.909C287.351 363.626 288.952 364.045 290.589 364.141L290.596 364.141C290.843 364.152 291.076 364.262 291.244 364.445C291.411 364.628 291.498 364.87 291.487 365.117C291.484 365.168 291.478 365.219 291.468 365.268C291.364 365.782 291.295 366.302 291.263 366.824C291.23 367.354 291.235 367.886 291.277 368.415C291.344 369.43 291.649 370.414 292.169 371.288L292.178 371.303C292.26 371.434 292.306 371.584 292.311 371.738C292.344 373.133 292.505 374.522 292.792 375.888C293.006 377.192 293.53 378.426 294.322 379.485L294.327 379.491C294.427 379.607 294.491 379.751 294.51 379.904C294.528 380.056 294.501 380.211 294.432 380.349C294.264 380.726 294.171 381.132 294.157 381.544C294.139 381.994 294.191 382.445 294.31 382.879C294.44 383.328 294.625 383.76 294.859 384.165C295.105 384.582 295.386 384.976 295.699 385.345L295.657 385.301L300.563 390.127L301.789 391.333L302.402 391.936C302.499 392.029 302.617 392.153 302.697 392.221C302.756 392.27 302.823 392.31 302.895 392.337C303.928 392.614 304.998 392.736 306.067 392.698C310.663 392.547 315.263 392.733 319.831 393.257C322.142 393.585 324.391 394.256 326.503 395.248C327.523 395.798 328.514 396.4 329.472 397.051C330.418 397.677 331.411 398.248 332.383 398.844C336.308 401.181 340.31 403.396 344.317 405.598C352.322 410.02 360.421 414.266 368.614 418.336C376.792 422.411 385.012 426.451 393.389 429.997L396.531 431.304L399.697 432.467L401.264 432.894C401.788 433.055 402.325 433.178 402.868 433.261C403.971 433.446 405.085 433.593 406.202 433.707C410.663 434.179 415.164 434.105 419.607 433.487C424.021 432.889 428.274 431.434 432.128 429.203C435.948 426.941 439.151 423.771 441.452 419.975C443.867 416.232 445.062 411.867 446.492 407.504C447.875 403.15 449.221 398.783 450.529 394.404C453.133 385.644 455.661 376.855 457.937 367.998C457.94 367.982 457.947 367.967 457.957 367.954C457.967 367.941 457.979 367.93 457.992 367.922C458.006 367.914 458.022 367.908 458.038 367.906C458.053 367.903 458.07 367.904 458.085 367.908C458.116 367.916 458.143 367.935 458.159 367.961C458.176 367.988 458.183 368.02 458.177 368.051Z" fill="#337B94"/>
<path d="M412.061 399.477L404.839 397.953C404.678 397.92 404.538 397.824 404.449 397.686C404.359 397.549 404.328 397.382 404.362 397.222C404.396 397.062 404.492 396.922 404.629 396.832C404.766 396.743 404.933 396.712 405.094 396.746C405.127 396.753 405.16 396.763 405.192 396.775L412.061 399.477Z" fill="#337B94"/>
<path d="M296.874 358.924C299.113 358.99 301.34 359.261 303.53 359.733C304.616 359.964 305.7 360.2 306.773 360.486C307.855 360.746 308.901 361.112 310.006 361.332C308.887 361.553 307.739 361.586 306.609 361.432C305.493 361.326 304.384 361.161 303.286 360.937C301.078 360.515 298.927 359.839 296.874 358.924Z" fill="#337B94"/>
<path d="M290.565 365.064C292.29 365.197 293.966 365.695 295.483 366.525C296.256 366.93 296.973 367.432 297.619 368.018C298.31 368.588 298.813 369.352 299.062 370.212C298.445 369.662 297.767 369.183 297.042 368.785C296.339 368.384 295.634 367.981 294.903 367.608C293.408 366.847 291.959 365.998 290.565 365.064Z" fill="#337B94"/>
<path d="M291.467 371.756C292.705 372.183 293.858 372.826 294.872 373.654C295.918 374.443 296.813 375.413 297.518 376.517C296.278 376.092 295.125 375.45 294.112 374.62C293.068 373.828 292.173 372.859 291.467 371.756Z" fill="#337B94"/>
<path d="M293.784 379.992C294.879 380.284 295.903 380.796 296.794 381.497C297.713 382.16 298.485 383.006 299.062 383.982C297.966 383.692 296.942 383.18 296.052 382.477C295.135 381.811 294.364 380.966 293.784 379.992Z" fill="#337B94"/>
<path d="M304.083 389C303.701 388.814 303.376 388.53 303.14 388.177C302.904 387.824 302.766 387.414 302.74 386.991C302.652 386.147 302.753 385.295 303.036 384.496L303.021 384.544C303.108 384.135 303.153 383.718 303.157 383.299C303.195 382.991 303.138 382.678 302.992 382.404C302.647 381.99 302.391 381.509 302.24 380.992C302.074 380.502 301.988 379.988 301.987 379.471C301.976 378.932 302.089 378.398 302.317 377.909C302.565 377.538 302.792 377.153 302.997 376.756C303.282 375.914 303.378 375.02 303.281 374.137C303.733 375.006 303.892 375.998 303.736 376.965C303.612 377.423 303.443 377.867 303.231 378.291C303.119 378.659 303.081 379.045 303.117 379.428C303.18 380.215 303.457 380.971 303.918 381.613C304.267 382.121 304.415 382.741 304.333 383.353C304.286 383.853 304.187 384.347 304.038 384.827L304.032 384.849L304.022 384.875C303.881 385.216 303.734 385.553 303.628 385.904C303.524 386.249 303.455 386.604 303.421 386.963C303.372 387.331 303.406 387.704 303.52 388.057C303.635 388.409 303.827 388.732 304.083 389Z" fill="#337B94"/>
<path d="M292.98 357.942C291.204 356.441 289.486 354.886 287.777 353.321C286.08 351.746 284.381 350.172 282.726 348.556C279.385 345.353 276.129 342.07 272.912 338.749C272.802 338.635 272.715 338.501 272.657 338.354C272.599 338.207 272.57 338.05 272.572 337.892C272.575 337.734 272.609 337.578 272.672 337.432C272.734 337.287 272.825 337.156 272.939 337.046L272.999 336.991L273.019 336.974C274.575 335.666 276.159 334.392 277.745 333.12L277.757 333.11C277.995 332.92 278.296 332.828 278.6 332.851C278.904 332.875 279.187 333.013 279.393 333.237C282.377 336.509 285.284 339.85 288.147 343.231C289.581 344.92 290.993 346.629 292.382 348.358C293.774 350.086 295.148 351.829 296.474 353.616C294.805 352.143 293.186 350.625 291.582 349.092C289.982 347.556 288.399 346.004 286.834 344.436C283.708 341.295 280.626 338.115 277.62 334.864L279.269 334.982C277.707 336.284 276.144 337.583 274.553 338.848L274.661 337.074C277.841 340.43 280.983 343.823 284.04 347.298C285.585 349.019 287.084 350.785 288.586 352.547C290.076 354.321 291.557 356.104 292.98 357.942Z" fill="#337B94"/>
<path d="M284.772 327.187C283.671 324.762 282.783 322.246 282.118 319.668C281.4 317.103 280.91 314.481 280.652 311.83C281.756 314.254 282.644 316.77 283.306 319.349C284.021 321.914 284.512 324.537 284.772 327.187Z" fill="#337B94"/>
<path d="M296.016 332.249C296.93 330.723 298.039 329.322 299.314 328.082C300.553 326.805 301.954 325.697 303.483 324.785C302.571 326.313 301.462 327.714 300.184 328.952C298.944 330.227 297.542 331.335 296.016 332.249Z" fill="#337B94"/>
<path d="M305.027 343.83C306.621 343.397 308.268 343.191 309.92 343.215C311.571 343.188 313.218 343.395 314.812 343.83C313.218 344.265 311.571 344.472 309.92 344.445C308.268 344.469 306.621 344.262 305.027 343.83Z" fill="#337B94"/>
<path d="M219.715 436.401C219.849 435.6 220.052 434.813 220.322 434.048C220.467 433.656 220.652 433.28 220.875 432.926C221.11 432.507 221.492 432.191 221.948 432.04C222.205 431.995 222.47 432.018 222.715 432.106C222.961 432.194 223.179 432.345 223.348 432.544C223.657 432.857 223.925 433.208 224.147 433.588C224.565 434.309 224.924 435.062 225.222 435.841C226.348 438.911 227.159 442.087 227.644 445.321C228.408 451.783 228.442 458.31 227.745 464.78C227.406 468.005 226.962 471.222 226.299 474.416C225.953 476.01 225.565 477.599 225.067 479.177C224.613 480.844 223.885 482.423 222.913 483.851C222.58 484.296 222.15 484.66 221.656 484.914C221.321 485.067 220.952 485.127 220.587 485.09C220.242 485.043 219.914 484.915 219.628 484.716C218.885 484.095 218.326 483.283 218.012 482.368C217.428 480.819 216.988 479.221 216.697 477.592C216.142 474.41 215.774 471.198 215.596 467.972C216.316 471.11 216.938 474.264 217.87 477.31C218.277 478.817 218.816 480.285 219.479 481.698C219.734 482.291 220.121 482.817 220.611 483.237C220.799 483.316 220.746 483.294 220.863 483.245C221.063 483.096 221.235 482.914 221.372 482.705C222.104 481.408 222.652 480.015 223 478.566C223.414 477.066 223.734 475.519 224.013 473.965C224.588 470.857 225.004 467.703 225.298 464.539C225.631 461.379 225.826 458.202 225.919 455.028C226.036 451.864 225.978 448.695 225.744 445.538C225.634 443.962 225.366 442.437 225.098 440.855C224.824 439.29 224.503 437.734 224.085 436.22C223.892 435.469 223.641 434.735 223.332 434.023C223.037 433.372 222.564 432.606 222.073 432.677C221.519 432.762 221.012 433.543 220.658 434.2C220.281 434.905 219.966 435.641 219.715 436.401Z" fill="#337B94"/>
<path d="M451.948 392.131L458.815 397.34L462.363 399.819C463.551 400.635 464.691 401.516 465.933 402.249C468.383 403.762 470.758 405.385 473.303 406.723C474.568 407.401 475.782 408.173 477.071 408.803L480.925 410.711C486.106 413.161 491.458 415.23 496.94 416.902C502.42 418.629 508.143 419.462 513.889 419.37L513.54 419.757C513.572 416.409 513.554 413.062 513.509 409.714C513.479 406.366 513.36 403.019 513.284 399.671L513 389.628L512.813 379.585L514.645 380.442C512.506 382.057 510.182 383.411 507.723 384.478L505.908 385.268L504.052 385.948C502.825 386.439 501.544 386.745 500.285 387.13C495.202 388.461 489.966 389.118 484.711 389.084L480.79 388.995C479.487 388.923 478.192 388.737 476.894 388.613C474.288 388.422 471.747 387.818 469.184 387.392C466.637 386.884 464.139 386.156 461.634 385.501L454.287 382.994L455.037 382.597C454.048 385.704 453.022 388.856 451.948 392.131ZM451.712 392.2C452.401 388.994 453.139 385.665 453.914 382.291L454.044 381.726L454.665 381.894L462.064 383.899L465.812 384.661C467.062 384.897 468.289 385.259 469.556 385.392C472.078 385.708 474.577 386.202 477.114 386.285C478.378 386.363 479.64 386.472 480.902 386.524L484.691 386.541C489.726 386.468 494.738 385.831 499.631 384.643C500.836 384.301 502.07 384.039 503.242 383.596L505.021 382.99L506.756 382.279C509.038 381.347 511.205 380.156 513.214 378.729L515.088 377.34L515.046 379.585L514.859 389.628L514.575 399.671C514.5 403.019 514.38 406.366 514.35 409.714C514.306 413.062 514.287 416.409 514.319 419.757L514.322 420.119L513.971 420.144C511.042 420.311 508.105 420.234 505.19 419.915L503.008 419.68L500.84 419.341C499.385 419.15 497.966 418.795 496.529 418.503C490.806 417.208 485.252 415.256 479.978 412.686L476.073 410.676C474.766 410.016 473.542 409.209 472.282 408.467C469.74 407.018 467.371 405.3 464.983 403.625C463.768 402.816 462.649 401.878 461.513 400.964L458.121 398.211C455.905 396.216 453.739 394.146 451.712 392.2Z" fill="#337B94"/>
<path d="M491.904 287.878C494.44 289.612 496.811 291.576 498.986 293.745C501.181 295.894 503.259 298.159 505.21 300.531C509.088 305.302 512.575 310.379 515.636 315.711C521.725 326.396 526.476 337.79 529.781 349.636C532.987 361.459 535.286 373.509 536.658 385.681C538.175 397.81 539.089 409.994 539.401 422.234C539.76 434.465 539.493 446.707 538.603 458.911C538.522 460.466 538.381 461.908 538.444 463.368C538.48 464.828 538.634 466.283 538.902 467.718C539.465 470.582 540.488 473.335 541.931 475.871C543.392 478.383 545.261 480.634 547.461 482.532C548.017 482.996 548.593 483.435 549.175 483.864L550.081 484.463L550.535 484.765C550.668 484.845 550.797 484.933 550.919 485.029C551.073 485.212 550.899 484.898 551.309 485.503C552.372 486.044 549.924 488.038 550.191 487.442C550.076 487.449 549.961 487.444 549.848 487.426L549.698 487.4L545.219 486.157C539.414 484.594 533.447 483.714 527.439 483.535C521.435 483.331 515.437 484.061 509.658 485.698C506.776 486.514 504.021 487.686 501.088 488.742C499.657 489.309 498.144 489.675 496.678 490.149C495.189 490.555 493.677 490.901 492.16 491.196C489.105 491.807 485.969 491.899 482.883 491.471C482.112 491.349 481.351 491.175 480.603 490.949C479.859 490.708 479.138 490.4 478.448 490.032C477.037 489.329 475.864 488.227 475.074 486.863C475.059 486.835 475.056 486.803 475.064 486.772C475.073 486.742 475.094 486.716 475.121 486.7C475.149 486.684 475.181 486.68 475.212 486.688C475.243 486.696 475.269 486.715 475.286 486.742L475.297 486.759C476.14 487.993 477.319 488.96 478.695 489.546C479.369 489.861 480.07 490.115 480.789 490.307C481.515 490.483 482.251 490.609 482.993 490.685C485.986 490.919 488.997 490.68 491.915 489.976C493.378 489.63 494.835 489.235 496.27 488.782C497.687 488.258 499.139 487.85 500.524 487.235C503.293 486.116 506.114 484.762 509.098 483.858C515.047 482.015 521.246 481.106 527.474 481.165C533.687 481.226 539.869 482.049 545.88 483.618C546.632 483.807 547.379 484.012 548.12 484.225C548.832 484.425 549.668 484.687 550.224 484.823L550.215 484.822C550.149 484.815 550.082 484.814 550.015 484.818C550.327 484.234 547.945 486.188 548.96 486.686C549.347 487.248 549.128 486.911 549.249 487.06C549.301 487.101 549.213 487.038 549.158 487.005L548.659 486.674L547.657 486.007C547.012 485.533 546.374 485.044 545.76 484.529C543.322 482.439 541.271 479.936 539.7 477.136C538.155 474.337 537.076 471.306 536.503 468.161C536.231 466.593 536.085 465.005 536.067 463.413C536.021 461.822 536.198 460.218 536.295 458.73C537.338 446.599 537.924 434.44 538.054 422.251C538.199 410.059 537.468 397.872 535.867 385.784C535.419 382.771 534.915 379.766 534.428 376.76C533.806 373.778 533.237 370.787 532.573 367.818C531.181 361.895 529.684 355.997 527.817 350.218C526.065 344.404 523.987 338.701 521.751 333.068C519.517 327.431 516.925 321.942 513.991 316.636C511.097 311.307 507.824 306.192 504.197 301.331C500.604 296.43 496.43 291.981 491.767 288.082L491.759 288.076C491.735 288.057 491.718 288.028 491.714 287.997C491.71 287.966 491.718 287.934 491.736 287.908C491.755 287.883 491.783 287.865 491.814 287.859C491.845 287.854 491.877 287.86 491.904 287.878L491.904 287.878Z" fill="#337B94"/>
<path d="M224.956 436.988C220.985 437.2 217.004 437.133 213.042 436.789C209.068 436.476 205.119 435.915 201.215 435.109C197.294 434.323 193.437 433.246 189.676 431.888C185.91 430.493 182.277 428.761 178.822 426.714C177.971 426.182 177.063 425.724 176.257 425.13L173.819 423.369C172.194 422.176 170.562 421.089 168.934 419.944L159.181 413.131L139.749 399.411L139.925 399.514C139.442 399.302 138.94 399.135 138.425 399.017C138.007 398.905 137.571 398.883 137.144 398.952C136.872 399.057 136.909 399.01 136.821 399.319C136.756 399.42 136.818 399.7 136.794 399.885L136.917 400.617L136.918 400.626C136.971 400.943 136.909 401.269 136.743 401.544C136.628 401.76 136.541 401.99 136.482 402.227C136.412 402.506 136.375 402.792 136.37 403.079C136.373 403.684 136.491 404.283 136.719 404.843L136.315 406.238C136.464 406.116 136.39 406.174 136.413 406.154L136.396 406.188C136.373 406.238 136.357 406.291 136.347 406.346C136.315 406.526 136.313 406.711 136.341 406.892C136.417 407.389 136.567 407.871 136.786 408.323L136.817 409.24C136.858 409.112 136.805 409.326 136.818 409.414C136.819 409.547 136.83 409.679 136.852 409.809C136.902 410.113 136.986 410.41 137.103 410.695C137.362 411.333 137.698 411.936 138.104 412.491L138.178 413.777C138.204 413.734 138.225 413.688 138.241 413.64C138.244 413.626 138.245 413.628 138.245 413.628C138.245 413.642 138.244 413.656 138.241 413.67C138.242 413.737 138.247 413.803 138.256 413.87C138.293 414.064 138.349 414.253 138.424 414.436C138.616 414.882 138.853 415.308 139.131 415.705C139.429 416.138 139.753 416.552 140.101 416.946C140.45 417.346 140.893 417.771 141.284 418.182L146.123 423.155L155.803 433.101L175.154 453.007L175.184 453.038C175.206 453.061 175.226 453.084 175.245 453.109C176.888 455.319 178.427 457.558 179.893 459.876C181.394 462.192 182.707 464.625 183.819 467.151C184.354 468.278 185.084 469.302 185.976 470.175C188.838 472.87 192.509 474.546 196.421 474.944C199.019 475.179 201.626 474.615 203.894 473.327L204.739 472.835L205.499 472.217C206.002 471.813 206.518 471.389 207.05 470.926C207.561 470.459 208.107 470.034 208.685 469.653C209.241 469.243 209.827 468.877 210.439 468.557C215.312 465.96 220.946 465.171 226.345 466.33C220.989 465.469 215.499 466.472 210.794 469.17C210.216 469.499 209.665 469.873 209.145 470.288C208.605 470.673 208.096 471.101 207.624 471.567C207.149 472.011 206.637 472.468 206.101 472.934L205.309 473.626L204.419 474.193C202.003 475.702 199.174 476.413 196.332 476.225C193.512 476.03 190.775 475.194 188.328 473.78C185.749 472.453 183.642 470.364 182.293 467.797C181.163 465.388 179.842 463.074 178.344 460.875C176.862 458.646 175.278 456.453 173.64 454.352L173.73 454.453L154.173 434.683L144.399 424.79L139.512 419.844C139.102 419.419 138.702 419.048 138.285 418.579C137.862 418.109 137.468 417.613 137.106 417.095C136.717 416.546 136.393 415.954 136.141 415.33C136 414.975 135.898 414.606 135.837 414.229C135.806 414.009 135.794 413.786 135.801 413.564C135.808 413.433 135.823 413.303 135.847 413.174C135.86 413.099 135.878 413.024 135.9 412.951C135.933 412.833 135.978 412.719 136.036 412.611L136.11 413.896C135.592 413.173 135.166 412.388 134.841 411.56C134.665 411.112 134.54 410.647 134.467 410.171C134.427 409.913 134.408 409.651 134.41 409.39C134.407 409.053 134.459 408.717 134.566 408.397L134.596 409.313C134.278 408.633 134.065 407.908 133.967 407.163C133.911 406.723 133.928 406.277 134.018 405.843C134.072 405.591 134.157 405.347 134.272 405.117C134.337 404.988 134.412 404.865 134.497 404.749C134.614 404.586 134.754 404.442 134.913 404.321L134.51 405.715C134.172 404.862 134.003 403.951 134.013 403.034C134.024 402.562 134.089 402.093 134.209 401.636C134.333 401.135 134.536 400.658 134.811 400.222L134.637 401.148C134.577 400.79 134.513 400.439 134.468 400.073C134.436 399.654 134.463 399.233 134.548 398.821C134.639 398.306 134.882 397.83 135.245 397.453C135.608 397.077 136.076 396.817 136.587 396.707C137.364 396.552 138.166 396.575 138.933 396.775C139.608 396.934 140.267 397.159 140.898 397.447C140.954 397.472 141.007 397.502 141.057 397.537L141.075 397.55L160.436 411.441L170.078 418.434C171.67 419.608 173.315 420.761 174.861 421.953L177.208 423.732C177.986 424.334 178.852 424.791 179.669 425.329C182.999 427.406 186.509 429.178 190.157 430.624C197.54 433.446 205.245 435.336 213.096 436.25C217.03 436.738 220.991 436.985 224.956 436.988Z" fill="#337B94"/>
<path d="M135.776 400.883C136.208 400.525 136.764 400.352 137.324 400.401C137.881 400.427 138.425 400.582 138.912 400.854C139.39 401.109 139.825 401.438 140.2 401.829C140.375 402.032 140.558 402.225 140.721 402.433C140.862 402.663 141.02 402.874 141.141 403.113C140.231 402.551 139.449 401.925 138.579 401.486C138.16 401.251 137.713 401.069 137.25 400.943C136.77 400.812 136.266 400.791 135.776 400.883Z" fill="#337B94"/>
<path d="M135.614 405.279C135.656 404.991 135.965 404.81 136.238 404.728C136.518 404.674 136.806 404.665 137.089 404.703C137.631 404.779 138.156 404.947 138.642 405.199C139.597 405.674 140.447 406.335 141.141 407.145C140.648 406.964 140.166 406.754 139.697 406.517L138.327 405.841C137.888 405.613 137.435 405.411 136.971 405.237C136.749 405.149 136.515 405.094 136.277 405.074C136.158 405.053 136.036 405.06 135.92 405.095C135.805 405.131 135.7 405.194 135.614 405.279Z" fill="#337B94"/>
<path d="M135.691 408.817C135.95 408.528 136.288 408.322 136.664 408.227C137.039 408.131 137.435 408.149 137.8 408.279C138.533 408.461 139.225 408.779 139.84 409.216C140.45 409.628 141.014 410.105 141.52 410.639C142.034 411.159 142.496 411.726 142.901 412.335C142.281 411.935 141.735 411.471 141.156 411.051C140.585 410.625 140.026 410.193 139.442 409.81C138.881 409.411 138.278 409.073 137.644 408.804C137.336 408.67 137.007 408.593 136.671 408.577C136.326 408.535 135.978 408.62 135.691 408.817Z" fill="#337B94"/>
<path d="M137.107 413.193C137.111 413.025 137.156 412.86 137.239 412.713C137.322 412.566 137.439 412.442 137.582 412.351C137.893 412.183 138.253 412.126 138.601 412.189C139.241 412.304 139.846 412.566 140.368 412.954C141.382 413.672 142.243 414.584 142.901 415.638C142.358 415.323 141.897 414.932 141.403 414.588C140.918 414.235 140.451 413.867 139.966 413.545C139.512 413.206 139.015 412.93 138.487 412.725C138.242 412.605 137.959 412.586 137.701 412.674C137.442 412.762 137.229 412.948 137.107 413.193Z" fill="#337B94"/>
<path d="M215.022 466.945C211.77 467.652 208.829 469.379 206.627 471.874C198.388 479.981 185.514 473.29 183.067 467.499C180.621 461.708 174.442 453.729 174.442 453.729C172.967 452.277 170.987 450.291 168.725 448.006C177.642 440.481 174.629 422.939 174.629 422.939C168.507 411.109 154.009 408.157 154.009 408.157C155.848 422.896 148.337 427.189 148.336 427.189C143.154 421.866 139.36 417.954 139.36 417.954C136.335 414.608 137.107 413.192 137.107 413.192C135.112 410.361 135.691 408.817 135.691 408.817C134.468 406.115 135.614 405.278 135.614 405.278C135.294 404.584 135.142 403.824 135.17 403.06C135.198 402.296 135.406 401.55 135.777 400.881L135.691 400.023L125.072 410.032C123.709 411.316 122.725 412.949 122.225 414.754C121.726 416.558 121.731 418.465 122.24 420.266C124.959 429.89 132.428 447.772 151.14 452.957C151.14 452.957 175.858 465.568 157.062 473.547L182.81 499.285C182.81 499.285 183.883 493.923 188.711 492.731C193.185 491.555 197.154 488.954 200.017 485.321C201.033 484.065 202.135 482.599 203.316 480.889C205.109 478.263 207.228 475.875 209.622 473.784C211.741 471.954 214.101 470.362 215.596 470.716L215.022 466.945Z" fill="#337B94"/>
<path d="M209.771 436.145C209.771 436.145 209.654 436.651 209.483 437.54" stroke="#337B94" stroke-width="1.68761" stroke-linecap="round" stroke-linejoin="round"/>
<path d="M209.024 440.225C208.039 446.672 206.977 459.121 212.052 465.34" stroke="#337B94" stroke-width="1.68761" stroke-linecap="round" stroke-linejoin="round" stroke-dasharray="2.15 2.15"/>
<path d="M212.985 466.344C213.333 466.672 213.704 466.973 214.095 467.246" stroke="#337B94" stroke-width="1.68761" stroke-linecap="round" stroke-linejoin="round"/>
<path d="M212.678 456.646C213.379 457.388 214.209 457.998 215.126 458.447C215.563 458.626 216.037 458.699 216.507 458.659C217.02 458.598 217.522 458.465 217.999 458.266C217.642 458.711 217.158 459.036 216.612 459.199C216.035 459.371 215.416 459.34 214.859 459.11C214.327 458.882 213.856 458.532 213.486 458.087C213.117 457.67 212.841 457.179 212.678 456.646Z" fill="#337B94"/>
<path d="M372.573 244.87C372.984 244.113 373.517 243.428 374.151 242.845C374.776 242.251 375.47 241.735 376.218 241.308C376.983 240.886 377.806 240.578 378.66 240.393C379.522 240.215 380.413 240.25 381.258 240.495C380.472 240.727 379.699 241 378.941 241.311C378.218 241.647 377.51 241.99 376.817 242.382C375.419 243.155 374.083 244.039 372.573 244.87Z" fill="#337B94"/>
<path d="M377.723 251.262C378.279 251.243 378.806 251.009 379.193 250.608C379.579 250.208 379.795 249.674 379.795 249.117C379.795 248.561 379.579 248.027 379.193 247.626C378.806 247.226 378.279 246.992 377.723 246.973C377.167 246.992 376.64 247.226 376.253 247.626C375.866 248.027 375.65 248.561 375.65 249.117C375.65 249.674 375.866 250.208 376.253 250.608C376.64 251.009 377.167 251.243 377.723 251.262Z" fill="#337B94"/>
<path d="M395.66 247.316C396.135 247.687 396.674 247.968 397.25 248.143C397.467 248.127 397.449 248.139 397.546 247.965C397.607 247.88 397.655 247.785 397.689 247.685C397.746 247.565 397.785 247.437 397.806 247.305C397.897 247.023 397.965 246.734 398.009 246.44C398.1 246.147 398.116 245.827 398.196 245.515C398.314 244.859 398.485 244.213 398.707 243.584C398.96 244.219 399.111 244.891 399.154 245.573C399.224 246.272 399.167 246.977 398.985 247.655C398.938 247.843 398.868 248.025 398.776 248.195C398.635 248.514 398.41 248.788 398.123 248.987C397.994 249.051 397.861 249.105 397.723 249.149C397.465 249.201 397.196 249.168 396.958 249.054C396.599 248.885 396.296 248.615 396.088 248.277C395.89 247.984 395.745 247.659 395.66 247.316Z" fill="#337B94"/>
<path d="M393.686 241.781C393.369 241.173 393.2 240.499 393.192 239.814C393.141 239.045 393.379 238.284 393.86 237.681C394.176 237.353 394.592 237.139 395.043 237.074C395.443 237.038 395.846 237.102 396.216 237.259C396.537 237.406 396.84 237.59 397.117 237.808C397.368 238.04 397.598 238.293 397.806 238.564C397.48 238.512 397.158 238.439 396.842 238.345C396.536 238.289 396.238 238.222 395.965 238.185C395.756 238.134 395.537 238.136 395.328 238.192C395.12 238.248 394.929 238.355 394.773 238.505C394.46 238.923 394.244 239.407 394.143 239.92L393.686 241.781Z" fill="#337B94"/>
<path d="M374.204 260.698C374.787 260.326 375.409 260.019 376.059 259.781C376.335 259.677 376.589 259.569 376.853 259.452C377.161 259.296 377.452 259.11 377.723 258.896C377.789 259.106 377.805 259.328 377.769 259.545C377.734 259.761 377.648 259.967 377.518 260.144C377.265 260.494 376.917 260.764 376.515 260.922C376.141 261.069 375.738 261.128 375.337 261.096C374.929 261.075 374.535 260.937 374.204 260.698Z" fill="#337B94"/>
<path d="M378.701 264.559C380.741 263.39 382.889 262.42 385.116 261.664C385.227 261.623 385.349 261.616 385.465 261.643C385.58 261.67 385.686 261.731 385.768 261.817C385.849 261.904 385.904 262.012 385.925 262.129C385.946 262.247 385.932 262.367 385.885 262.477C385.413 263.611 384.833 264.699 384.154 265.723C383.81 266.247 383.414 266.733 382.971 267.176C382.739 267.405 382.474 267.599 382.184 267.75C382.03 267.828 381.86 267.87 381.687 267.873C381.604 267.867 381.523 267.843 381.45 267.804C381.376 267.765 381.311 267.712 381.258 267.647C381.383 267.706 381.525 267.72 381.658 267.686C381.792 267.653 381.91 267.574 381.993 267.463C382.189 267.26 382.359 267.033 382.498 266.788C382.797 266.287 383.07 265.771 383.314 265.241C383.81 264.177 384.297 263.086 384.752 262.008L385.521 262.821C383.309 263.618 381.025 264.2 378.701 264.559Z" fill="#337B94"/>
<path d="M484.493 489.862C484.971 489.845 485.425 489.644 485.757 489.299C486.09 488.955 486.276 488.495 486.276 488.017C486.276 487.538 486.09 487.078 485.757 486.734C485.425 486.39 484.971 486.188 484.493 486.172C484.014 486.188 483.561 486.39 483.228 486.734C482.896 487.078 482.71 487.538 482.71 488.017C482.71 488.495 482.896 488.955 483.228 489.299C483.561 489.644 484.014 489.845 484.493 489.862Z" fill="#337B94"/>
<path d="M494.45 485.713C494.928 485.697 495.381 485.495 495.714 485.151C496.047 484.807 496.233 484.347 496.233 483.868C496.233 483.39 496.047 482.93 495.714 482.586C495.381 482.242 494.928 482.04 494.45 482.023C493.971 482.04 493.518 482.242 493.185 482.586C492.852 482.93 492.667 483.39 492.667 483.868C492.667 484.347 492.852 484.807 493.185 485.151C493.518 485.495 493.971 485.697 494.45 485.713Z" fill="#337B94"/>
<path d="M504.366 480.903C504.845 480.886 505.298 480.685 505.631 480.34C505.963 479.996 506.149 479.536 506.149 479.058C506.149 478.579 505.963 478.119 505.631 477.775C505.298 477.431 504.845 477.229 504.366 477.213C503.888 477.229 503.434 477.431 503.102 477.775C502.769 478.119 502.583 478.579 502.583 479.058C502.583 479.536 502.769 479.996 503.102 480.34C503.434 480.685 503.888 480.886 504.366 480.903Z" fill="#337B94"/>
<path d="M516.627 478.168C517.105 478.152 517.559 477.95 517.891 477.606C518.224 477.262 518.41 476.802 518.41 476.323C518.41 475.845 518.224 475.385 517.891 475.041C517.559 474.697 517.105 474.495 516.627 474.479C516.148 474.495 515.695 474.697 515.362 475.041C515.03 475.385 514.844 475.845 514.844 476.323C514.844 476.802 515.03 477.262 515.362 477.606C515.695 477.95 516.148 478.152 516.627 478.168Z" fill="#337B94"/>
<path d="M527.721 478.166C528.199 478.15 528.652 477.948 528.985 477.604C529.318 477.26 529.504 476.8 529.504 476.321C529.504 475.843 529.318 475.383 528.985 475.039C528.652 474.695 528.199 474.493 527.721 474.477C527.242 474.493 526.789 474.695 526.456 475.039C526.123 475.383 525.938 475.843 525.938 476.321C525.938 476.8 526.123 477.26 526.456 477.604C526.789 477.948 527.242 478.15 527.721 478.166Z" fill="#337B94"/>
<path d="M537.802 479.776C538.281 479.759 538.734 479.558 539.067 479.213C539.399 478.869 539.585 478.409 539.585 477.931C539.585 477.452 539.399 476.992 539.067 476.648C538.734 476.304 538.281 476.102 537.802 476.086C537.324 476.102 536.871 476.304 536.538 476.648C536.205 476.992 536.02 477.452 536.02 477.931C536.02 478.409 536.205 478.869 536.538 479.213C536.871 479.558 537.324 479.759 537.802 479.776Z" fill="#337B94"/>
</svg>
