<svg width="119" height="138" viewBox="0 0 119 138" fill="none" xmlns="http://www.w3.org/2000/svg">
<path d="M9.1158 58.4677C9.2474 59.5297 9.52907 60.5676 9.95239 61.5503C9.55319 60.5593 9.27238 59.5246 9.1158 58.4677ZM42.0138 73.2393C42.6846 72.6826 43.1844 71.9477 43.4555 71.1192C43.6869 70.3801 43.7357 69.5717 43.0941 69.1575C41.7255 68.2721 38.0991 70.8512 37.2909 72.3011C36.4868 73.751 33.3437 77.6216 34.5497 83.4214C35.7599 89.2253 40.2716 93.9813 40.2716 93.9813C40.2716 93.9813 40.6698 94.3915 41.2708 95.0616L43.0413 90.1554C41.8393 88.8029 40.8605 87.69 40.5966 87.3732C39.8169 86.435 35.1712 78.9823 42.0138 73.2393ZM29.7172 88.9044C29.7172 88.9044 25.2013 85.1964 20.4501 82.9381C17.0793 81.3379 15.4103 78.8076 15.727 76.8093C15.8206 76.2869 16.0573 75.8008 16.4108 75.405C16.7643 75.0091 17.2207 74.7192 17.7291 74.5674C19.0896 74.1328 22.314 72.626 21.9811 68.1097L21.92 66.68C21.2133 66.6604 20.5202 66.4814 19.8923 66.1565C19.2644 65.8316 18.7179 65.3691 18.2937 64.8036C16.8438 62.8703 14.3057 61.9037 10.3748 62.4479L8.31987 61.2986C8.31987 61.2986 8.16956 57.6026 8.99802 57.2452C8.98593 56.9691 8.98189 56.6888 8.98592 56.4045C8.98592 56.4045 7.17058 56.8066 7.47515 60.535C7.47515 60.535 6.74823 60.1288 6.10258 55.9414C6.10258 55.9414 2.95929 56.8269 3.84862 62.9516C4.1239 64.18 4.0693 65.4593 3.69038 66.6597C3.69038 66.6597 2.39891 72.2199 1.35116 75.4446C0.303388 78.6695 -1.83259 86.5082 3.24364 101.377L5.86305 109.78C5.86305 109.78 7.15036 118.886 5.13614 120.661C5.13614 120.661 2.07415 121.019 3.203 123.419C3.25824 123.538 3.33229 123.648 3.4223 123.744C3.33716 123.595 3.28718 123.428 3.27616 123.256C3.26203 123.087 3.27856 122.916 3.32494 122.753C3.37175 122.576 3.46739 122.415 3.60096 122.29C3.66528 122.223 3.74558 122.173 3.83436 122.145C3.92313 122.117 4.01748 122.113 4.10858 122.131C3.99863 122.23 3.91014 122.35 3.84862 122.485C3.79366 122.608 3.7489 122.736 3.71478 122.867C3.63753 123.165 3.5398 123.458 3.4223 123.744C3.70665 124.061 4.3158 124.467 5.46092 124.207L5.58266 124.195C5.40004 123.878 5.32857 123.509 5.37961 123.147C5.40511 122.96 5.46869 122.78 5.56642 122.619C5.61215 122.531 5.67999 122.456 5.76331 122.402C5.84662 122.348 5.94256 122.316 6.04172 122.31C5.94653 122.44 5.88255 122.59 5.85473 122.749C5.82638 122.895 5.80199 123.045 5.78176 123.204C5.74887 123.54 5.68217 123.872 5.58267 124.195L6.26499 124.134C6.22715 123.885 6.234 123.632 6.28522 123.386C6.34449 123.137 6.4629 122.906 6.63044 122.712C6.79795 122.514 7.00383 122.353 7.23563 122.237C7.46154 122.148 7.67459 122.029 7.86916 121.884C8.25936 121.602 8.57901 121.233 8.80311 120.807C8.99161 120.358 9.12652 119.887 9.20505 119.406C9.63225 117.472 9.90792 115.507 10.0295 113.529C10.1919 111.551 10.2203 109.565 10.2001 107.579C10.1961 106.584 10.1636 105.593 10.1188 104.598C10.0864 103.603 10.0214 102.612 9.95239 101.617C10.2488 103.59 10.4358 105.577 10.5127 107.571C10.5946 109.566 10.5689 111.565 10.4356 113.558C10.2981 115.554 9.98828 117.536 9.5096 119.479C9.40723 119.978 9.24643 120.464 9.03053 120.925C8.77446 121.375 8.41706 121.759 7.98673 122.046C7.77279 122.185 7.54223 122.297 7.30044 122.379C7.07897 122.472 6.87867 122.609 6.71172 122.781C6.54458 122.961 6.41817 123.175 6.34108 123.409C6.264 123.642 6.23804 123.889 6.26497 124.134C6.26497 124.134 6.40298 124.601 7.19892 124.865C7.0647 124.508 7.04905 124.118 7.1543 123.752C7.20893 123.558 7.30608 123.379 7.43865 123.228C7.50471 123.142 7.5978 123.08 7.70303 123.053C7.80827 123.026 7.9196 123.034 8.01924 123.078C7.94473 123.107 7.87741 123.151 7.822 123.209C7.76658 123.266 7.72441 123.335 7.69842 123.411C7.63692 123.557 7.58673 123.708 7.54832 123.862C7.46209 124.206 7.34516 124.542 7.19893 124.865C7.82272 125.043 8.47651 125.092 9.11978 125.007C8.98606 124.864 8.90205 124.682 8.88023 124.487C8.85704 124.292 8.87501 124.094 8.93297 123.906C8.99198 123.723 9.0891 123.555 9.21791 123.412C9.34673 123.269 9.50432 123.155 9.68033 123.078C9.62342 123.265 9.55025 123.423 9.48938 123.577C9.4285 123.736 9.36763 123.882 9.31885 124.032C9.2173 124.349 9.15191 124.676 9.12392 125.007C9.66732 124.958 10.2063 124.869 10.7362 124.739C10.7362 124.739 12.5514 124.528 12.7342 120.6C13.0638 118.788 13.6105 117.022 14.3626 115.341L15.6336 111.019C15.8083 109.748 16.0803 108.509 16.3524 107.27L16.7747 105.418C16.9048 104.797 17.0672 104.188 17.1444 103.554C17.2066 104.194 17.1875 104.84 17.0874 105.475C17.0063 106.109 16.8804 106.734 16.7464 107.36C16.4745 108.608 16.1024 109.831 15.6336 111.019C15.6336 111.019 15.8164 114.435 19.2276 118.09C18.7667 116.108 18.5055 114.085 18.4479 112.051C18.3805 109.997 18.6845 107.949 19.3454 106.003C20.0456 104.044 21.3568 102.361 23.0856 101.203C24.826 100.096 26.8704 99.5645 28.9294 99.6836C27.9191 99.7049 26.917 99.869 25.9526 100.171C24.9935 100.459 24.0851 100.895 23.2603 101.463C22.4431 102.031 21.722 102.726 21.1241 103.522C20.5365 104.326 20.0661 105.209 19.7271 106.145C19.0665 108.043 18.7395 110.041 18.7606 112.051C18.7505 113.059 18.7912 114.068 18.8824 115.073C18.9353 115.576 18.9637 116.084 19.0327 116.583L19.2276 118.09C19.2276 118.09 18.4154 119.634 15.7556 119.751C15.7556 119.751 14.123 119.906 13.9402 121.961C13.9402 121.961 13.851 123.127 16.5109 123.419C16.5109 123.419 19.321 123.963 21.0144 122.997L22.6226 123.078H23.2196C22.774 122.009 22.5158 120.871 22.4562 119.715C22.3317 117.628 22.6792 115.539 23.473 113.605C24.2667 111.67 25.4863 109.94 27.0411 108.542C31.435 104.541 36.0807 104.614 37.4005 104.728C36.7061 99.2328 34.704 93.0959 29.7172 88.9044ZM6.17555 60.3928C6.17555 60.3928 5.96457 60.7543 6.26498 61.6032C6.26498 61.6032 3.66599 60.9371 5.9035 56.766C5.9035 56.766 6.26498 59.8486 7.3534 61.2986C6.91017 61.0689 6.51134 60.7622 6.17555 60.3929V60.3928ZM16.722 66.9197C14.3057 67.5247 13.8793 65.4087 13.8793 65.4087C16.4175 65.2301 16.722 66.9197 16.722 66.9197V66.9197ZM7.65381 69.7017C9.09843 69.353 10.5695 69.1248 12.0519 69.0194C12.7935 68.9605 13.5376 68.9401 14.2813 68.9586C15.0308 68.9501 15.7756 69.0795 16.4783 69.3403C16.1175 69.2687 15.7498 69.2374 15.382 69.2469C15.0163 69.2427 14.6509 69.2631 14.2813 69.2753C13.5504 69.3118 12.8153 69.3687 12.0802 69.4215C10.6103 69.5312 9.1402 69.657 7.65381 69.7017ZM8.98592 72.4229C9.48434 71.9708 10.0367 71.582 10.6305 71.2655C11.2242 70.9434 11.8469 70.6782 12.4905 70.4735C13.1339 70.2673 13.7965 70.1271 14.4683 70.055C15.1363 69.9786 15.811 69.9813 16.4783 70.0632C15.8125 70.1526 15.1585 70.2297 14.5168 70.3678C13.8725 70.4942 13.2365 70.6597 12.6123 70.8634C11.9856 71.0583 11.3701 71.2875 10.7686 71.5498C10.1675 71.8137 9.57068 72.0939 8.98592 72.4229V72.4229ZM13.851 72.3904C12.9168 73.0201 12.0031 73.678 11.0408 74.2953C11.806 73.4443 12.6735 72.6913 13.6236 72.0534C14.5585 71.3845 15.6089 70.8943 16.722 70.6075C15.7189 71.1558 14.781 71.7569 13.851 72.3904L13.851 72.3904Z" fill="#337B94"/>
<path d="M8.9998 57.2422C8.9998 57.2422 8.99979 57.2557 9.00143 57.2794C8.99979 57.2676 8.99979 57.2557 8.99805 57.2439L8.9998 57.2422Z" fill="white"/>
<path d="M15.3005 65.5391C15.4154 65.6332 15.5051 65.7545 15.5615 65.8919C15.6111 66.0029 15.6366 66.1232 15.6362 66.2448C15.6373 66.3663 15.6121 66.4866 15.5625 66.5976C15.506 66.7352 15.4159 66.8565 15.3005 66.9504C15.1851 66.8565 15.095 66.7352 15.0385 66.5976C14.9889 66.4866 14.9638 66.3663 14.9649 66.2448C14.9645 66.1232 14.99 66.0029 15.0395 65.8919C15.096 65.7545 15.1857 65.6333 15.3005 65.5391Z" fill="#337B94"/>
<path d="M8.99924 57.2441C9.04217 57.6874 9.10228 58.1267 9.17958 58.562C9.25651 58.9974 9.34267 59.4312 9.45976 59.857C9.56399 60.2862 9.69098 60.7096 9.84019 61.1252C9.97889 61.5457 10.1574 61.9503 10.3291 62.362C9.86079 61.5987 9.51278 60.7677 9.29727 59.8985C9.0699 59.0328 8.96951 58.1387 8.99924 57.2441Z" fill="#337B94"/>
<path d="M56.4897 64.9168C56.8085 64.1514 57.2548 63.4455 57.8095 62.8292C58.3622 62.192 59.0388 61.6741 59.798 61.307C60.1825 61.1252 60.5877 60.9911 61.0046 60.9076C61.422 60.8324 61.8473 60.8104 62.2702 60.8422C63.101 60.9182 63.9118 61.1407 64.665 61.4996C65.4222 61.8264 66.1348 62.2482 66.7856 62.7549C67.4486 63.2621 68.0194 63.8796 68.4729 64.5805C68.9445 65.2931 69.2363 66.1094 69.3231 66.9596C69.4055 67.8454 69.138 68.7283 68.5779 69.4195L68.5729 69.4259C68.559 69.4438 68.5422 69.4592 68.5232 69.4715C67.9919 69.8383 67.3604 70.0325 66.7148 70.0275C66.3792 70.0053 66.0559 69.8924 65.7795 69.7009C65.5165 69.5107 65.2987 69.2649 65.1417 68.9809C65.0083 68.7341 64.8532 68.4997 64.6782 68.2804C64.4924 68.068 64.2899 67.8495 64.0916 67.6393C63.8902 67.4296 63.6896 67.2186 63.482 67.016C63.3775 66.9155 63.2713 66.8166 63.1599 66.726C63.105 66.6807 63.0478 66.6383 62.9884 66.599C62.9334 66.5636 62.8571 66.5238 62.8199 66.546L62.8113 66.5511C62.8059 66.5543 62.7995 66.5553 62.7934 66.5539C62.7873 66.5525 62.782 66.5487 62.7787 66.5434C62.7753 66.5381 62.7741 66.5318 62.7754 66.5256C62.7766 66.5195 62.7802 66.5141 62.7854 66.5106C62.8792 66.4471 62.9589 66.5046 63.0269 66.5264C63.0956 66.5575 63.1618 66.5937 63.225 66.6347C63.3514 66.7143 63.471 66.8016 63.5892 66.8905C63.8252 67.0686 64.0517 67.2576 64.271 67.4537C64.4923 67.6506 64.7058 67.8433 64.9246 68.0529C65.1372 68.2715 65.3239 68.514 65.4807 68.7755C65.6075 68.9989 65.7893 69.1862 66.0089 69.3194C66.2285 69.4527 66.4786 69.5275 66.7353 69.5368C67.2665 69.5165 67.7808 69.3443 68.2172 69.0406L68.1627 69.0925C68.6418 68.4999 68.8845 67.7508 68.8439 66.9897C68.7797 66.2081 68.542 65.4506 68.148 64.7725C67.3696 63.3472 66.1131 62.2425 64.6 61.6532C63.8564 61.3518 63.0614 61.1976 62.2591 61.1992C61.4735 61.2113 60.6985 61.3825 59.9809 61.7023C58.5442 62.4259 57.3473 63.5495 56.5344 64.9377C56.5329 64.9406 56.5308 64.9432 56.5283 64.9452C56.5258 64.9473 56.5229 64.9488 56.5198 64.9498C56.5167 64.9507 56.5134 64.9511 56.5102 64.9507C56.5069 64.9504 56.5038 64.9495 56.5009 64.9479C56.4958 64.9448 56.4919 64.94 56.4899 64.9343C56.4878 64.9287 56.4878 64.9225 56.4897 64.9168Z" fill="#337B94"/>
<path d="M80.7932 64.1198C79.8981 64.2758 79.0351 64.5793 78.2392 65.0178C77.4276 65.4273 76.6437 65.8907 75.8699 66.3686C74.318 67.3191 72.8166 68.3524 71.3369 69.4139C69.8573 70.4762 68.3936 71.5607 66.9457 72.6676C65.4981 73.7734 64.0722 74.9108 62.6536 76.0501L62.6515 76.0518C62.6194 76.0776 62.5805 76.0938 62.5395 76.0985C62.4985 76.1032 62.457 76.0962 62.4199 76.0783C62.3827 76.0604 62.3513 76.0323 62.3295 75.9973C62.3076 75.9623 62.2961 75.9218 62.2963 75.8805L62.3163 70.8773L62.3698 65.8741L62.4758 66.0139L61.1727 65.6666C60.7386 65.5486 60.295 65.4748 59.8563 65.3765C59.4179 65.274 58.97 65.2341 58.5267 65.1597C58.0819 65.098 57.6327 65.0807 57.1855 65.0467C56.2908 65.0081 55.3949 65.0884 54.5212 65.2855C54.3042 65.3356 54.0913 65.4018 53.8841 65.4836C53.6754 65.5594 53.4728 65.6511 53.2781 65.758C52.8893 65.96 52.5573 66.2564 52.3125 66.6198L52.3199 66.5945C52.136 68.3342 51.9881 70.0781 51.8763 71.8264C51.7608 73.5745 51.6978 75.3194 51.7015 77.0702C51.6929 80.5702 51.7813 84.0726 51.8768 87.5716L51.8751 87.549C51.9448 87.886 52.0667 88.2102 52.2363 88.5097C52.3245 88.6606 52.424 88.8046 52.534 88.9405L52.7002 89.1431C52.761 89.2058 52.8277 89.2628 52.8909 89.3231C53.422 89.7917 54.0612 90.121 54.7511 90.2811C56.187 90.5395 57.6621 90.4785 59.0717 90.1025C59.7838 89.9408 60.5105 89.7485 61.235 89.5563L63.4148 89.0223L67.7842 88.0231C70.6963 87.3637 73.6157 86.7457 76.4936 85.9704C77.2163 85.7876 77.9259 85.5636 78.6428 85.3613C79.3483 85.1268 80.0653 84.9208 80.7575 84.6509C82.1661 84.1846 83.5035 83.526 84.7318 82.6936L84.7353 82.691C84.7569 82.6753 84.7838 82.6688 84.8102 82.673C84.8366 82.6771 84.8602 82.6916 84.8759 82.7132C84.8889 82.7308 84.8957 82.7522 84.8952 82.774L84.8184 87.4883C84.8183 87.4947 84.8156 87.5009 84.811 87.5054C84.8064 87.51 84.8002 87.5125 84.7937 87.5125C84.7872 87.5125 84.781 87.51 84.7764 87.5054C84.7718 87.5009 84.7691 87.4947 84.769 87.4883L84.6923 82.774L84.8557 82.8545C83.6295 83.7315 82.2839 84.428 80.8599 84.923C80.165 85.2078 79.4489 85.4272 78.7418 85.6759C78.0254 85.8917 77.3143 86.1297 76.5924 86.3256C73.7135 87.1435 70.8067 87.8499 67.8946 88.5102L63.5337 89.5211L61.3644 90.0592C60.6459 90.2505 59.9309 90.4473 59.1858 90.6126C57.6976 90.9955 56.1432 91.0442 54.634 90.7551C53.8658 90.5698 53.1561 90.1958 52.5689 89.6669C51.9753 89.1211 51.5741 88.3981 51.425 87.6056L51.4234 87.5907L51.4232 87.5828C51.3866 85.8298 51.3803 84.0778 51.3736 82.3252C51.3707 80.5726 51.3784 78.8198 51.4128 77.0668C51.4377 75.3141 51.5341 73.558 51.6803 71.8126C51.818 70.0651 51.967 68.3194 52.166 66.5768L52.1668 66.5697C52.1676 66.5631 52.1699 66.5568 52.1735 66.5513C52.7103 65.7432 53.611 65.3665 54.4803 65.1276C55.3682 64.9187 56.2798 64.8287 57.1914 64.86C58.0986 64.8992 59.0024 64.9959 59.8974 65.1495C60.3418 65.2387 60.7923 65.3038 61.2323 65.413L62.5543 65.7342C62.5843 65.7415 62.611 65.7585 62.6302 65.7826C62.6493 65.8068 62.66 65.8366 62.6603 65.8674V65.8741L62.714 70.8774L62.734 75.8805L62.3767 75.7111C63.7926 74.5534 65.2428 73.4453 66.6993 72.3431C68.1596 71.2468 69.6294 70.1617 71.1355 69.1273C72.6415 68.0933 74.1688 67.0878 75.7479 66.1646C76.5403 65.7083 77.3455 65.2723 78.1765 64.8876C78.9964 64.4723 79.8796 64.1962 80.79 64.0704C80.7964 64.0699 80.8028 64.0718 80.8078 64.0759C80.8128 64.08 80.816 64.0859 80.8167 64.0923C80.8174 64.0987 80.8155 64.1052 80.8115 64.1102C80.8076 64.1153 80.8018 64.1186 80.7954 64.1195L80.7932 64.1198Z" fill="#337B94"/>
<path d="M66.7624 58.0395L68.0259 61.0299L69.2542 64.0341L69.1128 63.9249C70.2307 64.0026 71.3538 63.9083 72.4431 63.6454C73.5259 63.3957 74.5351 62.8957 75.3898 62.1855C76.2212 61.4533 76.8251 60.4978 77.1296 59.4325C77.4339 58.3502 77.5464 57.2229 77.4619 56.1017L77.4613 56.092L77.462 56.081C77.5174 55.8409 77.6372 55.6205 77.8085 55.4434C77.9798 55.2663 78.1961 55.1392 78.4341 55.0758C78.8742 54.9501 79.3327 54.9018 79.7893 54.933C80.6844 54.9411 81.5776 55.0182 82.4608 55.1638C85.1302 55.594 87.6494 56.6862 89.7882 58.3406L90.8141 59.218C90.9867 59.3625 91.1481 59.5199 91.2968 59.6888L91.7606 60.1797C92.3769 60.8367 92.9444 61.5379 93.4586 62.2776C93.7263 62.6398 93.9326 63.0418 94.1726 63.4223C94.3967 63.812 94.6545 64.1846 94.8508 64.5888L95.4309 65.8062C95.6368 66.2058 95.8189 66.6172 95.9762 67.0384C96.2747 67.8841 96.5964 68.7274 96.8749 69.5748L98.5041 74.6593C99.053 76.3521 99.6357 78.0329 100.235 79.7074C100.539 80.5428 100.856 81.3738 101.195 82.1948C101.364 82.6055 101.538 83.0146 101.732 83.4135C101.903 83.8177 102.132 84.1946 102.413 84.5322L102.425 84.5447C102.429 84.5489 102.431 84.5546 102.431 84.5605C102.431 84.5664 102.429 84.5721 102.425 84.5764C102.421 84.5807 102.415 84.5832 102.409 84.5834C102.403 84.5836 102.398 84.5815 102.393 84.5776C102.08 84.2509 101.821 83.8769 101.624 83.4693C101.407 83.078 101.21 82.6767 101.018 82.2736C100.63 81.4683 100.293 80.6413 99.9528 79.8163C99.2787 78.1635 98.668 76.4867 98.0773 74.8041C97.4784 73.1239 96.9322 71.4265 96.3877 69.7289C96.1058 68.8857 95.7874 68.0655 95.4895 67.2328C95.3375 66.8187 95.163 66.4132 94.9668 66.0181L94.4132 64.816C94.2258 64.4167 93.9781 64.0505 93.7635 63.6657C93.5334 63.2906 93.3363 62.8927 93.079 62.5357L92.3008 61.4686C92.048 61.108 91.7679 60.7674 91.4629 60.4497L91.0227 59.9568C90.882 59.7873 90.7284 59.6289 90.5633 59.483L89.5826 58.5962C88.8989 58.0384 88.171 57.5371 87.406 57.0972C85.8693 56.2105 84.1862 55.6065 82.4365 55.3138C81.561 55.1727 80.6752 55.1062 79.7885 55.115C79.3543 55.0879 78.9188 55.1408 78.5038 55.2712C78.3111 55.3282 78.137 55.4351 77.9989 55.5811C77.8608 55.727 77.7637 55.9068 77.7174 56.1023V56.0817C77.8465 57.2376 77.7708 58.4072 77.4938 59.5368C77.1991 60.6888 76.566 61.726 75.6762 62.5147C74.7723 63.2746 73.6945 63.7991 72.5388 64.0416C71.4037 64.3059 70.2329 64.3827 69.073 64.269C69.0416 64.2657 69.0117 64.2538 68.9867 64.2345C68.9617 64.2152 68.9426 64.1893 68.9315 64.1597L67.8063 61.1155L66.7163 58.0575C66.7141 58.0514 66.7144 58.0447 66.7171 58.0389C66.7197 58.033 66.7246 58.0284 66.7306 58.0261C66.7366 58.0237 66.7433 58.0238 66.7492 58.0263C66.7552 58.0289 66.7599 58.0336 66.7624 58.0396V58.0395Z" fill="#337B94"/>
<path d="M61.6707 56.9805C59.906 57.5527 58.2138 58.328 56.628 59.2907C55.0392 60.2325 53.5693 61.3616 52.2497 62.6539C50.9292 63.9363 49.7991 65.4013 48.894 67.0042C47.992 68.6208 47.0779 70.2524 46.1311 71.8487C45.1853 73.4467 44.2069 75.0275 43.392 76.6788C42.9748 77.4916 42.6468 78.3472 42.4137 79.2306C42.1738 80.0928 42.193 81.0065 42.4687 81.8579C42.8129 82.6937 43.3643 83.4282 44.071 83.9918C44.766 84.591 45.5337 85.1001 46.356 85.5072C48.0217 86.3222 49.8047 86.8715 51.6403 87.1352C50.7125 87.0524 49.7935 86.8906 48.8933 86.6514C47.9873 86.42 47.1031 86.1101 46.2507 85.7254C45.3958 85.33 44.5949 84.8269 43.8675 84.2284C43.5047 83.923 43.1659 83.5902 42.8541 83.2329C42.5417 82.8617 42.2914 82.4424 42.1129 81.9912C41.7829 81.0728 41.7427 80.0752 41.9977 79.1331C42.2308 78.2165 42.5626 77.3278 42.9873 76.4827C43.8048 74.794 44.7717 73.2021 45.7064 71.5974C46.6678 70.0053 47.5831 68.4018 48.5042 66.7819C49.4336 65.1458 50.6082 63.6618 51.9872 62.3816C54.7261 59.8181 58.0506 57.9638 61.6707 56.9805Z" fill="#337B94"/>
<path d="M44.9492 77.7934C45.3803 77.3786 45.8617 77.0195 46.3823 76.7247C46.9014 76.422 47.4498 76.1724 48.019 75.9798C48.5953 75.7925 49.193 75.6788 49.7978 75.6414C50.403 75.6136 51.0074 75.71 51.574 75.9245C50.9932 75.9045 50.4117 75.9381 49.8371 76.0249C49.2737 76.1293 48.7179 76.271 48.1733 76.4489C47.6263 76.6255 47.0912 76.8431 46.5553 77.0677C46.0213 77.2981 45.4896 77.5409 44.9492 77.7934Z" fill="#337B94"/>
<path d="M84.793 82.7751C85.4443 82.2615 86.0532 81.7137 86.6549 81.1589C87.2516 80.5989 87.834 80.0253 88.4022 79.4381C88.9722 78.8519 89.5248 78.2486 90.0756 77.6403C90.6271 77.0321 91.1624 76.4086 91.7301 75.8008C91.329 76.5278 90.8755 77.2246 90.3732 77.8857C89.8729 78.5495 89.3332 79.1826 88.7569 79.7816C88.1771 80.3789 87.5581 80.9368 86.9039 81.4516C86.2548 81.9743 85.5463 82.4186 84.793 82.7751Z" fill="#337B94"/>
<path d="M82.6582 63.2954C83.5509 63.1016 84.471 63.0691 85.3752 63.1994C86.293 63.323 87.1796 63.6168 87.9897 64.0656C88.3934 64.2957 88.7754 64.5618 89.1312 64.8607C89.4733 65.1735 89.7827 65.5203 90.0545 65.8957C90.1985 66.0754 90.3268 66.267 90.4382 66.4684L90.752 67.0798C90.8497 67.2858 90.9302 67.4996 90.9925 67.7189C91.0661 67.9338 91.1334 68.1497 91.1961 68.3653C90.8096 67.5651 90.3248 66.8162 89.753 66.136C89.47 65.8054 89.1608 65.4982 88.8284 65.2174C88.4889 64.9476 88.1276 64.7064 87.7482 64.4964C86.9845 64.0713 86.1621 63.7617 85.3077 63.5776C84.4374 63.3875 83.549 63.2929 82.6582 63.2954Z" fill="#337B94"/>
<path d="M54.8806 106.337L52.3538 110.188C51.512 111.472 50.662 112.751 49.8038 114.024C49.784 114.053 49.7568 114.077 49.7251 114.093C49.6933 114.109 49.658 114.116 49.6225 114.115C49.587 114.113 49.5525 114.102 49.5224 114.083C49.4924 114.064 49.4677 114.038 49.4508 114.006L49.4436 113.993C48.8326 112.9 48.0787 111.892 47.2018 110.998C46.3264 110.095 45.3778 109.265 44.3657 108.518C43.8444 108.166 43.3386 107.791 42.7906 107.479C42.5192 107.32 42.2566 107.146 41.9784 106.998L41.1422 106.559C40.8667 106.406 40.5809 106.274 40.292 106.148L39.4305 105.76C38.8485 105.52 38.2538 105.309 37.6664 105.082L37.6594 105.079C37.5798 105.048 37.5154 104.988 37.4796 104.91C37.4438 104.832 37.4395 104.744 37.4675 104.663C38.0497 102.998 38.6681 101.345 39.2689 99.6864C39.8725 98.0285 40.4754 96.3704 41.1004 94.7202L44.813 84.8057C44.8266 84.7694 44.854 84.7401 44.8892 84.724C44.9244 84.708 44.9646 84.7066 45.0008 84.7202C45.0089 84.7234 45.0167 84.7271 45.0243 84.7315C46.0397 85.332 47.1064 85.8413 48.2118 86.2534C49.3094 86.6819 50.4661 86.94 51.6418 87.0187C51.671 87.0199 51.6986 87.0322 51.7189 87.0531C51.7393 87.074 51.7509 87.1019 51.7514 87.1311L51.7516 87.1396C51.7724 87.5415 51.8849 87.9332 52.0803 88.2849C52.2769 88.6447 52.5278 88.9721 52.824 89.2555C53.1213 89.542 53.4479 89.7965 53.7984 90.0148L54.3392 90.3219L54.903 90.5879L54.9056 90.5892C54.9288 90.6002 54.9484 90.6174 54.9623 90.639C54.9761 90.6606 54.9836 90.6856 54.9839 90.7113L55.1759 109.9L55.2233 119.494C55.2458 122.692 55.2434 125.89 55.2338 129.088V129.09C55.2333 129.154 55.2171 129.217 55.1866 129.273C54.9878 129.618 54.705 129.907 54.3645 130.113C54.0526 130.307 53.7151 130.457 53.3618 130.557C52.6929 130.746 52.0039 130.855 51.3094 130.882C49.9601 130.936 48.6087 130.879 47.269 130.709C44.6206 130.362 41.9935 129.868 39.4002 129.228C36.807 128.616 34.2434 127.896 31.6956 127.131C29.1465 126.369 26.619 125.542 24.1133 124.648L24.111 124.647C24.0992 124.643 24.0888 124.635 24.081 124.626C23.7115 124.159 23.4096 123.643 23.1845 123.092C23.1808 123.083 23.1807 123.073 23.1843 123.064C23.188 123.055 23.195 123.048 23.2039 123.044C23.2128 123.04 23.2228 123.04 23.2319 123.043C23.241 123.047 23.2483 123.053 23.2524 123.062C23.4945 123.595 23.8107 124.09 24.1914 124.534L24.1593 124.512C26.6949 125.301 29.2516 126.025 31.8107 126.728C34.3726 127.423 36.9474 128.06 39.5352 128.639C42.1132 129.23 44.7221 129.677 47.3499 129.977C48.6488 130.133 49.958 130.184 51.2651 130.129C51.8994 130.103 52.5285 130.002 53.1392 129.829C53.6973 129.705 54.1879 129.374 54.5124 128.904L54.4652 129.088C54.4556 125.89 54.4532 122.692 54.4756 119.494L54.5232 109.9L54.7151 90.7112L54.7958 90.8344L54.2174 90.5559L53.6605 90.2338C53.2962 90.0029 52.9572 89.7343 52.649 89.4325C52.3373 89.1292 52.0741 88.7796 51.8689 88.3961C51.6556 88.0059 51.5371 87.571 51.5229 87.1265L51.6325 87.2473C51.0325 87.2085 50.4363 87.1243 49.8491 86.9954C49.2657 86.8592 48.6905 86.6902 48.1261 86.4893C46.9992 86.0828 45.9107 85.5769 44.8734 84.9776L45.0845 84.9035L41.623 94.9084C41.0522 96.5781 40.4593 98.2398 39.8671 99.9019C39.2721 101.563 38.6945 103.23 38.081 104.884L37.8821 104.466C38.481 104.704 39.0865 104.926 39.6791 105.178L40.557 105.584C40.851 105.716 41.1421 105.854 41.423 106.014L42.2748 106.472C42.5581 106.626 42.8262 106.807 43.1025 106.973C43.6603 107.298 44.1764 107.688 44.7067 108.056C45.7427 108.828 46.7034 109.697 47.5758 110.651C48.4631 111.601 49.2184 112.667 49.8212 113.819L49.4612 113.788C50.3448 112.533 51.2339 111.281 52.1287 110.033L54.8195 106.295C54.8252 106.287 54.8337 106.281 54.8432 106.28C54.8528 106.278 54.8626 106.28 54.8706 106.286C54.8786 106.291 54.8841 106.3 54.886 106.309C54.8878 106.319 54.8859 106.329 54.8806 106.337L54.8806 106.337Z" fill="#337B94"/>
<path d="M45.7207 115.803C46.4609 115.493 47.2333 115.266 48.0237 115.127C48.8166 114.974 49.6234 114.905 50.4307 114.923C51.2462 114.933 52.0553 115.068 52.8295 115.324C53.6038 115.582 54.2998 116.032 54.8516 116.634C54.1998 116.201 53.4786 115.883 52.7195 115.694C52.5295 115.656 52.3409 115.616 52.1537 115.571L51.5785 115.495C51.3882 115.462 51.1933 115.456 51.0002 115.441C50.8068 115.427 50.6137 115.412 50.4186 115.416C49.6369 115.398 48.8548 115.428 48.0769 115.507C47.2944 115.582 46.5108 115.681 45.7207 115.803Z" fill="#337B94"/>
<path d="M38.6399 105.094C37.4429 107.818 36.1132 110.474 34.7509 113.113C33.3754 115.745 31.9666 118.359 30.4238 120.904C31.6197 118.179 32.9496 115.524 34.3128 112.885C35.6892 110.254 37.0982 107.639 38.6399 105.094Z" fill="#337B94"/>
<path d="M40.4434 123.513C41.6083 121.483 42.8943 119.537 44.2136 117.613C45.5448 115.698 46.9052 113.803 48.3908 111.994C47.227 114.025 45.9397 115.97 44.6198 117.893C43.2877 119.808 41.9283 121.704 40.4434 123.513Z" fill="#337B94"/>
<path d="M36.8282 133.743C38.5012 133.646 40.1702 133.524 41.8394 133.394C41.6942 134.089 41.3645 134.731 40.8851 135.254C40.8851 135.254 13.5547 137.923 9.46517 135.786C9.46517 135.786 8.03986 132.318 10.6186 131.075C11.4754 130.661 13.3881 129.901 15.7434 128.906C16.4535 129.023 17.1446 129.235 17.7983 129.536C18.4478 129.833 19.0498 130.224 19.5851 130.697C19.8495 130.934 20.0952 131.191 20.3202 131.465C20.5345 131.746 20.726 132.043 20.8928 132.354C21.222 132.979 21.4587 133.648 21.5954 134.341L21.5995 134.344C21.6081 134.384 21.6303 134.419 21.6623 134.443C21.6942 134.468 21.7338 134.48 21.774 134.479L26.7934 134.275L31.8129 134.032C33.4859 133.955 35.1551 133.845 36.8282 133.743Z" fill="#337B94"/>
<path d="M40.4411 123.512C32.2297 127.573 30.4225 120.904 30.4225 120.904C29.1589 121.99 27.7936 122.952 26.3455 123.776C26.6787 123.791 27.0051 123.875 27.3038 124.023C27.6211 124.176 27.9107 124.381 28.1606 124.629C28.4085 124.875 28.6143 125.16 28.7697 125.473C28.9256 125.783 29.0233 126.119 29.0581 126.464C28.8592 126.18 28.6966 125.896 28.4977 125.64C28.3101 125.382 28.1009 125.14 27.8723 124.917C27.649 124.69 27.4057 124.483 27.1454 124.3C26.8838 124.111 26.6097 123.94 26.3251 123.788C25.6671 124.178 24.9863 124.56 24.2825 124.933C24.5977 124.953 24.9057 125.036 25.1881 125.177C25.8246 125.482 26.3397 125.993 26.6501 126.627C26.8076 126.936 26.9055 127.272 26.9384 127.618C26.7435 127.33 26.5769 127.049 26.382 126.793C26.1932 126.535 25.9841 126.292 25.7566 126.066C25.5309 125.84 25.2864 125.634 25.0257 125.449C24.7728 125.265 24.5067 125.099 24.2296 124.954C23.511 125.335 22.7759 125.709 22.0367 126.071C22.3837 126.079 22.7247 126.164 23.0357 126.318C23.6737 126.625 24.1902 127.137 24.5019 127.772C24.6575 128.081 24.7552 128.415 24.7902 128.759C24.5953 128.475 24.4287 128.191 24.2296 127.935C24.0435 127.677 23.8357 127.435 23.6084 127.212C23.3837 126.985 23.1391 126.778 22.8775 126.595C22.6102 126.4 22.3292 126.225 22.0367 126.071C19.8641 127.131 17.6549 128.097 15.7422 128.905C16.4659 128.973 17.1759 129.145 17.8498 129.417C18.5306 129.686 19.164 130.061 19.726 130.53C20.0094 130.765 20.2729 131.023 20.5138 131.302C20.7475 131.588 20.958 131.892 21.1434 132.211C21.4881 132.808 21.7413 133.453 21.8945 134.124L26.7761 133.877L31.7954 133.67C33.4684 133.592 35.1415 133.548 36.8147 133.499C38.4879 133.446 40.165 133.418 41.8382 133.393C42.7558 129.657 40.4411 123.512 40.4411 123.512ZM36.648 130.9C35.0766 130.9 35.0805 128.463 36.648 128.463C38.2197 128.463 38.2157 130.9 36.648 130.9Z" fill="#337B94"/>
<path d="M24.275 124.934C24.2587 124.942 24.2464 124.946 24.2302 124.954C24.2141 124.946 24.2018 124.938 24.1855 124.93C24.2154 124.929 24.2453 124.931 24.275 124.934Z" fill="white"/>
<path d="M26.3476 123.777C26.3394 123.782 26.3352 123.786 26.327 123.79C26.3188 123.786 26.3148 123.782 26.3066 123.777H26.3476Z" fill="white"/>
<path d="M54.8503 90.712C54.8503 90.712 51.6486 92.203 65.167 93.6262L110.465 86.3918L103.35 83.6641L54.8503 90.712Z" fill="#337B94"/>
<path d="M54.8883 90.7133C54.9617 94.1978 55.026 97.6823 55.0579 101.167C55.0957 104.651 55.1395 108.136 55.1456 111.62C55.1554 115.105 55.1888 118.589 55.1791 122.074C55.1674 125.558 55.1612 129.043 55.1112 132.527L54.9399 132.283L62.2614 135.035C64.6988 135.962 67.152 136.844 69.5966 137.75L69.5303 137.746C71.5497 137.335 73.5625 136.893 75.5772 136.461L81.6177 135.146L93.69 132.476C97.7139 131.585 101.738 130.695 105.768 129.833C109.798 128.969 113.822 128.078 117.856 127.237L117.549 127.657C117.196 124.178 116.802 120.701 116.366 117.227C115.934 113.754 115.5 110.281 114.991 106.819C114.478 103.358 113.945 99.899 113.279 96.466C112.942 94.7505 112.581 93.0393 112.156 91.3443C111.769 89.6407 111.192 87.986 110.434 86.4117L110.433 86.4097C110.429 86.401 110.428 86.391 110.431 86.3817C110.433 86.3724 110.44 86.3646 110.448 86.36C110.457 86.3553 110.467 86.3542 110.476 86.3569C110.486 86.3596 110.493 86.3658 110.498 86.3743C111.315 87.9319 111.953 89.5767 112.401 91.2775C112.892 92.9631 113.299 94.671 113.673 96.3844C114.424 99.8115 115.047 103.264 115.598 106.726C116.149 110.188 116.662 113.656 117.106 117.133C117.549 120.611 117.955 124.093 118.325 127.579C118.334 127.674 118.309 127.769 118.253 127.846C118.198 127.924 118.115 127.978 118.022 127.998L118.018 127.999C113.988 128.866 109.949 129.682 105.915 130.526C101.881 131.371 97.8419 132.189 93.8022 133.006L81.6838 135.458L75.629 136.706C73.6119 137.127 71.5928 137.539 69.5805 137.982C69.5583 137.987 69.5354 137.985 69.5141 137.978C67.0572 137.105 64.6091 136.209 62.1451 135.356L54.7625 132.772C54.7131 132.754 54.6702 132.722 54.6396 132.68C54.609 132.637 54.5921 132.587 54.5912 132.534L54.5911 132.527C54.5412 129.043 54.535 125.558 54.5232 122.074C54.5136 118.589 54.547 115.105 54.5568 111.62C54.5629 108.136 54.6067 104.651 54.6445 101.167C54.6764 97.6823 54.7406 94.1978 54.8141 90.7133C54.8143 90.7037 54.8183 90.6944 54.8253 90.6877C54.8322 90.6809 54.8415 90.6771 54.8512 90.6771C54.8609 90.6771 54.8702 90.6809 54.8771 90.6877C54.884 90.6944 54.888 90.7037 54.8883 90.7133L54.8883 90.7133Z" fill="#337B94"/>
<path d="M65.168 93.627C65.3754 95.412 65.5513 97.1993 65.7438 98.9852L66.2682 104.347C66.6102 107.923 66.9173 111.496 67.2346 115.081C67.4906 118.666 67.6971 122.254 67.8542 125.843L68.0537 131.228C68.0966 133.024 68.1521 134.819 68.1687 136.616L67.4747 125.863C67.2422 122.28 67.0366 118.695 66.7425 115.118L65.8912 104.379L65.5039 99.0049C65.3924 97.2121 65.2644 95.4206 65.168 93.627Z" fill="#337B94"/>
<path d="M56.2779 131.582C56.7712 131.596 57.2588 131.473 57.6854 131.225C58.1009 130.974 58.4426 130.618 58.6757 130.193C59.1156 129.316 59.3275 128.343 59.2918 127.362C59.3719 125.359 59.4253 123.354 59.5414 121.351L59.9364 115.346C60.0542 113.344 60.1401 111.34 60.1943 109.336C60.195 109.307 60.2068 109.28 60.2272 109.259C60.2475 109.239 60.2748 109.227 60.3035 109.227C60.3322 109.226 60.3601 109.236 60.3814 109.256C60.4027 109.275 60.4158 109.301 60.418 109.33L60.4184 109.336L60.8898 115.964L61.3356 122.591L61.5582 125.903C61.5951 126.454 61.6353 127.005 61.6843 127.554C61.7089 127.828 61.7351 128.103 61.7706 128.371C61.7863 128.504 61.8094 128.644 61.8336 128.751L61.8492 128.813L61.8969 128.914C61.9303 128.982 61.9561 129.047 61.9837 129.112C62.1789 129.624 62.4012 130.125 62.6497 130.614C62.9046 131.096 63.2027 131.554 63.5403 131.983C64.2264 132.845 65.017 133.619 65.894 134.286C65.8966 134.288 65.8988 134.29 65.9005 134.293C65.9021 134.296 65.9032 134.299 65.9036 134.302C65.9041 134.305 65.9039 134.309 65.9031 134.312C65.9023 134.315 65.9009 134.318 65.8989 134.32C65.895 134.325 65.8894 134.329 65.8832 134.33C65.877 134.331 65.8706 134.33 65.8653 134.326C64.9295 133.716 64.0805 132.983 63.3412 132.146C62.6119 131.289 62.0305 130.317 61.621 129.269C61.5932 129.208 61.566 129.145 61.5363 129.09L61.4929 129.004L61.4437 128.868C61.4065 128.725 61.3773 128.579 61.3563 128.432C61.3112 128.153 61.2772 127.877 61.2443 127.6C61.179 127.047 61.1231 126.495 61.0703 125.943C60.9723 124.838 60.8849 123.732 60.8083 122.627C60.6549 120.416 60.5534 118.202 60.4408 115.99C60.3344 113.776 60.2651 111.562 60.1943 109.347L60.4184 109.347C60.2886 111.348 60.1906 113.35 60.1244 115.354L59.9675 121.366C59.8996 123.369 59.7691 125.37 59.6653 127.372C59.665 128.406 59.3985 129.423 58.8914 130.324C58.6255 130.77 58.2373 131.13 57.7729 131.361C57.3084 131.593 56.7872 131.687 56.2712 131.631C56.265 131.63 56.2593 131.627 56.2554 131.622C56.2515 131.617 56.2496 131.61 56.2501 131.604C56.2506 131.598 56.2535 131.592 56.2582 131.588C56.2629 131.584 56.269 131.581 56.2753 131.582L56.2779 131.582Z" fill="#337B94"/>
<path d="M78.1917 91.5456C78.1917 91.5456 85.7241 89.822 85.8775 106.574C85.8944 108.426 85.962 110.948 86.3935 112.749C87.2797 116.449 89.1474 120.696 91.5208 117.098C92.3173 115.862 92.7255 114.416 92.6927 112.947C92.6687 110.972 92.1939 108.024 89.951 105.723C86.2359 101.911 87.1939 100.741 87.5497 98.6068C87.9054 96.472 88.7782 95.0337 86.3935 92.8252L84.0089 90.6166L88.2612 89.9375C90.6032 90.6374 92.5598 93.5071 92.4412 96.1162C92.422 96.5385 92.3904 96.9702 92.3509 97.3971C92.1031 100.048 92.7776 102.703 94.2606 104.913C95.8266 107.243 97.5402 110.557 97.5402 113.906C97.5402 120.073 90.7811 128.493 84.7927 121.822C78.8043 115.151 81.0573 113.906 81.2945 104.181C81.5317 94.4559 71.6934 92.5835 71.6934 92.5835L78.1917 91.5456Z" fill="#337B94"/>
<path d="M62.0029 38.1801C61.1013 40.0437 60.4354 42.0124 60.0205 44.0407C59.9429 44.5494 59.9046 45.0633 59.9059 45.5779C59.884 46.1039 59.8448 46.6297 59.776 47.1527C59.7281 47.6864 59.5748 48.2054 59.3251 48.6795C59.1719 48.897 58.9959 49.0974 58.8002 49.2775C58.6416 49.4502 58.5484 49.673 58.5366 49.9073C58.5375 50.011 58.5694 50.1121 58.6284 50.1974C58.6875 50.2827 58.7707 50.3483 58.8675 50.3856C58.9576 50.4308 59.1031 50.4784 59.2228 50.5338C59.3746 50.5925 59.5091 50.6886 59.614 50.8131C59.7041 50.9498 59.76 51.1062 59.7767 51.269C59.7991 51.4073 59.8129 51.5364 59.8291 51.6666C59.8613 51.9253 59.8871 52.1826 59.9252 52.4371C60.0517 53.4494 60.3143 54.44 60.7058 55.382C61.0851 56.3002 61.7692 57.1131 62.7786 57.1518C63.8147 57.2471 64.8523 57.3513 65.8947 57.4891L65.8973 57.4895C65.9034 57.4903 65.9091 57.4934 65.913 57.4982C65.917 57.5029 65.919 57.509 65.9187 57.5152C65.9184 57.5214 65.9157 57.5273 65.9113 57.5316C65.9068 57.5359 65.9009 57.5384 65.8947 57.5386C64.8509 57.5637 63.8023 57.5549 62.7524 57.5374C62.614 57.5363 62.476 57.5223 62.3402 57.4955L62.1268 57.461C62.0576 57.441 61.9897 57.4166 61.9235 57.388C61.6526 57.2892 61.4024 57.141 61.1854 56.951C60.7718 56.5755 60.4445 56.1147 60.2262 55.6004C59.8096 54.6119 59.5523 53.5637 59.4639 52.4946C59.4349 52.2312 59.4119 51.9686 59.395 51.7068C59.4008 51.4811 59.3671 51.256 59.2956 51.0419C59.2322 50.9651 59.1512 50.9048 59.0596 50.866C58.9468 50.8025 58.8448 50.7626 58.7059 50.6816C58.5678 50.604 58.4518 50.4923 58.369 50.3573C58.2891 50.2181 58.2533 50.058 58.2663 49.8981C58.2979 49.6068 58.4315 49.3361 58.6434 49.1338C58.7426 49.0292 58.8555 48.9549 58.9412 48.8717C59.0305 48.7853 59.1101 48.6895 59.1787 48.5859C59.4346 48.142 59.5845 47.645 59.6168 47.1337C59.6618 46.6168 59.6665 46.0973 59.6309 45.5797C59.5803 45.0507 59.5741 44.5184 59.6125 43.9884C59.7491 42.9333 60.0368 41.9034 60.4668 40.9304C60.8763 39.9605 61.3762 39.0314 61.96 38.1554C61.9618 38.1527 61.9642 38.1504 61.9669 38.1486C61.9696 38.1468 61.9727 38.1456 61.9759 38.145C61.979 38.1444 61.9823 38.1444 61.9855 38.145C61.9887 38.1457 61.9917 38.147 61.9944 38.1488C61.9992 38.1523 62.0027 38.1572 62.0042 38.1629C62.0057 38.1686 62.0053 38.1747 62.0029 38.1801Z" fill="#337B94"/>
<path d="M58.4459 45.2219C58.7494 45.9489 59.0027 46.6937 59.2828 47.429C59.5299 48.1761 59.8036 48.9137 60.0268 49.6692C60.0293 49.6774 60.0292 49.6861 60.0267 49.6942C60.0242 49.7024 60.0193 49.7096 60.0127 49.715C60.006 49.7204 59.998 49.7237 59.9895 49.7244C59.981 49.7252 59.9724 49.7234 59.9649 49.7194L59.9337 49.7023C59.5353 49.481 59.1884 49.1774 58.9162 48.8118C58.6751 48.4924 58.4848 48.1376 58.352 47.76C58.2184 47.3827 58.1428 46.9873 58.1279 46.5873C58.1087 46.1323 58.1853 45.6785 58.3527 45.255L58.366 45.2223C58.3692 45.2144 58.3747 45.2076 58.3818 45.2027C58.3889 45.1979 58.3972 45.1954 58.4058 45.1953C58.4144 45.1953 58.4227 45.1978 58.4299 45.2025C58.437 45.2072 58.4425 45.214 58.4458 45.2219L58.4459 45.2219Z" fill="#337B94"/>
<path d="M70.1637 47.9653C70.1586 47.9653 70.1535 47.9649 70.1485 47.9641C70.1324 47.9622 70.1168 47.957 70.1027 47.9491C70.0886 47.9411 70.0761 47.9304 70.0662 47.9176C70.0562 47.9048 70.0488 47.8902 70.0445 47.8746C70.0402 47.8589 70.039 47.8426 70.041 47.8265C70.0477 47.7524 70.0382 47.6777 70.0133 47.6076C69.9884 47.5375 69.9486 47.4736 69.8966 47.4203C68.4781 45.7545 58.4953 45.367 58.3946 45.363C58.3618 45.3618 58.3309 45.3476 58.3086 45.3236C58.2863 45.2996 58.2744 45.2677 58.2756 45.2349C58.2746 45.2182 58.2773 45.2015 58.2835 45.186C58.2897 45.1705 58.2993 45.1566 58.3115 45.1452C58.3238 45.1339 58.3384 45.1254 58.3544 45.1204C58.3703 45.1154 58.3872 45.114 58.4037 45.1163C58.8191 45.1314 68.5964 45.5126 70.0848 47.2601C70.1592 47.3393 70.2156 47.4335 70.2503 47.5365C70.2851 47.6394 70.2973 47.7486 70.2861 47.8566C70.2824 47.8865 70.268 47.9141 70.2455 47.9341C70.2229 47.9541 70.1939 47.9652 70.1637 47.9653Z" fill="#337B94"/>
<path d="M69.396 51.7815C71.9752 54.7612 77.5893 56.0909 77.5893 56.0909C80.124 54.9346 80.1685 44.7501 79.3236 38.924C78.4787 33.098 71.3637 34.5211 69.5195 35.1882C67.6753 35.8553 62.1465 36.478 62.1465 36.478C62.1465 36.478 63.4484 47.5964 66.2054 48.1746C66.2054 48.1746 68.6155 45.6707 69.4282 47.6342C69.5578 47.9631 69.6111 48.3171 69.584 48.6696L69.396 51.7815Z" fill="#337B94"/>
<path d="M68.1829 53.2198C67.7623 53.1969 67.3547 53.0659 66.9995 52.8394C66.9711 52.8231 66.9503 52.7962 66.9418 52.7646C66.9332 52.733 66.9376 52.6993 66.9539 52.6709C66.9702 52.6425 66.9971 52.6217 67.0287 52.6132C67.0603 52.6046 67.094 52.609 67.1224 52.6253C67.7435 52.9806 68.2469 53.0631 68.6195 52.872C69.1976 52.5729 69.2878 51.6987 69.2886 51.69C69.2898 51.6737 69.2943 51.6579 69.3018 51.6434C69.3093 51.6289 69.3196 51.6161 69.3322 51.6058C69.3448 51.5954 69.3593 51.5877 69.375 51.5831C69.3906 51.5784 69.407 51.577 69.4232 51.5789C69.4394 51.5805 69.4551 51.5852 69.4694 51.5928C69.4837 51.6004 69.4964 51.6108 69.5068 51.6233C69.5171 51.6358 69.5249 51.6503 69.5296 51.6658C69.5344 51.6813 69.536 51.6976 69.5345 51.7138C69.5305 51.755 69.4294 52.7311 68.733 53.0913C68.5627 53.178 68.3739 53.2221 68.1829 53.2198Z" fill="#337B94"/>
<path d="M59.7852 53.0977C59.8748 53.3418 60.0388 53.5516 60.2542 53.6974C60.3594 53.756 60.4753 53.7928 60.5951 53.8054C60.7148 53.8181 60.8359 53.8064 60.951 53.7711C61.4533 53.605 61.9337 53.3789 62.3818 53.0977C62.0239 53.5327 61.5445 53.8511 61.0047 54.0121C60.8587 54.054 60.705 54.0616 60.5556 54.0342C60.4062 54.0068 60.2652 53.9453 60.1436 53.8543C60.0331 53.7612 59.944 53.6455 59.8822 53.5149C59.8204 53.3844 59.7873 53.2421 59.7852 53.0977Z" fill="#337B94"/>
<path d="M60.5439 48.0567C60.7359 48.05 60.9179 47.9689 61.0514 47.8307C61.185 47.6924 61.2596 47.5077 61.2596 47.3154C61.2596 47.1232 61.185 46.9385 61.0514 46.8002C60.9179 46.6619 60.7359 46.5809 60.5439 46.5742C60.3518 46.5809 60.1698 46.6619 60.0363 46.8002C59.9027 46.9385 59.8281 47.1232 59.8281 47.3154C59.8281 47.5077 59.9027 47.6924 60.0363 47.8307C60.1698 47.9689 60.3518 48.05 60.5439 48.0567Z" fill="#337B94"/>
<path d="M33.0321 121.586C33.2242 121.579 33.4062 121.498 33.5397 121.36C33.6733 121.222 33.7479 121.037 33.7479 120.845C33.7479 120.653 33.6733 120.468 33.5397 120.33C33.4062 120.191 33.2242 120.11 33.0321 120.104C32.8401 120.11 32.6581 120.191 32.5246 120.33C32.391 120.468 32.3164 120.653 32.3164 120.845C32.3164 121.037 32.391 121.222 32.5246 121.36C32.6581 121.498 32.8401 121.579 33.0321 121.586Z" fill="#337B94"/>
<path d="M40.0575 118.563C40.2496 118.556 40.4316 118.475 40.5651 118.337C40.6986 118.198 40.7733 118.014 40.7733 117.821C40.7733 117.629 40.6986 117.444 40.5651 117.306C40.4316 117.168 40.2496 117.087 40.0575 117.08C39.8654 117.087 39.6835 117.168 39.5499 117.306C39.4164 117.444 39.3418 117.629 39.3418 117.821C39.3418 118.014 39.4164 118.198 39.5499 118.337C39.6835 118.475 39.8654 118.556 40.0575 118.563Z" fill="#337B94"/>
<path d="M37.3017 124.076C37.4938 124.069 37.6757 123.988 37.8093 123.85C37.9428 123.712 38.0174 123.527 38.0174 123.335C38.0174 123.143 37.9428 122.958 37.8093 122.82C37.6757 122.681 37.4938 122.6 37.3017 122.594C37.1096 122.6 36.9276 122.681 36.7941 122.82C36.6606 122.958 36.5859 123.143 36.5859 123.335C36.5859 123.527 36.6606 123.712 36.7941 123.85C36.9276 123.988 37.1096 124.069 37.3017 124.076Z" fill="#337B94"/>
<path d="M35.9677 114.559C36.1598 114.552 36.3417 114.471 36.4753 114.333C36.6088 114.194 36.6834 114.01 36.6834 113.817C36.6834 113.625 36.6088 113.44 36.4753 113.302C36.3417 113.164 36.1598 113.083 35.9677 113.076C35.7756 113.083 35.5936 113.164 35.4601 113.302C35.3266 113.44 35.252 113.625 35.252 113.817C35.252 114.01 35.3266 114.194 35.4601 114.333C35.5936 114.471 35.7756 114.552 35.9677 114.559Z" fill="#337B94"/>
<path d="M43.8817 112.869C44.0738 112.862 44.2558 112.781 44.3893 112.643C44.5229 112.505 44.5975 112.32 44.5975 112.128C44.5975 111.936 44.5229 111.751 44.3893 111.613C44.2558 111.474 44.0738 111.393 43.8817 111.387C43.6897 111.393 43.5077 111.474 43.3742 111.613C43.2406 111.751 43.166 111.936 43.166 112.128C43.166 112.32 43.2406 112.505 43.3742 112.643C43.5077 112.781 43.6897 112.862 43.8817 112.869Z" fill="#337B94"/>
<path d="M39.2567 108.865C39.4488 108.859 39.6308 108.778 39.7643 108.639C39.8978 108.501 39.9725 108.316 39.9725 108.124C39.9725 107.932 39.8978 107.747 39.7643 107.609C39.6308 107.471 39.4488 107.39 39.2567 107.383C39.0647 107.39 38.8827 107.471 38.7492 107.609C38.6156 107.747 38.541 107.932 38.541 108.124C38.541 108.316 38.6156 108.501 38.7492 108.639C38.8827 108.778 39.0647 108.859 39.2567 108.865Z" fill="#337B94"/>
<path d="M39.6142 113.936C39.8063 113.929 39.9882 113.848 40.1218 113.71C40.2553 113.571 40.3299 113.387 40.3299 113.194C40.3299 113.002 40.2553 112.817 40.1218 112.679C39.9882 112.541 39.8063 112.46 39.6142 112.453C39.4221 112.46 39.2401 112.541 39.1066 112.679C38.9731 112.817 38.8984 113.002 38.8984 113.194C38.8984 113.387 38.9731 113.571 39.1066 113.71C39.2401 113.848 39.4221 113.929 39.6142 113.936Z" fill="#337B94"/>
<path d="M36.1454 119.006C36.3375 118.999 36.5195 118.918 36.653 118.78C36.7865 118.642 36.8611 118.457 36.8611 118.265C36.8611 118.072 36.7865 117.888 36.653 117.749C36.5195 117.611 36.3375 117.53 36.1454 117.523C35.9533 117.53 35.7713 117.611 35.6378 117.749C35.5043 117.888 35.4297 118.072 35.4297 118.265C35.4297 118.457 35.5043 118.642 35.6378 118.78C35.7713 118.918 35.9533 118.999 36.1454 119.006Z" fill="#337B94"/>
<path d="M42.7438 120.176L41.9286 121.36C41.7725 121.293 41.6437 121.175 41.5635 121.026C41.4832 120.876 41.4562 120.704 41.487 120.536C41.5177 120.369 41.6044 120.218 41.7326 120.107C41.8609 119.995 42.0232 119.931 42.1929 119.924C42.2981 119.92 42.4028 119.941 42.4986 119.984C42.5943 120.028 42.6783 120.094 42.7438 120.176Z" fill="#337B94"/>
<path d="M45.4477 116.259L44.6151 117.464C44.5137 117.36 44.4448 117.229 44.4166 117.086C44.3884 116.943 44.4022 116.796 44.4564 116.661C44.5105 116.526 44.6027 116.409 44.7216 116.326C44.8406 116.242 44.9812 116.195 45.1266 116.19C45.2375 116.188 45.3474 116.211 45.4477 116.259Z" fill="#337B94"/>
<path d="M56.6298 96.3848C56.8219 96.3781 57.0039 96.2971 57.1374 96.1588C57.2709 96.0205 57.3455 95.8358 57.3455 95.6436C57.3455 95.4513 57.2709 95.2666 57.1374 95.1283C57.0039 94.9901 56.8219 94.909 56.6298 94.9023C56.4377 94.909 56.2557 94.9901 56.1222 95.1283C55.9887 95.2666 55.9141 95.4513 55.9141 95.6436C55.9141 95.8358 55.9887 96.0205 56.1222 96.1588C56.2557 96.2971 56.4377 96.3781 56.6298 96.3848Z" fill="#337B94"/>
<path d="M60.0692 98.7559C60.2613 98.7492 60.4433 98.6681 60.5768 98.5299C60.7104 98.3916 60.785 98.2069 60.785 98.0147C60.785 97.8224 60.7104 97.6377 60.5768 97.4994C60.4433 97.3612 60.2613 97.2801 60.0692 97.2734C59.8772 97.2801 59.6952 97.3612 59.5617 97.4994C59.4281 97.6377 59.3535 97.8224 59.3535 98.0147C59.3535 98.2069 59.4281 98.3916 59.5617 98.5299C59.6952 98.6681 59.8772 98.7492 60.0692 98.7559Z" fill="#337B94"/>
<path d="M63.6259 96.1465C63.818 96.1398 63.9999 96.0588 64.1335 95.9205C64.267 95.7822 64.3416 95.5975 64.3416 95.4053C64.3416 95.2131 64.267 95.0283 64.1335 94.8901C63.9999 94.7518 63.818 94.6708 63.6259 94.6641C63.4338 94.6708 63.2518 94.7518 63.1183 94.8901C62.9848 95.0283 62.9102 95.2131 62.9102 95.4053C62.9102 95.5975 62.9848 95.7822 63.1183 95.9205C63.2518 96.0588 63.4338 96.1398 63.6259 96.1465Z" fill="#337B94"/>
<path d="M56.9853 103.145C57.1774 103.138 57.3593 103.057 57.4929 102.919C57.6264 102.78 57.701 102.596 57.701 102.403C57.701 102.211 57.6264 102.026 57.4929 101.888C57.3593 101.75 57.1774 101.669 56.9853 101.662C56.7932 101.669 56.6112 101.75 56.4777 101.888C56.3442 102.026 56.2695 102.211 56.2695 102.403C56.2695 102.596 56.3442 102.78 56.4777 102.919C56.6112 103.057 56.7932 103.138 56.9853 103.145Z" fill="#337B94"/>
<path d="M63.6259 102.67C63.818 102.663 63.9999 102.582 64.1335 102.444C64.267 102.306 64.3416 102.121 64.3416 101.929C64.3416 101.736 64.267 101.552 64.1335 101.414C63.9999 101.275 63.818 101.194 63.6259 101.188C63.4338 101.194 63.2518 101.275 63.1183 101.414C62.9848 101.552 62.9102 101.736 62.9102 101.929C62.9102 102.121 62.9848 102.306 63.1183 102.444C63.2518 102.582 63.4338 102.663 63.6259 102.67Z" fill="#337B94"/>
<path d="M60.3056 106.109C60.4977 106.103 60.6796 106.022 60.8132 105.883C60.9467 105.745 61.0213 105.56 61.0213 105.368C61.0213 105.176 60.9467 104.991 60.8132 104.853C60.6796 104.715 60.4977 104.634 60.3056 104.627C60.1135 104.634 59.9315 104.715 59.798 104.853C59.6645 104.991 59.5898 105.176 59.5898 105.368C59.5898 105.56 59.6645 105.745 59.798 105.883C59.9315 106.022 60.1135 106.103 60.3056 106.109Z" fill="#337B94"/>
<path d="M57.2235 109.666C57.4156 109.659 57.5976 109.578 57.7311 109.44C57.8646 109.302 57.9393 109.117 57.9393 108.925C57.9393 108.733 57.8646 108.548 57.7311 108.41C57.5976 108.271 57.4156 108.19 57.2235 108.184C57.0315 108.19 56.8495 108.271 56.716 108.41C56.5824 108.548 56.5078 108.733 56.5078 108.925C56.5078 109.117 56.5824 109.302 56.716 109.44C56.8495 109.578 57.0315 109.659 57.2235 109.666Z" fill="#337B94"/>
<path d="M63.9814 109.904C64.1734 109.898 64.3554 109.817 64.4889 109.678C64.6225 109.54 64.6971 109.355 64.6971 109.163C64.6971 108.971 64.6225 108.786 64.4889 108.648C64.3554 108.51 64.1734 108.429 63.9814 108.422C63.7893 108.429 63.6073 108.51 63.4738 108.648C63.3402 108.786 63.2656 108.971 63.2656 109.163C63.2656 109.355 63.3402 109.54 63.4738 109.678C63.6073 109.817 63.7893 109.898 63.9814 109.904Z" fill="#337B94"/>
<path d="M57.579 115.834C57.7711 115.827 57.9531 115.746 58.0866 115.608C58.2201 115.47 58.2947 115.285 58.2947 115.093C58.2947 114.901 58.2201 114.716 58.0866 114.578C57.9531 114.439 57.7711 114.358 57.579 114.352C57.3869 114.358 57.2049 114.439 57.0714 114.578C56.9379 114.716 56.8633 114.901 56.8633 115.093C56.8633 115.285 56.9379 115.47 57.0714 115.608C57.2049 115.746 57.3869 115.827 57.579 115.834Z" fill="#337B94"/>
<path d="M63.9814 116.07C64.1734 116.064 64.3554 115.983 64.4889 115.844C64.6225 115.706 64.6971 115.521 64.6971 115.329C64.6971 115.137 64.6225 114.952 64.4889 114.814C64.3554 114.676 64.1734 114.595 63.9814 114.588C63.7893 114.595 63.6073 114.676 63.4738 114.814C63.3402 114.952 63.2656 115.137 63.2656 115.329C63.2656 115.521 63.3402 115.706 63.4738 115.844C63.6073 115.983 63.7893 116.064 63.9814 116.07Z" fill="#337B94"/>
<path d="M57.3407 121.289C57.5328 121.282 57.7148 121.201 57.8483 121.063C57.9818 120.925 58.0564 120.74 58.0564 120.548C58.0564 120.356 57.9818 120.171 57.8483 120.033C57.7148 119.894 57.5328 119.813 57.3407 119.807C57.1486 119.813 56.9667 119.894 56.8331 120.033C56.6996 120.171 56.625 120.356 56.625 120.548C56.625 120.74 56.6996 120.925 56.8331 121.063C56.9667 121.201 57.1486 121.282 57.3407 121.289Z" fill="#337B94"/>
<path d="M63.9814 121.883C64.1734 121.876 64.3554 121.795 64.4889 121.657C64.6225 121.519 64.6971 121.334 64.6971 121.142C64.6971 120.949 64.6225 120.765 64.4889 120.626C64.3554 120.488 64.1734 120.407 63.9814 120.4C63.7893 120.407 63.6073 120.488 63.4738 120.626C63.3402 120.765 63.2656 120.949 63.2656 121.142C63.2656 121.334 63.3402 121.519 63.4738 121.657C63.6073 121.795 63.7893 121.876 63.9814 121.883Z" fill="#337B94"/>
<path d="M57.4599 127.338C57.652 127.331 57.834 127.25 57.9675 127.112C58.101 126.974 58.1756 126.789 58.1756 126.597C58.1756 126.404 58.101 126.22 57.9675 126.081C57.834 125.943 57.652 125.862 57.4599 125.855C57.2678 125.862 57.0858 125.943 56.9523 126.081C56.8188 126.22 56.7441 126.404 56.7441 126.597C56.7441 126.789 56.8188 126.974 56.9523 127.112C57.0858 127.25 57.2678 127.331 57.4599 127.338Z" fill="#337B94"/>
<path d="M64.1005 127.574C64.2926 127.568 64.4745 127.487 64.6081 127.348C64.7416 127.21 64.8162 127.025 64.8162 126.833C64.8162 126.641 64.7416 126.456 64.6081 126.318C64.4745 126.18 64.2926 126.098 64.1005 126.092C63.9084 126.098 63.7264 126.18 63.5929 126.318C63.4594 126.456 63.3848 126.641 63.3848 126.833C63.3848 127.025 63.4594 127.21 63.5929 127.348C63.7264 127.487 63.9084 127.568 64.1005 127.574Z" fill="#337B94"/>
<path d="M60.661 131.844C60.8531 131.837 61.0351 131.756 61.1686 131.618C61.3021 131.479 61.3768 131.295 61.3768 131.103C61.3768 130.91 61.3021 130.726 61.1686 130.587C61.0351 130.449 60.8531 130.368 60.661 130.361C60.469 130.368 60.287 130.449 60.1535 130.587C60.0199 130.726 59.9453 130.91 59.9453 131.103C59.9453 131.295 60.0199 131.479 60.1535 131.618C60.287 131.756 60.469 131.837 60.661 131.844Z" fill="#337B94"/>
<path d="M65.6415 132.793C65.8336 132.786 66.0156 132.705 66.1491 132.567C66.2826 132.429 66.3572 132.244 66.3572 132.052C66.3572 131.86 66.2826 131.675 66.1491 131.537C66.0156 131.398 65.8336 131.317 65.6415 131.311C65.4494 131.317 65.2674 131.398 65.1339 131.537C65.0004 131.675 64.9258 131.86 64.9258 132.052C64.9258 132.244 65.0004 132.429 65.1339 132.567C65.2674 132.705 65.4494 132.786 65.6415 132.793Z" fill="#337B94"/>
<path d="M67.54 98.4004C67.732 98.3937 67.914 98.3127 68.0476 98.1744C68.1811 98.0361 68.2557 97.8514 68.2557 97.6592C68.2557 97.467 68.1811 97.2822 68.0476 97.144C67.914 97.0057 67.732 96.9247 67.54 96.918C67.3479 96.9247 67.1659 97.0057 67.0324 97.144C66.8988 97.2822 66.8242 97.467 66.8242 97.6592C66.8242 97.8514 66.8988 98.0361 67.0324 98.1744C67.1659 98.3127 67.3479 98.3937 67.54 98.4004Z" fill="#337B94"/>
<path d="M70.622 95.6719C70.8141 95.6652 70.996 95.5842 71.1296 95.4459C71.2631 95.3076 71.3377 95.1229 71.3377 94.9307C71.3377 94.7384 71.2631 94.5537 71.1296 94.4155C70.996 94.2772 70.8141 94.1962 70.622 94.1895C70.4299 94.1962 70.2479 94.2772 70.1144 94.4155C69.9809 94.5537 69.9062 94.7384 69.9063 94.9307C69.9062 95.1229 69.9809 95.3076 70.1144 95.4459C70.2479 95.5842 70.4299 95.6652 70.622 95.6719Z" fill="#337B94"/>
<path d="M74.4169 97.5703C74.609 97.5636 74.791 97.4826 74.9245 97.3443C75.058 97.2061 75.1326 97.0213 75.1326 96.8291C75.1326 96.6369 75.058 96.4522 74.9245 96.3139C74.791 96.1756 74.609 96.0946 74.4169 96.0879C74.2248 96.0946 74.0428 96.1756 73.9093 96.3139C73.7758 96.4522 73.7012 96.6369 73.7012 96.8291C73.7012 97.0213 73.7758 97.2061 73.9093 97.3443C74.0428 97.4826 74.2248 97.5636 74.4169 97.5703Z" fill="#337B94"/>
<path d="M71.8095 100.654C72.0016 100.648 72.1835 100.567 72.3171 100.428C72.4506 100.29 72.5252 100.105 72.5252 99.9131C72.5252 99.7209 72.4506 99.5362 72.3171 99.3979C72.1835 99.2596 72.0016 99.1786 71.8095 99.1719C71.6174 99.1786 71.4354 99.2596 71.3019 99.3979C71.1684 99.5362 71.0938 99.7209 71.0938 99.9131C71.0938 100.105 71.1684 100.29 71.3019 100.428C71.4354 100.567 71.6174 100.648 71.8095 100.654Z" fill="#337B94"/>
<path d="M69.5556 105.396C69.7476 105.39 69.9296 105.309 70.0631 105.17C70.1967 105.032 70.2713 104.848 70.2713 104.655C70.2713 104.463 70.1967 104.278 70.0631 104.14C69.9296 104.002 69.7476 103.921 69.5556 103.914C69.3635 103.921 69.1815 104.002 69.048 104.14C68.9145 104.278 68.8398 104.463 68.8398 104.655C68.8398 104.848 68.9145 105.032 69.048 105.17C69.1815 105.309 69.3635 105.39 69.5556 105.396Z" fill="#337B94"/>
<path d="M76.3153 103.975C76.5074 103.968 76.6894 103.887 76.8229 103.749C76.9565 103.61 77.0311 103.426 77.0311 103.233C77.0311 103.041 76.9565 102.856 76.8229 102.718C76.6894 102.58 76.5074 102.499 76.3153 102.492C76.1233 102.499 75.9413 102.58 75.8078 102.718C75.6742 102.856 75.5996 103.041 75.5996 103.233C75.5996 103.426 75.6742 103.61 75.8078 103.749C75.9413 103.887 76.1233 103.968 76.3153 103.975Z" fill="#337B94"/>
<path d="M73.706 107.65C73.898 107.644 74.08 107.563 74.2135 107.424C74.3471 107.286 74.4217 107.101 74.4217 106.909C74.4217 106.717 74.3471 106.532 74.2135 106.394C74.08 106.256 73.898 106.175 73.706 106.168C73.5139 106.175 73.3319 106.256 73.1984 106.394C73.0649 106.532 72.9902 106.717 72.9902 106.909C72.9902 107.101 73.0649 107.286 73.1984 107.424C73.3319 107.563 73.5139 107.644 73.706 107.65Z" fill="#337B94"/>
<path d="M70.3857 111.326C70.5777 111.319 70.7597 111.238 70.8932 111.1C71.0268 110.962 71.1014 110.777 71.1014 110.585C71.1014 110.393 71.0268 110.208 70.8932 110.07C70.7597 109.931 70.5777 109.85 70.3857 109.844C70.1936 109.85 70.0116 109.931 69.8781 110.07C69.7445 110.208 69.6699 110.393 69.6699 110.585C69.6699 110.777 69.7445 110.962 69.8781 111.1C70.0116 111.238 70.1936 111.319 70.3857 111.326Z" fill="#337B94"/>
<path d="M77.3817 109.785C77.5738 109.778 77.7558 109.697 77.8893 109.559C78.0228 109.421 78.0975 109.236 78.0975 109.044C78.0975 108.852 78.0228 108.667 77.8893 108.529C77.7558 108.39 77.5738 108.309 77.3817 108.303C77.1897 108.309 77.0077 108.39 76.8742 108.529C76.7406 108.667 76.666 108.852 76.666 109.044C76.666 109.236 76.7406 109.421 76.8742 109.559C77.0077 109.697 77.1897 109.778 77.3817 109.785Z" fill="#337B94"/>
<path d="M74.6552 114.055C74.8473 114.048 75.0292 113.967 75.1628 113.829C75.2963 113.69 75.3709 113.506 75.3709 113.313C75.3709 113.121 75.2963 112.937 75.1628 112.798C75.0292 112.66 74.8473 112.579 74.6552 112.572C74.4631 112.579 74.2811 112.66 74.1476 112.798C74.0141 112.937 73.9395 113.121 73.9395 113.313C73.9395 113.506 74.0141 113.69 74.1476 113.829C74.2811 113.967 74.4631 114.048 74.6552 114.055Z" fill="#337B94"/>
<path d="M70.8603 117.494C71.0524 117.487 71.2343 117.406 71.3679 117.268C71.5014 117.13 71.576 116.945 71.576 116.753C71.576 116.561 71.5014 116.376 71.3679 116.238C71.2343 116.099 71.0524 116.018 70.8603 116.012C70.6682 116.018 70.4862 116.099 70.3527 116.238C70.2192 116.376 70.1445 116.561 70.1445 116.753C70.1445 116.945 70.2192 117.13 70.3527 117.268C70.4862 117.406 70.6682 117.487 70.8603 117.494Z" fill="#337B94"/>
<path d="M76.0771 120.697C76.2691 120.691 76.4511 120.61 76.5846 120.471C76.7182 120.333 76.7928 120.148 76.7928 119.956C76.7928 119.764 76.7182 119.579 76.5846 119.441C76.4511 119.303 76.2691 119.222 76.0771 119.215C75.885 119.222 75.703 119.303 75.5695 119.441C75.436 119.579 75.3613 119.764 75.3613 119.956C75.3613 120.148 75.436 120.333 75.5695 120.471C75.703 120.61 75.885 120.691 76.0771 120.697Z" fill="#337B94"/>
<path d="M78.5673 116.07C78.7594 116.064 78.9413 115.983 79.0749 115.844C79.2084 115.706 79.283 115.521 79.283 115.329C79.283 115.137 79.2084 114.952 79.0749 114.814C78.9413 114.676 78.7594 114.595 78.5673 114.588C78.3752 114.595 78.1932 114.676 78.0597 114.814C77.9262 114.952 77.8516 115.137 77.8516 115.329C77.8516 115.521 77.9262 115.706 78.0597 115.844C78.1932 115.983 78.3752 116.064 78.5673 116.07Z" fill="#337B94"/>
<path d="M71.8095 123.424C72.0016 123.417 72.1835 123.336 72.3171 123.198C72.4506 123.06 72.5252 122.875 72.5252 122.683C72.5252 122.49 72.4506 122.306 72.3171 122.167C72.1835 122.029 72.0016 121.948 71.8095 121.941C71.6174 121.948 71.4354 122.029 71.3019 122.167C71.1684 122.306 71.0938 122.49 71.0938 122.683C71.0938 122.875 71.1684 123.06 71.3019 123.198C71.4354 123.336 71.6174 123.417 71.8095 123.424Z" fill="#337B94"/>
<path d="M77.2626 127.219C77.4547 127.212 77.6367 127.131 77.7702 126.993C77.9037 126.854 77.9783 126.67 77.9783 126.478C77.9783 126.285 77.9037 126.101 77.7702 125.962C77.6367 125.824 77.4547 125.743 77.2626 125.736C77.0705 125.743 76.8885 125.824 76.755 125.962C76.6215 126.101 76.5469 126.285 76.5469 126.478C76.5469 126.67 76.6215 126.854 76.755 126.993C76.8885 127.131 77.0705 127.212 77.2626 127.219Z" fill="#337B94"/>
<path d="M80.8212 121.764C81.0133 121.757 81.1952 121.676 81.3288 121.538C81.4623 121.399 81.5369 121.215 81.5369 121.022C81.5369 120.83 81.4623 120.646 81.3288 120.507C81.1952 120.369 81.0133 120.288 80.8212 120.281C80.6291 120.288 80.4471 120.369 80.3136 120.507C80.1801 120.646 80.1055 120.83 80.1055 121.022C80.1055 121.215 80.1801 121.399 80.3136 121.538C80.4471 121.676 80.6291 121.757 80.8212 121.764Z" fill="#337B94"/>
<path d="M72.4013 130.897C72.5934 130.89 72.7753 130.809 72.9089 130.67C73.0424 130.532 73.117 130.348 73.117 130.155C73.117 129.963 73.0424 129.778 72.9089 129.64C72.7753 129.502 72.5934 129.421 72.4013 129.414C72.2092 129.421 72.0272 129.502 71.8937 129.64C71.7602 129.778 71.6855 129.963 71.6855 130.155C71.6855 130.348 71.7602 130.532 71.8937 130.67C72.0272 130.809 72.2092 130.89 72.4013 130.897Z" fill="#337B94"/>
<path d="M78.2118 134.453C78.4039 134.446 78.5859 134.365 78.7194 134.227C78.8529 134.089 78.9276 133.904 78.9276 133.712C78.9276 133.52 78.8529 133.335 78.7194 133.197C78.5859 133.058 78.4039 132.977 78.2118 132.971C78.0197 132.977 77.8378 133.058 77.7042 133.197C77.5707 133.335 77.4961 133.52 77.4961 133.712C77.4961 133.904 77.5707 134.089 77.7042 134.227C77.8378 134.365 78.0197 134.446 78.2118 134.453Z" fill="#337B94"/>
<path d="M73.2314 136.826C73.4234 136.819 73.6054 136.738 73.7389 136.6C73.8725 136.462 73.9471 136.277 73.9471 136.085C73.9471 135.893 73.8725 135.708 73.7389 135.57C73.6054 135.431 73.4234 135.35 73.2314 135.344C73.0393 135.35 72.8573 135.431 72.7238 135.57C72.5902 135.708 72.5156 135.893 72.5156 136.085C72.5156 136.277 72.5902 136.462 72.7238 136.6C72.8573 136.738 73.0393 136.819 73.2314 136.826Z" fill="#337B94"/>
<path d="M82.7177 130.539C82.9098 130.532 83.0918 130.451 83.2253 130.313C83.3588 130.175 83.4334 129.99 83.4334 129.798C83.4334 129.606 83.3588 129.421 83.2253 129.283C83.0918 129.144 82.9098 129.063 82.7177 129.057C82.5256 129.063 82.3436 129.144 82.2101 129.283C82.0766 129.421 82.002 129.606 82.002 129.798C82.002 129.99 82.0766 130.175 82.2101 130.313C82.3436 130.451 82.5256 130.532 82.7177 130.539Z" fill="#337B94"/>
<path d="M86.3935 126.982C86.5855 126.976 86.7675 126.895 86.901 126.756C87.0345 126.618 87.1092 126.433 87.1092 126.241C87.1092 126.049 87.0345 125.864 86.901 125.726C86.7675 125.588 86.5855 125.507 86.3935 125.5C86.2014 125.507 86.0194 125.588 85.8859 125.726C85.7524 125.864 85.6777 126.049 85.6777 126.241C85.6777 126.433 85.7524 126.618 85.8859 126.756C86.0194 126.895 86.2014 126.976 86.3935 126.982Z" fill="#337B94"/>
<path d="M88.4091 133.148C88.6012 133.142 88.7832 133.061 88.9167 132.922C89.0502 132.784 89.1248 132.599 89.1248 132.407C89.1248 132.215 89.0502 132.03 88.9167 131.892C88.7832 131.754 88.6012 131.673 88.4091 131.666C88.217 131.673 88.035 131.754 87.9015 131.892C87.768 132.03 87.6934 132.215 87.6934 132.407C87.6934 132.599 87.768 132.784 87.9015 132.922C88.035 133.061 88.217 133.142 88.4091 133.148Z" fill="#337B94"/>
<path d="M91.4931 128.879C91.6852 128.872 91.8672 128.791 92.0007 128.653C92.1342 128.515 92.2088 128.33 92.2088 128.138C92.2088 127.945 92.1342 127.761 92.0007 127.622C91.8672 127.484 91.6852 127.403 91.4931 127.396C91.301 127.403 91.119 127.484 90.9855 127.622C90.852 127.761 90.7773 127.945 90.7773 128.138C90.7773 128.33 90.852 128.515 90.9855 128.653C91.119 128.791 91.301 128.872 91.4931 128.879Z" fill="#337B94"/>
<path d="M95.5243 124.492C95.7164 124.486 95.8984 124.404 96.0319 124.266C96.1654 124.128 96.24 123.943 96.24 123.751C96.24 123.559 96.1654 123.374 96.0319 123.236C95.8984 123.097 95.7164 123.016 95.5243 123.01C95.3322 123.016 95.1503 123.097 95.0167 123.236C94.8832 123.374 94.8086 123.559 94.8086 123.751C94.8086 123.943 94.8832 124.128 95.0167 124.266C95.1503 124.404 95.3322 124.486 95.5243 124.492Z" fill="#337B94"/>
<path d="M97.1845 130.658C97.3766 130.652 97.5585 130.57 97.6921 130.432C97.8256 130.294 97.9002 130.109 97.9002 129.917C97.9002 129.725 97.8256 129.54 97.6921 129.402C97.5585 129.264 97.3766 129.182 97.1845 129.176C96.9924 129.182 96.8104 129.264 96.6769 129.402C96.5434 129.54 96.4688 129.725 96.4688 129.917C96.4688 130.109 96.5434 130.294 96.6769 130.432C96.8104 130.57 96.9924 130.652 97.1845 130.658Z" fill="#337B94"/>
<path d="M100.268 126.27C100.461 126.263 100.643 126.182 100.776 126.044C100.91 125.905 100.984 125.721 100.984 125.528C100.984 125.336 100.91 125.151 100.776 125.013C100.643 124.875 100.461 124.794 100.268 124.787C100.076 124.794 99.8944 124.875 99.7609 125.013C99.6274 125.151 99.5527 125.336 99.5527 125.528C99.5527 125.721 99.6274 125.905 99.7609 126.044C99.8944 126.182 100.076 126.263 100.268 126.27Z" fill="#337B94"/>
<path d="M103.47 122C103.662 121.993 103.844 121.912 103.977 121.774C104.111 121.636 104.185 121.451 104.185 121.259C104.185 121.067 104.111 120.882 103.977 120.744C103.844 120.605 103.662 120.524 103.47 120.518C103.278 120.524 103.096 120.605 102.962 120.744C102.829 120.882 102.754 121.067 102.754 121.259C102.754 121.451 102.829 121.636 102.962 121.774C103.096 121.912 103.278 121.993 103.47 122Z" fill="#337B94"/>
<path d="M105.485 128.168C105.677 128.161 105.859 128.08 105.993 127.942C106.126 127.804 106.201 127.619 106.201 127.427C106.201 127.235 106.126 127.05 105.993 126.912C105.859 126.773 105.677 126.692 105.485 126.686C105.293 126.692 105.111 126.773 104.978 126.912C104.844 127.05 104.77 127.235 104.77 127.427C104.77 127.619 104.844 127.804 104.978 127.942C105.111 128.08 105.293 128.161 105.485 128.168Z" fill="#337B94"/>
<path d="M107.501 124.135C107.693 124.128 107.875 124.047 108.008 123.909C108.142 123.771 108.217 123.586 108.217 123.394C108.217 123.201 108.142 123.017 108.008 122.878C107.875 122.74 107.693 122.659 107.501 122.652C107.309 122.659 107.127 122.74 106.993 122.878C106.86 123.017 106.785 123.201 106.785 123.394C106.785 123.586 106.86 123.771 106.993 123.909C107.127 124.047 107.309 124.128 107.501 124.135Z" fill="#337B94"/>
<path d="M111.296 120.34C111.488 120.333 111.67 120.252 111.803 120.114C111.937 119.976 112.012 119.791 112.012 119.599C112.012 119.406 111.937 119.222 111.803 119.083C111.67 118.945 111.488 118.864 111.296 118.857C111.104 118.864 110.922 118.945 110.788 119.083C110.655 119.222 110.58 119.406 110.58 119.599C110.58 119.791 110.655 119.976 110.788 120.114C110.922 120.252 111.104 120.333 111.296 120.34Z" fill="#337B94"/>
<path d="M113.431 127.219C113.623 127.212 113.805 127.131 113.938 126.993C114.072 126.854 114.146 126.67 114.146 126.478C114.146 126.285 114.072 126.101 113.938 125.962C113.805 125.824 113.623 125.743 113.431 125.736C113.238 125.743 113.057 125.824 112.923 125.962C112.789 126.101 112.715 126.285 112.715 126.478C112.715 126.67 112.789 126.854 112.923 126.993C113.057 127.131 113.238 127.212 113.431 127.219Z" fill="#337B94"/>
<path d="M115.446 122.83C115.638 122.823 115.82 122.742 115.954 122.604C116.087 122.466 116.162 122.281 116.162 122.089C116.162 121.897 116.087 121.712 115.954 121.574C115.82 121.435 115.638 121.354 115.446 121.348C115.254 121.354 115.072 121.435 114.939 121.574C114.805 121.712 114.73 121.897 114.73 122.089C114.73 122.281 114.805 122.466 114.939 122.604C115.072 122.742 115.254 122.823 115.446 122.83Z" fill="#337B94"/>
<path d="M105.96 118.088C106.152 118.081 106.334 118 106.467 117.862C106.601 117.724 106.676 117.539 106.676 117.347C106.676 117.154 106.601 116.97 106.467 116.831C106.334 116.693 106.152 116.612 105.96 116.605C105.768 116.612 105.586 116.693 105.452 116.831C105.319 116.97 105.244 117.154 105.244 117.347C105.244 117.539 105.319 117.724 105.452 117.862C105.586 118 105.768 118.081 105.96 118.088Z" fill="#337B94"/>
<path d="M98.37 118.918C98.5621 118.911 98.7441 118.83 98.8776 118.692C99.0111 118.554 99.0858 118.369 99.0858 118.177C99.0858 117.985 99.0111 117.8 98.8776 117.662C98.7441 117.523 98.5621 117.442 98.37 117.436C98.1779 117.442 97.996 117.523 97.8624 117.662C97.7289 117.8 97.6543 117.985 97.6543 118.177C97.6543 118.369 97.7289 118.554 97.8624 118.692C97.996 118.83 98.1779 118.911 98.37 118.918Z" fill="#337B94"/>
<path d="M101.335 114.41C101.527 114.403 101.709 114.322 101.842 114.184C101.976 114.046 102.051 113.861 102.051 113.669C102.051 113.477 101.976 113.292 101.842 113.154C101.709 113.015 101.527 112.934 101.335 112.928C101.143 112.934 100.961 113.015 100.827 113.154C100.694 113.292 100.619 113.477 100.619 113.669C100.619 113.861 100.694 114.046 100.827 114.184C100.961 114.322 101.143 114.403 101.335 114.41Z" fill="#337B94"/>
<path d="M109.518 113.58C109.711 113.573 109.893 113.492 110.026 113.354C110.16 113.216 110.234 113.031 110.234 112.839C110.234 112.647 110.16 112.462 110.026 112.324C109.893 112.185 109.711 112.104 109.518 112.098C109.326 112.104 109.144 112.185 109.011 112.324C108.877 112.462 108.803 112.647 108.803 112.839C108.803 113.031 108.877 113.216 109.011 113.354C109.144 113.492 109.326 113.573 109.518 113.58Z" fill="#337B94"/>
<path d="M114.38 115.834C114.572 115.827 114.754 115.746 114.887 115.608C115.021 115.47 115.096 115.285 115.096 115.093C115.096 114.901 115.021 114.716 114.887 114.578C114.754 114.439 114.572 114.358 114.38 114.352C114.188 114.358 114.006 114.439 113.872 114.578C113.739 114.716 113.664 114.901 113.664 115.093C113.664 115.285 113.739 115.47 113.872 115.608C114.006 115.746 114.188 115.827 114.38 115.834Z" fill="#337B94"/>
<path d="M111.77 108.361C111.963 108.355 112.144 108.274 112.278 108.135C112.412 107.997 112.486 107.812 112.486 107.62C112.486 107.428 112.412 107.243 112.278 107.105C112.144 106.967 111.963 106.886 111.77 106.879C111.578 106.886 111.396 106.967 111.263 107.105C111.129 107.243 111.055 107.428 111.055 107.62C111.055 107.812 111.129 107.997 111.263 108.135C111.396 108.274 111.578 108.355 111.77 108.361Z" fill="#337B94"/>
<path d="M104.655 109.193C104.847 109.187 105.029 109.106 105.163 108.967C105.296 108.829 105.371 108.644 105.371 108.452C105.371 108.26 105.296 108.075 105.163 107.937C105.029 107.799 104.847 107.718 104.655 107.711C104.463 107.718 104.281 107.799 104.148 107.937C104.014 108.075 103.939 108.26 103.939 108.452C103.939 108.644 104.014 108.829 104.148 108.967C104.281 109.106 104.463 109.187 104.655 109.193Z" fill="#337B94"/>
<path d="M98.6083 109.311C98.8004 109.304 98.9824 109.223 99.1159 109.085C99.2494 108.946 99.324 108.762 99.324 108.569C99.324 108.377 99.2494 108.192 99.1159 108.054C98.9824 107.916 98.8004 107.835 98.6083 107.828C98.4162 107.835 98.2342 107.916 98.1007 108.054C97.9672 108.192 97.8926 108.377 97.8926 108.569C97.8926 108.762 97.9672 108.946 98.1007 109.085C98.2342 109.223 98.4162 109.304 98.6083 109.311Z" fill="#337B94"/>
<path d="M100.388 104.566C100.58 104.56 100.762 104.479 100.895 104.34C101.029 104.202 101.103 104.017 101.103 103.825C101.103 103.633 101.029 103.448 100.895 103.31C100.762 103.172 100.58 103.091 100.388 103.084C100.196 103.091 100.014 103.172 99.88 103.31C99.7465 103.448 99.6719 103.633 99.6719 103.825C99.6719 104.017 99.7465 104.202 99.88 104.34C100.014 104.479 100.196 104.56 100.388 104.566Z" fill="#337B94"/>
<path d="M107.145 103.736C107.338 103.73 107.519 103.649 107.653 103.51C107.787 103.372 107.861 103.187 107.861 102.995C107.861 102.803 107.787 102.618 107.653 102.48C107.519 102.342 107.338 102.261 107.145 102.254C106.953 102.261 106.771 102.342 106.638 102.48C106.504 102.618 106.43 102.803 106.43 102.995C106.43 103.187 106.504 103.372 106.638 103.51C106.771 103.649 106.953 103.73 107.145 103.736Z" fill="#337B94"/>
<path d="M93.8642 104.686C94.0563 104.679 94.2382 104.598 94.3718 104.46C94.5053 104.321 94.5799 104.137 94.5799 103.944C94.5799 103.752 94.5053 103.567 94.3718 103.429C94.2382 103.291 94.0563 103.21 93.8642 103.203C93.6721 103.21 93.4901 103.291 93.3566 103.429C93.2231 103.567 93.1484 103.752 93.1484 103.944C93.1484 104.137 93.2231 104.321 93.3566 104.46C93.4901 104.598 93.6721 104.679 93.8642 104.686Z" fill="#337B94"/>
<path d="M97.1845 100.416C97.3766 100.409 97.5585 100.328 97.6921 100.19C97.8256 100.052 97.9002 99.867 97.9002 99.6748C97.9002 99.4826 97.8256 99.2979 97.6921 99.1596C97.5585 99.0213 97.3766 98.9403 97.1845 98.9336C96.9924 98.9403 96.8104 99.0213 96.6769 99.1596C96.5434 99.2979 96.4688 99.4826 96.4688 99.6748C96.4688 99.867 96.5434 100.052 96.6769 100.19C96.8104 100.328 96.9924 100.409 97.1845 100.416Z" fill="#337B94"/>
<path d="M103.35 100.535C103.543 100.528 103.725 100.447 103.858 100.309C103.992 100.171 104.066 99.9862 104.066 99.794C104.066 99.6017 103.992 99.417 103.858 99.2787C103.725 99.1405 103.543 99.0594 103.35 99.0527C103.158 99.0594 102.976 99.1405 102.843 99.2787C102.709 99.417 102.635 99.6017 102.635 99.794C102.635 99.9862 102.709 100.171 102.843 100.309C102.976 100.447 103.158 100.528 103.35 100.535Z" fill="#337B94"/>
<path d="M109.755 99.3496C109.947 99.3429 110.129 99.2619 110.262 99.1236C110.396 98.9853 110.471 98.8006 110.471 98.6084C110.471 98.4162 110.396 98.2315 110.262 98.0932C110.129 97.9549 109.947 97.8739 109.755 97.8672C109.563 97.8739 109.381 97.9549 109.247 98.0932C109.114 98.2315 109.039 98.4162 109.039 98.6084C109.039 98.8006 109.114 98.9853 109.247 99.1236C109.381 99.2619 109.563 99.3429 109.755 99.3496Z" fill="#337B94"/>
<path d="M113.786 102.551C113.978 102.544 114.16 102.463 114.294 102.325C114.427 102.187 114.502 102.002 114.502 101.81C114.502 101.617 114.427 101.433 114.294 101.294C114.16 101.156 113.978 101.075 113.786 101.068C113.594 101.075 113.412 101.156 113.278 101.294C113.145 101.433 113.07 101.617 113.07 101.81C113.07 102.002 113.145 102.187 113.278 102.325C113.412 102.463 113.594 102.544 113.786 102.551Z" fill="#337B94"/>
<path d="M115.327 111.209C115.519 111.202 115.701 111.121 115.835 110.983C115.968 110.845 116.043 110.66 116.043 110.468C116.043 110.276 115.968 110.091 115.835 109.953C115.701 109.814 115.519 109.733 115.327 109.727C115.135 109.733 114.953 109.814 114.819 109.953C114.686 110.091 114.611 110.276 114.611 110.468C114.611 110.66 114.686 110.845 114.819 110.983C114.953 111.121 115.135 111.202 115.327 111.209Z" fill="#337B94"/>
<path d="M105.841 95.9102C106.033 95.9035 106.215 95.8225 106.348 95.6842C106.482 95.5459 106.556 95.3612 106.556 95.169C106.556 94.9767 106.482 94.792 106.348 94.6537C106.215 94.5155 106.033 94.4344 105.841 94.4277C105.649 94.4344 105.467 94.5155 105.333 94.6537C105.2 94.792 105.125 94.9767 105.125 95.169C105.125 95.3612 105.2 95.5459 105.333 95.6842C105.467 95.8225 105.649 95.9035 105.841 95.9102Z" fill="#337B94"/>
<path d="M99.6747 95.791C99.8668 95.7843 100.049 95.7033 100.182 95.565C100.316 95.4268 100.39 95.242 100.39 95.0498C100.39 94.8576 100.316 94.6729 100.182 94.5346C100.049 94.3963 99.8668 94.3153 99.6747 94.3086C99.4826 94.3153 99.3006 94.3963 99.1671 94.5346C99.0336 94.6729 98.959 94.8576 98.959 95.0498C98.959 95.242 99.0336 95.4268 99.1671 95.565C99.3006 95.7033 99.4826 95.7843 99.6747 95.791Z" fill="#337B94"/>
<path d="M92.6786 97.0957C92.8707 97.089 93.0527 97.008 93.1862 96.8697C93.3197 96.7314 93.3944 96.5467 93.3944 96.3545C93.3944 96.1623 93.3197 95.9776 93.1862 95.8393C93.0527 95.701 92.8707 95.62 92.6786 95.6133C92.4865 95.62 92.3046 95.701 92.171 95.8393C92.0375 95.9776 91.9629 96.1623 91.9629 96.3545C91.9629 96.5467 92.0375 96.7314 92.171 96.8697C92.3046 97.008 92.4865 97.089 92.6786 97.0957Z" fill="#337B94"/>
<path d="M95.5243 93.4199C95.7164 93.4132 95.8984 93.3322 96.0319 93.1939C96.1654 93.0557 96.24 92.8709 96.24 92.6787C96.24 92.4865 96.1654 92.3018 96.0319 92.1635C95.8984 92.0252 95.7164 91.9442 95.5243 91.9375C95.3322 91.9442 95.1503 92.0252 95.0167 92.1635C94.8832 92.3018 94.8086 92.4865 94.8086 92.6787C94.8086 92.8709 94.8832 93.0557 95.0167 93.1939C95.1503 93.3322 95.3322 93.4132 95.5243 93.4199Z" fill="#337B94"/>
<path d="M102.165 91.877C102.357 91.8703 102.539 91.7893 102.673 91.651C102.806 91.5127 102.881 91.328 102.881 91.1358C102.881 90.9435 102.806 90.7588 102.673 90.6205C102.539 90.4823 102.357 90.4012 102.165 90.3945C101.973 90.4012 101.791 90.4823 101.657 90.6205C101.524 90.7588 101.449 90.9435 101.449 91.1358C101.449 91.328 101.524 91.5127 101.657 91.651C101.791 91.7893 101.973 91.8703 102.165 91.877Z" fill="#337B94"/>
<path d="M108.686 90.6914C108.879 90.6847 109.06 90.6037 109.194 90.4654C109.328 90.3272 109.402 90.1424 109.402 89.9502C109.402 89.758 109.328 89.5733 109.194 89.435C109.06 89.2967 108.879 89.2157 108.686 89.209C108.494 89.2157 108.312 89.2967 108.179 89.435C108.045 89.5733 107.971 89.758 107.971 89.9502C107.971 90.1424 108.045 90.3272 108.179 90.4654C108.312 90.6037 108.494 90.6847 108.686 90.6914Z" fill="#337B94"/>
<path d="M110.585 93.3008C110.777 93.2941 110.959 93.2131 111.092 93.0748C111.226 92.9365 111.301 92.7518 111.301 92.5596C111.301 92.3674 111.226 92.1826 111.092 92.0444C110.959 91.9061 110.777 91.8251 110.585 91.8184C110.393 91.8251 110.211 91.9061 110.077 92.0444C109.944 92.1826 109.869 92.3674 109.869 92.5596C109.869 92.7518 109.944 92.9365 110.077 93.0748C110.211 93.2131 110.393 93.2941 110.585 93.3008Z" fill="#337B94"/>
<path d="M112.6 95.791C112.793 95.7843 112.975 95.7033 113.108 95.565C113.242 95.4268 113.316 95.242 113.316 95.0498C113.316 94.8576 113.242 94.6729 113.108 94.5346C112.975 94.3963 112.793 94.3153 112.6 94.3086C112.408 94.3153 112.226 94.3963 112.093 94.5346C111.959 94.6729 111.885 94.8576 111.885 95.0498C111.885 95.242 111.959 95.4268 112.093 95.565C112.226 95.7033 112.408 95.7843 112.6 95.791Z" fill="#337B94"/>
<path d="M98.0145 89.5059C98.2066 89.4992 98.3886 89.4181 98.5221 89.2799C98.6557 89.1416 98.7303 88.9569 98.7303 88.7646C98.7303 88.5724 98.6557 88.3877 98.5221 88.2494C98.3886 88.1112 98.2066 88.0301 98.0145 88.0234C97.8225 88.0301 97.6405 88.1112 97.507 88.2494C97.3734 88.3877 97.2988 88.5724 97.2988 88.7646C97.2988 88.9569 97.3734 89.1416 97.507 89.2799C97.6405 89.4181 97.8225 89.4992 98.0145 89.5059Z" fill="#337B94"/>
<path d="M90.663 90.4551C90.8551 90.4484 91.0371 90.3674 91.1706 90.2291C91.3041 90.0908 91.3787 89.9061 91.3787 89.7139C91.3787 89.5216 91.3041 89.3369 91.1706 89.1987C91.0371 89.0604 90.8551 88.9794 90.663 88.9727C90.4709 88.9794 90.2889 89.0604 90.1554 89.1987C90.0219 89.3369 89.9473 89.5216 89.9473 89.7139C89.9473 89.9061 90.0219 90.0908 90.1554 90.2291C90.2889 90.3674 90.4709 90.4484 90.663 90.4551Z" fill="#337B94"/>
<path d="M104.774 88.0821C104.966 88.0754 105.148 87.9943 105.282 87.8561C105.415 87.7178 105.49 87.5331 105.49 87.3408C105.49 87.1486 105.415 86.9639 105.282 86.8256C105.148 86.6873 104.966 86.6063 104.774 86.5996C104.582 86.6063 104.4 86.6873 104.267 86.8256C104.133 86.9639 104.059 87.1486 104.059 87.3408C104.059 87.5331 104.133 87.7178 104.267 87.8561C104.4 87.9943 104.582 88.0754 104.774 88.0821Z" fill="#337B94"/>
<path d="M109.991 87.252C110.183 87.2453 110.365 87.1642 110.499 87.026C110.632 86.8877 110.707 86.703 110.707 86.5108C110.707 86.3185 110.632 86.1338 110.499 85.9955C110.365 85.8573 110.183 85.7762 109.991 85.7695C109.799 85.7762 109.617 85.8573 109.484 85.9955C109.35 86.1338 109.275 86.3185 109.275 86.5108C109.275 86.703 109.35 86.8877 109.484 87.026C109.617 87.1642 109.799 87.2453 109.991 87.252Z" fill="#337B94"/>
<path d="M83.4286 93.1816C83.6207 93.1749 83.8027 93.0939 83.9362 92.9556C84.0697 92.8174 84.1444 92.6327 84.1444 92.4404C84.1444 92.2482 84.0697 92.0635 83.9362 91.9252C83.8027 91.7869 83.6207 91.7059 83.4286 91.6992C83.2365 91.7059 83.0546 91.7869 82.921 91.9252C82.7875 92.0635 82.7129 92.2482 82.7129 92.4404C82.7129 92.6327 82.7875 92.8174 82.921 92.9556C83.0546 93.0939 83.2365 93.1749 83.4286 93.1816Z" fill="#337B94"/>
<path d="M87.1063 95.791C87.2984 95.7843 87.4804 95.7033 87.6139 95.565C87.7474 95.4268 87.8221 95.242 87.8221 95.0498C87.8221 94.8576 87.7474 94.6729 87.6139 94.5346C87.4804 94.3963 87.2984 94.3153 87.1063 94.3086C86.9143 94.3153 86.7323 94.3963 86.5988 94.5346C86.4652 94.6729 86.3906 94.8576 86.3906 95.0498C86.3906 95.242 86.4652 95.4268 86.5988 95.565C86.7323 95.7033 86.9143 95.7843 87.1063 95.791Z" fill="#337B94"/>
<path d="M85.3271 99.7051C85.5191 99.6984 85.7011 99.6174 85.8346 99.4791C85.9682 99.3408 86.0428 99.1561 86.0428 98.9639C86.0428 98.7717 85.9682 98.5869 85.8346 98.4487C85.7011 98.3104 85.5191 98.2294 85.3271 98.2227C85.135 98.2294 84.953 98.3104 84.8195 98.4487C84.686 98.5869 84.6113 98.7717 84.6113 98.9639C84.6113 99.1561 84.686 99.3408 84.8195 99.4791C84.953 99.6174 85.135 99.6984 85.3271 99.7051Z" fill="#337B94"/>
<path d="M87.579 103.975C87.7711 103.968 87.9531 103.887 88.0866 103.749C88.2201 103.61 88.2947 103.426 88.2947 103.233C88.2947 103.041 88.2201 102.856 88.0866 102.718C87.9531 102.58 87.7711 102.499 87.579 102.492C87.3869 102.499 87.2049 102.58 87.0714 102.718C86.9379 102.856 86.8633 103.041 86.8633 103.233C86.8633 103.426 86.9379 103.61 87.0714 103.749C87.2049 103.887 87.3869 103.968 87.579 103.975Z" fill="#337B94"/>
<path d="M86.038 107.414C86.2301 107.407 86.4121 107.326 86.5456 107.188C86.6791 107.05 86.7537 106.865 86.7537 106.673C86.7537 106.481 86.6791 106.296 86.5456 106.158C86.4121 106.019 86.2301 105.938 86.038 105.932C85.8459 105.938 85.6639 106.019 85.5304 106.158C85.3969 106.296 85.3223 106.481 85.3223 106.673C85.3223 106.865 85.3969 107.05 85.5304 107.188C85.6639 107.326 85.8459 107.407 86.038 107.414Z" fill="#337B94"/>
<path d="M79.5165 99.8242C79.7086 99.8175 79.8906 99.7365 80.0241 99.5983C80.1576 99.46 80.2322 99.2753 80.2322 99.083C80.2322 98.8908 80.1576 98.7061 80.0241 98.5678C79.8906 98.4295 79.7086 98.3485 79.5165 98.3418C79.3244 98.3485 79.1424 98.4295 79.0089 98.5678C78.8754 98.7061 78.8008 98.8908 78.8008 99.083C78.8008 99.2753 78.8754 99.46 79.0089 99.5983C79.1424 99.7365 79.3244 99.8175 79.5165 99.8242Z" fill="#337B94"/>
<path d="M80.702 105.754C80.8941 105.747 81.0761 105.666 81.2096 105.528C81.3431 105.39 81.4178 105.205 81.4178 105.013C81.4178 104.82 81.3431 104.636 81.2096 104.497C81.0761 104.359 80.8941 104.278 80.702 104.271C80.51 104.278 80.328 104.359 80.1945 104.497C80.061 104.636 79.9863 104.82 79.9863 105.013C79.9863 105.205 80.061 105.39 80.1945 105.528C80.328 105.666 80.51 105.747 80.702 105.754Z" fill="#337B94"/>
<path d="M90.5439 108.719C90.7359 108.712 90.9179 108.631 91.0514 108.493C91.185 108.354 91.2596 108.17 91.2596 107.978C91.2596 107.785 91.185 107.601 91.0514 107.462C90.9179 107.324 90.7359 107.243 90.5439 107.236C90.3518 107.243 90.1698 107.324 90.0363 107.462C89.9027 107.601 89.8281 107.785 89.8281 107.978C89.8281 108.17 89.9027 108.354 90.0363 108.493C90.1698 108.631 90.3518 108.712 90.5439 108.719Z" fill="#337B94"/>
<path d="M86.9872 112.039C87.1793 112.032 87.3613 111.951 87.4948 111.813C87.6283 111.675 87.703 111.49 87.703 111.298C87.703 111.106 87.6283 110.921 87.4948 110.783C87.3613 110.644 87.1793 110.563 86.9872 110.557C86.7951 110.563 86.6131 110.644 86.4796 110.783C86.3461 110.921 86.2715 111.106 86.2715 111.298C86.2715 111.49 86.3461 111.675 86.4796 111.813C86.6131 111.951 86.7951 112.032 86.9872 112.039Z" fill="#337B94"/>
<path d="M91.9677 113.225C92.1598 113.218 92.3417 113.137 92.4753 112.999C92.6088 112.86 92.6834 112.676 92.6834 112.483C92.6834 112.291 92.6088 112.106 92.4753 111.968C92.3417 111.83 92.1598 111.749 91.9677 111.742C91.7756 111.749 91.5936 111.83 91.4601 111.968C91.3266 112.106 91.252 112.291 91.252 112.483C91.252 112.676 91.3266 112.86 91.4601 112.999C91.5936 113.137 91.7756 113.218 91.9677 113.225Z" fill="#337B94"/>
<path d="M89.0028 115.479C89.1949 115.472 89.3769 115.391 89.5104 115.253C89.6439 115.114 89.7186 114.93 89.7186 114.737C89.7186 114.545 89.6439 114.36 89.5104 114.222C89.3769 114.084 89.1949 114.003 89.0028 113.996C88.8108 114.003 88.6288 114.084 88.4953 114.222C88.3617 114.36 88.2871 114.545 88.2871 114.737C88.2871 114.93 88.3617 115.114 88.4953 115.253C88.6288 115.391 88.8108 115.472 89.0028 115.479Z" fill="#337B94"/>
<path d="M62.9018 30.3134C62.8952 30.5882 62.781 30.8493 62.5838 31.0406C62.39 31.2343 62.1663 31.3955 61.9213 31.518C61.4406 31.7642 60.9222 31.9284 60.3874 32.004C60.1117 32.0445 59.8307 32.0301 59.5606 31.9617C59.2905 31.8933 59.0365 31.7721 58.8133 31.6052C58.5887 31.4394 58.4073 31.2219 58.2846 30.9712C58.1618 30.7204 58.1012 30.4437 58.1079 30.1646C58.1328 30.0066 58.2081 29.8608 58.3227 29.7492C58.4293 29.6489 58.5511 29.566 58.6835 29.5035C58.933 29.3779 59.1809 29.287 59.4204 29.1905C59.6554 29.0983 59.8827 28.9875 60.1003 28.8594C60.2065 28.7958 60.3063 28.7259 60.406 28.6558C60.5233 28.5715 60.6464 28.4955 60.7742 28.4283C61.0483 28.2839 61.3634 28.2374 61.6674 28.2964C61.9624 28.3669 62.2219 28.5418 62.398 28.7887C62.7116 29.2367 62.8867 29.7668 62.9018 30.3134ZM62.8613 30.3134C62.827 29.7963 62.59 29.3135 62.2018 28.9701C62.0415 28.8125 61.8339 28.7119 61.6108 28.684C61.3877 28.6561 61.1617 28.7025 60.9676 28.8159C60.8638 28.8643 60.769 28.9403 60.6657 29.0023C60.5526 29.0857 60.4336 29.1609 60.3097 29.2272C60.067 29.354 59.8145 29.4614 59.5548 29.5481C59.3029 29.6386 59.048 29.7061 58.8176 29.7965C58.5875 29.8888 58.3833 29.9977 58.3262 30.2072C58.2892 30.4539 58.3226 30.706 58.4225 30.9345C58.5225 31.163 58.6849 31.3587 58.8911 31.499C59.1051 31.6278 59.344 31.7098 59.592 31.7394C59.84 31.769 60.0915 31.7456 60.3298 31.6708C60.8187 31.5467 61.3334 31.4193 61.8231 31.2827C62.0692 31.2148 62.3022 31.1064 62.5127 30.9618C62.618 30.8892 62.7046 30.7925 62.7652 30.6797C62.8258 30.567 62.8588 30.4414 62.8613 30.3134Z" fill="#337B94"/>
<path d="M59.209 22.0091C59.2037 22.2368 59.1522 22.4611 59.0576 22.6684C58.9631 22.8757 58.8275 23.0616 58.659 23.2149C58.3247 23.5263 57.9421 23.7813 57.5261 23.97C56.7036 24.3495 55.8332 24.6153 54.9389 24.7601C54.4841 24.8406 54.0178 24.8293 53.5675 24.7267C53.1171 24.6241 52.6919 24.4324 52.3168 24.1629C51.9418 23.8911 51.6404 23.5301 51.4401 23.1126C51.2397 22.695 51.1467 22.2341 51.1694 21.7715C51.2137 21.5235 51.3372 21.2966 51.5213 21.1247C51.6989 20.9663 51.8995 20.8358 52.1162 20.7376C52.5326 20.5367 52.9555 20.3907 53.366 20.2292C53.7731 20.0745 54.1673 19.888 54.545 19.6712C54.7315 19.5636 54.9064 19.4414 55.0809 19.3185C55.273 19.1816 55.4739 19.0575 55.6822 18.947C56.1177 18.7137 56.6193 18.6346 57.1055 18.7224C57.5804 18.8307 58.0029 19.1009 58.3006 19.4866C58.5885 19.8448 58.8094 20.2522 58.9526 20.689C59.1056 21.1131 59.1921 21.5584 59.209 22.0091ZM59.1684 22.0091C59.1485 21.5659 59.0395 21.1314 58.8479 20.7313C58.6691 20.3333 58.4167 19.9725 58.1042 19.668C57.8135 19.3763 57.4406 19.1806 57.0355 19.1072C56.6344 19.0551 56.2273 19.1349 55.8756 19.3346C55.6915 19.4349 55.5129 19.5452 55.3407 19.665C55.1536 19.8024 54.9578 19.9273 54.7543 20.039C54.3514 20.2545 53.9321 20.4376 53.5002 20.5868C53.0774 20.7422 52.6475 20.865 52.2503 21.0306C52.0563 21.1077 51.8729 21.2092 51.7045 21.3326C51.5496 21.4546 51.4384 21.6236 51.3875 21.8141C51.3366 22.2441 51.4034 22.6797 51.5808 23.0747C51.7581 23.4696 52.0393 23.809 52.3945 24.0566C52.7603 24.2881 53.1705 24.4406 53.5988 24.5044C54.027 24.5682 54.4639 24.5418 54.8813 24.4269C55.7284 24.2303 56.5986 24.0078 57.4279 23.7347C57.845 23.6007 58.237 23.3984 58.5879 23.1361C58.7641 23.0049 58.908 22.8351 59.0086 22.6398C59.1092 22.4445 59.1639 22.2287 59.1684 22.0091Z" fill="#337B94"/>
<path d="M57.3985 10.8134C57.529 11.1303 57.594 11.4703 57.5896 11.813C57.5767 12.1587 57.4695 12.4942 57.2795 12.7833C56.8812 13.3415 56.3614 13.8021 55.7593 14.1302C54.5706 14.791 53.325 15.3437 52.0375 15.7817C50.7661 16.2554 49.4783 16.6734 48.2102 17.1382C47.5769 17.3727 46.943 17.6034 46.3174 17.8534C45.6858 18.101 45.047 18.3479 44.3925 18.5421C43.0864 18.9601 41.7222 19.1679 40.3509 19.1579C38.9624 19.1739 37.6152 18.6852 36.5598 17.7826C35.5858 16.8031 34.9718 15.5227 34.818 14.1498C34.6258 12.7959 34.6428 11.4205 34.8685 10.0718C35.1854 8.73727 35.7172 7.46316 36.443 6.29936C37.1507 5.1245 38.0124 4.04967 39.0052 3.10352C40.0004 2.14742 41.1517 1.36858 42.4094 0.800692C43.6788 0.235151 45.0592 -0.0371304 46.4483 0.00406624C47.8379 0.0269583 49.2033 0.37245 50.4366 1.01329C51.6497 1.67189 52.717 2.56927 53.5741 3.65136C54.4217 4.71829 55.1515 5.87366 55.751 7.09738C56.3631 8.30858 56.9042 9.55221 57.3985 10.8134ZM57.3608 10.8286C56.3376 8.33347 55.1512 5.84661 53.3706 3.8246C52.5006 2.81126 51.4447 1.9738 50.2599 1.35736C49.0705 0.764899 47.7638 0.445575 46.4352 0.422708C43.7735 0.335549 41.209 1.56561 39.266 3.38285C38.2882 4.29914 37.4289 5.33414 36.7081 6.46376C35.973 7.5863 35.4251 8.82078 35.0857 10.119C34.8276 11.44 34.7849 12.794 34.9592 14.1286C35.0473 14.7948 35.2278 15.4455 35.4954 16.0619C35.7659 16.6752 36.1606 17.2257 36.6546 17.6788C37.686 18.5477 39.0074 18.9953 40.3545 18.9318C41.6961 18.9005 43.0246 18.6607 44.2925 18.2209C45.5713 17.829 46.7969 17.227 48.0923 16.8068C49.3754 16.3635 50.6665 15.9534 51.9539 15.5408C53.2474 15.1547 54.5032 14.6518 55.7057 14.0385C56.3079 13.7364 56.8283 13.2937 57.223 12.7477C57.411 12.4697 57.5192 12.1456 57.536 11.8104C57.5443 11.4747 57.4847 11.1407 57.3608 10.8286V10.8286Z" fill="#337B94"/>
</svg>
