<svg width="137" height="165" viewBox="0 0 137 165" fill="none" xmlns="http://www.w3.org/2000/svg">
<path d="M33.8627 139.75L32.6434 116.294C32.2645 114.219 31.9252 112.143 31.566 110.067L30.5519 103.833C29.8771 99.6733 29.2537 95.5102 28.6262 91.3431C28.0145 87.176 27.4069 83.0089 26.8426 78.8379L25.9981 72.5753C25.7534 70.5826 25.489 68.5937 25.2602 66.6009C25.0589 66.5417 24.8616 66.4825 24.6643 66.4155L24.6564 66.4786L24.6051 67.0626C24.5696 67.4493 24.5577 67.84 24.542 68.2307C24.4986 69.008 24.4867 69.7893 24.463 70.5707C24.4354 72.1295 24.4236 73.6921 24.4197 75.2548C24.3999 78.3762 24.4039 81.5002 24.4315 84.6268C24.467 90.8736 24.4986 97.1203 24.5696 103.367L24.6998 122.115L24.7472 131.487V140.859C32.1974 140.192 33.8627 139.75 33.8627 139.75ZM46.7862 74.0118C46.2862 73.3232 45.8863 72.5673 45.5985 71.7665C45.2907 70.9772 45.0263 70.1722 44.7855 69.3593C44.3041 67.7374 43.9214 66.0919 43.5741 64.4424C43.2347 62.785 42.9309 61.1276 42.6862 59.4584C42.4297 57.7892 42.2311 56.1134 42.0904 54.4311C42.0904 54.4311 39.1623 52.7067 38.3494 51.8937C37.7772 51.3216 36.7315 51.2584 36.1594 51.2742C35.989 51.2834 35.8187 51.2557 35.66 51.1931C35.5013 51.1304 35.358 51.0343 35.2399 50.9111C35.1702 50.8526 35.1162 50.7776 35.083 50.6929C35.0498 50.6081 35.0384 50.5164 35.0498 50.4261C35.0612 50.3358 35.095 50.2499 35.1482 50.176C35.2014 50.1022 35.2723 50.0429 35.3543 50.0035C35.5738 49.8487 35.8402 49.7748 36.108 49.7944C36.8065 49.8339 38.3534 49.968 39.0834 50.4454C38.8352 50.2452 38.5727 50.0632 38.2981 49.9009C29.8929 47.8213 16.0775 49.3722 16.0775 49.3722C16.0775 49.3722 15.8289 51.1913 15.454 54.5179C15.833 53.8187 16.2533 53.1427 16.7129 52.4936C16.9378 52.1739 17.1627 51.8542 17.3955 51.5385C17.6316 51.2113 17.8845 50.8965 18.1532 50.5954C18.0993 51.0047 17.985 51.4037 17.8138 51.7793C17.6525 52.1533 17.4542 52.5102 17.2219 52.8447C16.9907 53.1797 16.7277 53.4916 16.4366 53.776C16.147 54.0699 15.8159 54.3198 15.454 54.5179C14.0374 66.9719 10.7779 100.553 11.7447 138.637C15.812 140.496 20.2936 141.261 24.7472 140.859C24.6249 137.738 24.5459 134.612 24.4473 131.491L24.2302 122.119C24.096 115.872 24.029 109.622 23.954 103.375C23.9264 97.1242 23.8948 90.8736 23.954 84.6229C23.9895 81.4976 24.0368 78.3762 24.1197 75.2508C24.167 73.6882 24.2275 72.1255 24.3013 70.5629C24.3486 69.7855 24.3802 69.0042 24.4473 68.2228C24.4788 67.8321 24.5065 67.4454 24.5617 67.0547L24.6327 66.4746L24.6446 66.4076C24.467 66.3484 24.2894 66.2892 24.1118 66.2261C23.583 66.0248 23.0582 65.8157 22.5452 65.571C22.025 65.334 21.5225 65.0596 21.0418 64.7501C21.6071 64.8365 22.166 64.9605 22.7149 65.1211C23.2595 65.275 23.7922 65.4606 24.325 65.6459C24.8498 65.8473 25.3746 66.0525 25.8916 66.2852C26.4085 66.5141 26.9136 66.7666 27.4187 67.0468C26.8466 67.0027 26.2806 66.8995 25.7297 66.739C25.5758 66.6996 25.4259 66.6522 25.2759 66.6088C25.6311 68.578 25.9547 70.555 26.298 72.528L27.3121 78.7629C27.9869 82.9222 28.6104 87.0852 29.2378 91.2524C29.8456 95.4195 30.4572 99.5866 31.0215 103.762L31.862 110.024C32.1225 112.112 32.4026 114.199 32.6433 116.294L36.5342 139.525C36.5342 139.525 49.0947 142.307 57.4329 139.636C57.4329 139.636 50.2747 99.8747 46.7862 74.0118ZM24.2775 56.5383C24.2302 57.442 24.1749 58.3417 24.0802 59.2414C23.9934 60.1411 23.8829 61.0408 23.7133 61.9326C23.6265 61.025 23.6028 60.1213 23.5988 59.2178C23.5949 58.3141 23.6265 57.4104 23.662 56.5107C23.7133 55.607 23.7685 54.7074 23.8593 53.8075C23.95 52.9079 24.0605 52.0121 24.2302 51.1163C24.3131 52.0239 24.3367 52.9275 24.3407 53.8312C24.3446 54.7349 24.317 55.6386 24.2775 56.5383ZM24.2302 50.6152C24.1102 50.6108 23.9966 50.56 23.9132 50.4735C23.8299 50.387 23.7833 50.2716 23.7833 50.1515C23.7833 50.0314 23.8299 49.916 23.9132 49.8295C23.9966 49.743 24.1102 49.6922 24.2302 49.6878C24.3502 49.6922 24.4639 49.743 24.5472 49.8295C24.6306 49.916 24.6771 50.0314 24.6771 50.1515C24.6771 50.2716 24.6306 50.387 24.5472 50.4735C24.4639 50.56 24.3502 50.6108 24.2302 50.6152ZM40.5632 57.9747C40.131 57.8919 39.7041 57.7839 39.2847 57.6512C38.4356 57.3686 37.6423 56.9399 36.9407 56.3845C36.2495 55.8045 35.6888 55.0851 35.2951 54.2733C34.8954 53.4797 34.7091 52.5957 34.7545 51.7083C34.9451 52.5358 35.2704 53.3263 35.7174 54.0483C36.1552 54.7505 36.7013 55.3791 37.3353 55.9109C37.6567 56.1712 37.997 56.4074 38.3534 56.6172C38.708 56.8367 39.0772 57.0319 39.4583 57.2013C39.648 57.2942 39.843 57.376 40.0423 57.446L40.6381 57.6787C41.0446 57.809 41.455 57.9274 41.8694 58.0812C41.4353 58.0616 41.0013 58.026 40.5632 57.9747ZM44.9237 55.3624C44.9158 54.7586 44.9276 54.2377 44.9631 53.8037L44.3475 54.2022C43.6415 54.5273 42.8473 54.6079 42.0903 54.4311C42.4653 56.0766 42.8204 57.7234 43.1558 59.3716L44.1779 64.3161C44.5133 65.9616 44.871 67.6019 45.2512 69.2369C45.4485 70.0499 45.6498 70.8666 45.8826 71.6717C46.0908 72.4845 46.3941 73.27 46.7862 74.0118C45.6853 65.8473 44.9513 59.0678 44.9237 55.3624H44.9237Z" fill="#337B94"/>
<path d="M43.7838 48.6807C43.7376 47.4288 43.2104 46.2429 42.3119 45.3699C40.836 44.5412 41.8462 46.9009 41.9015 47.0351C41.8818 47.0154 41.7989 46.9286 41.6608 46.8063C41.574 46.3762 41.4951 45.9223 41.4201 45.4567L41.4082 45.3857C41.1952 44.044 41.0136 42.576 40.8676 41.041C40.8683 41.0264 40.8669 41.0118 40.8637 40.9976C40.7317 38.0841 41.0715 35.1685 41.87 32.3635C42.454 30.1063 43.7602 30.0312 43.7602 30.0312L51.6524 38.8114L44.0916 47.706C43.892 47.9919 43.7846 48.332 43.7838 48.6807Z" fill="#337B94"/>
<path d="M136.134 95.1657C136.134 95.1657 129.911 111.511 118.349 109.289C117.174 109.068 115.976 108.992 114.782 109.064C112.434 107.762 110.114 106.424 107.79 105.094C105.469 103.753 103.169 102.391 100.903 100.967C98.6266 99.5618 96.397 98.0859 94.2424 96.5153C93.7018 96.1207 93.1533 95.738 92.6403 95.3118C92.1234 94.8935 91.5827 94.4989 91.0816 94.0609L89.5741 92.735C89.1164 92.2536 88.6482 91.7748 88.1693 91.2986C89.732 93.5005 91.7722 95.3197 93.8676 97.0047C94.3924 97.4269 94.9172 97.8531 95.4697 98.2398L97.1073 99.4236C98.2241 100.177 99.3408 100.927 100.485 101.637C102.774 103.054 105.106 104.396 107.494 105.631C109.877 106.878 112.3 108.034 114.782 109.064C104.12 109.66 92.8692 120.677 91.6696 123.073C90.3358 125.74 63.877 97.2849 57.8157 79.3458C56.0203 74.0343 51.3204 64.7924 45.0027 55.4954C44.9727 55.453 44.9463 55.4081 44.9238 55.3612C44.7896 55.1244 44.5805 54.6942 44.3477 54.201L44.9632 53.8025C45.3412 53.4952 45.647 53.1085 45.859 52.6699C46.0642 52.9028 46.2023 53.0408 46.2023 53.0408C46.2023 53.0408 57.0975 45.0382 59.5442 42.1456C61.9908 39.257 59.5442 36.3645 59.5442 36.3645C59.5442 36.3645 52.3188 25.1378 48.6489 21.4718C47.4692 20.3642 46.016 19.5906 44.4384 19.2305C52.8358 20.8641 72.5979 27.7186 93.4492 56.5253C121.017 94.6173 136.134 95.1657 136.134 95.1657Z" fill="#337B94"/>
<path d="M8.84838 163.335C9.13249 163.324 9.41659 163.316 9.69675 163.292C6.05844 163.663 1.6072 163.17 0.273438 158.999C0.582374 158.462 0.990833 157.989 1.47693 157.606C1.57132 157.518 1.68315 157.451 1.80513 157.409C1.92712 157.367 2.05654 157.352 2.18496 157.363C2.31339 157.375 2.43794 157.413 2.55052 157.476C2.66311 157.539 2.7612 157.625 2.83841 157.728C3.20994 158.197 3.51776 158.713 3.75385 159.263C4.03401 159.823 4.31821 160.395 4.64568 160.964C4.98559 161.556 5.43407 162.08 5.96767 162.507C6.5266 162.913 7.17987 163.169 7.86568 163.252C8.1911 163.301 8.51936 163.329 8.84838 163.335Z" fill="#337B94"/>
<path d="M29.2255 152.176C28.8704 151.711 28.5508 150.874 28.4758 149.367C28.2864 145.606 25.5477 147.713 25.5477 147.713C20.8874 150.18 19.6088 146.36 19.2616 145.756C18.9143 145.156 16.006 144.817 14.8498 146.616C14.4298 147.193 13.9099 147.69 13.3147 148.084C13.839 148.148 14.351 148.289 14.834 148.502C15.3203 148.705 15.7823 148.962 16.2112 149.268C16.654 149.574 17.0432 149.952 17.3635 150.385C17.7233 150.809 17.9069 151.356 17.8765 151.912C17.6256 151.483 17.2979 151.105 16.9097 150.795C16.5427 150.483 16.152 150.191 15.7495 149.907L14.5341 149.039C14.1237 148.743 13.7173 148.439 13.3147 148.088C12.4194 148.712 11.479 149.269 10.5012 149.753C11.0179 149.751 11.5296 149.854 12.0047 150.057C12.4841 150.253 12.9301 150.521 13.3266 150.854C13.7305 151.186 14.069 151.59 14.325 152.046C14.5894 152.494 14.7448 152.999 14.7787 153.518C14.4315 153.127 14.1632 152.745 13.8238 152.409C13.5089 152.071 13.1728 151.753 12.8175 151.458C12.1112 150.854 11.3377 150.341 10.5012 149.753C9.75927 150.128 9.22659 150.361 9.22659 150.361C8.62284 150.55 8.05854 150.748 7.53369 150.945C8.05299 151.068 8.54971 151.271 9.00559 151.549C9.46855 151.817 9.89552 152.143 10.2762 152.519C10.6705 152.899 10.9962 153.343 11.2391 153.834C11.4966 154.324 11.5946 154.883 11.5193 155.432C11.2998 154.979 11.0298 154.553 10.7143 154.161C10.4059 153.78 10.0738 153.419 9.71986 153.08C9.02929 152.374 8.26377 151.73 7.52975 150.945C-0.918875 154.122 0.0321109 158.056 0.0321109 158.056C0.0914418 158.375 0.170487 158.69 0.268803 158.999C0.447045 158.367 0.776127 157.787 1.22778 157.31C1.48832 157.037 1.84187 156.873 2.21826 156.848C2.60755 156.858 2.9792 157.013 3.26 157.283C3.51821 157.514 3.74032 157.783 3.91897 158.08C4.10057 158.364 4.25048 158.636 4.41224 158.916C4.72014 159.477 5.00416 160.037 5.32382 160.558C5.60452 161.074 5.97771 161.534 6.4248 161.915C6.53925 161.994 6.64581 162.089 6.76816 162.164L7.14697 162.369C7.41961 162.484 7.70058 162.577 7.98745 162.649C9.2102 162.887 10.4558 162.986 11.7008 162.945C13.5424 162.459 15.2796 161.641 16.8268 160.53C20.84 157.717 25.3228 157.867 28.3297 156.261C28.3929 156.225 28.456 156.189 28.5191 156.158C28.8505 155.963 29.1357 155.699 29.3551 155.383C29.5745 155.068 29.7229 154.708 29.79 154.33C29.8571 153.951 29.8414 153.563 29.744 153.191C29.6466 152.819 29.4697 152.473 29.2255 152.176ZM23.5905 152.67C23.1051 153.04 22.6039 153.392 22.087 153.715C21.57 154.039 21.0373 154.339 20.4928 154.611C19.943 154.896 19.3701 155.133 18.7802 155.321C19.2073 154.874 19.6706 154.462 20.1653 154.09C20.6506 153.719 21.1518 153.368 21.6687 153.044C22.1817 152.721 22.7144 152.425 23.263 152.149C23.8124 151.863 24.3854 151.625 24.9756 151.438C24.5494 151.887 24.0861 152.299 23.5905 152.67Z" fill="#337B94"/>
<path d="M9.69531 163.293C9.79001 163.285 9.88472 163.273 9.97942 163.266C9.92422 163.269 9.87287 163.277 9.81767 163.285C9.77817 163.289 9.73481 163.293 9.69531 163.293Z" fill="white"/>
<path d="M10.9226 163.119C10.8753 163.131 10.8239 163.139 10.7727 163.151C10.67 163.17 10.5674 163.186 10.4648 163.198C10.6187 163.174 10.7727 163.151 10.9226 163.119Z" fill="white"/>
<path d="M19.2617 145.757C19.2952 144.943 19.3561 144.147 19.376 143.349C19.4092 142.551 19.3709 141.751 19.2617 140.959C19.5884 141.714 19.7332 142.536 19.6845 143.358C19.6658 144.174 19.5232 144.983 19.2617 145.757Z" fill="#337B94"/>
<path d="M27.5929 147.245C27.4484 146.686 27.3451 146.12 27.2511 145.552C27.1543 144.985 27.0854 144.414 27.0251 143.842C26.9728 143.269 26.9249 142.695 26.9147 142.119C26.8946 141.542 26.9104 140.965 26.9621 140.391L27.1517 142.103L27.3322 143.811C27.3845 144.382 27.4453 144.951 27.4858 145.524C27.5306 146.096 27.5745 146.668 27.5929 147.245Z" fill="#337B94"/>
<path d="M23.4834 4.72852C23.4606 5.64308 23.3512 6.55342 23.1568 7.44735C23.0456 7.87918 22.9745 8.32033 22.9443 8.7652C22.9166 9.21609 22.9191 9.66832 22.9516 10.1189C22.7998 9.68187 22.716 9.22411 22.7033 8.76164C22.6897 8.29686 22.7408 7.83245 22.8552 7.38176C23.0493 6.49888 23.2282 5.60946 23.4834 4.72852Z" fill="#337B94"/>
<path d="M22.6562 7.60226C22.6562 7.60226 24.9373 6.92815 25.8332 8.35682C25.8332 8.35682 26.8371 8.15644 27.308 8.64076C27.801 8.29231 28.3923 8.1104 28.9959 8.12151C29.5995 8.13263 30.1837 8.33619 30.6635 8.70255C30.6635 8.70255 30.8073 11.0947 28.9131 11.1788C28.9131 11.1788 26.9835 10.7962 27.2701 9.02031C27.2701 9.02031 26.9264 8.35668 25.7954 8.73567C25.7954 8.73567 24.9784 10.8952 23.601 10.1837C22.2235 9.47219 22.6562 7.60226 22.6562 7.60226Z" fill="#337B94"/>
<path d="M25.6346 20.3281C26.364 20.4 27.0888 20.5138 27.8051 20.6691C28.547 20.8116 29.2785 21.0036 29.9948 21.2436L30.3865 21.3835L30.104 21.634C29.6126 22.0698 29.0963 22.4815 28.6344 22.9459C28.172 23.4113 27.7334 23.8997 27.3204 24.4094L27.242 24.5035L27.1061 24.4392C26.7248 24.2587 26.3421 24.0805 25.9689 23.8859L24.8547 23.2926C24.483 23.0954 24.113 22.8951 23.75 22.6829C23.3857 22.4727 23.0283 22.2507 22.6713 22.0279L22.1836 21.7235L22.687 21.4975C23.6488 21.0573 24.6326 20.6671 25.6346 20.3281ZM25.6411 20.3895C24.7233 21.0129 23.8446 21.5418 22.9564 22.0363L22.9721 21.5059C23.3439 21.7031 23.7152 21.901 24.0797 22.1108C24.4453 22.3185 24.8041 22.5381 25.1611 22.7609L26.2331 23.4274C26.5886 23.6528 26.9347 23.8945 27.282 24.134L27.068 24.1637C27.5665 23.7372 28.0431 23.2858 28.4959 22.8111C28.9479 22.3369 29.3457 21.8099 29.7682 21.307L29.8775 21.6973C29.163 21.5673 28.4584 21.3879 27.7688 21.1602C27.0692 20.9402 26.3683 20.6993 25.6411 20.3895Z" fill="#337B94"/>
<path d="M29.9355 21.4707L27.1934 24.2866L29.2482 26.5841L33.7021 23.2211L29.9355 21.4707Z" fill="#337B94"/>
<path d="M24.4062 13.75C24.6981 14.2494 24.9408 14.7759 25.1311 15.3221C25.3286 15.8668 25.484 16.4259 25.5959 16.9944C25.7124 17.5626 25.7799 18.1399 25.7978 18.7197C25.8218 19.298 25.7859 19.8774 25.6909 20.4484C25.6625 20.1593 25.6751 19.8739 25.6386 19.5887C25.6228 19.3036 25.5996 19.0198 25.561 18.7374C25.4918 18.1728 25.4105 17.6107 25.2933 17.0547C25.186 16.4969 25.0513 15.9444 24.9056 15.3932C24.7573 14.8425 24.5884 14.297 24.4062 13.75Z" fill="#337B94"/>
<path d="M32.0042 13.8574C32.0353 14.3346 32.0911 14.8043 32.155 15.2689C32.2168 15.7309 32.3142 16.1875 32.4463 16.6345C32.5673 17.0786 32.752 17.5027 32.9948 17.8936C33.2479 18.2849 33.5828 18.6167 33.9765 18.8661C33.5094 18.7128 33.0991 18.4227 32.7987 18.0336C32.501 17.6418 32.281 17.1967 32.1504 16.7222C32.0142 16.2569 31.9355 15.7765 31.916 15.292C31.8888 14.812 31.9184 14.3305 32.0042 13.8574Z" fill="#337B94"/>
<path d="M22.8316 21.7975C22.1049 22.0737 21.3836 22.3553 20.6855 22.688C19.9819 23.0039 19.2951 23.3558 18.6277 23.7422C17.2875 24.4905 16.0363 25.3882 14.898 26.418C12.5897 28.4802 10.5523 30.827 8.83471 33.402C8.4108 34.0479 8.02615 34.7187 7.68286 35.4108C7.60156 35.5778 7.53455 35.7513 7.48257 35.9296C7.43789 36.1121 7.40551 36.2973 7.38566 36.4841C7.34498 36.8558 7.35526 37.2314 7.4162 37.6004C7.44659 37.7835 7.48891 37.9645 7.54289 38.1421C7.56996 38.2326 7.59887 38.3147 7.63047 38.399L7.75292 38.6639L8.22845 39.7285C8.5487 40.437 8.84744 41.1536 9.15709 41.866C10.4008 44.7134 11.5138 47.6101 12.5408 50.5467L12.4205 50.4661C12.7166 50.4881 13.0109 50.5307 13.3011 50.5937L14.1541 50.7735L15.0038 50.9534C15.2848 51.0162 15.5697 51.0599 15.8565 51.0841V51.1459C15.5643 51.1408 15.2727 51.1157 14.9839 51.071L14.123 50.9377L13.2654 50.8042C12.9859 50.7592 12.7036 50.7331 12.4205 50.7263L12.3387 50.7265L12.3002 50.6457C10.9617 47.8354 9.7092 44.9854 8.5874 42.0861C8.30568 41.3617 8.01302 40.6416 7.74191 39.9134L7.33035 38.8231L7.23112 38.5492C7.20029 38.4496 7.17061 38.3464 7.14788 38.2492C7.00492 37.6576 6.98111 37.0434 7.07784 36.4425C7.10917 36.2441 7.15387 36.0481 7.21165 35.8557C7.27728 35.6636 7.35958 35.4776 7.45761 35.2998C7.8292 34.6056 8.24017 33.945 8.6717 33.2956C9.53733 32.0009 10.4278 30.7234 11.3783 29.4844C12.3197 28.2312 13.3738 27.0669 14.5275 26.0059C15.1137 25.4781 15.7348 24.9903 16.3865 24.5458C17.0409 24.1106 17.7209 23.7153 18.4228 23.362C19.1228 23.0101 19.8405 22.6945 20.5729 22.4163C21.3061 22.1472 22.0543 21.9208 22.8137 21.7383L22.8316 21.7975Z" fill="#337B94"/>
<path d="M20.3324 25.3679C20.047 27.3843 19.7078 29.3891 19.3506 31.3902C18.9868 33.3901 18.6175 35.3882 18.1591 37.3697C17.7174 39.3542 17.2693 41.3391 16.9642 43.3487C16.797 44.3508 16.6577 45.3577 16.5384 46.3656C16.4791 46.8694 16.4248 47.3739 16.3819 47.8771C16.3298 48.366 16.3104 48.8579 16.3238 49.3494L16.0713 49.126C17.9295 49.0405 19.7871 48.9968 21.6457 48.9518C23.5041 48.9039 25.3635 48.8951 27.2231 48.9152C29.0827 48.9354 30.9423 48.9928 32.8019 49.0873C33.7313 49.1443 34.6604 49.2098 35.5882 49.304C36.0519 49.3533 36.5149 49.4137 36.976 49.4913C37.4457 49.5437 37.9029 49.6762 38.3277 49.8831L38.2933 49.9344C38.0858 49.8413 37.865 49.781 37.6389 49.7557C37.4117 49.7198 37.1829 49.6922 36.9524 49.6729C36.4924 49.6305 36.0296 49.6115 35.5671 49.5919C34.6421 49.5512 33.7148 49.5388 32.7876 49.5351C30.9334 49.5114 29.0777 49.534 27.2221 49.5473L16.0846 49.6198L15.8376 49.6214L15.832 49.3963C15.831 48.8709 15.8765 48.3464 15.9679 47.829C16.042 47.3224 16.1306 46.8204 16.2172 46.3183L16.7617 43.3142C17.1408 41.3159 17.4286 39.3018 17.7377 37.2904C18.0317 35.2762 18.4353 33.2825 18.8567 31.293C19.286 29.305 19.7436 27.3227 20.2719 25.3555L20.3324 25.3679Z" fill="#337B94"/>
<path d="M14.4342 64.7344C13.9378 64.3534 13.5286 63.8706 13.2341 63.3184C13.083 63.0446 12.9465 62.763 12.8253 62.4747L12.6476 62.0396L12.5053 61.594C12.1473 60.4011 11.9413 59.1677 11.8924 57.9231C11.8662 57.3044 11.8792 56.6863 11.8887 56.0694C11.9441 55.4552 11.961 54.8383 12.0507 54.2292C12.1395 53.6206 12.2244 53.012 12.3481 52.4111C12.4871 51.8121 12.6236 51.2143 12.795 50.625C12.7967 51.2422 12.7635 51.8508 12.7328 52.4583L12.6648 54.2763L12.6359 56.0856C12.6493 56.6862 12.6421 57.2881 12.6803 57.8855L12.7289 58.782C12.7452 59.0809 12.7966 59.3746 12.8204 59.6725C12.8411 59.9715 12.8886 60.2649 12.9383 60.5584C12.983 60.8534 13.0304 61.1474 13.0983 61.4365C13.2948 62.6209 13.751 63.7472 14.4342 64.7344Z" fill="#337B94"/>
<path d="M14.6968 60.8435C14.3152 60.8337 13.9513 60.6803 13.6779 60.4139C13.4224 60.1604 13.243 59.8404 13.1603 59.4901C13.0334 58.8309 13.0128 58.1556 13.0994 57.4898L13.3439 53.5625L13.3091 57.4958C13.2602 58.1354 13.3088 58.7787 13.4532 59.4038C13.5333 59.693 13.6933 59.9538 13.9148 60.1563C14.1249 60.3429 14.3956 60.447 14.6766 60.4493L14.6968 60.8435Z" fill="#337B94"/>
<path d="M37.4261 164.761C37.0981 164.791 36.7684 164.798 36.4395 164.781C35.7484 164.768 35.072 164.579 34.4744 164.232C33.9011 163.862 33.4031 163.387 33.0064 162.831C32.6197 162.298 32.2803 161.758 31.941 161.229C31.6523 160.704 31.2939 160.221 30.8755 159.793C30.6966 159.616 30.4595 159.511 30.2086 159.497C29.945 159.51 29.6959 159.621 29.5101 159.808C29.0668 160.242 28.7082 160.755 28.4526 161.32C30.2047 165.317 34.6519 165.368 38.2232 164.642C37.9627 164.686 37.6944 164.721 37.4261 164.761ZM56.5648 151.597C56.1662 151.167 55.7637 150.365 55.5348 148.878C54.9626 145.157 52.4529 147.524 52.4529 147.524C48.0688 150.452 46.4075 146.782 46.001 146.218C45.5985 145.654 42.6665 145.614 41.6997 147.52C41.3405 148.135 40.8756 148.681 40.3265 149.134C40.8523 149.145 41.3736 149.234 41.8734 149.399C42.3773 149.552 42.8629 149.759 43.3216 150.018C43.7933 150.279 44.2198 150.615 44.5843 151.013C44.9838 151.4 45.222 151.925 45.2512 152.481C44.9558 152.082 44.5908 151.74 44.1739 151.47C43.7754 151.198 43.361 150.946 42.9309 150.705L41.6326 149.963C41.1946 149.71 40.7605 149.45 40.3225 149.138C39.4964 149.849 38.6193 150.497 37.6983 151.08C38.2097 151.026 38.7266 151.077 39.2176 151.23C39.7146 151.377 40.1857 151.601 40.6145 151.893C41.0488 152.183 41.4271 152.549 41.7312 152.974C42.0383 153.394 42.2424 153.881 42.3271 154.394C41.9444 154.039 41.6365 153.684 41.2656 153.388C40.9184 153.083 40.552 152.801 40.1686 152.544C39.4031 152.015 38.5862 151.581 37.6944 151.084C36.992 151.533 36.4869 151.818 36.4869 151.818C35.9068 152.07 35.3622 152.319 34.8571 152.571C35.3879 152.64 35.9045 152.792 36.3882 153.021C36.8753 153.242 37.3326 153.523 37.7496 153.858C38.1813 154.194 38.55 154.604 38.8388 155.069C39.1457 155.53 39.3003 156.075 39.2807 156.628C39.0165 156.199 38.704 155.802 38.3494 155.444C38.0043 155.098 37.638 154.774 37.2525 154.473C36.4908 153.842 35.6661 153.278 34.8571 152.571C26.7755 156.585 28.1211 160.404 28.1211 160.404C28.2106 160.717 28.3213 161.023 28.4526 161.32C28.5658 160.672 28.8339 160.062 29.2339 159.54C29.4642 159.242 29.7981 159.042 30.1691 158.98C30.5589 158.951 30.9454 159.068 31.2543 159.307C31.5329 159.512 31.7802 159.757 31.9883 160.033C32.1974 160.298 32.371 160.554 32.5605 160.815C32.9275 161.34 33.2668 161.872 33.6377 162.358C33.9685 162.843 34.3859 163.263 34.869 163.597C34.9913 163.664 35.1097 163.747 35.2359 163.81L35.6345 163.976C35.918 164.059 36.2067 164.124 36.4987 164.169C37.7424 164.279 38.9945 164.25 40.2317 164.082C42.0108 163.411 43.6529 162.421 45.0775 161.162C48.787 157.958 53.2619 157.65 56.0873 155.748C56.1504 155.708 56.2096 155.665 56.2649 155.626C56.5753 155.399 56.8327 155.108 57.0194 154.772C57.2061 154.436 57.3176 154.064 57.3461 153.68C57.3747 153.297 57.3196 152.912 57.1847 152.553C57.0497 152.193 56.8382 151.867 56.5648 151.597ZM51.0086 152.658C50.5627 153.076 50.0997 153.474 49.6196 153.85C49.1381 154.225 48.6409 154.572 48.124 154.903C47.6062 155.242 47.0611 155.536 46.4943 155.783C46.8738 155.295 47.2921 154.839 47.7452 154.418C48.1911 154 48.6541 153.602 49.1342 153.226C49.6156 152.851 50.1141 152.5 50.6298 152.173C51.1475 151.831 51.6942 151.535 52.2635 151.289C51.8837 151.779 51.464 152.237 51.0086 152.658Z" fill="#337B94"/>
<path d="M38.5656 164.57C38.5064 164.582 38.4433 164.598 38.3841 164.614C38.3407 164.622 38.3012 164.63 38.2578 164.634C38.3604 164.614 38.463 164.594 38.5656 164.57Z" fill="white"/>
<path d="M37.6984 151.078L37.6939 151.083C37.694 151.082 37.6939 151.082 37.6936 151.081C37.6934 151.08 37.6931 151.08 37.6927 151.079C37.6923 151.079 37.6918 151.079 37.6912 151.078C37.6906 151.078 37.6901 151.078 37.6895 151.078H37.6984Z" fill="white"/>
<path d="M40.3273 149.133L40.3228 149.137C40.3229 149.137 40.3227 149.136 40.3225 149.136C40.3223 149.135 40.322 149.135 40.3216 149.134C40.3211 149.134 40.3206 149.133 40.3201 149.133C40.3195 149.133 40.319 149.133 40.3184 149.133H40.3273Z" fill="white"/>
<path d="M45.25 147.246L45.4359 145.64C45.4936 145.106 45.5561 144.574 45.6002 144.041C45.654 143.51 45.6768 142.977 45.6866 142.446C45.7069 141.911 45.6497 141.377 45.5167 140.859C45.7649 141.349 45.9038 141.887 45.9239 142.436C45.9657 142.98 45.9603 143.526 45.9077 144.068C45.8592 144.609 45.7796 145.146 45.6694 145.677C45.5645 146.209 45.4244 146.733 45.25 147.246Z" fill="#337B94"/>
<path d="M54.4402 148.083C54.2528 147.469 54.1033 146.848 53.9614 146.224C53.8163 145.602 53.6979 144.974 53.5848 144.345C53.4789 143.715 53.3766 143.084 53.3076 142.448C53.2279 141.813 53.1812 141.174 53.168 140.533C53.3011 141.16 53.4216 141.786 53.5424 142.412C53.6663 143.037 53.7763 143.665 53.8888 144.292C53.994 144.921 54.1043 145.549 54.1938 146.181C54.2871 146.812 54.3777 147.444 54.4402 148.083Z" fill="#337B94"/>
<path d="M22.6322 4.83942C22.6322 4.83942 23.4225 5.6836 24.0824 3.45373C24.0824 3.45373 24.4679 2.46733 25.6587 3.26951C25.6587 3.26951 26.5085 3.79166 26.9197 2.95815C27.014 2.85099 27.1295 2.76447 27.2589 2.70399C27.3882 2.64351 27.5287 2.61039 27.6714 2.60669C27.8142 2.60298 27.9562 2.62878 28.0885 2.68247C28.2208 2.73616 28.3406 2.81658 28.4404 2.9187C28.4404 2.9187 28.7138 3.19197 29.3443 2.89963C29.9747 2.6073 31.0016 1.90359 31.4278 2.42444C31.8541 2.9453 31.2642 3.24169 31.7649 3.8383C32.2656 4.43491 32.8555 4.27519 32.6919 4.95576C32.5283 5.63633 33.0587 6.07195 32.979 6.73359C32.8993 7.39523 32.6535 11.2243 32.1259 11.5816C31.5915 12.0378 31.1169 12.5597 30.7135 13.135C30.4944 13.4138 28.9438 13.6142 28.5081 13.0514C28.1935 12.6783 27.8051 12.3743 27.3674 12.1586C27.3674 12.1586 26.4797 11.4687 25.8222 11.895C25.8222 11.895 24.4745 11.1591 23.6439 12.224C23.6439 12.224 23.0012 12.2282 22.9308 11.7019C22.8966 11.1744 22.9038 10.6451 22.9522 10.1188C22.9522 10.1188 22.6248 9.97681 22.6142 11.9982C22.6037 14.0196 23.646 17.4034 23.8341 17.5725C24.0221 17.7416 25.6148 18.7616 28.9444 17.7139C32.2741 16.6662 32.7974 14.7097 32.957 14.2063C33.1282 13.1769 33.232 12.1373 33.2678 11.0943C33.2786 10.7128 33.1539 8.95116 34.2632 7.96873C34.2632 7.96873 34.991 7.24882 35.3618 7.64115C35.3618 7.64115 36.1383 6.24075 35.9192 3.73999C35.8981 3.50098 35.8269 3.2691 35.7102 3.05947C35.5934 2.84984 35.4338 2.66718 35.2417 2.5234C35.2066 2.49715 35.1712 2.47097 35.1358 2.44522C34.8089 2.19886 34.5895 1.83603 34.5232 1.43212C34.5051 1.29821 34.4606 1.16921 34.3924 1.05253C34.3243 0.935845 34.2337 0.833783 34.126 0.75221C34.0182 0.670638 33.8954 0.611161 33.7646 0.577196C33.6338 0.54323 33.4976 0.535446 33.3638 0.554292C31.8863 0.570728 30.9766 0.100789 30.5236 0.258759C30.0705 0.416729 28.0462 -0.660005 26.2171 0.687847C25.3903 1.35832 24.45 1.87534 23.4409 2.21442C23.0946 2.39851 21.4549 3.49197 22.6322 4.83942Z" fill="#337B94"/>
<path d="M35.362 7.64062C35.56 7.78012 35.6953 7.99172 35.7389 8.22994C35.7769 8.4752 35.7427 8.7262 35.6407 8.9524C35.4777 9.37393 35.3381 9.80409 35.2223 10.2409C35.078 10.6936 34.8458 11.1134 34.5391 11.4763C34.3755 11.6628 34.1613 11.7979 33.9224 11.8652C33.6857 11.9157 33.4385 11.8731 33.2324 11.7461C33.4435 11.812 33.6708 11.8032 33.8761 11.721C34.0673 11.6305 34.2321 11.4927 34.3552 11.3207C34.6042 10.9575 34.7982 10.5594 34.9309 10.1395C35.0104 9.92754 35.0637 9.72089 35.1379 9.4917C35.2138 9.26944 35.3095 9.05445 35.4239 8.8493C35.5415 8.66675 35.5988 8.45187 35.5877 8.235C35.5766 8.01812 35.4977 7.81021 35.362 7.64062Z" fill="#337B94"/>
<path d="M24.6038 8.71113C24.6919 8.70808 24.7754 8.67093 24.8366 8.60751C24.8979 8.54409 24.9321 8.45936 24.9321 8.37119C24.9321 8.28302 24.8979 8.19829 24.8366 8.13487C24.7754 8.07145 24.6919 8.0343 24.6038 8.03125C24.5156 8.0343 24.4322 8.07145 24.3709 8.13487C24.3096 8.19829 24.2754 8.28302 24.2754 8.37119C24.2754 8.45936 24.3096 8.54409 24.3709 8.60751C24.4322 8.67093 24.5156 8.70808 24.6038 8.71113Z" fill="#337B94"/>
<path d="M28.8108 9.26777C28.8989 9.26472 28.9824 9.22757 29.0437 9.16415C29.1049 9.10074 29.1392 9.01601 29.1392 8.92783C29.1392 8.83966 29.1049 8.75493 29.0437 8.69151C28.9824 8.62809 28.8989 8.59094 28.8108 8.58789C28.7227 8.59094 28.6392 8.62809 28.5779 8.69151C28.5167 8.75493 28.4824 8.83966 28.4824 8.92783C28.4824 9.01601 28.5167 9.10074 28.5779 9.16415C28.6392 9.22757 28.7227 9.26472 28.8108 9.26777Z" fill="#337B94"/>
<path d="M23.1504 6.70265C23.6364 6.5834 24.1435 6.57843 24.6317 6.6881C24.8777 6.74231 25.116 6.82654 25.3414 6.93888C25.5674 7.05334 25.7671 7.21354 25.9279 7.40931C25.489 7.22486 25.0328 7.08429 24.5662 6.98965C24.1044 6.88782 23.6368 6.815 23.1504 6.70265Z" fill="#337B94"/>
<path d="M27.418 7.55815C27.9427 7.38251 28.4976 7.31571 29.049 7.36181C29.6073 7.38614 30.1479 7.56447 30.6111 7.87704C30.0874 7.7758 29.5579 7.7065 29.0258 7.66952C28.4972 7.62819 27.9681 7.61152 27.418 7.55815Z" fill="#337B94"/>
<path d="M25.2017 10.5801C25.2748 10.6836 25.3605 10.7777 25.4569 10.86C25.5436 10.9338 25.637 10.9993 25.736 11.0556C25.9326 11.1759 26.1557 11.2632 26.4033 11.4107C26.2689 11.4563 26.1262 11.4717 25.9852 11.4559C25.8417 11.4393 25.7032 11.3934 25.5782 11.3209C25.4491 11.2451 25.3419 11.1369 25.2671 11.0072C25.1898 10.879 25.1662 10.7255 25.2017 10.5801Z" fill="#337B94"/>
<path d="M34.6935 7.64648C34.0549 7.92671 33.3941 8.15318 32.7179 8.32356C32.0451 8.50732 31.3581 8.63398 30.6641 8.70219C31.3024 8.42132 31.9633 8.19482 32.6397 8.02511C33.3125 7.84198 33.9995 7.71534 34.6935 7.64648Z" fill="#337B94"/>
<path d="M29.2481 26.584C29.2481 26.584 23.2165 38.8119 23.1484 41.8133L25.1818 44.6828L29.0574 42.258C29.0574 42.258 30.0799 29.1407 29.2481 26.584Z" fill="#337B94"/>
<path d="M41.886 47.0421C41.6294 46.6742 41.4591 46.2533 41.3877 45.8105C41.3701 45.6901 41.3741 45.5676 41.3996 45.4486C41.4116 45.3768 41.4427 45.3095 41.4895 45.2537C41.5362 45.1979 41.5971 45.1556 41.6657 45.1313C41.7903 45.1075 41.9193 45.1257 42.0325 45.1831C42.1388 45.2259 42.2354 45.2789 42.3339 45.3295L42.3376 45.3315L42.3408 45.3342C42.5831 45.5385 42.8069 45.7637 43.0097 46.0073C43.2045 46.2595 43.3701 46.533 43.5034 46.8225C43.7548 47.4076 43.8576 48.0458 43.8027 48.6803L43.8006 48.6729L43.802 48.7054H43.7711L43.7646 48.6908L43.7625 48.6833C43.7161 48.5325 43.6809 48.3827 43.6416 48.2349C43.5929 48.0888 43.5607 47.9408 43.5116 47.7974C43.4244 47.5076 43.3087 47.2311 43.2017 46.9521C43.0909 46.673 42.9601 46.4022 42.8104 46.1419C42.6748 45.8701 42.4958 45.6221 42.2806 45.4078L42.2874 45.4124C42.1138 45.3112 41.8699 45.2214 41.7284 45.298C41.6122 45.3622 41.6446 45.5838 41.6626 45.7764C41.7141 46.1815 41.8365 46.5965 41.9145 47.0304L41.886 47.0421Z" fill="#337B94"/>
<path d="M39.7024 48.9705C39.2072 48.525 38.7217 48.0685 38.2127 47.6585C38.0899 47.5572 37.9594 47.4659 37.8222 47.3852C37.7624 47.3494 37.6971 47.3238 37.6289 47.3096L37.389 47.2637C37.0693 47.2043 36.7463 47.1647 36.4217 47.1454C36.0955 47.1256 35.7598 47.1373 35.4219 47.1027C35.33 47.1036 35.2392 47.0827 35.157 47.0416C35.0748 47.0006 35.0035 46.9406 34.949 46.8665C34.897 46.7906 34.8659 46.7023 34.8589 46.6106C34.8519 46.5188 34.8693 46.4268 34.9091 46.3439C35.0685 46.0302 35.3449 45.7917 35.6785 45.6799C35.9973 45.5575 36.3303 45.4763 36.6695 45.4382L36.5675 45.5886C36.521 45.4378 36.5109 45.278 36.5382 45.1226C36.5519 45.0384 36.5824 44.9578 36.6277 44.8855C36.6731 44.8132 36.7324 44.7508 36.8023 44.7018C37.0723 44.5486 37.3871 44.4939 37.693 44.5472C38.2492 44.6282 38.7897 44.7946 39.2952 45.0406C39.795 45.28 40.2696 45.5688 40.7118 45.9028C41.151 46.2345 41.5543 46.6115 41.9148 47.0274L41.8929 47.0492C41.4774 46.701 41.0389 46.3809 40.5806 46.0912C40.1297 45.7998 39.6558 45.5457 39.1636 45.3314C38.6803 45.1157 38.1741 44.9556 37.6548 44.854C37.4218 44.8031 37.1785 44.8306 36.9627 44.9322C36.8772 45.0008 36.8148 45.094 36.7841 45.1993C36.7534 45.3045 36.7558 45.4166 36.791 45.5205L36.824 45.6647L36.6888 45.6711C36.3639 45.6778 36.0413 45.7272 35.7293 45.8178C35.5745 45.8546 35.4293 45.924 35.3034 46.0214C35.1775 46.1187 35.0738 46.2418 34.9991 46.3823C34.9667 46.45 34.9532 46.5252 34.96 46.5999C34.9667 46.6746 34.9936 46.7461 35.0376 46.8068C35.0816 46.8676 35.1412 46.9153 35.2101 46.945C35.279 46.9747 35.3546 46.9852 35.429 46.9755C35.7558 46.9769 36.0848 46.9323 36.4235 46.9205C36.7636 46.9044 37.1045 46.9282 37.4391 46.9912C37.5232 47.0038 37.6053 47.0257 37.688 47.0443C37.7818 47.0678 37.8714 47.1061 37.9532 47.1578C38.0996 47.2508 38.2383 47.3555 38.368 47.4707C38.8665 47.9192 39.321 48.4145 39.7251 48.9496L39.7024 48.9705Z" fill="#337B94"/>
<path d="M39.7066 48.9757L39.7022 48.9723L39.705 48.9745C38.8928 48.6109 38.0502 48.3197 37.1868 48.1043C36.76 47.9775 36.3202 47.899 35.8758 47.8703C35.6539 47.8569 35.4311 47.8681 35.2116 47.9037C35.1098 47.9093 35.0101 47.935 34.9183 47.9794C34.8264 48.0237 34.7443 48.0858 34.6765 48.162C34.5972 48.3026 34.7257 48.5047 34.8612 48.6326C35.0086 48.7618 35.1939 48.8397 35.3893 48.8546C35.8486 48.8622 36.3049 48.9296 36.7468 49.0552C37.6289 49.3167 38.4339 49.7895 39.0918 50.4326L39.0726 50.4567C38.3272 49.9747 37.5127 49.609 36.6572 49.3722C36.2326 49.2535 35.7974 49.1769 35.3579 49.1435C35.1016 49.113 34.8643 48.9933 34.6874 48.8055C34.5987 48.7118 34.5316 48.5998 34.4908 48.4774C34.4654 48.411 34.456 48.3396 34.4634 48.269C34.4709 48.1983 34.495 48.1304 34.5338 48.0709C34.7109 47.8973 34.9483 47.7988 35.1963 47.796C35.4227 47.7735 35.6503 47.7649 35.8778 47.7703C36.3337 47.7583 36.7898 47.7861 37.2409 47.8533C38.1414 48.0213 38.9907 48.3957 39.7221 48.9472L39.7248 48.9492L39.725 48.9494L39.7285 48.9539L39.7066 48.9757Z" fill="#337B94"/>
<path d="M45.8736 52.6757C45.583 53.3966 45.039 53.9865 44.3439 54.3344C43.9906 54.5023 43.6104 54.6061 43.2208 54.641C42.8338 54.6716 42.4443 54.641 42.0669 54.5502L42.0418 54.5444L42.0284 54.5356L39.3551 52.7538C39.1338 52.603 38.9101 52.4544 38.6927 52.295C38.4736 52.1413 38.2696 51.9344 38.0704 51.8035C37.6201 51.5559 37.1146 51.426 36.6008 51.4257C36.4711 51.4196 36.3413 51.4198 36.2111 51.424C36.0647 51.4327 35.9177 51.4214 35.7743 51.3903C35.4692 51.3293 35.1996 51.1526 35.0219 50.8972C34.9175 50.7557 34.8692 50.5805 34.8861 50.4055C34.9176 50.2359 35.0073 50.0825 35.1397 49.9718C35.3663 49.7646 35.6614 49.648 35.9685 49.6445C36.5122 49.6712 37.0529 49.7409 37.5856 49.8528C38.1215 49.9429 38.6339 50.1394 39.0926 50.4307L39.0998 50.444C39.1008 50.4391 39.0921 50.4307 39.0879 50.4325V50.4634C39.0794 50.4653 39.0668 50.4533 39.068 50.4442L39.0752 50.4573C38.5935 50.2378 38.0786 50.1003 37.5516 50.0505C37.031 49.9827 36.5067 49.9458 35.9817 49.9398C35.5327 49.9589 34.999 50.3738 35.2941 50.7117C35.4266 50.899 35.6234 51.0311 35.8469 51.0828C35.9643 51.1117 36.0851 51.1241 36.2059 51.1197C36.3428 51.1192 36.4803 51.123 36.6174 51.1334C37.1779 51.1494 37.7233 51.3189 38.1942 51.6234C38.4276 51.8068 38.582 52.0032 38.7911 52.1708C38.9957 52.339 39.2015 52.5085 39.4191 52.6624C40.2905 53.2794 41.2041 53.8345 42.1532 54.3236L42.1149 54.309C42.8283 54.4522 43.5678 54.3855 44.2439 54.1168C44.5764 53.9694 44.8824 53.7683 45.1496 53.5217C45.423 53.272 45.6575 52.9827 45.8452 52.6636L45.8736 52.6757Z" fill="#337B94"/>
<path d="M36.7027 45.4023C37.0831 45.4818 37.4577 45.5869 37.8239 45.717C38.189 45.8432 38.5441 45.9966 38.8862 46.1761C39.5851 46.5095 40.1707 47.0408 40.5702 47.7041C40.1354 47.0791 39.5262 46.5959 38.8185 46.3149C38.4738 46.1627 38.1181 46.0367 37.7544 45.938C37.3939 45.8367 37.027 45.7597 36.6562 45.7076L36.7027 45.4023Z" fill="#337B94"/>
<path d="M41.4088 45.5633L41.3864 45.4653L41.3858 45.4626C41.2264 44.7312 41.0836 43.992 40.9761 43.2482C40.921 42.8765 40.8726 42.5035 40.8309 42.1294L40.774 41.5678L40.7306 41.0311L40.7267 41.0047C40.596 39.0094 40.7002 37.0057 41.0371 35.0348C41.2051 34.0461 41.4302 33.0825 41.6911 32.1088C41.8273 31.6003 42.0517 31.1195 42.3541 30.6886C42.5143 30.4521 42.7195 30.2495 42.958 30.0924C43.1965 29.9354 43.4637 29.8269 43.7442 29.7732L43.8577 29.7555L43.9518 29.8587C45.2767 31.3133 46.6006 32.7691 47.9038 34.2434L49.8669 36.4473L51.8093 38.6698L51.9335 38.8119L51.8132 38.9495L47.9692 43.3427L44.1615 47.7666L44.1665 47.7601C44.0353 47.9651 43.9463 48.1942 43.9047 48.434C43.8631 48.6738 43.8697 48.9195 43.9241 49.1567C44.0264 49.6467 44.2061 50.1173 44.4565 50.5508C44.9579 51.4297 45.5747 52.2376 46.2904 52.9529L46.1276 52.9405C49.2488 50.5684 52.3473 48.159 55.3437 45.6388C56.0895 45.0056 56.83 44.3661 57.5514 43.7113C57.9158 43.3864 58.2673 43.0517 58.6097 42.7101C58.7884 42.5439 58.9424 42.3637 59.1047 42.1884C59.1833 42.0996 59.2699 42.0145 59.3419 41.9226L59.5476 41.643C59.818 41.2734 60.0269 40.8626 60.1663 40.4264C60.288 39.9899 60.3357 39.536 60.3074 39.0838C60.2117 38.1694 59.8604 37.3005 59.2938 36.5766L59.2753 36.5529L59.2684 36.5423C58.2163 34.9166 57.1445 33.3013 56.0528 31.6962C54.9648 30.091 53.8431 28.5099 52.7157 26.9347C51.5792 25.3679 50.4216 23.8105 49.1532 22.362C48.8241 22.016 48.5107 21.6417 48.1625 21.333C47.812 21.0168 47.4317 20.7352 47.027 20.4923C46.2048 20.0061 45.3197 19.6353 44.3966 19.3903L44.4378 19.3955L44.4299 19.3954L44.4068 19.3951L44.3887 19.3901C43.3039 19.1039 42.1938 18.9236 41.0742 18.852C39.9495 18.7737 38.8202 18.7906 37.6984 18.9027L37.6895 18.8416C38.8134 18.6808 39.9488 18.6153 41.0838 18.646C42.225 18.6655 43.3607 18.8084 44.4711 19.0721L44.43 19.0669L44.4378 19.0668L44.4566 19.0665L44.4792 19.0721C45.4428 19.2982 46.3706 19.6558 47.2366 20.135C47.6723 20.3795 48.0832 20.6656 48.4638 20.9893C48.8514 21.3159 49.1668 21.6861 49.5135 22.0365C50.8306 23.4871 52.0202 25.0303 53.1915 26.585C54.3637 28.1392 55.4723 29.7379 56.5764 31.3381C57.6757 32.9426 58.7565 34.5593 59.8188 36.1881L59.7935 36.1539C60.4412 36.9864 60.8359 37.9874 60.9306 39.0378C60.9596 39.5664 60.8985 40.0961 60.7498 40.6042C60.5865 41.1023 60.3436 41.5707 60.0305 41.991L59.7966 42.3012C59.7162 42.4011 59.6265 42.4877 59.5418 42.5815C59.3693 42.7646 59.2015 42.9553 59.019 43.1217C58.6634 43.4695 58.3004 43.8061 57.93 44.1316C57.1956 44.7917 56.4329 45.4133 55.6705 46.0342C52.606 48.4982 49.4577 50.8421 46.276 53.1426L46.1863 53.2075L46.1131 53.1302C45.7594 52.7544 45.4261 52.3599 45.1145 51.9486C44.8005 51.5384 44.5182 51.105 44.2701 50.6519C44.0127 50.1969 43.8297 49.7037 43.728 49.1909C43.6714 48.9283 43.6675 48.6571 43.7167 48.393C43.7659 48.129 43.8672 47.8773 44.0146 47.6528L44.0172 47.6491L44.0198 47.6461L47.7727 43.1755L51.4895 38.6743L51.4934 38.9538L49.4897 36.7863L47.5066 34.6003C46.1792 33.1479 44.8723 31.6768 43.5665 30.2049L43.774 30.2903C43.5767 30.3271 43.3902 30.4078 43.2284 30.5264C43.0488 30.6569 42.8894 30.8131 42.7552 30.9899C42.4843 31.3705 42.2818 31.7955 42.1568 32.2456C41.8901 33.1834 41.6668 34.1537 41.4697 35.1142C41.089 37.0488 40.9309 39.0207 40.9986 40.9913L40.9947 40.9651C41.001 41.0208 41.0045 41.0769 41.005 41.133L41.0097 41.2709L41.022 41.5503L41.0549 42.1093C41.0805 42.4819 41.113 42.854 41.1524 43.2258C41.2318 43.9696 41.3356 44.7097 41.4523 45.4515L41.4517 45.449L41.4687 45.5482L41.4088 45.5633Z" fill="#337B94"/>
<path d="M33.9855 18.8964C33.346 19.4401 32.7065 19.93 32.0573 20.3895C31.4185 20.8547 30.7551 21.285 30.0698 21.6787L30.0401 21.2467C30.6489 21.5791 31.2455 21.9381 31.8622 22.2535C32.4815 22.5643 33.1167 22.8424 33.7651 23.0866L33.593 23.1209L34.5178 21.9668C34.8292 21.5849 35.1549 21.2162 35.4803 20.8472C36.1261 20.1046 36.7875 19.3763 37.4644 18.6622L37.6916 19.1797L33.9855 18.8964ZM33.9682 18.8372L37.6923 18.5621L38.4277 18.5078L37.9196 19.0796C37.2661 19.8151 36.5976 20.537 35.9142 21.2451C35.5747 21.6011 35.2355 21.9575 34.882 22.3007L33.812 23.3217L33.7257 23.4041L33.6398 23.3561C33.0351 23.0179 32.413 22.7117 31.7761 22.4388C31.1374 22.1707 30.4784 21.9462 29.8317 21.6951L29.4297 21.539L29.8019 21.263C30.463 20.7891 31.1484 20.3502 31.8554 19.9482C32.5532 19.5396 33.2607 19.1616 33.9682 18.8372L33.9682 18.8372Z" fill="#337B94"/>
<path d="M18.1629 36.2638C17.8255 36.5587 17.4723 36.835 17.105 37.0917C16.751 37.3299 16.4309 37.6151 16.1535 37.9394C15.8544 38.2542 15.6259 38.6291 15.483 39.0392C15.3505 39.4576 15.3265 39.9028 15.4135 40.333C15.6266 41.1678 15.9013 42.0406 16.0914 42.9045C16.2846 43.7775 16.4262 44.6611 16.5156 45.5508L16.4772 45.5597C16.162 44.723 15.8964 43.8685 15.6817 43.0005C15.5748 42.568 15.4893 42.1304 15.4009 41.6935C15.2995 41.2533 15.2319 40.806 15.1986 40.3556C15.1878 39.8996 15.2421 39.4445 15.36 39.0039C15.4599 38.5528 15.641 38.1236 15.8945 37.7372C16.1679 37.3582 16.5265 37.0485 16.9413 36.8333C17.3302 36.6107 17.731 36.4095 18.1417 36.2305L18.1629 36.2638Z" fill="#337B94"/>
</svg>
