<svg width="182" height="127" viewBox="0 0 182 127" fill="none" xmlns="http://www.w3.org/2000/svg">
<path d="M165.277 93.143C165.277 93.143 153.405 94.4029 139.099 81.5137C139.099 81.5137 137.014 90.2292 135.619 92.4482C134.588 94.5491 133.02 96.341 131.075 97.6433C122.579 103.134 110.24 96.1086 106.355 94.071C104.56 93.1326 104.29 93.0756 97.6461 89.5033C95.7892 88.5026 85.9135 82.8357 85.9135 82.8357C83.4653 81.7573 79.2743 81.9388 79.2743 81.9388L76.1985 87.0094C75.0101 88.9682 73.4081 90.6439 71.5044 91.9193C73.5636 91.7483 75.6072 91.6187 77.656 91.489C79.6996 91.3439 81.7432 91.2194 83.7765 91.0328C84.7983 90.955 85.8149 90.8513 86.8264 90.7321C87.8378 90.6284 88.844 90.478 89.8503 90.3173C90.851 90.1591 91.8417 89.9427 92.8172 89.6692C93.8049 89.4282 94.7297 88.9792 95.5299 88.3523C94.8509 89.1562 93.9779 89.7737 92.9935 90.1462C92.0284 90.5513 91.0307 90.8739 90.0111 91.1105C87.9915 91.5852 85.9384 91.9042 83.8699 92.0645C81.8055 92.2356 79.7411 92.3186 77.6768 92.2927C75.6138 92.2876 73.5529 92.163 71.5044 91.9193H71.4993C69.6614 93.1538 67.5823 93.9844 65.3995 94.3562L42.121 98.3536C42.121 98.3536 47.6294 105.431 41.9395 120.238C41.9395 120.238 53.4802 119.072 60.7002 121.244C67.9151 123.411 78.989 123.411 90.7113 119.181C102.434 114.95 108.616 116.033 116.433 117.553C124.249 119.072 152.684 132.853 162.668 107.463C162.668 107.463 166.035 99.2195 165.277 93.143ZM46.3275 105.218C46.126 105.211 45.9351 105.126 45.795 104.981C45.655 104.836 45.5767 104.642 45.5767 104.44C45.5767 104.239 45.655 104.045 45.795 103.9C45.9351 103.755 46.126 103.67 46.3275 103.663C46.5291 103.67 46.72 103.755 46.86 103.9C47.0001 104.045 47.0783 104.239 47.0783 104.44C47.0783 104.642 47.0001 104.836 46.86 104.981C46.72 105.126 46.5291 105.211 46.3275 105.218ZM45.8296 99.4321C46.0315 99.4387 46.2229 99.5236 46.3634 99.6687C46.5039 99.8138 46.5824 100.008 46.5824 100.21C46.5824 100.412 46.5039 100.606 46.3634 100.751C46.2229 100.896 46.0315 100.981 45.8296 100.987C45.6277 100.981 45.4363 100.896 45.2958 100.751C45.1554 100.606 45.0768 100.412 45.0768 100.21C45.0768 100.008 45.1554 99.8138 45.2958 99.6687C45.4363 99.5236 45.6277 99.4387 45.8296 99.4321H45.8296ZM44.3358 119.404C44.1343 119.396 43.9434 119.311 43.8033 119.166C43.6633 119.021 43.5851 118.827 43.5851 118.626C43.5851 118.424 43.6633 118.231 43.8033 118.086C43.9434 117.94 44.1343 117.855 44.3358 117.848C44.5373 117.855 44.7282 117.94 44.8683 118.086C45.0083 118.231 45.0865 118.424 45.0865 118.626C45.0865 118.827 45.0083 119.021 44.8682 119.166C44.7282 119.311 44.5373 119.396 44.3358 119.404H44.3358ZM45.5806 115.173C45.3791 115.166 45.1882 115.081 45.0482 114.936C44.9081 114.79 44.8299 114.597 44.8299 114.395C44.8299 114.194 44.9081 114 45.0482 113.855C45.1882 113.71 45.3791 113.625 45.5806 113.617C45.7822 113.625 45.9731 113.71 46.1131 113.855C46.2532 114 46.3314 114.194 46.3314 114.395C46.3314 114.597 46.2532 114.79 46.1131 114.936C45.9731 115.081 45.7822 115.166 45.5806 115.173ZM46.452 109.947C46.2505 109.939 46.0595 109.854 45.9195 109.709C45.7795 109.564 45.7012 109.371 45.7012 109.169C45.7012 108.967 45.7795 108.774 45.9195 108.629C46.0595 108.483 46.2505 108.398 46.452 108.391C46.6536 108.398 46.8445 108.483 46.9846 108.629C47.1246 108.774 47.2029 108.967 47.2029 109.169C47.2029 109.371 47.1246 109.564 46.9845 109.709C46.8445 109.854 46.6536 109.94 46.452 109.947H46.452Z" fill="#337B94"/>
<path d="M121.065 68.3691C121.41 68.8722 121.827 69.3212 122.304 69.7016C122.128 69.655 120.701 69.2505 120.764 68.7373V68.7061C120.818 68.5602 120.926 68.4399 121.065 68.3691Z" fill="#337B94"/>
<path d="M164.884 69.8373C164.522 64.0468 163.421 58.3265 161.606 52.8158C158.348 43.0115 155.221 39.2526 155.221 39.2526C155.221 39.2526 153.945 40.9168 152.28 39.7347C150.615 38.5526 145.952 36.9557 145.952 36.9557C137.834 34.7988 134.883 38.2467 134.883 38.2467C133.417 40.2483 131.836 42.163 130.147 43.981C130.844 43.4866 131.594 43.0726 132.383 42.747C133.463 42.2859 134.614 42.009 135.786 41.9279C136.384 41.8933 136.984 41.9263 137.575 42.0264C138.171 42.1354 138.749 42.3274 139.292 42.5967C140.352 43.1365 141.207 44.0088 141.724 45.0802C140.963 44.3123 140.04 43.7236 139.023 43.3568C138.005 42.99 136.919 42.8543 135.843 42.9596C134.76 43.0315 133.687 43.2157 132.642 43.5092C131.672 43.7736 130.697 44.0899 129.717 44.4424L129.712 44.4476C123.991 50.4463 119.794 52.178 119.794 52.178C117.969 59.7581 118.959 64.331 120.199 66.8975C120.199 66.7056 120.215 66.5138 120.225 66.322C120.309 65.4521 120.455 64.5894 120.661 63.74C121.071 62.0542 121.581 60.394 122.186 58.7678C122.792 57.1502 123.446 55.5481 124.172 53.9823C124.885 52.4072 125.684 50.872 126.563 49.3835C125.552 52.6965 124.328 55.9059 123.161 59.1256C122.564 60.7328 121.983 62.3401 121.444 63.9577C121.179 64.7665 120.92 65.5805 120.728 66.4049C120.633 66.7726 120.565 67.147 120.526 67.5248C120.69 67.8164 120.87 68.0985 121.065 68.3699C121.634 68.0816 122.245 67.8856 122.875 67.7892C127.289 66.8871 152.918 72.0718 140.879 74.8301L140.215 77.4121C156.937 83.1671 166.035 75.6752 166.035 75.6752C165.376 74.8094 165.044 72.2793 164.884 69.8373ZM123.041 66.0213C122.84 66.0141 122.649 65.9291 122.509 65.784C122.369 65.6389 122.291 65.4452 122.291 65.2436C122.291 65.042 122.369 64.8483 122.509 64.7032C122.649 64.5581 122.84 64.4731 123.041 64.4659C123.243 64.4731 123.434 64.5581 123.574 64.7032C123.714 64.8483 123.792 65.042 123.792 65.2436C123.792 65.4452 123.714 65.6389 123.574 65.784C123.434 65.9291 123.243 66.0141 123.041 66.0213ZM127.243 66.3013C127.041 66.2941 126.85 66.209 126.71 66.0639C126.57 65.9189 126.492 65.7252 126.492 65.5236C126.492 65.322 126.57 65.1283 126.71 64.9832C126.85 64.8381 127.041 64.7531 127.243 64.7459C127.444 64.7531 127.635 64.8382 127.775 64.9832C127.915 65.1283 127.993 65.322 127.993 65.5236C127.993 65.7251 127.915 65.9188 127.775 66.0639C127.635 66.209 127.444 66.2941 127.243 66.3013V66.3013ZM131.631 67.0479C131.429 67.0407 131.238 66.9556 131.098 66.8106C130.958 66.6655 130.88 66.4718 130.88 66.2702C130.88 66.0686 130.958 65.8748 131.098 65.7298C131.238 65.5847 131.429 65.4996 131.631 65.4925C131.832 65.4997 132.023 65.5847 132.163 65.7298C132.303 65.8749 132.382 66.0686 132.382 66.2702C132.382 66.4718 132.303 66.6655 132.163 66.8105C132.023 66.9556 131.832 67.0407 131.631 67.0479ZM136.206 67.8878C136.004 67.8806 135.813 67.7956 135.673 67.6505C135.533 67.5054 135.455 67.3117 135.455 67.1101C135.455 66.9085 135.533 66.7147 135.673 66.5697C135.813 66.4246 136.004 66.3395 136.206 66.3324C136.407 66.3396 136.598 66.4246 136.738 66.5697C136.878 66.7148 136.956 66.9085 136.956 67.1101C136.956 67.3117 136.878 67.5054 136.738 67.6505C136.598 67.7956 136.407 67.8806 136.206 67.8878ZM146.149 59.4315C146.081 60.5203 146.03 61.6143 145.921 62.6979L145.723 64.3259C145.661 64.8651 145.589 65.4044 145.485 65.9436C145.293 67.0116 145.117 68.0901 144.873 69.1477C144.619 70.2106 144.365 71.2683 144.064 72.3104C144.136 71.2216 144.256 70.1432 144.37 69.07C144.494 67.9915 144.562 66.9131 144.681 65.8399C144.878 63.6882 145.034 61.5417 145.111 59.3953C145.192 57.2548 145.145 55.1115 144.971 52.9766C144.904 52.4477 144.873 51.9085 144.774 51.3849L144.65 50.5916C144.598 50.3324 144.536 50.0731 144.479 49.8139C144.279 48.7576 143.898 47.7437 143.353 46.8171C143.74 47.2088 144.06 47.6606 144.302 48.1548C144.437 48.3959 144.557 48.6453 144.66 48.9014C144.776 49.1515 144.878 49.4076 144.966 49.6687C145.329 50.7089 145.598 51.7795 145.77 52.8677C146.098 55.0393 146.225 57.2366 146.149 59.4315V59.4315Z" fill="#337B94"/>
<path d="M119.794 52.1777C119.683 52.4364 119.586 52.7013 119.504 52.971C119.525 52.748 119.54 52.5251 119.551 52.297C119.706 52.2244 119.794 52.1777 119.794 52.1777Z" fill="#337B94"/>
<path d="M122.387 69.3965L120.484 78.4127L119.519 83.7064L118.383 83.4315C108.715 81.394 92.7706 74.4413 92.7706 74.4413L89.1035 69.7076C91.3909 70.2468 92.0911 67.6856 92.0911 67.6856C94.752 68.3544 94.8506 65.6272 94.8506 65.6272C97.1898 65.8657 96.78 62.532 96.78 62.532C99.2749 62.8068 98.4709 59.8878 98.4709 59.8878C96.0669 57.5221 94.6838 54.3104 94.6171 50.9389C94.4722 50.9256 94.3263 50.9256 94.1814 50.9389C94.1814 50.9389 101.557 38.3089 108.269 40.7406L114.986 43.1722C114.207 44.7457 113.787 46.4722 113.757 48.2274C114.369 53.9046 118.072 52.9091 119.358 52.3803C118.988 53.4092 118.697 54.4648 118.487 55.5378C118.227 56.8165 118.062 58.1128 117.994 59.416C117.979 60.0692 117.979 60.7225 118.01 61.381C118.053 62.0416 118.143 62.6982 118.279 63.346C118.412 64.0048 118.632 64.643 118.933 65.2436C119.167 65.7109 119.489 66.1282 119.882 66.4724C119.93 66.5166 119.98 66.5582 120.033 66.5968L120.038 66.602C120.525 67.053 122.387 69.3965 122.387 69.3965Z" fill="#337B94"/>
<path d="M103.132 12.3984C103.211 13.4059 103.343 14.4085 103.526 15.4022C103.703 16.3829 103.957 17.348 104.287 18.2885C104.448 18.7498 104.64 19.1997 104.862 19.6352C105.132 20.1344 105.291 20.6859 105.328 21.252C105.412 22.3429 105.247 23.4387 104.844 24.4561L104.832 24.4807L104.817 24.5072C104.675 24.7643 104.575 25.0424 104.521 25.331C104.493 25.4361 104.486 25.5457 104.501 25.6533C104.516 25.7609 104.553 25.8645 104.608 25.9579C104.764 26.1224 104.97 26.2308 105.194 26.2664C105.344 26.2797 105.488 26.3077 105.644 26.3151L106.126 26.3131L106.156 26.3129C106.249 26.3126 106.341 26.3381 106.42 26.3866C106.5 26.4351 106.565 26.5047 106.607 26.5877C106.804 26.972 107.037 27.367 107.274 27.7386C107.501 28.1093 107.76 28.4595 108.048 28.7854C108.184 28.9379 108.334 29.077 108.496 29.2005C108.696 29.351 108.885 29.515 109.063 29.6913C109.424 30.0489 109.732 30.4577 109.975 30.9044L109.95 30.863C110.249 31.2904 110.598 31.6811 110.989 32.027C111.381 32.3772 111.826 32.6626 112.308 32.8725C112.795 33.0803 113.324 33.1677 113.852 33.1272C114.399 33.0787 114.931 32.9253 115.42 32.6752C114.968 33.0223 114.446 33.2676 113.891 33.3942C113.314 33.5192 112.715 33.4957 112.151 33.3258C111.587 33.1523 111.058 32.8834 110.586 32.5308C110.106 32.1839 109.677 31.7712 109.312 31.305L109.287 31.2634C109.058 30.9135 108.781 30.5971 108.465 30.3235C108.306 30.1813 108.14 30.049 107.965 29.9275C107.753 29.7792 107.556 29.6113 107.375 29.426C107.035 29.0724 106.726 28.6898 106.452 28.2824C106.181 27.8839 105.933 27.471 105.708 27.0455L106.189 27.32L105.606 27.3306C105.408 27.3244 105.2 27.2922 104.998 27.2709C104.516 27.1937 104.079 26.9429 103.769 26.5658C103.633 26.3599 103.541 26.1287 103.497 25.8861C103.453 25.6435 103.459 25.3946 103.514 25.1543C103.594 24.7446 103.742 24.3512 103.952 23.9907L103.926 24.0416C104.274 23.1687 104.441 22.234 104.415 21.2946C104.4 20.8451 104.295 20.4032 104.108 19.9946C103.901 19.5118 103.727 19.0155 103.587 18.5093C103.32 17.5111 103.153 16.489 103.088 15.4578C103.013 14.4387 103.028 13.415 103.132 12.3984Z" fill="#337B94"/>
<path d="M103.311 12.6023C104.771 13.3515 106.279 14.0954 107.787 14.7802C109.269 15.4969 110.821 16.0614 112.417 16.4651C112.604 16.5014 112.794 16.5201 112.985 16.521C113.157 16.5161 113.317 16.4661 113.331 16.4203C113.334 16.392 113.337 16.4284 113.361 16.3572L113.421 16.1927C113.46 16.0814 113.511 15.9743 113.571 15.873C113.69 15.6639 113.842 15.476 114.022 15.3168C114.388 15.0153 114.829 14.8198 115.298 14.7514C115.526 14.7138 115.759 14.7011 115.99 14.7136C116.244 14.7476 116.489 14.833 116.71 14.9644C117.097 15.222 117.424 15.5591 117.671 15.9533C117.917 16.3474 118.077 16.7895 118.139 17.2501C118.282 18.1098 118.298 18.9859 118.187 19.8504L118.19 19.7836C118.219 20.3506 118.198 20.9192 118.127 21.4826C118.093 21.7878 118.018 22.0872 117.905 22.3728C117.874 22.4575 117.832 22.5379 117.781 22.6122C117.754 22.653 117.731 22.6926 117.7 22.7331C117.66 22.775 117.618 22.816 117.575 22.8551C117.478 22.9422 117.361 23.0045 117.234 23.0367C117.105 23.0612 116.974 23.0622 116.845 23.0397L117.297 22.8325C116.108 25.353 115.631 28.15 115.916 30.9216C115.997 31.5863 116.147 32.3302 116.224 33.0418C116.311 33.7615 116.373 34.4866 116.393 35.2143C116.413 35.9432 116.397 36.6726 116.343 37.3999C116.288 38.1333 116.187 38.844 116.091 39.5543C115.912 40.9934 115.631 42.418 115.25 43.8173C115.144 44.1862 115.004 44.5444 114.832 44.8872L114.552 45.3538C114.472 45.4933 114.402 45.6379 114.342 45.7867C114.101 46.3963 114.007 47.0534 114.065 47.706C114.236 49.0188 114.646 50.4482 115.549 51.3942C115.996 51.8702 116.592 52.1788 117.239 52.2686C117.909 52.3494 118.588 52.2857 119.232 52.0821C120.565 51.6427 121.82 50.9944 122.95 50.1615C124.104 49.3347 125.204 48.434 126.241 47.4652C128.333 45.531 130.3 43.4661 132.131 41.2829C133.064 40.1953 133.943 39.1043 134.863 37.9827C135.372 37.4432 135.981 37.0085 136.656 36.7033C136.988 36.5477 137.328 36.4104 137.674 36.2919C138.028 36.2048 138.377 36.0855 138.737 36.026C139.097 35.977 139.457 35.9021 139.82 35.8754L140.911 35.8279C141.636 35.8413 142.36 35.9038 143.077 36.015C143.434 36.0753 143.796 36.1171 144.149 36.1932L145.202 36.4539C145.902 36.6301 146.593 36.8421 147.272 37.0892C147.967 37.2953 148.614 37.6148 149.284 37.8804C149.958 38.1409 150.598 38.4699 151.242 38.7909L152.21 39.2709L152.452 39.391C152.525 39.4242 152.588 39.4585 152.659 39.4872C152.798 39.5445 152.943 39.5862 153.091 39.6117C153.382 39.6668 153.682 39.6545 153.968 39.5756C154.254 39.4967 154.518 39.3533 154.739 39.1565C154.956 38.9427 155.13 38.6896 155.251 38.4108C155.322 38.2726 155.377 38.1265 155.414 37.9755L155.476 37.7525L155.502 37.5221C155.549 36.8865 155.43 36.2497 155.156 35.6741C154.508 34.4713 153.636 33.4033 152.587 32.5275C150.425 30.7162 148.071 29.149 145.566 27.8543C143.02 26.467 140.645 24.7889 138.486 22.8537C137.409 21.8849 136.392 20.8515 135.441 19.7592C134.482 18.6731 133.592 17.529 132.774 16.3334C131.951 15.1412 131.201 13.9014 130.525 12.6204C130.195 11.9759 129.863 11.3326 129.574 10.6688C129.423 10.34 129.271 10.0096 129.132 9.68123L128.677 8.74091L128.228 7.79732L127.685 6.91046C127.497 6.61982 127.336 6.30795 127.126 6.03382L126.487 5.2179L126.168 4.809L125.804 4.44238L125.076 3.70861L124.268 3.06786C124.003 2.84914 123.719 2.65491 123.419 2.48757C121.063 1.01402 118.245 0.465003 115.508 0.946499L115.589 0.915002C114.259 1.61686 112.945 2.37729 111.658 3.16835C110.371 3.96322 109.109 4.7983 107.896 5.6978C106.668 6.57255 105.527 7.56404 104.49 8.65841C103.978 9.20409 103.555 9.82625 103.235 10.5024C103.071 10.8307 102.992 11.1951 103.005 11.5621C103.018 11.929 103.124 12.2867 103.311 12.6023ZM103.242 12.6794C103.022 12.3516 102.889 11.9729 102.856 11.5792C102.823 11.1855 102.891 10.79 103.054 10.4302C103.356 9.71784 103.767 9.05703 104.274 8.47179C105.282 7.31805 106.4 6.26467 107.612 5.32642C108.813 4.38197 110.063 3.50496 111.339 2.66748C112.617 1.8325 113.912 1.0347 115.249 0.281044L115.253 0.279017C115.277 0.265457 115.303 0.255508 115.33 0.249482C116.785 -0.058242 118.285 -0.0815237 119.749 0.180912C121.211 0.431601 122.613 0.957328 123.879 1.73022C124.205 1.90605 124.515 2.10998 124.805 2.3397L125.685 3.01561L126.479 3.78707L126.875 4.17474L127.223 4.60294L127.918 5.46124C128.146 5.75 128.322 6.07312 128.526 6.37789L129.115 7.30718L129.604 8.28771L130.088 9.27153C130.228 9.59986 130.376 9.91664 130.524 10.2363C130.807 10.8803 131.132 11.5039 131.455 12.1289C132.115 13.3708 132.849 14.5723 133.652 15.7273C134.45 16.8855 135.319 17.9934 136.254 19.0446C137.181 20.1018 138.173 21.1015 139.222 22.0383C141.311 23.9269 143.606 25.575 146.064 26.9516C148.622 28.3058 151.023 29.9391 153.223 31.8216C154.361 32.7908 155.295 33.9767 155.971 35.3102C156.298 36.0348 156.43 36.8327 156.353 37.6243L156.311 37.9248C156.287 38.0227 156.256 38.1192 156.228 38.2162C156.174 38.4106 156.1 38.5987 156.007 38.7771C155.834 39.1497 155.59 39.4855 155.29 39.7661C154.973 40.0416 154.597 40.2407 154.191 40.3479C153.784 40.4551 153.359 40.4676 152.947 40.3844C152.744 40.3457 152.546 40.2849 152.356 40.2029C152.262 40.1632 152.168 40.1114 152.08 40.0673L151.846 39.9436L150.907 39.4485C150.282 39.117 149.66 38.7768 149.007 38.5062C148.358 38.2303 147.727 37.8983 147.056 37.6817C146.399 37.4237 145.73 37.1998 145.051 37.0107L144.031 36.7328C143.689 36.6512 143.34 36.604 142.995 36.5376C142.304 36.4149 141.605 36.3389 140.904 36.3103L139.855 36.3332C139.506 36.3511 139.162 36.4161 138.815 36.4547C137.432 36.6378 136.144 37.2599 135.141 38.2296C134.242 39.3073 133.321 40.4313 132.386 41.5027C130.527 43.6775 128.559 45.7578 126.491 47.7357C125.452 48.7268 124.35 49.6499 123.192 50.4991C122.043 51.3939 120.758 52.0997 119.386 52.5901C118.671 52.836 117.911 52.9253 117.158 52.8519C116.375 52.7617 115.647 52.4088 115.091 51.8509C114.558 51.3055 114.145 50.6545 113.879 49.9399C113.603 49.2453 113.411 48.5198 113.31 47.7792C113.221 47.006 113.314 46.2229 113.582 45.4921C113.651 45.3082 113.732 45.1291 113.825 44.956L114.084 44.4985C114.222 44.1987 114.337 43.8886 114.427 43.5708C114.783 42.2118 115.042 40.8294 115.204 39.434C115.605 36.6413 115.546 33.8018 115.029 31.0281C114.87 29.5632 114.934 28.0826 115.218 26.6367C115.492 25.1933 115.95 23.791 116.58 22.4641L117.032 22.2569C117.057 22.2386 117.031 22.2749 117.057 22.2441C117.063 22.2367 117.071 22.2308 117.081 22.2269L117.11 22.1774C117.138 22.141 117.159 22.1002 117.174 22.0568C117.261 21.8368 117.319 21.6065 117.346 21.3716C117.413 20.8571 117.439 20.3381 117.424 19.8194L117.424 19.8039C117.424 19.7867 117.425 19.7695 117.427 19.7524C117.548 18.9665 117.555 18.1672 117.447 17.3793C117.412 17.0113 117.298 16.655 117.115 16.3338C116.932 16.0126 116.683 15.7339 116.384 15.5159C116.248 15.431 116.098 15.3703 115.941 15.3363C115.757 15.3225 115.571 15.3283 115.388 15.3535C115.027 15.3955 114.684 15.535 114.396 15.7572C114.261 15.871 114.146 16.0062 114.056 16.1575C114.007 16.2333 113.967 16.3141 113.935 16.3984L113.884 16.5256C113.854 16.6002 113.816 16.6721 113.773 16.7404C113.675 16.8486 113.554 16.9329 113.419 16.9868C113.283 17.0407 113.137 17.0627 112.992 17.0511C112.766 17.0457 112.541 17.0187 112.32 16.9704C111.495 16.771 110.69 16.4934 109.917 16.1415C109.147 15.8095 108.392 15.4512 107.645 15.0778C106.147 14.3283 104.697 13.5393 103.242 12.6794V12.6794Z" fill="#337B94"/>
<path d="M108.184 29.5293C108.499 30.4855 108.639 31.4901 108.6 32.4958C108.593 33.5488 108.325 34.5837 107.819 35.5073C107.539 35.8715 107.291 36.2591 107.078 36.6658C106.912 37.0656 106.813 37.4902 106.785 37.9224C106.745 38.8722 106.851 39.8225 107.099 40.7403C106.456 39.9343 106.065 38.9564 105.976 37.9292C105.926 37.3839 105.989 36.8342 106.161 36.3143C106.359 35.8362 106.617 35.3855 106.93 34.9733C107.36 34.1728 107.653 33.3062 107.798 32.4092C107.973 31.4802 108.079 30.5203 108.184 29.5293Z" fill="#337B94"/>
<path d="M85.6763 65.619C85.4836 65.3176 85.3197 64.9987 85.1868 64.6666C85.0485 64.3307 84.9515 63.9793 84.8978 63.6201C84.8231 63.2203 84.8955 62.8069 85.1017 62.4562C85.3532 62.1067 85.7324 61.8703 86.1571 61.7982L86.0829 61.8187C86.2471 61.7392 86.3839 61.6126 86.476 61.4551C86.504 61.399 86.5148 61.3359 86.5071 61.2736C86.5019 61.2399 86.4926 61.2068 86.4795 61.1753L86.4138 61.0133C86.2939 60.7133 86.25 60.3884 86.286 60.0673C86.322 59.7463 86.4368 59.4391 86.6201 59.1731C86.8088 58.9091 87.0579 58.694 87.3467 58.5457C87.5967 58.4276 87.8572 58.3333 88.1249 58.264C88.2624 58.2306 88.3832 58.1486 88.4651 58.0332C88.4799 57.9968 88.4839 57.9569 88.4767 57.9182C88.467 57.861 88.4477 57.8059 88.4196 57.7551C88.3907 57.7151 88.3704 57.6696 88.3599 57.6213L88.3576 57.6098C88.2467 57.1087 88.2525 56.5887 88.3745 56.0901C88.4455 55.821 88.5681 55.5681 88.7353 55.3456C88.9137 55.1209 89.1419 54.9407 89.4019 54.8192C89.6246 54.7198 89.8584 54.6475 90.0982 54.6037C90.2706 54.5674 90.4362 54.5041 90.5889 54.4162C90.7129 54.3504 90.8126 54.2465 90.8733 54.1199C90.9228 53.9968 90.9306 53.8608 90.8957 53.7328L90.8722 53.6465C90.8655 53.6216 90.864 53.5956 90.8677 53.5701C90.9368 53.1238 91.0759 52.6912 91.2799 52.2883C91.479 51.8815 91.7655 51.5237 92.119 51.2404C92.4718 50.9555 92.8982 50.7763 93.3487 50.7235C93.5665 50.6943 93.7866 50.685 94.0061 50.6957C94.2228 50.7089 94.4348 50.7534 94.6488 50.7816C94.686 50.7865 94.7199 50.8053 94.7437 50.8342C94.7676 50.863 94.7797 50.8999 94.7775 50.9373L94.7765 50.9532C94.7382 51.7748 94.8147 52.5977 95.0036 53.3982C95.182 54.2021 95.4561 54.9817 95.8201 55.7204C96.1722 56.4576 96.6062 57.1529 97.1138 57.7931C97.614 58.4314 98.1674 59.0261 98.7683 59.5707C98.8213 59.6205 98.8611 59.6827 98.8842 59.7516C99.0122 60.1271 99.0923 60.5172 99.1228 60.9127C99.1651 61.3533 99.0881 61.7972 98.9 62.1979C98.8351 62.3068 98.7639 62.4118 98.6868 62.5124C98.5938 62.6025 98.4965 62.692 98.3955 62.7728C98.2857 62.8338 98.1722 62.8918 98.0577 62.9454C97.9462 62.9843 97.832 63.0147 97.7159 63.0363C97.4996 63.0748 97.2797 63.0893 97.0602 63.0796C96.8583 63.058 96.66 63.0278 96.4596 62.9996L97.0798 62.4024C97.1504 62.8071 97.182 63.2175 97.1742 63.6281C97.1721 64.0635 97.0954 64.4953 96.9477 64.9048C96.7732 65.3959 96.4114 65.7981 95.9413 66.0235C95.4835 66.2028 94.9822 66.2397 94.503 66.1296L95.1719 65.5952C95.1517 66.001 95.0664 66.4009 94.9192 66.7795C94.7672 67.1931 94.5059 67.5576 94.1631 67.8345C93.7986 68.1175 93.3457 68.2623 92.8846 68.2431C92.6775 68.2373 92.4715 68.212 92.2692 68.1675C92.08 68.1149 91.8975 68.052 91.7132 67.9927L92.3581 67.5953C92.2871 68.0274 92.1513 68.4463 91.9554 68.838C91.7546 69.2678 91.4306 69.6282 91.0246 69.8737C90.8102 69.9916 90.5741 70.0648 90.3306 70.089C90.0871 70.1133 89.8412 70.0881 89.6077 70.0149C89.398 69.9501 89.1939 69.8687 88.9972 69.7714L88.4679 69.4394C88.4062 69.4006 88.3601 69.3415 88.3376 69.2722C88.2157 68.928 88.0596 68.5968 87.8716 68.2837C87.6825 67.9574 87.4632 67.647 87.2396 67.3369C87.0096 67.0292 86.7638 66.7336 86.5031 66.4513C86.2447 66.1712 85.9622 65.8919 85.6763 65.619ZM85.7559 65.5525C86.0809 65.7683 86.3935 66.0023 86.692 66.2535C86.9959 66.5083 87.2863 66.7788 87.5622 67.0637C87.8394 67.3529 88.0955 67.6616 88.3283 67.9876C88.5744 68.322 88.7847 68.6814 88.9556 69.0598L88.8255 68.8927L89.3031 69.1337C89.4594 69.1918 89.6197 69.2387 89.7827 69.274C89.9203 69.3108 90.0639 69.3192 90.2048 69.2987C90.3458 69.2782 90.481 69.2292 90.6024 69.1547C90.847 68.9774 91.0346 68.7329 91.1426 68.4509C91.274 68.1419 91.3601 67.8156 91.3982 67.4821C91.4055 67.4145 91.4273 67.3493 91.4619 67.2908C91.4966 67.2322 91.5433 67.1818 91.599 67.1428C91.6548 67.1038 91.7182 67.0772 91.785 67.0647C91.8519 67.0522 91.9207 67.0541 91.9867 67.0703L92.0432 67.0846L92.4734 67.1931C92.6069 67.2132 92.742 67.2216 92.8769 67.2182C93.1063 67.2243 93.3302 67.148 93.508 67.0031C93.692 66.8391 93.8289 66.6289 93.9043 66.3942C93.9967 66.1309 94.0493 65.8553 94.0606 65.5764C94.0627 65.5029 94.0793 65.4306 94.1093 65.3635C94.1394 65.2964 94.1824 65.236 94.2359 65.1855C94.2894 65.135 94.3523 65.0956 94.421 65.0694C94.4897 65.0432 94.5629 65.0309 94.6364 65.033L94.6871 65.0367L94.7296 65.0419C94.981 65.1032 95.2446 65.093 95.4905 65.0126C95.5926 64.96 95.6832 64.8876 95.7572 64.7998C95.8312 64.712 95.887 64.6104 95.9215 64.5009C96.0298 64.2085 96.0911 63.9008 96.1031 63.5892C96.1197 63.2539 96.1052 62.9177 96.0601 62.585C96.0488 62.5024 96.0571 62.4183 96.0843 62.3395C96.1114 62.2607 96.1567 62.1894 96.2164 62.1312C96.2761 62.073 96.3486 62.0296 96.4282 62.0045C96.5077 61.9794 96.592 61.9733 96.6743 61.9866L96.6804 61.9878L97.1323 62.0636C97.2668 62.0726 97.402 62.0684 97.5357 62.051C97.6404 62.0482 97.7426 62.0181 97.8322 61.9638C97.9218 61.9095 97.9957 61.8328 98.0466 61.7413C98.2381 61.1867 98.2408 60.5844 98.0545 60.0281L98.1703 60.2088C97.557 59.5996 97.0083 58.9286 96.533 58.2066C96.061 57.4888 95.6656 56.7234 95.3535 55.923C95.0425 55.1293 94.8099 54.3071 94.6591 53.4681C94.497 52.6306 94.4289 51.7777 94.456 50.9251L94.5836 51.0965C94.1962 51.0167 93.7973 51.0095 93.4073 51.0753C93.029 51.1354 92.6776 51.3083 92.3991 51.5712C92.1254 51.8363 91.9135 52.1585 91.7787 52.5148C91.6392 52.8698 91.5543 53.2438 91.5269 53.6241L91.4989 53.4617C91.6248 53.7425 91.6442 54.0596 91.5534 54.3537C91.4593 54.6374 91.2762 54.8833 91.0313 55.0548C90.6419 55.2836 90.2273 55.4666 89.7959 55.6003C89.6609 55.6754 89.5437 55.7789 89.4525 55.9036C89.3613 56.0283 89.2982 56.1713 89.2675 56.3227C89.1923 56.6763 89.1902 57.0415 89.2613 57.396L89.1994 57.2509C89.3029 57.4212 89.368 57.6119 89.3902 57.8099C89.4158 58.0267 89.3773 58.2464 89.2795 58.4416C89.0904 58.7681 88.7808 59.0074 88.4171 59.1082C88.1868 59.162 87.9612 59.2341 87.7424 59.324C87.5676 59.4007 87.4139 59.5184 87.2944 59.6672C87.1804 59.822 87.1054 60.0018 87.0755 60.1916C87.0457 60.3814 87.0619 60.5756 87.1228 60.7579L87.1862 60.9582C87.2126 61.0485 87.2277 61.1418 87.2312 61.2359C87.236 61.4312 87.1856 61.624 87.0856 61.7919C86.9057 62.0741 86.6393 62.2906 86.3263 62.4091C86.3047 62.4186 86.282 62.4252 86.2587 62.4288L86.2519 62.4297C85.9815 62.4458 85.7273 62.5646 85.5415 62.7617C85.3727 63.0052 85.2905 63.2983 85.3081 63.594C85.314 63.9277 85.36 64.2594 85.4452 64.5821C85.5301 64.9112 85.6338 65.2352 85.7559 65.5525Z" fill="#337B94"/>
<path d="M90.166 58.0996C90.488 58.7839 90.7649 59.4884 90.9949 60.2087C91.1153 60.5676 91.2133 60.933 91.3072 61.3037C91.3562 61.4803 91.3824 61.7054 91.434 61.8237C91.4925 61.9797 91.5706 62.1277 91.6664 62.264C92.0862 62.8635 92.5551 63.4273 93.068 63.9495L94.6161 65.5857C93.9693 65.19 93.3575 64.7401 92.7871 64.2408C92.1946 63.7462 91.6706 63.175 91.229 62.5421C91.1134 62.368 91.0207 62.1798 90.9532 61.9822C90.8989 61.793 90.8572 61.6004 90.8283 61.4057C90.7647 61.0422 90.6784 60.6795 90.6054 60.3129C90.4449 59.5829 90.296 58.8456 90.166 58.0996Z" fill="#337B94"/>
<path d="M87.8203 61.3047C88.1143 61.8814 88.3452 62.4881 88.5091 63.1142C88.5523 63.2703 88.5925 63.4275 88.6253 63.5864C88.6617 63.718 88.7158 63.844 88.7861 63.961C88.9365 64.2224 89.1123 64.4684 89.3107 64.6956C89.7024 65.1757 90.1413 65.6307 90.574 66.0938C91.0106 66.5544 91.4526 67.014 91.8796 67.5004C91.3202 67.1777 90.7907 66.8058 90.2974 66.3892C89.7944 65.9772 89.33 65.5203 88.9098 65.0241C88.6931 64.7655 88.5054 64.4838 88.3503 64.1842C88.2693 64.0198 88.2117 63.845 88.1789 63.6647L88.1143 63.1963L87.8203 61.3047Z" fill="#337B94"/>
<path d="M92.7715 56.0391C93.3952 57.1532 93.9326 58.2824 94.5264 59.3794C94.8139 59.9324 95.1212 60.472 95.4483 60.9984C95.7693 61.5347 96.1453 62.0361 96.5703 62.4945C96.0024 62.1822 95.5077 61.7524 95.1192 61.2338C94.7179 60.7321 94.3663 60.1928 94.0691 59.6233C93.77 59.0598 93.5098 58.4765 93.2901 57.8775C93.0635 57.2812 92.8899 56.6659 92.7715 56.0391Z" fill="#337B94"/>
<path d="M141.772 71.3468C141.394 73.2397 140.957 75.119 140.504 76.9947C140.049 78.87 139.581 80.7425 139.071 82.6038C138.564 84.466 138.04 86.3237 137.5 88.177C137.215 89.1055 136.978 90.0214 136.65 90.9596C136.336 91.8998 135.917 92.8017 135.401 93.6482C134.378 95.3711 132.946 96.8155 131.232 97.8538C129.519 98.8698 127.623 99.5407 125.653 99.8287C123.704 100.127 121.723 100.159 119.765 99.9248C119.277 99.8707 118.791 99.8028 118.305 99.7173C117.811 99.6157 117.322 99.4894 116.841 99.3386L115.464 98.8206L114.122 98.2501C107.064 95.0371 100.357 91.2202 93.5998 87.4904C91.915 86.5495 90.2475 85.5787 88.5824 84.5999C88.1681 84.3505 87.7487 84.1136 87.3408 83.8482C86.9453 83.5837 86.5365 83.3394 86.1162 83.1163C85.2545 82.7207 84.3387 82.4556 83.3989 82.3297C81.4898 82.1185 79.5665 82.0669 77.6489 82.1753C77.4051 82.1758 77.1606 82.1742 76.9109 82.1577C76.6432 82.1516 76.3782 82.1029 76.1258 82.0135C76.0435 81.9813 75.9678 81.9343 75.9024 81.8749L75.7645 81.7467L75.502 81.4992L74.9772 81.0042L72.8787 79.0249L72.8609 79.0065C72.702 78.8275 72.5587 78.6354 72.4323 78.4322C72.304 78.2219 72.2019 77.9968 72.1282 77.7619C72.055 77.519 72.02 77.2663 72.0245 77.0127C72.0268 76.7424 72.0871 76.4756 72.2012 76.2305L72.2477 76.5943C72.0175 76.3377 71.8336 76.043 71.7043 75.7234C71.5784 75.4248 71.4784 75.1159 71.4056 74.8C71.2595 74.1817 71.1712 73.5512 71.1418 72.9165L71.2014 73.1059C70.9064 72.6451 70.7259 72.1205 70.6748 71.5758C70.647 71.3152 70.6381 71.053 70.6483 70.7912C70.6572 70.5262 70.687 70.2624 70.7374 70.0021L71.1078 70.4773C70.3097 70.446 69.5258 70.2564 68.8016 69.9197C68.4457 69.7586 68.1012 69.5734 67.7706 69.3654C67.4354 69.1561 67.1161 68.9223 66.8153 68.666C66.801 68.6537 66.7878 68.6401 66.776 68.6255L66.7706 68.6185C66.4673 68.2702 66.2413 67.8614 66.1077 67.4194C66.0343 67.1514 66.0344 66.8687 66.108 66.6008C66.1913 66.3237 66.3559 66.078 66.5806 65.8957C66.793 65.7301 67.0415 65.6171 67.3059 65.5657C67.5703 65.5143 67.8431 65.526 68.1021 65.6L69.2615 65.8828L73.8957 67.0284L73.3137 67.648C73.1095 67.009 73.0225 66.3385 73.0568 65.6686C73.0826 65.324 73.1469 64.9834 73.2483 64.6531C73.3521 64.2732 73.5567 63.9284 73.8404 63.6553C74.1719 63.3637 74.6057 63.2156 75.0463 63.2436C75.4113 63.2714 75.7685 63.3636 76.1013 63.5157C76.6892 63.7896 77.245 64.1278 77.7584 64.5241C78.2613 64.8983 78.7377 65.2982 79.2012 65.679L79.5422 65.9497C79.6397 66.0193 79.7426 66.0811 79.8498 66.1345C80.0908 66.2494 80.3432 66.339 80.6027 66.4018C81.741 66.6515 82.9062 66.7574 84.0709 66.7169L84.0942 66.7167C84.127 66.7165 84.1597 66.7198 84.1919 66.7266C85.4254 67.0252 86.5831 67.5776 87.5912 68.3484C88.5683 69.0771 89.4798 69.8897 90.3153 70.7769C91.1453 71.6522 91.925 72.5739 92.6505 73.5375C92.9516 73.9504 93.35 74.2826 93.8103 74.5046L95.4155 75.2364C97.5728 76.2047 99.744 77.1372 101.929 78.0338C104.075 78.9636 106.299 79.7003 108.575 80.235L108.604 80.2405L108.627 80.2461C112.238 81.2827 115.845 82.3336 119.448 83.3986L119.052 83.6383L120.792 75.9588L122.568 68.287C122.571 68.2738 122.579 68.2623 122.591 68.255C122.602 68.2476 122.616 68.2451 122.629 68.2479C122.643 68.2507 122.654 68.2586 122.662 68.27C122.669 68.2813 122.672 68.2951 122.67 68.3085L121.189 76.0427L119.673 83.7693C119.657 83.8507 119.609 83.9224 119.541 83.9686C119.472 84.0149 119.387 84.0319 119.306 84.016L119.287 84.0117L119.277 84.009C115.644 83.0507 112.015 82.0764 108.391 81.086L108.443 81.0971C107.25 80.8776 106.077 80.5678 104.932 80.1703C103.797 79.791 102.678 79.3789 101.566 78.9524C99.3428 78.0981 97.1555 77.1653 94.9854 76.1956L93.3524 75.4577C92.7389 75.1639 92.2065 74.7247 91.8015 74.1784C91.0976 73.2504 90.3417 72.363 89.5374 71.5205C88.7442 70.6836 87.8796 69.9174 86.9534 69.2304C86.0716 68.5577 85.0609 68.0734 83.9839 67.8075L84.1047 67.8172C82.8347 67.855 81.5652 67.7274 80.3282 67.4374C79.9971 67.3531 79.6758 67.2343 79.3696 67.083C79.2057 66.999 79.0488 66.9018 78.9007 66.7923C78.7682 66.6909 78.6497 66.5919 78.5298 66.4927C78.0573 66.0971 77.6048 65.7108 77.1349 65.3545C76.6882 65.0022 76.2045 64.6996 75.6922 64.452C75.4723 64.3472 75.236 64.2808 74.9936 64.2557C74.908 64.2466 74.8215 64.2549 74.7391 64.2799C74.6568 64.3049 74.5803 64.3463 74.5143 64.4014C74.2178 64.782 74.0528 65.2483 74.0439 65.7306C74.0122 66.2781 74.0785 66.8269 74.2397 67.3512L74.2418 67.3576C74.2674 67.44 74.2705 67.5278 74.2509 67.6119C74.2312 67.6959 74.1894 67.7732 74.1299 67.8357C74.0704 67.8982 73.9952 67.9437 73.9122 67.9675C73.8291 67.9913 73.7413 67.9924 73.6577 67.9709L69.0349 66.7802L67.8801 66.479C67.757 66.4365 67.6256 66.4239 67.4968 66.4425C67.368 66.461 67.2454 66.5101 67.1394 66.5855C67.0465 66.6571 66.9784 66.7559 66.9447 66.8682C66.911 66.9804 66.9134 67.1005 66.9515 67.2113C67.0505 67.5324 67.2143 67.8299 67.4326 68.0854L67.3881 68.038C67.6501 68.2665 67.928 68.4759 68.2198 68.6649C68.5148 68.857 68.8226 69.0289 69.1409 69.1792C69.7623 69.4815 70.4374 69.6579 71.1272 69.6985L71.1301 69.6986C71.2345 69.7034 71.3328 69.7494 71.4032 69.8265C71.4737 69.9037 71.5106 70.0057 71.5058 70.11C71.5047 70.1315 71.502 70.1527 71.4977 70.1737C71.4538 70.3901 71.425 70.6093 71.4115 70.8297C71.3974 71.0531 71.3994 71.2771 71.4175 71.5002C71.4456 71.9279 71.5744 72.343 71.7934 72.7115L71.7972 72.7174C71.8317 72.7726 71.851 72.836 71.8531 72.901C71.867 73.4891 71.9349 74.0747 72.0558 74.6504C72.146 75.2002 72.3672 75.7203 72.7007 76.1667L72.7029 76.1691C72.7453 76.2182 72.7721 76.2788 72.78 76.3431C72.7879 76.4075 72.7765 76.4728 72.7472 76.5306C72.6767 76.6896 72.6373 76.8607 72.6312 77.0346C72.6237 77.2244 72.6455 77.4143 72.6959 77.5974C72.7508 77.7868 72.8285 77.9687 72.9272 78.1394C73.0308 78.315 73.1493 78.4814 73.2815 78.6366L73.2639 78.6184L75.3319 80.6525L75.8486 81.1609L76.107 81.415C76.148 81.4543 76.1977 81.5066 76.2315 81.5352C76.2562 81.5561 76.2843 81.5727 76.3146 81.5841C76.7504 81.7012 77.2012 81.7525 77.6521 81.7365C79.5892 81.6726 81.5284 81.7513 83.454 81.9719C84.428 82.1104 85.376 82.3933 86.2665 82.8115C86.6963 83.0434 87.1141 83.297 87.5181 83.5714C87.9166 83.8352 88.3354 84.0761 88.7452 84.3272C90.3995 85.3124 92.0868 86.2458 93.7758 87.1742C97.1503 89.0382 100.564 90.8281 104.018 92.5439C107.465 94.2615 110.931 95.9645 114.462 97.4595L115.786 98.0102L117.12 98.5004L117.781 98.6804C118.002 98.7487 118.228 98.8004 118.457 98.8351C118.923 98.9133 119.392 98.9751 119.863 99.0234C121.743 99.2222 123.641 99.191 125.514 98.9306C127.374 98.6787 129.167 98.0652 130.792 97.1246C132.402 96.171 133.752 94.835 134.722 93.2349C135.74 91.6568 136.244 89.817 136.846 87.9776C137.43 86.1421 137.997 84.3015 138.548 82.4556C139.646 78.7629 140.712 75.0579 141.671 71.3244C141.673 71.3178 141.675 71.3115 141.68 71.306C141.684 71.3005 141.689 71.2959 141.694 71.2924C141.7 71.2888 141.707 71.2865 141.713 71.2854C141.72 71.2844 141.727 71.2847 141.734 71.2863C141.747 71.2896 141.758 71.2977 141.765 71.309C141.772 71.3202 141.775 71.3337 141.772 71.3468Z" fill="#337B94"/>
<path d="M122.333 84.5945L119.289 83.9522C119.221 83.9379 119.162 83.8974 119.124 83.8396C119.087 83.7818 119.073 83.7114 119.088 83.6439C119.102 83.5764 119.142 83.5173 119.2 83.4797C119.258 83.442 119.329 83.4289 119.396 83.4431C119.41 83.4462 119.424 83.4504 119.438 83.4556L122.333 84.5945Z" fill="#337B94"/>
<path d="M73.7773 67.5C74.721 67.528 75.6601 67.6421 76.5829 67.8409C77.0408 67.9385 77.4977 68.0381 77.9501 68.1586C78.4064 68.2681 78.8471 68.4222 79.3128 68.5151C78.8412 68.6082 78.3574 68.6224 77.8811 68.5573C77.4108 68.5126 76.9431 68.443 76.4802 68.3488C75.5496 68.1707 74.6426 67.8859 73.7773 67.5Z" fill="#337B94"/>
<path d="M71.1191 70.0879C71.846 70.1439 72.5526 70.3537 73.1921 70.7034C73.5178 70.8742 73.8204 71.0857 74.0926 71.3329C74.3837 71.5731 74.5957 71.8954 74.7009 72.2578C74.4406 72.0259 74.1549 71.8242 73.8493 71.6563C73.5528 71.4871 73.2558 71.3172 72.9475 71.1602C72.3172 70.8395 71.7067 70.4814 71.1191 70.0879Z" fill="#337B94"/>
<path d="M71.498 72.9082C72.02 73.0884 72.506 73.3592 72.9337 73.7082C73.3742 74.0411 73.7518 74.4498 74.0487 74.9153C73.5263 74.7362 73.0401 74.4653 72.613 74.1153C72.1732 73.7817 71.7958 73.373 71.498 72.9082Z" fill="#337B94"/>
<path d="M72.4746 76.3809C72.9362 76.504 73.3679 76.7198 73.7434 77.015C74.1307 77.2949 74.4562 77.6514 74.6996 78.0625C74.2376 77.9405 73.8057 77.7246 73.4308 77.4284C73.0442 77.1477 72.7189 76.7913 72.4746 76.3809Z" fill="#337B94"/>
<path d="M76.8174 80.1776C76.6564 80.0992 76.5192 79.9794 76.4198 79.8305C76.3203 79.6817 76.2621 79.5092 76.2512 79.3305C76.2142 78.9751 76.2569 78.6159 76.3763 78.2791L76.3696 78.2994C76.4062 78.1268 76.4255 77.951 76.427 77.7746C76.4431 77.6446 76.4189 77.5128 76.3576 77.397C76.2121 77.2225 76.1042 77.0199 76.0406 76.8018C75.9704 76.5954 75.9343 76.3788 75.9339 76.1608C75.9293 75.9335 75.9769 75.7083 76.0731 75.5023C76.1777 75.3458 76.2734 75.1835 76.3598 75.0162C76.4796 74.6613 76.5203 74.2844 76.4792 73.9121C76.6698 74.2785 76.7371 74.6966 76.671 75.1043C76.6189 75.2973 76.5475 75.4845 76.4581 75.6633C76.4113 75.8184 76.3951 75.9812 76.4104 76.1425C76.4368 76.4745 76.5535 76.7931 76.7479 77.0636C76.895 77.278 76.9574 77.5393 76.9229 77.797C76.903 78.0079 76.8613 78.2161 76.7987 78.4184L76.7958 78.4279L76.7919 78.4389C76.7324 78.5824 76.6702 78.7247 76.6256 78.8723C76.5818 79.018 76.5526 79.1676 76.5383 79.319C76.5176 79.4739 76.532 79.6314 76.5803 79.78C76.6286 79.9286 76.7096 80.0645 76.8174 80.1776Z" fill="#337B94"/>
<path d="M72.1359 67.086C71.3874 66.4535 70.6629 65.798 69.9428 65.1382C69.2274 64.474 68.5109 63.8108 67.8134 63.1294C66.4051 61.7794 65.0326 60.3952 63.6763 58.9954C63.6299 58.9475 63.5934 58.891 63.5688 58.829C63.5443 58.767 63.5322 58.7008 63.5333 58.6341C63.5343 58.5674 63.5485 58.5016 63.575 58.4405C63.6015 58.3793 63.6399 58.3239 63.6878 58.2775L63.7132 58.2545L63.7217 58.2474C64.3776 57.696 65.0451 57.1587 65.7135 56.6226L65.7186 56.6185C65.819 56.5384 65.9461 56.4994 66.0741 56.5093C66.2022 56.5193 66.3217 56.5775 66.4085 56.6721C67.6662 58.051 68.8915 59.4596 70.0984 60.885C70.703 61.5967 71.2982 62.3171 71.8839 63.0461C72.4704 63.7743 73.05 64.509 73.6088 65.2626C72.9053 64.6417 72.2226 64.0018 71.5467 63.3554C70.8722 62.7079 70.205 62.0537 69.5452 61.3927C68.2275 60.0689 66.9281 58.7282 65.6611 57.3579L66.3559 57.4074C65.6978 57.9562 65.0388 58.5038 64.3682 59.0373L64.4136 58.2894C65.7543 59.7042 67.0787 61.1345 68.3674 62.599C69.0185 63.3249 69.6505 64.0689 70.2836 64.812C70.9119 65.5595 71.536 66.3113 72.1359 67.086Z" fill="#337B94"/>
<path d="M68.6761 54.1219C68.2119 53.0998 67.8376 52.0393 67.5574 50.9523C67.2548 49.8713 67.048 48.7657 66.9395 47.6484C67.4047 48.6701 67.7791 49.7307 68.0581 50.818C68.3597 51.8993 68.5664 53.0048 68.6761 54.1219Z" fill="#337B94"/>
<path d="M73.416 56.2557C73.8013 55.6124 74.2687 55.022 74.8065 54.4993C75.3287 53.9609 75.9194 53.4936 76.5636 53.1094C76.1793 53.7533 75.7117 54.3438 75.1731 54.8657C74.6502 55.4033 74.0596 55.8706 73.416 56.2557Z" fill="#337B94"/>
<path d="M77.2148 61.137C77.8868 60.9548 78.5809 60.8676 79.2771 60.878C79.9733 60.8664 80.6676 60.9537 81.3393 61.137C80.6676 61.3204 79.9733 61.4077 79.2771 61.3961C78.5809 61.4066 77.8868 61.3193 77.2148 61.137Z" fill="#337B94"/>
<path d="M41.2522 100.158C41.3087 99.8209 41.3942 99.489 41.5078 99.1663C41.569 99.0012 41.6472 98.8428 41.7411 98.6937C41.8399 98.517 42.0014 98.3838 42.1936 98.3201C42.3019 98.301 42.4133 98.3106 42.5168 98.3478C42.6203 98.3851 42.7123 98.4487 42.7836 98.5324C42.9138 98.6645 43.0269 98.8123 43.1204 98.9724C43.2965 99.2765 43.448 99.5941 43.5736 99.9222C44.0481 101.216 44.3902 102.555 44.5946 103.918C44.9164 106.642 44.9307 109.394 44.6371 112.121C44.4939 113.481 44.3071 114.837 44.0274 116.183C43.8817 116.855 43.718 117.525 43.5083 118.19C43.3167 118.893 43.0098 119.558 42.6002 120.16C42.4599 120.348 42.2786 120.501 42.0701 120.608C41.9292 120.673 41.7737 120.698 41.6197 120.682C41.4743 120.663 41.3358 120.609 41.2155 120.525C40.9023 120.263 40.6666 119.921 40.534 119.535C40.2882 118.882 40.1027 118.209 39.9799 117.522C39.7459 116.181 39.5909 114.826 39.5156 113.467C39.8194 114.79 40.0815 116.119 40.4743 117.403C40.6461 118.038 40.873 118.657 41.1524 119.253C41.2599 119.503 41.4233 119.725 41.6299 119.902C41.709 119.935 41.6866 119.926 41.7361 119.905C41.8204 119.842 41.893 119.765 41.9506 119.677C42.2593 119.131 42.4902 118.543 42.6367 117.933C42.8114 117.3 42.9463 116.648 43.0637 115.993C43.3061 114.683 43.4818 113.353 43.6053 112.02C43.7459 110.687 43.8282 109.348 43.8674 108.01C43.9168 106.676 43.8921 105.341 43.7934 104.01C43.7472 103.346 43.6341 102.703 43.5212 102.036C43.4058 101.376 43.2703 100.72 43.0941 100.082C43.0129 99.7656 42.9069 99.456 42.777 99.1561C42.6524 98.8816 42.453 98.5587 42.246 98.5883C42.0124 98.6241 41.7989 98.9536 41.6497 99.2306C41.4908 99.5278 41.3578 99.8382 41.2522 100.158Z" fill="#337B94"/>
<path d="M139.148 81.4986L142.043 83.6944L143.539 84.7397C144.039 85.0835 144.52 85.455 145.044 85.764C146.076 86.4017 147.078 87.0857 148.15 87.6499C148.684 87.9356 149.195 88.2612 149.739 88.5265L151.363 89.3309C153.547 90.3637 155.803 91.2359 158.114 91.9406C160.424 92.6687 162.837 93.02 165.259 92.9811L165.112 93.1441C165.125 91.733 165.118 90.3218 165.099 88.9107C165.086 87.4995 165.036 86.0883 165.004 84.6772L164.884 80.4437L164.805 76.2102L165.578 76.5714C164.676 77.252 163.696 77.8231 162.66 78.2727L161.894 78.6057L161.112 78.8923C160.595 79.0995 160.055 79.2281 159.524 79.3907C157.382 79.9517 155.174 80.2286 152.959 80.2143L151.306 80.1768C150.757 80.1466 150.211 80.0681 149.664 80.0159C148.566 79.9351 147.494 79.6807 146.414 79.501C145.34 79.2868 144.287 78.98 143.231 78.7039L140.134 77.6471L140.451 77.4797C140.034 78.7896 139.601 80.118 139.148 81.4986ZM139.049 81.5278C139.339 80.1765 139.651 78.7729 139.977 77.351L140.032 77.1126L140.294 77.1835L143.413 78.0286L144.992 78.35C145.52 78.4494 146.037 78.6021 146.571 78.6579C147.634 78.791 148.687 78.9994 149.757 79.0346C150.289 79.0671 150.822 79.1133 151.354 79.1351L152.951 79.1423C155.073 79.1114 157.186 78.843 159.249 78.3421C159.757 78.198 160.277 78.0877 160.771 77.9011L161.521 77.6454L162.252 77.3457C163.214 76.9529 164.127 76.4507 164.974 75.849L165.764 75.2637L165.747 76.2102L165.668 80.4437L165.548 84.6772C165.516 86.0883 165.466 87.4995 165.453 88.9107C165.435 90.3218 165.427 91.733 165.44 93.1441L165.442 93.2967L165.293 93.3073C164.059 93.3776 162.821 93.3454 161.592 93.2108L160.672 93.1118L159.758 92.969C159.145 92.8882 158.547 92.7388 157.941 92.6154C155.529 92.0695 153.187 91.2467 150.964 90.1634L149.318 89.316C148.767 89.0379 148.251 88.6978 147.72 88.385C146.648 87.7741 145.65 87.0501 144.643 86.3438C144.131 86.003 143.659 85.6073 143.18 85.2221L141.75 84.0619C140.816 83.2208 139.903 82.348 139.049 81.5278Z" fill="#337B94"/>
<path d="M155.991 37.5515C157.06 38.2824 158.06 39.1104 158.976 40.0249C159.902 40.9307 160.778 41.8857 161.6 42.8855C163.235 44.8967 164.705 47.0366 165.995 49.2842C168.562 53.7887 170.565 58.5917 171.958 63.585C173.309 68.5688 174.278 73.6483 174.857 78.7795C175.496 83.8922 175.882 89.0284 176.013 94.188C176.164 99.344 176.052 104.504 175.677 109.649C175.642 110.304 175.583 110.912 175.61 111.528C175.625 112.143 175.69 112.756 175.803 113.361C176.04 114.568 176.471 115.729 177.079 116.798C177.695 117.857 178.483 118.806 179.411 119.606C179.645 119.801 179.888 119.987 180.133 120.167L180.515 120.42L180.706 120.547C180.763 120.581 180.817 120.618 180.868 120.658C180.933 120.736 180.86 120.603 181.033 120.858C181.481 121.086 180.449 121.927 180.561 121.676C180.513 121.679 180.465 121.677 180.417 121.669L180.354 121.658L178.466 121.134C176.019 120.475 173.503 120.104 170.97 120.029C168.44 119.943 165.911 120.251 163.475 120.941C162.26 121.285 161.099 121.779 159.863 122.224C159.259 122.463 158.622 122.617 158.004 122.817C157.376 122.988 156.738 123.134 156.099 123.258C154.811 123.516 153.489 123.555 152.189 123.374C151.864 123.323 151.543 123.249 151.228 123.154C150.914 123.052 150.61 122.923 150.319 122.767C149.724 122.471 149.23 122.007 148.897 121.432C148.89 121.42 148.889 121.406 148.893 121.393C148.896 121.381 148.905 121.37 148.917 121.363C148.928 121.356 148.942 121.355 148.955 121.358C148.968 121.361 148.979 121.369 148.986 121.381L148.991 121.388C149.346 121.908 149.843 122.316 150.423 122.563C150.707 122.695 151.003 122.803 151.306 122.883C151.612 122.958 151.922 123.011 152.235 123.043C153.497 123.141 154.766 123.041 155.996 122.744C156.612 122.598 157.227 122.432 157.832 122.241C158.429 122.02 159.041 121.848 159.625 121.588C160.792 121.117 161.981 120.546 163.239 120.165C165.747 119.388 168.36 119.005 170.985 119.03C173.604 119.055 176.21 119.403 178.744 120.064C179.061 120.143 179.376 120.23 179.688 120.32C179.988 120.404 180.341 120.514 180.575 120.572L180.572 120.571C180.544 120.569 180.515 120.568 180.487 120.57C180.619 120.323 179.615 121.147 180.042 121.357C180.206 121.594 180.113 121.452 180.164 121.515C180.186 121.532 180.149 121.505 180.126 121.492L179.915 121.352L179.493 121.071C179.221 120.871 178.952 120.665 178.694 120.448C177.666 119.567 176.801 118.512 176.139 117.331C175.488 116.152 175.033 114.874 174.791 113.548C174.677 112.887 174.615 112.218 174.608 111.547C174.588 110.876 174.663 110.2 174.704 109.572C175.143 104.459 175.391 99.3332 175.445 94.195C175.506 89.0555 175.198 83.9184 174.523 78.823C174.334 77.5527 174.122 76.2859 173.917 75.019C173.654 73.7619 173.415 72.501 173.135 71.2495C172.548 68.7525 171.917 66.2667 171.13 63.8305C170.391 61.3797 169.515 58.9757 168.573 56.6009C167.631 54.2247 166.538 51.9111 165.302 49.6742C164.082 47.4277 162.702 45.2716 161.173 43.2225C159.658 41.1566 157.899 39.2814 155.934 37.6378L155.93 37.6353C155.92 37.627 155.913 37.615 155.911 37.6017C155.909 37.5885 155.913 37.5751 155.921 37.5643C155.928 37.5535 155.94 37.5462 155.953 37.5438C155.966 37.5414 155.98 37.5442 155.991 37.5515L155.991 37.5515Z" fill="#337B94"/>
<path d="M43.4608 100.408C41.7868 100.497 40.1086 100.469 38.4386 100.324C36.7637 100.192 35.0987 99.9553 33.4533 99.6157C31.8004 99.2841 30.1744 98.8302 28.5889 98.2576C27.0013 97.6696 25.4701 96.9396 24.0138 96.0765C23.6548 95.8524 23.2723 95.6594 22.9322 95.409L21.9045 94.6668C21.2197 94.1637 20.5318 93.7055 19.8456 93.2227L15.734 90.351L7.54277 84.5674L7.61699 84.6108C7.41329 84.5213 7.20161 84.4511 6.98475 84.4013C6.80859 84.3543 6.62451 84.3449 6.4445 84.3738C6.33023 84.4182 6.34553 84.3984 6.30861 84.5285C6.28107 84.5714 6.3073 84.6893 6.29724 84.7673L6.34891 85.0756L6.34955 85.0795C6.37197 85.2132 6.34568 85.3505 6.27546 85.4665C6.22727 85.5577 6.19041 85.6544 6.16569 85.7545C6.13628 85.8721 6.12046 85.9926 6.11853 86.1138C6.1195 86.3687 6.16934 86.6211 6.26534 86.8572L6.09519 87.4452C6.15814 87.394 6.12706 87.4182 6.13667 87.4098L6.12949 87.424C6.11984 87.4453 6.11288 87.4677 6.10876 87.4906C6.09511 87.5668 6.09419 87.6447 6.10605 87.7211C6.13823 87.9304 6.20153 88.1336 6.29383 88.3242L6.30666 88.7106C6.32409 88.6566 6.30164 88.7471 6.30742 88.7842C6.30772 88.84 6.31242 88.8957 6.32146 88.9508C6.34264 89.0787 6.37818 89.204 6.42741 89.324C6.53641 89.5928 6.67817 89.8472 6.84948 90.0813L6.88069 90.6232C6.89143 90.6049 6.90023 90.5856 6.90695 90.5655C6.90838 90.5595 6.90881 90.5606 6.90881 90.5606C6.9089 90.5664 6.90836 90.5723 6.90721 90.578C6.90776 90.6062 6.90985 90.6344 6.91348 90.6623C6.92897 90.7441 6.9527 90.8241 6.98431 90.9011C7.065 91.0892 7.1649 91.2685 7.28244 91.4361C7.40808 91.6185 7.54464 91.7931 7.69138 91.9589C7.8381 92.1279 8.02493 92.3067 8.18973 92.4801L10.2298 94.5763L14.3103 98.7691L22.4676 107.16L22.4801 107.173C22.4892 107.183 22.4977 107.193 22.5057 107.203C23.1982 108.135 23.8472 109.079 24.4649 110.056C25.0978 111.032 25.6513 112.058 26.12 113.123C26.3455 113.598 26.6534 114.029 27.0293 114.397C28.2357 115.533 29.7833 116.24 31.4322 116.408C32.5273 116.507 33.6265 116.269 34.5824 115.726L34.9385 115.519L35.2589 115.258C35.4709 115.088 35.6885 114.909 35.9129 114.714C36.1281 114.517 36.3585 114.338 36.6019 114.177C36.8362 114.005 37.0835 113.85 37.3414 113.715C39.3954 112.621 41.7707 112.288 44.0465 112.776C41.7886 112.413 39.4746 112.836 37.491 113.974C37.2475 114.112 37.0152 114.27 36.7961 114.445C36.5683 114.607 36.3539 114.787 36.1549 114.984C35.9547 115.171 35.7388 115.364 35.5129 115.56L35.1788 115.852L34.8037 116.091C33.7854 116.727 32.5927 117.027 31.3946 116.947C30.2062 116.865 29.0522 116.513 28.0208 115.917C26.9336 115.358 26.0453 114.477 25.4768 113.395C25.0004 112.379 24.4437 111.404 23.812 110.477C23.1875 109.537 22.5198 108.613 21.829 107.727L21.867 107.77L13.6231 99.4358L9.50293 95.2658L7.44275 93.1807C7.27023 93.0017 7.10126 92.8451 6.92582 92.6476C6.74742 92.4494 6.5814 92.2404 6.42871 92.0218C6.26468 91.7904 6.12811 91.5407 6.02175 91.2778C5.96242 91.1283 5.9195 90.9727 5.89374 90.8138C5.8808 90.7209 5.87574 90.6271 5.87862 90.5333C5.88141 90.4782 5.88786 90.4234 5.89792 90.3691C5.90339 90.3374 5.91086 90.306 5.92029 90.2751C5.93405 90.2253 5.95332 90.1772 5.97775 90.1316L6.00894 90.6733C5.7906 90.3684 5.61094 90.0377 5.4741 89.6886C5.39984 89.5 5.34682 89.3037 5.31603 89.1034C5.29937 88.9943 5.29147 88.8841 5.29241 88.7738C5.29076 88.6317 5.31288 88.4903 5.35787 88.3554L5.37073 88.7416C5.23639 88.4549 5.14688 88.1492 5.10535 87.8353C5.08168 87.6499 5.08905 87.4618 5.12717 87.2789C5.14958 87.1726 5.18557 87.0696 5.23424 86.9726C5.26157 86.9184 5.29318 86.8665 5.32877 86.8174C5.37804 86.749 5.43718 86.6883 5.50427 86.6372L5.33415 87.225C5.19185 86.8653 5.12073 86.4814 5.12473 86.0946C5.12935 85.8956 5.15705 85.6978 5.20727 85.5052C5.25963 85.2942 5.34543 85.093 5.46141 84.9091L5.38799 85.2998C5.36269 85.1488 5.33562 85.0006 5.31661 84.8465C5.30329 84.6698 5.31466 84.4922 5.3504 84.3187C5.38884 84.1016 5.49114 83.9009 5.64424 83.7422C5.79734 83.5835 5.99429 83.474 6.20993 83.4277C6.5374 83.362 6.87553 83.3718 7.19866 83.4562C7.4835 83.5231 7.76104 83.618 8.02721 83.7394C8.05078 83.7499 8.07326 83.7627 8.09432 83.7776L8.10163 83.7829L16.263 89.6383L20.3278 92.5862C20.9986 93.0812 21.692 93.5673 22.344 94.0697L23.3334 94.8197C23.6612 95.0732 24.0261 95.2662 24.3708 95.4928C25.7744 96.3682 27.2541 97.1153 28.7919 97.7251C31.9039 98.9145 35.1521 99.7111 38.4613 100.097C40.1199 100.302 41.7895 100.406 43.4608 100.408Z" fill="#337B94"/>
<path d="M5.86914 85.1871C6.0513 85.0362 6.28565 84.9632 6.52133 84.9839C6.75631 84.9951 6.98553 85.0604 7.19102 85.1749C7.39251 85.2825 7.57575 85.4213 7.73399 85.586C7.80775 85.6717 7.88467 85.753 7.95349 85.8407C8.01312 85.9375 8.07942 86.0264 8.13036 86.1274C7.74705 85.8903 7.41745 85.6264 7.05053 85.4413C6.87384 85.3425 6.6857 85.2657 6.49032 85.2126C6.28786 85.1572 6.07546 85.1485 5.86914 85.1871Z" fill="#337B94"/>
<path d="M5.80078 87.0396C5.81847 86.9182 5.94864 86.8421 6.06367 86.8076C6.18194 86.7846 6.30315 86.7809 6.42259 86.7968C6.65095 86.8291 6.8722 86.8998 7.07694 87.0059C7.47952 87.2062 7.83783 87.4851 8.13069 87.8262C7.92277 87.7499 7.71948 87.6617 7.52184 87.5618L6.94446 87.2765C6.75914 87.1803 6.56823 87.0954 6.37275 87.0221C6.27918 86.9848 6.18053 86.9616 6.08011 86.9535C6.03006 86.9443 5.97851 86.9473 5.92987 86.9623C5.88123 86.9772 5.83694 87.0038 5.80078 87.0396Z" fill="#337B94"/>
<path d="M5.83203 88.5323C5.94084 88.4105 6.08354 88.3238 6.24188 88.2834C6.40021 88.2429 6.56701 88.2506 6.72096 88.3054C7.02976 88.3823 7.32143 88.5163 7.58088 88.7005C7.83808 88.874 8.07555 89.0751 8.28905 89.3002C8.50556 89.5193 8.70048 89.7587 8.8711 90.0151C8.60967 89.8466 8.37954 89.6509 8.13571 89.4741C7.89507 89.2944 7.65925 89.1121 7.41319 88.9507C7.17653 88.7825 6.92235 88.6403 6.65511 88.5266C6.52531 88.4704 6.38646 88.438 6.24518 88.431C6.09971 88.4133 5.95279 88.4494 5.83203 88.5323Z" fill="#337B94"/>
<path d="M6.42969 90.3771C6.4312 90.3061 6.45023 90.2365 6.48511 90.1746C6.51999 90.1128 6.56962 90.0604 6.6296 90.0223C6.76094 89.9514 6.91252 89.9273 7.0594 89.9539C7.32925 90.0025 7.58417 90.1129 7.80416 90.2765C8.23172 90.5789 8.59468 90.9635 8.87181 91.4078C8.64296 91.2751 8.44886 91.1101 8.24057 90.9653C8.03612 90.8163 7.83923 90.6613 7.63459 90.5255C7.4434 90.3827 7.23377 90.2664 7.0114 90.1797C6.90802 90.129 6.78879 90.1214 6.67978 90.1584C6.57077 90.1954 6.48085 90.274 6.42969 90.3771Z" fill="#337B94"/>
<path d="M39.2736 113.036C37.9028 113.334 36.663 114.062 35.7349 115.114C32.2617 118.532 26.8348 115.711 25.8037 113.27C24.7725 110.828 22.1676 107.465 22.1676 107.465C21.546 106.853 20.7113 106.016 19.7578 105.053C23.5165 101.881 22.2465 94.486 22.2465 94.486C19.666 89.4992 13.5543 88.2548 13.5543 88.2548C14.3294 94.4679 11.1634 96.2775 11.1631 96.2776C8.97848 94.0339 7.37933 92.3846 7.37933 92.3846C6.104 90.9741 6.42961 90.3774 6.42961 90.3774C5.58842 89.184 5.83266 88.533 5.83266 88.533C5.31712 87.3938 5.80013 87.0412 5.80013 87.0412C5.66513 86.7486 5.601 86.4283 5.61294 86.1063C5.62488 85.7843 5.71254 85.4696 5.86883 85.1878L5.83266 84.8262L1.3565 89.0453C0.781892 89.5866 0.366765 90.2749 0.15627 91.0356C-0.0542251 91.7962 -0.05203 92.6 0.162624 93.3594C1.30847 97.416 4.4573 104.954 12.345 107.14C12.345 107.14 22.7646 112.456 14.8413 115.819L25.6951 126.669C25.6951 126.669 26.1474 124.408 28.1825 123.906C30.0687 123.41 31.7419 122.314 32.9486 120.782C33.3769 120.253 33.8416 119.635 34.3394 118.914C35.095 117.807 35.9882 116.801 36.9976 115.919C37.8906 115.148 38.8855 114.477 39.5156 114.626L39.2736 113.036Z" fill="#337B94"/>
<path d="M37.0605 100.051C37.0605 100.051 37.0112 100.264 36.9395 100.639" stroke="#337B94" stroke-width="0.711394" stroke-linecap="round" stroke-linejoin="round"/>
<path d="M36.7447 101.771C36.3299 104.489 35.8822 109.737 38.0214 112.358" stroke="#337B94" stroke-width="0.711394" stroke-linecap="round" stroke-linejoin="round" stroke-dasharray="0.9 0.9"/>
<path d="M38.416 112.781C38.5624 112.919 38.7188 113.047 38.884 113.162" stroke="#337B94" stroke-width="0.711394" stroke-linecap="round" stroke-linejoin="round"/>
<path d="M38.2852 108.693C38.5809 109.006 38.9305 109.263 39.3172 109.452C39.5014 109.528 39.701 109.559 39.8995 109.542C40.1157 109.516 40.3273 109.46 40.5283 109.376C40.3779 109.564 40.1739 109.701 39.9435 109.769C39.7002 109.842 39.4393 109.829 39.2046 109.732C38.9803 109.636 38.782 109.488 38.6259 109.301C38.4703 109.125 38.3542 108.918 38.2852 108.693Z" fill="#337B94"/>
<path d="M105.688 19.4226C105.861 19.1033 106.085 18.8149 106.353 18.5691C106.616 18.3187 106.908 18.1011 107.224 17.9212C107.547 17.7433 107.893 17.6134 108.253 17.5356C108.617 17.4604 108.992 17.475 109.349 17.5782C109.017 17.6761 108.691 17.7911 108.372 17.9225C108.067 18.0639 107.769 18.2087 107.476 18.3738C106.887 18.6998 106.324 19.0723 105.688 19.4226Z" fill="#337B94"/>
<path d="M107.858 22.1168C108.092 22.1087 108.315 22.0099 108.478 21.8412C108.641 21.6726 108.732 21.4472 108.732 21.2127C108.732 20.9782 108.641 20.7529 108.478 20.5842C108.315 20.4155 108.092 20.3167 107.858 20.3086C107.624 20.3167 107.401 20.4155 107.238 20.5842C107.075 20.7529 106.984 20.9782 106.984 21.2127C106.984 21.4472 107.075 21.6726 107.238 21.8412C107.401 22.0099 107.624 22.1087 107.858 22.1168Z" fill="#337B94"/>
<path d="M115.42 20.452C115.62 20.6085 115.847 20.7268 116.09 20.8008C116.182 20.7941 116.174 20.7991 116.215 20.7258C116.241 20.6897 116.261 20.6498 116.275 20.6076C116.299 20.5569 116.316 20.503 116.325 20.4476C116.363 20.3285 116.392 20.2066 116.41 20.0829C116.448 19.9594 116.455 19.8242 116.489 19.6929C116.539 19.4162 116.611 19.144 116.704 18.8789C116.811 19.1467 116.875 19.4298 116.893 19.7175C116.922 20.0119 116.898 20.3092 116.822 20.595C116.802 20.6744 116.772 20.7509 116.733 20.8228C116.674 20.9572 116.579 21.0727 116.458 21.1563C116.404 21.1833 116.347 21.2062 116.29 21.2248C116.181 21.2468 116.067 21.2327 115.967 21.1847C115.816 21.1135 115.688 20.9996 115.6 20.8571C115.517 20.7338 115.456 20.5967 115.42 20.452Z" fill="#337B94"/>
<path d="M114.588 18.119C114.454 17.8629 114.383 17.5789 114.38 17.29C114.358 16.9657 114.459 16.645 114.661 16.391C114.794 16.2525 114.97 16.1624 115.16 16.135C115.329 16.1199 115.498 16.1466 115.654 16.2129C115.79 16.2749 115.917 16.3525 116.034 16.4442C116.14 16.5421 116.237 16.6487 116.325 16.7628C116.187 16.741 116.051 16.7103 115.918 16.6707C115.789 16.6471 115.664 16.6186 115.549 16.6034C115.46 16.5816 115.368 16.5825 115.28 16.606C115.192 16.6296 115.112 16.675 115.046 16.7381C114.914 16.9145 114.823 17.1183 114.781 17.3346L114.588 18.119Z" fill="#337B94"/>
<path d="M106.375 26.0934C106.621 25.9367 106.883 25.8071 107.157 25.7067C107.273 25.6632 107.38 25.6174 107.492 25.568C107.621 25.5022 107.744 25.4239 107.858 25.334C107.886 25.4223 107.893 25.5159 107.878 25.6072C107.863 25.6985 107.827 25.7851 107.772 25.8598C107.665 26.0075 107.519 26.1214 107.349 26.1879C107.191 26.2497 107.021 26.2747 106.852 26.2611C106.68 26.2523 106.515 26.1941 106.375 26.0934Z" fill="#337B94"/>
<path d="M108.271 27.7222C109.131 27.2294 110.037 26.8207 110.975 26.5019C111.023 26.4847 111.074 26.4817 111.123 26.4932C111.171 26.5047 111.216 26.5302 111.25 26.5666C111.285 26.6031 111.308 26.6488 111.317 26.6982C111.325 26.7475 111.32 26.7984 111.3 26.8445C111.101 27.3229 110.856 27.7811 110.57 28.2131C110.425 28.4337 110.258 28.6389 110.071 28.8254C109.973 28.9221 109.862 29.0037 109.74 29.0676C109.675 29.1002 109.603 29.1179 109.53 29.1194C109.495 29.1166 109.461 29.1067 109.43 29.0903C109.399 29.0739 109.372 29.0514 109.349 29.0241C109.402 29.0489 109.462 29.0547 109.518 29.0406C109.575 29.0264 109.624 28.9932 109.659 28.9465C109.742 28.861 109.813 28.7654 109.872 28.6618C109.998 28.4507 110.113 28.2331 110.216 28.0099C110.425 27.5615 110.631 27.1015 110.822 26.6471L111.146 26.9896C110.214 27.3258 109.251 27.5711 108.271 27.7222Z" fill="#337B94"/>
<path d="M152.867 122.696C153.068 122.689 153.26 122.604 153.4 122.459C153.54 122.314 153.618 122.12 153.618 121.918C153.618 121.717 153.54 121.523 153.4 121.378C153.26 121.233 153.068 121.148 152.867 121.141C152.665 121.148 152.474 121.233 152.334 121.378C152.194 121.523 152.115 121.717 152.115 121.918C152.115 122.12 152.194 122.314 152.334 122.459C152.474 122.604 152.665 122.689 152.867 122.696Z" fill="#337B94"/>
<path d="M157.064 120.946C157.266 120.939 157.457 120.854 157.597 120.709C157.737 120.564 157.816 120.37 157.816 120.168C157.816 119.967 157.737 119.773 157.597 119.628C157.457 119.483 157.266 119.398 157.064 119.391C156.862 119.398 156.671 119.483 156.531 119.628C156.391 119.773 156.312 119.967 156.312 120.168C156.312 120.37 156.391 120.564 156.531 120.709C156.671 120.854 156.862 120.939 157.064 120.946Z" fill="#337B94"/>
<path d="M161.244 118.919C161.446 118.912 161.637 118.827 161.777 118.682C161.917 118.537 161.995 118.343 161.995 118.141C161.995 117.939 161.917 117.745 161.777 117.6C161.637 117.455 161.446 117.37 161.244 117.363C161.042 117.37 160.851 117.455 160.711 117.6C160.571 117.745 160.492 117.939 160.492 118.141C160.492 118.343 160.571 118.537 160.711 118.682C160.851 118.827 161.042 118.912 161.244 118.919Z" fill="#337B94"/>
<path d="M166.412 117.766C166.613 117.759 166.805 117.674 166.945 117.529C167.085 117.384 167.163 117.19 167.163 116.989C167.163 116.787 167.085 116.593 166.945 116.448C166.805 116.303 166.613 116.218 166.412 116.211C166.21 116.218 166.019 116.303 165.879 116.448C165.739 116.593 165.66 116.787 165.66 116.989C165.66 117.19 165.739 117.384 165.879 117.529C166.019 117.674 166.21 117.759 166.412 117.766Z" fill="#337B94"/>
<path d="M171.089 117.764C171.291 117.757 171.482 117.672 171.623 117.527C171.763 117.382 171.841 117.188 171.841 116.987C171.841 116.785 171.763 116.591 171.623 116.446C171.482 116.301 171.291 116.216 171.089 116.209C170.888 116.216 170.697 116.301 170.556 116.446C170.416 116.591 170.338 116.785 170.338 116.987C170.338 117.188 170.416 117.382 170.556 117.527C170.697 117.672 170.888 117.757 171.089 117.764Z" fill="#337B94"/>
<path d="M175.339 118.444C175.541 118.437 175.732 118.352 175.872 118.207C176.013 118.062 176.091 117.868 176.091 117.666C176.091 117.465 176.013 117.271 175.872 117.126C175.732 116.981 175.541 116.896 175.339 116.889C175.138 116.896 174.947 116.981 174.806 117.126C174.666 117.271 174.588 117.465 174.588 117.666C174.588 117.868 174.666 118.062 174.806 118.207C174.947 118.352 175.138 118.437 175.339 118.444Z" fill="#337B94"/>
</svg>
