<svg width="40" height="40" viewBox="0 0 40 40" fill="none" xmlns="http://www.w3.org/2000/svg">
<path d="M15.0801 30H24.0801C24.6321 30 25.0801 29.552 25.0801 29.0001V11C25.0801 10.448 24.6321 10.0001 24.0801 10.0001H15.0801C14.5271 10.0001 14.0801 9.55307 14.0801 9.00007C14.0801 8.44708 14.5271 8 15.0801 8H24.0801C25.7341 8 27.0801 9.34603 27.0801 11V29C27.0801 30.654 25.7341 32 24.0801 32H15.0801C14.5271 32 14.0801 31.553 14.0801 31C14.0801 30.447 14.5271 30 15.0801 30Z" fill="#B2B3BD"/>
<path d="M3.29808 19.2879L9.3781 13.2879C9.7701 12.8999 10.4041 12.9049 10.7921 13.2979C11.1801 13.6909 11.1761 14.3239 10.7821 14.7119L6.43709 18.9999H18.0801C18.6331 18.9999 19.0801 19.4469 19.0801 19.9999C19.0801 20.5529 18.6331 20.9999 18.0801 20.9999H6.43709L10.7821 25.2879C11.1761 25.6759 11.1791 26.3089 10.7921 26.7019C10.5961 26.8999 10.3381 26.9999 10.0801 26.9999C9.82607 26.9999 9.5721 26.9039 9.3781 26.7118L3.29808 20.7118C3.10808 20.5238 3.00009 20.2678 3.00009 19.9998C3.00009 19.7319 3.10709 19.4769 3.29808 19.2879Z" fill="#B2B3BD"/>
</svg>
