<svg width="20" height="24" viewBox="0 0 20 24" fill="none" xmlns="http://www.w3.org/2000/svg">
<path d="M10 0C6.76914 0 4.14062 2.62852 4.14062 5.85937C4.14062 9.09023 6.76914 11.7187 10 11.7187C13.2309 11.7187 15.8594 9.09023 15.8594 5.85937C15.8594 2.62852 13.2309 0 10 0ZM10 10.3125C7.54455 10.3125 5.54687 8.31483 5.54687 5.85937C5.54687 3.40392 7.54455 1.40625 10 1.40625C12.4555 1.40625 14.4531 3.40392 14.4531 5.85937C14.4531 8.31483 12.4555 10.3125 10 10.3125Z" fill="#A4A5A6"/>
<path d="M19.2677 20.9982C18.5768 16.454 14.6677 13.125 10.0748 13.125H9.8925C5.31019 13.125 1.41933 16.4761 0.731766 20.9982L0.275391 24H19.7241L19.2677 20.9982ZM9.29663 22.5938H1.91161L2.12208 21.2096C2.52244 18.5765 4.24228 16.2806 6.75197 15.1868L9.29663 19.1216V22.5938ZM8.1322 14.7314C8.70586 14.5995 9.2962 14.5313 9.89255 14.5313H10.0748C10.6816 14.5313 11.2819 14.601 11.8647 14.7355L9.99975 17.6192L8.1322 14.7314ZM10.7029 22.5938V19.1216L13.2449 15.1909C15.7672 16.2886 17.4786 18.5859 17.8774 21.2096L18.0879 22.5938H10.7029Z" fill="#A4A5A6"/>
</svg>
