<svg width="24" height="24" viewBox="0 0 24 24" fill="none" xmlns="http://www.w3.org/2000/svg">
<path fill-rule="evenodd" clip-rule="evenodd" d="M20.8074 7.62288L20.185 6.54279C19.6584 5.62887 18.4914 5.31359 17.5763 5.83798V5.83798C17.1406 6.09461 16.6208 6.16742 16.1314 6.04035C15.6421 5.91329 15.2233 5.59678 14.9676 5.16064C14.803 4.88342 14.7146 4.56766 14.7113 4.24531V4.24531C14.7261 3.72849 14.5311 3.22767 14.1708 2.85694C13.8104 2.4862 13.3153 2.27713 12.7982 2.27734H11.5442C11.0377 2.27734 10.552 2.47918 10.1947 2.83821C9.83742 3.19724 9.63791 3.68386 9.64034 4.19039V4.19039C9.62533 5.23619 8.77321 6.07608 7.7273 6.07597C7.40494 6.07262 7.08919 5.98421 6.81197 5.81968V5.81968C5.89679 5.29528 4.72985 5.61056 4.20327 6.52448L3.53508 7.62288C3.00914 8.53566 3.32013 9.70187 4.23073 10.2316V10.2316C4.82263 10.5733 5.18726 11.2049 5.18726 11.8883C5.18726 12.5718 4.82263 13.2033 4.23073 13.5451V13.5451C3.32129 14.0712 3.00996 15.2346 3.53508 16.1446V16.1446L4.16666 17.2339C4.41338 17.679 4.82734 18.0076 5.31693 18.1467C5.80652 18.2859 6.33137 18.2242 6.77535 17.9753V17.9753C7.21181 17.7206 7.73192 17.6508 8.22007 17.7815C8.70822 17.9121 9.12397 18.2323 9.3749 18.6709C9.53943 18.9482 9.62784 19.2639 9.63119 19.5863V19.5863C9.63119 20.6428 10.4877 21.4993 11.5442 21.4993H12.7982C13.8512 21.4993 14.7062 20.6484 14.7113 19.5954V19.5954C14.7088 19.0873 14.9096 18.5993 15.2689 18.24C15.6282 17.8807 16.1162 17.6799 16.6243 17.6824C16.9459 17.691 17.2604 17.779 17.5397 17.9387V17.9387C18.4524 18.4646 19.6186 18.1536 20.1484 17.243V17.243L20.8074 16.1446C21.0625 15.7068 21.1325 15.1853 21.0019 14.6956C20.8714 14.206 20.551 13.7886 20.1117 13.5359V13.5359C19.6725 13.2832 19.3521 12.8658 19.2215 12.3762C19.091 11.8866 19.161 11.3651 19.4161 10.9272C19.582 10.6376 19.8221 10.3975 20.1117 10.2316V10.2316C21.0169 9.70216 21.3271 8.54276 20.8074 7.63203V7.63203V7.62288Z" stroke="white" stroke-width="1.5" stroke-linecap="round" stroke-linejoin="round"/>
<circle cx="12.1752" cy="11.8881" r="2.63616" stroke="white" stroke-width="1.5" stroke-linecap="round" stroke-linejoin="round"/>
</svg>
