<svg width="747" height="587" viewBox="0 0 747 587" fill="none" xmlns="http://www.w3.org/2000/svg">
<path d="M242.497 265.746C242.843 268.537 243.583 271.264 244.696 273.847C243.647 271.242 242.909 268.523 242.497 265.746ZM328.946 304.563C330.709 303.1 332.023 301.169 332.735 298.991C333.343 297.049 333.471 294.925 331.785 293.836C328.189 291.51 318.66 298.287 316.536 302.097C314.423 305.907 306.163 316.079 309.332 331.319C312.513 346.571 324.368 359.068 324.368 359.068C324.368 359.068 325.415 360.146 326.994 361.907L331.647 349.015C328.488 345.461 325.916 342.536 325.222 341.704C323.174 339.238 310.965 319.654 328.946 304.563ZM296.634 345.727C296.634 345.727 284.767 335.983 272.282 330.049C263.424 325.844 259.038 319.195 259.87 313.944C260.116 312.571 260.738 311.294 261.667 310.254C262.596 309.213 263.795 308.452 265.131 308.053C268.707 306.911 277.18 302.951 276.305 291.083L276.144 287.326C274.287 287.275 272.466 286.804 270.816 285.951C269.166 285.097 267.73 283.882 266.615 282.395C262.805 277.315 256.135 274.775 245.806 276.205L240.406 273.185C240.406 273.185 240.011 263.473 242.188 262.534C242.156 261.808 242.146 261.071 242.156 260.324C242.156 260.324 237.386 261.381 238.186 271.178C238.186 271.178 236.276 270.111 234.579 259.107C234.579 259.107 226.319 261.434 228.656 277.529C229.38 280.757 229.236 284.118 228.241 287.273C228.241 287.273 224.847 301.884 222.094 310.358C219.34 318.832 213.727 339.431 227.067 378.503L233.95 400.585C233.95 400.585 237.333 424.514 232.04 429.177C232.04 429.177 223.993 430.117 226.96 436.424C227.105 436.738 227.3 437.026 227.536 437.278C227.312 436.886 227.181 436.448 227.152 435.997C227.115 435.552 227.158 435.104 227.28 434.674C227.403 434.208 227.655 433.787 228.006 433.457C228.175 433.281 228.386 433.15 228.619 433.077C228.852 433.004 229.1 432.992 229.339 433.041C229.051 433.3 228.818 433.616 228.656 433.969C228.512 434.294 228.394 434.629 228.305 434.973C228.102 435.758 227.845 436.528 227.536 437.278C228.283 438.11 229.884 439.178 232.893 438.495L233.213 438.463C232.733 437.63 232.545 436.661 232.679 435.709C232.746 435.218 232.914 434.746 233.17 434.322C233.291 434.09 233.469 433.893 233.688 433.751C233.907 433.609 234.159 433.526 234.419 433.51C234.169 433.852 234.001 434.246 233.928 434.663C233.853 435.047 233.789 435.442 233.736 435.858C233.65 436.742 233.475 437.614 233.213 438.463L235.006 438.303C234.907 437.65 234.925 436.985 235.059 436.339C235.215 435.684 235.526 435.076 235.966 434.567C236.407 434.048 236.948 433.623 237.557 433.318C238.15 433.084 238.71 432.772 239.222 432.39C240.247 431.649 241.087 430.681 241.676 429.562C242.171 428.38 242.526 427.144 242.732 425.88C243.855 420.796 244.579 415.632 244.898 410.436C245.325 405.239 245.4 400.02 245.347 394.801C245.336 392.186 245.251 389.581 245.133 386.967C245.048 384.352 244.877 381.748 244.696 379.133C245.475 384.317 245.966 389.541 246.168 394.779C246.383 400.023 246.316 405.274 245.966 410.511C245.604 415.758 244.79 420.965 243.532 426.072C243.263 427.383 242.841 428.658 242.273 429.871C241.6 431.053 240.661 432.062 239.53 432.817C238.968 433.183 238.362 433.477 237.727 433.692C237.145 433.936 236.619 434.295 236.18 434.749C235.741 435.222 235.409 435.785 235.206 436.398C235.003 437.011 234.935 437.661 235.006 438.303C235.006 438.303 235.369 439.53 237.46 440.224C237.108 439.287 237.066 438.261 237.343 437.299C237.487 436.791 237.742 436.32 238.09 435.923C238.264 435.696 238.508 435.534 238.785 435.462C239.061 435.391 239.354 435.414 239.616 435.528C239.42 435.604 239.243 435.721 239.098 435.872C238.952 436.023 238.841 436.204 238.773 436.403C238.611 436.787 238.479 437.183 238.378 437.588C238.152 438.492 237.845 439.374 237.46 440.224C239.099 440.693 240.817 440.82 242.508 440.597C242.156 440.222 241.936 439.742 241.878 439.231C241.817 438.718 241.865 438.198 242.017 437.705C242.172 437.224 242.427 436.781 242.766 436.406C243.104 436.031 243.518 435.731 243.981 435.528C243.831 436.019 243.639 436.435 243.479 436.841C243.319 437.257 243.159 437.641 243.031 438.036C242.764 438.868 242.592 439.727 242.519 440.597C243.947 440.469 245.363 440.234 246.756 439.893C246.756 439.893 251.525 439.338 252.006 429.017C252.872 424.255 254.309 419.615 256.285 415.196L259.625 403.84C260.084 400.5 260.799 397.245 261.514 393.989L262.624 389.123C262.965 387.49 263.392 385.889 263.595 384.224C263.758 385.906 263.708 387.603 263.445 389.272C263.232 390.937 262.901 392.581 262.549 394.224C261.835 397.503 260.857 400.719 259.625 403.84C259.625 403.84 260.105 412.816 269.069 422.422C267.858 417.213 267.172 411.897 267.02 406.551C266.843 401.155 267.642 395.772 269.379 390.66C271.219 385.51 274.664 381.088 279.207 378.044C283.781 375.136 289.153 373.74 294.563 374.053C291.909 374.109 289.275 374.54 286.741 375.334C284.221 376.09 281.834 377.235 279.666 378.727C277.519 380.221 275.624 382.048 274.053 384.139C272.509 386.251 271.273 388.573 270.382 391.033C268.646 396.02 267.786 401.271 267.842 406.551C267.815 409.202 267.922 411.852 268.162 414.492C268.301 415.815 268.376 417.149 268.557 418.462L269.069 422.422C269.069 422.422 266.935 426.477 259.945 426.787C259.945 426.787 255.655 427.193 255.175 432.593C255.175 432.593 254.94 435.656 261.93 436.424C261.93 436.424 269.315 437.855 273.765 435.314L277.99 435.528H279.559C278.388 432.719 277.71 429.73 277.553 426.691C277.226 421.206 278.139 415.718 280.225 410.635C282.311 405.551 285.516 401.004 289.601 397.33C301.148 386.818 313.356 387.01 316.824 387.309C314.999 372.868 309.738 356.742 296.634 345.727ZM234.771 270.805C234.771 270.805 234.217 271.755 235.006 273.985C235.006 273.985 228.176 272.235 234.056 261.274C234.056 261.274 235.006 269.375 237.866 273.185C236.701 272.581 235.653 271.776 234.771 270.805V270.805ZM262.485 287.956C256.135 289.546 255.015 283.986 255.015 283.986C261.685 283.516 262.485 287.956 262.485 287.956V287.956ZM238.656 295.267C242.452 294.35 246.317 293.751 250.213 293.474C252.162 293.319 254.117 293.265 256.071 293.314C258.041 293.292 259.998 293.632 261.845 294.317C260.896 294.129 259.93 294.047 258.964 294.071C258.003 294.061 257.042 294.114 256.071 294.146C254.151 294.242 252.219 294.391 250.287 294.53C246.425 294.819 242.562 295.149 238.656 295.267ZM242.156 302.417C243.466 301.229 244.917 300.208 246.478 299.376C248.038 298.529 249.674 297.833 251.365 297.295C253.056 296.753 254.797 296.385 256.563 296.195C258.318 295.994 260.091 296.001 261.845 296.216C260.095 296.451 258.376 296.654 256.69 297.017C254.997 297.349 253.326 297.784 251.685 298.319C250.039 298.832 248.421 299.434 246.841 300.123C245.261 300.817 243.693 301.553 242.156 302.417V302.417ZM254.94 302.332C252.486 303.987 250.085 305.715 247.556 307.338C249.567 305.101 251.846 303.123 254.343 301.446C256.8 299.689 259.56 298.401 262.485 297.647C259.849 299.088 257.384 300.667 254.94 302.332L254.94 302.332Z" fill="#337B94"/>
<path d="M242.194 262.527C242.194 262.527 242.194 262.563 242.198 262.625C242.194 262.594 242.194 262.563 242.189 262.532L242.194 262.527Z" fill="white"/>
<path d="M258.751 284.33C259.053 284.578 259.289 284.896 259.437 285.257C259.567 285.549 259.634 285.865 259.633 286.185C259.636 286.504 259.57 286.82 259.44 287.112C259.291 287.473 259.054 287.792 258.751 288.039C258.448 287.792 258.211 287.473 258.063 287.112C257.932 286.82 257.866 286.504 257.869 286.185C257.868 285.865 257.935 285.549 258.065 285.257C258.214 284.896 258.449 284.578 258.751 284.33Z" fill="#337B94"/>
<path d="M242.189 262.531C242.302 263.696 242.46 264.85 242.663 265.994C242.865 267.139 243.092 268.278 243.399 269.397C243.673 270.525 244.007 271.638 244.399 272.73C244.764 273.835 245.232 274.898 245.684 275.98C244.453 273.974 243.539 271.791 242.972 269.506C242.375 267.231 242.111 264.882 242.189 262.531Z" fill="#337B94"/>
<path d="M366.984 282.69C367.822 280.678 368.995 278.823 370.452 277.204C371.905 275.529 373.683 274.168 375.678 273.204C376.688 272.726 377.753 272.373 378.849 272.154C379.945 271.957 381.063 271.899 382.174 271.982C384.357 272.182 386.488 272.767 388.467 273.71C390.457 274.569 392.33 275.677 394.04 277.008C395.782 278.341 397.282 279.964 398.473 281.806C399.713 283.678 400.48 285.823 400.708 288.057C400.924 290.385 400.221 292.705 398.749 294.522L398.736 294.538C398.7 294.585 398.656 294.626 398.606 294.658C397.21 295.622 395.55 296.132 393.854 296.119C392.972 296.061 392.122 295.764 391.396 295.261C390.705 294.761 390.132 294.115 389.72 293.369C389.369 292.721 388.962 292.105 388.502 291.528C388.014 290.97 387.482 290.396 386.96 289.844C386.431 289.293 385.904 288.738 385.358 288.206C385.084 287.942 384.805 287.682 384.512 287.444C384.368 287.325 384.218 287.213 384.062 287.11C383.917 287.017 383.716 286.912 383.619 286.971L383.596 286.984C383.582 286.993 383.565 286.995 383.549 286.991C383.533 286.988 383.519 286.978 383.51 286.964C383.501 286.95 383.498 286.933 383.502 286.917C383.505 286.901 383.514 286.887 383.528 286.878C383.775 286.711 383.984 286.862 384.163 286.919C384.343 287.001 384.517 287.096 384.683 287.204C385.015 287.413 385.33 287.642 385.64 287.876C386.26 288.344 386.856 288.841 387.432 289.356C388.013 289.873 388.574 290.38 389.149 290.93C389.708 291.505 390.199 292.142 390.611 292.829C390.944 293.417 391.422 293.909 391.999 294.259C392.576 294.609 393.233 294.805 393.907 294.83C395.303 294.777 396.655 294.324 397.802 293.526L397.658 293.662C398.917 292.105 399.555 290.137 399.448 288.137C399.28 286.083 398.655 284.092 397.62 282.31C395.574 278.565 392.273 275.662 388.296 274.114C386.342 273.321 384.253 272.916 382.145 272.92C380.081 272.952 378.044 273.402 376.158 274.243C372.383 276.144 369.238 279.096 367.102 282.745C367.098 282.752 367.092 282.759 367.086 282.764C367.079 282.77 367.071 282.774 367.063 282.776C367.055 282.779 367.046 282.78 367.038 282.779C367.029 282.778 367.021 282.775 367.014 282.771C367 282.763 366.99 282.75 366.985 282.736C366.979 282.721 366.979 282.705 366.984 282.69Z" fill="#337B94"/>
<path d="M430.849 280.601C428.497 281.011 426.229 281.808 424.138 282.96C422.005 284.037 419.945 285.254 417.912 286.51C413.834 289.008 409.888 291.723 406 294.513C402.112 297.304 398.265 300.154 394.461 303.063C390.657 305.968 386.91 308.957 383.182 311.951L383.177 311.955C383.092 312.023 382.99 312.066 382.882 312.078C382.775 312.091 382.665 312.072 382.568 312.025C382.47 311.978 382.388 311.904 382.33 311.812C382.273 311.72 382.243 311.614 382.243 311.505L382.296 298.358L382.436 285.211L382.715 285.578L379.29 284.666C378.15 284.355 376.984 284.161 375.831 283.903C374.679 283.634 373.502 283.529 372.337 283.334C371.169 283.171 369.988 283.126 368.813 283.036C366.462 282.935 364.108 283.146 361.812 283.664C361.242 283.796 360.682 283.97 360.138 284.185C359.589 284.384 359.057 284.625 358.545 284.905C357.523 285.437 356.651 286.215 356.008 287.17L356.027 287.104C355.544 291.675 355.155 296.258 354.862 300.852C354.558 305.446 354.392 310.031 354.402 314.632C354.38 323.829 354.612 333.033 354.863 342.227L354.858 342.168C355.042 343.054 355.362 343.905 355.808 344.692C356.039 345.089 356.301 345.467 356.59 345.824L357.027 346.357C357.186 346.521 357.362 346.671 357.528 346.83C358.923 348.061 360.603 348.926 362.416 349.347C366.189 350.026 370.065 349.866 373.769 348.878C375.641 348.453 377.55 347.948 379.454 347.443L385.182 346.039L396.664 343.414C404.316 341.681 411.988 340.057 419.551 338.02C421.45 337.539 423.315 336.951 425.198 336.419C427.052 335.803 428.936 335.261 430.755 334.552C434.457 333.327 437.971 331.596 441.199 329.409L441.208 329.402C441.265 329.361 441.336 329.344 441.405 329.355C441.474 329.366 441.536 329.404 441.578 329.46C441.612 329.507 441.63 329.563 441.628 329.62L441.427 342.008C441.426 342.025 441.419 342.041 441.407 342.053C441.395 342.065 441.379 342.072 441.362 342.072C441.345 342.072 441.328 342.065 441.316 342.053C441.304 342.041 441.297 342.025 441.297 342.008L441.095 329.62L441.524 329.832C438.302 332.136 434.766 333.967 431.024 335.267C429.198 336.016 427.317 336.592 425.458 337.246C423.576 337.813 421.707 338.438 419.81 338.953C412.245 341.102 404.607 342.958 396.954 344.694L385.495 347.35L379.794 348.764C377.906 349.267 376.027 349.784 374.069 350.218C370.159 351.225 366.074 351.352 362.108 350.593C360.09 350.106 358.224 349.123 356.682 347.733C355.122 346.299 354.067 344.399 353.676 342.316L353.671 342.277L353.671 342.257C353.575 337.65 353.558 333.046 353.541 328.441C353.533 323.835 353.553 319.229 353.643 314.623C353.709 310.017 353.962 305.402 354.346 300.816C354.708 296.224 355.1 291.636 355.623 287.057L355.625 287.039C355.627 287.021 355.633 287.005 355.643 286.99C357.053 284.867 359.42 283.877 361.704 283.249C364.037 282.7 366.433 282.464 368.828 282.546C371.212 282.649 373.588 282.903 375.939 283.307C377.107 283.541 378.291 283.712 379.447 283.999L382.921 284.843C383 284.862 383.07 284.907 383.12 284.97C383.171 285.034 383.199 285.112 383.2 285.193V285.211L383.341 298.358L383.393 311.506L382.454 311.06C386.175 308.018 389.986 305.106 393.813 302.21C397.651 299.329 401.513 296.478 405.471 293.76C409.428 291.042 413.442 288.4 417.591 285.974C419.673 284.775 421.789 283.629 423.973 282.618C426.128 281.527 428.448 280.801 430.841 280.471C430.858 280.469 430.874 280.475 430.887 280.485C430.901 280.496 430.909 280.512 430.911 280.529C430.913 280.545 430.908 280.562 430.897 280.576C430.887 280.589 430.872 280.598 430.855 280.6L430.849 280.601Z" fill="#337B94"/>
<path d="M393.98 264.617L397.301 272.475L400.528 280.37L400.157 280.083C403.094 280.287 406.046 280.039 408.908 279.348C411.754 278.692 414.405 277.378 416.652 275.512C418.836 273.588 420.423 271.077 421.223 268.278C422.023 265.433 422.318 262.471 422.096 259.525L422.095 259.499L422.097 259.47C422.242 258.84 422.557 258.26 423.007 257.795C423.457 257.33 424.026 256.996 424.651 256.829C425.808 256.499 427.013 256.372 428.212 256.454C430.565 256.475 432.912 256.678 435.233 257.06C442.247 258.191 448.867 261.061 454.487 265.408L457.183 267.714C457.637 268.094 458.061 268.507 458.452 268.951L459.67 270.241C461.29 271.967 462.781 273.81 464.133 275.754C464.836 276.706 465.378 277.762 466.009 278.762C466.598 279.786 467.275 280.765 467.791 281.827L469.315 285.026C469.856 286.076 470.335 287.158 470.748 288.264C471.533 290.487 472.378 292.703 473.11 294.929L477.391 308.29C478.833 312.739 480.365 317.156 481.939 321.556C482.739 323.751 483.572 325.935 484.462 328.092C484.907 329.171 485.364 330.246 485.874 331.295C486.323 332.357 486.925 333.347 487.662 334.234L487.694 334.267C487.705 334.278 487.711 334.293 487.711 334.309C487.711 334.324 487.705 334.339 487.694 334.35C487.683 334.362 487.669 334.368 487.653 334.369C487.637 334.369 487.622 334.364 487.611 334.354C486.788 333.495 486.106 332.512 485.59 331.441C485.02 330.413 484.502 329.359 483.997 328.299C482.976 326.183 482.092 324.01 481.198 321.842C479.426 317.499 477.822 313.092 476.27 308.671C474.696 304.256 473.26 299.795 471.83 295.334C471.089 293.118 470.252 290.963 469.469 288.775C469.07 287.687 468.611 286.621 468.096 285.583L466.641 282.424C466.149 281.375 465.498 280.413 464.934 279.402C464.329 278.416 463.811 277.37 463.135 276.432L461.09 273.628C460.426 272.68 459.69 271.785 458.888 270.95L457.732 269.655C457.362 269.21 456.958 268.794 456.524 268.41L453.947 266.08C452.151 264.614 450.238 263.297 448.228 262.141C444.189 259.811 439.767 258.224 435.169 257.454C432.868 257.084 430.54 256.909 428.21 256.932C427.069 256.861 425.925 257 424.834 257.342C424.328 257.492 423.87 257.773 423.508 258.157C423.145 258.54 422.89 259.013 422.768 259.526V259.472C423.107 262.51 422.908 265.583 422.18 268.552C421.406 271.579 419.742 274.304 417.404 276.377C415.029 278.374 412.197 279.752 409.16 280.389C406.177 281.084 403.1 281.286 400.052 280.987C399.97 280.978 399.891 280.947 399.825 280.896C399.76 280.845 399.71 280.777 399.68 280.7L396.724 272.7L393.859 264.664C393.854 264.648 393.854 264.631 393.861 264.615C393.868 264.6 393.881 264.588 393.897 264.582C393.913 264.576 393.93 264.576 393.946 264.582C393.961 264.589 393.974 264.602 393.98 264.617V264.617Z" fill="#337B94"/>
<path d="M380.599 261.836C375.962 263.34 371.515 265.377 367.348 267.907C363.173 270.382 359.31 273.349 355.842 276.745C352.372 280.114 349.403 283.964 347.024 288.176C344.654 292.424 342.252 296.712 339.764 300.907C337.278 305.106 334.708 309.26 332.566 313.599C331.47 315.735 330.608 317.983 329.995 320.305C329.365 322.57 329.415 324.971 330.14 327.209C331.044 329.405 332.493 331.335 334.35 332.816C336.177 334.391 338.194 335.729 340.355 336.798C344.732 338.94 349.417 340.383 354.241 341.076C351.803 340.859 349.388 340.433 347.022 339.805C344.642 339.197 342.318 338.383 340.078 337.372C337.832 336.333 335.727 335.011 333.815 333.438C332.862 332.635 331.972 331.761 331.153 330.822C330.332 329.846 329.674 328.745 329.205 327.559C328.338 325.146 328.232 322.524 328.902 320.049C329.515 317.64 330.387 315.304 331.502 313.084C333.651 308.646 336.192 304.463 338.648 300.246C341.174 296.063 343.58 291.849 346 287.592C348.442 283.293 351.529 279.393 355.152 276.029C362.35 269.293 371.086 264.42 380.599 261.836Z" fill="#337B94"/>
<path d="M336.661 316.531C337.794 315.441 339.059 314.497 340.427 313.722C341.791 312.927 343.232 312.271 344.728 311.765C346.242 311.273 347.813 310.974 349.402 310.876C350.992 310.803 352.581 311.056 354.07 311.619C352.543 311.567 351.015 311.655 349.505 311.883C348.025 312.158 346.564 312.53 345.133 312.998C343.696 313.462 342.29 314.033 340.881 314.623C339.478 315.229 338.081 315.867 336.661 316.531Z" fill="#337B94"/>
<path d="M441.362 329.62C443.074 328.27 444.674 326.831 446.255 325.373C447.823 323.901 449.354 322.394 450.847 320.851C452.344 319.311 453.797 317.725 455.244 316.127C456.693 314.529 458.1 312.89 459.592 311.293C458.538 313.203 457.346 315.034 456.026 316.772C454.711 318.516 453.293 320.18 451.779 321.754C450.255 323.323 448.628 324.789 446.909 326.142C445.204 327.516 443.342 328.683 441.362 329.62Z" fill="#337B94"/>
<path d="M435.753 278.433C438.099 277.923 440.517 277.838 442.893 278.18C445.304 278.505 447.634 279.277 449.763 280.456C450.824 281.061 451.828 281.761 452.763 282.546C453.662 283.368 454.475 284.279 455.189 285.266C455.567 285.738 455.904 286.241 456.197 286.771L457.022 288.377C457.279 288.919 457.49 289.48 457.654 290.057C457.847 290.621 458.024 291.189 458.189 291.755C457.173 289.653 455.899 287.685 454.397 285.897C453.653 285.028 452.84 284.221 451.967 283.483C451.075 282.774 450.125 282.141 449.128 281.589C447.122 280.472 444.96 279.658 442.715 279.174C440.428 278.675 438.094 278.426 435.753 278.433Z" fill="#337B94"/>
<path d="M362.761 391.537L356.121 401.658C353.909 405.032 351.675 408.392 349.42 411.737C349.368 411.814 349.297 411.877 349.214 411.919C349.13 411.961 349.037 411.981 348.944 411.976C348.851 411.971 348.76 411.943 348.681 411.893C348.602 411.843 348.537 411.774 348.493 411.692L348.474 411.656C346.868 408.783 344.887 406.136 342.583 403.787C340.283 401.413 337.79 399.233 335.13 397.27C333.76 396.344 332.431 395.357 330.991 394.539C330.278 394.12 329.588 393.663 328.857 393.275L326.659 392.121C325.936 391.72 325.185 391.373 324.425 391.042L322.162 390.023C320.632 389.39 319.069 388.837 317.526 388.239L317.507 388.232C317.298 388.151 317.129 387.992 317.035 387.788C316.941 387.584 316.93 387.352 317.003 387.14C318.533 382.763 320.158 378.421 321.737 374.061C323.323 369.705 324.907 365.348 326.55 361.011L336.306 334.958C336.341 334.863 336.413 334.786 336.506 334.743C336.598 334.701 336.704 334.698 336.799 334.733C336.82 334.742 336.841 334.752 336.861 334.763C339.529 336.341 342.332 337.679 345.237 338.762C348.121 339.888 351.161 340.567 354.25 340.773C354.327 340.776 354.399 340.809 354.453 340.864C354.507 340.919 354.537 340.992 354.538 341.069L354.539 341.091C354.594 342.147 354.889 343.176 355.403 344.101C355.919 345.046 356.578 345.906 357.357 346.651C358.138 347.404 358.996 348.073 359.917 348.646L361.338 349.453L362.82 350.152L362.827 350.156C362.888 350.185 362.939 350.23 362.976 350.287C363.012 350.343 363.032 350.409 363.033 350.477L363.537 400.9L363.662 426.112C363.721 434.515 363.714 442.919 363.689 451.323V451.329C363.688 451.496 363.646 451.661 363.565 451.808C363.043 452.715 362.3 453.475 361.405 454.017C360.585 454.527 359.699 454.919 358.77 455.183C357.012 455.679 355.202 455.966 353.377 456.037C349.831 456.18 346.28 456.028 342.76 455.583C335.8 454.672 328.897 453.373 322.082 451.691C315.268 450.082 308.531 448.19 301.836 446.18C295.137 444.178 288.496 442.003 281.911 439.655L281.905 439.653C281.874 439.642 281.847 439.622 281.826 439.597C280.855 438.371 280.062 437.014 279.47 435.566C279.461 435.543 279.46 435.516 279.47 435.493C279.479 435.469 279.498 435.45 279.521 435.44C279.545 435.43 279.571 435.429 279.595 435.438C279.619 435.447 279.638 435.465 279.649 435.488C280.285 436.887 281.116 438.189 282.116 439.356L282.032 439.298C288.695 441.372 295.413 443.273 302.138 445.121C308.87 446.948 315.637 448.622 322.437 450.144C329.211 451.697 336.067 452.87 342.972 453.659C346.385 454.068 349.826 454.202 353.26 454.058C354.927 453.989 356.58 453.724 358.185 453.269C359.652 452.944 360.941 452.075 361.794 450.838L361.67 451.323C361.644 442.919 361.638 434.515 361.697 426.111L361.822 400.9L362.326 350.477L362.538 350.8L361.018 350.068L359.555 349.222C358.598 348.615 357.707 347.909 356.897 347.116C356.078 346.319 355.386 345.401 354.847 344.393C354.287 343.367 353.975 342.225 353.938 341.057L354.226 341.374C352.649 341.272 351.083 341.051 349.539 340.712C348.006 340.354 346.495 339.91 345.012 339.382C342.051 338.314 339.19 336.984 336.464 335.41L337.019 335.215L327.923 361.506C326.423 365.894 324.865 370.26 323.309 374.628C321.745 378.992 320.228 383.374 318.615 387.721L318.093 386.622C319.666 387.248 321.257 387.83 322.815 388.493L325.122 389.56C325.894 389.906 326.659 390.269 327.397 390.688L329.636 391.893C330.38 392.297 331.085 392.773 331.811 393.21C333.277 394.064 334.633 395.089 336.026 396.054C338.749 398.084 341.273 400.368 343.566 402.874C345.897 405.371 347.882 408.171 349.466 411.199L348.52 411.118C350.842 407.819 353.179 404.53 355.53 401.251L362.601 391.427C362.616 391.406 362.638 391.392 362.663 391.388C362.688 391.383 362.714 391.389 362.735 391.403C362.756 391.418 362.77 391.44 362.775 391.465C362.78 391.49 362.775 391.516 362.761 391.537L362.761 391.537Z" fill="#337B94"/>
<path d="M338.687 416.413C340.632 415.598 342.661 415.002 344.738 414.636C346.822 414.233 348.942 414.053 351.063 414.099C353.206 414.125 355.332 414.481 357.367 415.155C359.402 415.831 361.231 417.015 362.681 418.595C360.968 417.458 359.073 416.622 357.078 416.126C356.579 416.025 356.083 415.92 355.591 415.803L354.08 415.602C353.58 415.516 353.067 415.5 352.56 415.462C352.052 415.424 351.544 415.384 351.032 415.396C348.977 415.347 346.922 415.427 344.878 415.635C342.822 415.833 340.763 416.092 338.687 416.413Z" fill="#337B94"/>
<path d="M320.079 388.268C316.934 395.427 313.44 402.406 309.86 409.34C306.245 416.256 302.543 423.127 298.489 429.815C301.632 422.653 305.126 415.675 308.709 408.742C312.326 401.827 316.028 394.957 320.079 388.268Z" fill="#337B94"/>
<path d="M324.82 436.671C327.882 431.337 331.261 426.222 334.728 421.167C338.226 416.134 341.801 411.155 345.705 406.402C342.646 411.738 339.263 416.851 335.795 421.904C332.295 426.935 328.722 431.917 324.82 436.671Z" fill="#337B94"/>
<path d="M315.32 463.555C319.716 463.299 324.102 462.979 328.488 462.637C328.106 464.462 327.24 466.151 325.98 467.525C325.98 467.525 254.162 474.537 243.415 468.923C243.415 468.923 239.67 459.809 246.446 456.543C248.698 455.454 253.724 453.459 259.913 450.844C261.779 451.151 263.595 451.707 265.313 452.498C267.02 453.279 268.602 454.308 270.008 455.55C270.703 456.172 271.349 456.846 271.94 457.568C272.503 458.305 273.006 459.087 273.445 459.905C274.31 461.546 274.932 463.304 275.291 465.124L275.302 465.134C275.324 465.238 275.383 465.33 275.467 465.394C275.551 465.459 275.655 465.491 275.76 465.487L288.95 464.953L302.14 464.312C306.537 464.11 310.923 463.822 315.32 463.555Z" fill="#337B94"/>
<path d="M324.817 436.67C303.239 447.343 298.49 429.818 298.49 429.818C295.169 432.672 291.582 435.199 287.776 437.364C288.652 437.403 289.51 437.625 290.295 438.015C291.129 438.416 291.89 438.953 292.546 439.605C293.197 440.253 293.738 441.003 294.147 441.825C294.556 442.64 294.813 443.522 294.904 444.429C294.382 443.682 293.955 442.935 293.432 442.263C292.939 441.584 292.389 440.948 291.789 440.363C291.202 439.766 290.562 439.223 289.878 438.741C289.191 438.244 288.471 437.795 287.723 437.396C285.994 438.421 284.205 439.424 282.355 440.406C283.183 440.457 283.993 440.675 284.735 441.046C286.408 441.848 287.761 443.19 288.577 444.856C288.991 445.669 289.248 446.552 289.334 447.461C288.822 446.703 288.385 445.966 287.872 445.294C287.376 444.614 286.827 443.976 286.229 443.384C285.636 442.789 284.993 442.247 284.308 441.761C283.644 441.277 282.944 440.842 282.216 440.459C280.328 441.462 278.396 442.444 276.454 443.394C277.366 443.418 278.262 443.64 279.079 444.045C280.756 444.85 282.113 446.196 282.932 447.866C283.341 448.677 283.598 449.556 283.689 450.459C283.177 449.712 282.739 448.965 282.216 448.293C281.727 447.614 281.181 446.979 280.584 446.393C279.993 445.796 279.351 445.253 278.663 444.771C277.961 444.259 277.222 443.799 276.454 443.394C270.745 446.18 264.939 448.72 259.913 450.844C261.815 451.02 263.681 451.473 265.452 452.189C267.24 452.894 268.905 453.881 270.382 455.113C271.126 455.731 271.819 456.409 272.452 457.141C273.066 457.893 273.619 458.692 274.106 459.531C275.012 461.099 275.678 462.793 276.08 464.558L288.908 463.907L302.098 463.363C306.494 463.16 310.891 463.043 315.287 462.915C319.684 462.776 324.091 462.701 328.488 462.637C330.899 452.818 324.817 436.67 324.817 436.67ZM314.849 456.084C310.72 456.084 310.73 449.68 314.849 449.68C318.979 449.68 318.969 456.084 314.849 456.084Z" fill="#337B94"/>
<path d="M282.335 440.406C282.292 440.427 282.26 440.438 282.217 440.459C282.175 440.438 282.142 440.416 282.1 440.395C282.178 440.393 282.257 440.397 282.335 440.406Z" fill="white"/>
<path d="M287.778 437.363C287.756 437.374 287.745 437.385 287.723 437.396C287.702 437.385 287.691 437.374 287.67 437.363H287.778Z" fill="white"/>
<path d="M362.681 350.478C362.681 350.478 354.267 354.396 389.791 358.135L508.825 339.125L490.129 331.957L362.681 350.478Z" fill="#337B94"/>
<path d="M362.778 350.479C362.971 359.635 363.14 368.792 363.224 377.948C363.323 387.105 363.438 396.261 363.454 405.418C363.48 414.574 363.568 423.731 363.542 432.887C363.512 442.044 363.496 451.2 363.364 460.357L362.914 459.714L382.153 466.948C388.558 469.382 395.005 471.7 401.429 474.082L401.255 474.07C406.561 472.991 411.85 471.83 417.144 470.694L433.018 467.24L464.741 460.223C475.315 457.88 485.89 455.543 496.48 453.276C507.069 451.007 517.643 448.665 528.245 446.455L527.438 447.558C526.51 438.418 525.474 429.281 524.328 420.15C523.193 411.024 522.053 401.898 520.715 392.801C519.368 383.707 517.968 374.617 516.216 365.596C515.331 361.088 514.383 356.591 513.266 352.137C512.249 347.66 510.732 343.312 508.742 339.175L508.739 339.17C508.727 339.147 508.724 339.121 508.732 339.096C508.739 339.072 508.756 339.051 508.778 339.039C508.801 339.027 508.827 339.024 508.852 339.031C508.876 339.038 508.897 339.055 508.91 339.077C511.056 343.17 512.733 347.492 513.909 351.961C515.201 356.391 516.269 360.879 517.254 365.381C519.226 374.387 520.863 383.459 522.311 392.557C523.76 401.655 525.108 410.768 526.274 419.905C527.438 429.043 528.505 438.193 529.476 447.354C529.502 447.603 529.435 447.853 529.289 448.056C529.142 448.26 528.926 448.402 528.682 448.456L528.669 448.458C518.081 450.735 507.466 452.881 496.866 455.099C486.266 457.319 475.652 459.47 465.036 461.614L433.191 468.06L417.281 471.337C411.98 472.444 406.674 473.527 401.386 474.692C401.328 474.704 401.268 474.699 401.212 474.68C394.756 472.387 388.323 470.031 381.848 467.79L362.448 460.999C362.318 460.954 362.205 460.87 362.125 460.758C362.044 460.647 362 460.513 361.998 460.376L361.997 460.357C361.866 451.2 361.85 442.044 361.819 432.887C361.794 423.731 361.881 414.574 361.907 405.418C361.923 396.261 362.038 387.105 362.138 377.948C362.221 368.792 362.39 359.635 362.583 350.479C362.584 350.453 362.595 350.429 362.613 350.411C362.631 350.394 362.655 350.384 362.681 350.384C362.706 350.384 362.731 350.394 362.749 350.411C362.767 350.429 362.778 350.453 362.778 350.479L362.778 350.479Z" fill="#337B94"/>
<path d="M389.791 358.135C390.336 362.825 390.798 367.522 391.304 372.215L392.682 386.304C393.581 395.702 394.388 405.09 395.222 414.51C395.894 423.933 396.437 433.36 396.85 442.791L397.374 456.942C397.487 461.661 397.633 466.379 397.676 471.1L395.853 442.844C395.242 433.428 394.701 424.008 393.929 414.61L391.692 386.39L390.674 372.267C390.381 367.556 390.045 362.848 389.791 358.135Z" fill="#337B94"/>
<path d="M366.429 457.872C367.725 457.91 369.006 457.585 370.127 456.933C371.219 456.276 372.117 455.34 372.73 454.222C373.886 451.918 374.443 449.36 374.349 446.784C374.559 441.519 374.7 436.251 375.005 430.988L376.043 415.207C376.352 409.946 376.578 404.682 376.72 399.413C376.722 399.338 376.753 399.266 376.807 399.213C376.86 399.16 376.932 399.129 377.007 399.127C377.083 399.125 377.156 399.152 377.212 399.203C377.268 399.254 377.302 399.324 377.308 399.399L377.309 399.414L378.548 416.831L379.719 434.247L380.304 442.949C380.401 444.398 380.507 445.846 380.636 447.288C380.7 448.008 380.769 448.73 380.862 449.435C380.904 449.783 380.964 450.152 381.028 450.434L381.069 450.596L381.194 450.861C381.282 451.039 381.35 451.21 381.422 451.382C381.935 452.727 382.52 454.045 383.173 455.328C383.842 456.596 384.626 457.8 385.513 458.926C387.316 461.192 389.393 463.225 391.698 464.978C391.705 464.983 391.711 464.989 391.715 464.997C391.719 465.004 391.722 465.012 391.723 465.02C391.724 465.029 391.724 465.037 391.722 465.046C391.72 465.054 391.716 465.062 391.711 465.069C391.701 465.082 391.686 465.09 391.669 465.093C391.653 465.096 391.636 465.092 391.622 465.083C389.163 463.481 386.932 461.554 384.99 459.354C383.073 457.103 381.546 454.549 380.469 451.795C380.396 451.634 380.325 451.468 380.247 451.323L380.133 451.097L380.004 450.742C379.906 450.364 379.829 449.982 379.774 449.596C379.655 448.861 379.566 448.136 379.48 447.409C379.308 445.956 379.161 444.505 379.022 443.054C378.765 440.149 378.535 437.245 378.334 434.34C377.931 428.53 377.664 422.713 377.368 416.899C377.088 411.083 376.906 405.263 376.72 399.444L377.309 399.444C376.968 404.701 376.711 409.963 376.537 415.229L376.124 431.027C375.946 436.29 375.603 441.548 375.33 446.809C375.329 449.527 374.629 452.198 373.297 454.567C372.598 455.738 371.578 456.684 370.357 457.293C369.137 457.901 367.767 458.147 366.411 458C366.395 457.998 366.38 457.989 366.37 457.977C366.359 457.964 366.354 457.947 366.356 457.931C366.357 457.914 366.365 457.899 366.377 457.888C366.389 457.877 366.405 457.871 366.422 457.871L366.429 457.872Z" fill="#337B94"/>
<path d="M424.016 352.669C424.016 352.669 443.809 348.14 444.212 392.159C444.257 397.027 444.435 403.654 445.568 408.388C447.897 418.111 452.805 429.27 459.042 419.815C461.135 416.568 462.208 412.769 462.121 408.907C462.058 403.717 460.811 395.971 454.917 389.923C445.154 379.906 447.672 376.834 448.607 371.224C449.541 365.615 451.835 361.835 445.568 356.032L439.302 350.228L450.476 348.443C456.631 350.282 461.772 357.824 461.461 364.68C461.41 365.79 461.327 366.924 461.223 368.046C460.572 375.011 462.345 381.987 466.242 387.796C470.357 393.918 474.86 402.626 474.86 411.427C474.86 427.632 457.098 449.759 441.362 432.229C425.625 414.699 431.546 411.427 432.169 385.872C432.792 360.317 406.939 355.396 406.939 355.396L424.016 352.669Z" fill="#337B94"/>
<path d="M381.472 212.435C379.103 217.332 377.353 222.506 376.263 227.836C376.059 229.172 375.958 230.523 375.962 231.875C375.904 233.257 375.801 234.639 375.62 236.013C375.495 237.416 375.092 238.78 374.436 240.026C374.033 240.597 373.571 241.124 373.056 241.597C372.64 242.051 372.395 242.636 372.364 243.252C372.366 243.524 372.45 243.79 372.605 244.014C372.76 244.238 372.979 244.411 373.233 244.509C373.47 244.627 373.852 244.753 374.167 244.898C374.566 245.053 374.919 245.305 375.195 245.632C375.432 245.991 375.578 246.402 375.623 246.83C375.681 247.193 375.717 247.533 375.76 247.875C375.845 248.555 375.913 249.231 376.013 249.9C376.345 252.56 377.035 255.163 378.064 257.638C379.061 260.051 380.858 262.187 383.511 262.289C386.234 262.539 388.96 262.813 391.699 263.175L391.706 263.176C391.722 263.178 391.737 263.187 391.747 263.199C391.758 263.212 391.763 263.228 391.762 263.244C391.761 263.26 391.754 263.276 391.743 263.287C391.731 263.298 391.716 263.305 391.699 263.305C388.956 263.371 386.201 263.348 383.442 263.302C383.078 263.299 382.716 263.263 382.359 263.192L381.798 263.102C381.616 263.049 381.438 262.985 381.264 262.91C380.552 262.65 379.894 262.261 379.324 261.761C378.237 260.774 377.377 259.564 376.804 258.212C375.709 255.615 375.033 252.86 374.801 250.051C374.724 249.359 374.664 248.668 374.619 247.981C374.635 247.387 374.546 246.796 374.358 246.233C374.192 246.032 373.979 245.873 373.738 245.771C373.442 245.604 373.174 245.5 372.808 245.287C372.446 245.083 372.141 244.789 371.923 244.434C371.713 244.069 371.619 243.648 371.653 243.228C371.736 242.462 372.088 241.751 372.644 241.219C372.905 240.944 373.202 240.749 373.427 240.531C373.662 240.304 373.871 240.052 374.051 239.78C374.723 238.613 375.117 237.307 375.202 235.963C375.32 234.605 375.333 233.24 375.239 231.88C375.106 230.49 375.09 229.091 375.191 227.698C375.55 224.926 376.306 222.219 377.436 219.662C378.512 217.114 379.826 214.672 381.36 212.37C381.364 212.363 381.371 212.357 381.378 212.352C381.385 212.348 381.393 212.345 381.401 212.343C381.41 212.341 381.418 212.341 381.427 212.343C381.435 212.345 381.443 212.348 381.45 212.353C381.463 212.362 381.472 212.375 381.476 212.39C381.48 212.405 381.479 212.421 381.472 212.435Z" fill="#337B94"/>
<path d="M372.125 230.941C372.923 232.851 373.589 234.808 374.325 236.741C374.974 238.704 375.693 240.642 376.28 242.628C376.286 242.649 376.286 242.672 376.279 242.693C376.273 242.715 376.26 242.734 376.243 242.748C376.225 242.762 376.204 242.771 376.182 242.773C376.159 242.775 376.137 242.77 376.117 242.759L376.035 242.715C374.988 242.133 374.077 241.335 373.361 240.374C372.728 239.535 372.228 238.603 371.879 237.611C371.528 236.619 371.329 235.58 371.29 234.529C371.239 233.333 371.441 232.141 371.881 231.028L371.916 230.942C371.924 230.921 371.938 230.903 371.957 230.891C371.976 230.878 371.998 230.871 372.02 230.871C372.043 230.871 372.065 230.878 372.083 230.89C372.102 230.902 372.117 230.92 372.125 230.941L372.125 230.941Z" fill="#337B94"/>
<path d="M402.918 238.146C402.904 238.146 402.891 238.145 402.878 238.143C402.835 238.137 402.795 238.124 402.757 238.103C402.72 238.082 402.688 238.054 402.661 238.02C402.635 237.987 402.616 237.948 402.604 237.907C402.593 237.866 402.59 237.823 402.595 237.781C402.613 237.586 402.588 237.39 402.523 237.206C402.457 237.021 402.352 236.854 402.216 236.714C398.488 232.336 372.256 231.318 371.991 231.307C371.905 231.304 371.824 231.267 371.765 231.204C371.706 231.141 371.675 231.057 371.678 230.971C371.676 230.927 371.683 230.883 371.699 230.842C371.715 230.802 371.74 230.765 371.773 230.735C371.805 230.705 371.843 230.683 371.885 230.67C371.927 230.657 371.971 230.653 372.015 230.659C373.107 230.699 398.799 231.7 402.71 236.293C402.906 236.501 403.054 236.748 403.145 237.019C403.237 237.289 403.269 237.576 403.239 237.86C403.23 237.939 403.192 238.011 403.133 238.064C403.073 238.116 402.997 238.145 402.918 238.146Z" fill="#337B94"/>
<path d="M400.902 248.176C407.679 256.006 422.432 259.5 422.432 259.5C429.093 256.462 429.21 229.699 426.989 214.389C424.769 199.08 406.073 202.819 401.226 204.572C396.38 206.325 381.852 207.961 381.852 207.961C381.852 207.961 385.273 237.178 392.518 238.698C392.518 238.698 398.851 232.118 400.986 237.278C401.327 238.142 401.467 239.072 401.396 239.999L400.902 248.176Z" fill="#337B94"/>
<path d="M397.715 251.957C396.61 251.896 395.539 251.552 394.605 250.957C394.531 250.914 394.476 250.843 394.454 250.76C394.431 250.677 394.443 250.589 394.485 250.514C394.528 250.439 394.599 250.385 394.682 250.362C394.765 250.34 394.854 250.351 394.928 250.394C396.56 251.328 397.883 251.545 398.862 251.043C400.381 250.257 400.618 247.959 400.621 247.937C400.624 247.894 400.636 247.852 400.655 247.814C400.675 247.776 400.702 247.742 400.735 247.715C400.768 247.688 400.806 247.668 400.848 247.656C400.889 247.643 400.932 247.64 400.974 247.645C401.017 247.649 401.058 247.661 401.096 247.681C401.133 247.701 401.167 247.728 401.194 247.761C401.221 247.794 401.241 247.832 401.254 247.873C401.266 247.914 401.271 247.957 401.267 247.999C401.256 248.107 400.99 250.672 399.16 251.619C398.713 251.847 398.217 251.963 397.715 251.957Z" fill="#337B94"/>
<path d="M375.645 251.631C375.88 252.272 376.311 252.824 376.877 253.207C377.153 253.361 377.458 253.457 377.773 253.491C378.087 253.524 378.406 253.493 378.708 253.4C380.028 252.964 381.29 252.37 382.468 251.631C381.528 252.774 380.268 253.611 378.849 254.034C378.466 254.144 378.062 254.164 377.669 254.092C377.277 254.02 376.906 253.858 376.586 253.619C376.296 253.375 376.062 253.07 375.899 252.727C375.737 252.384 375.65 252.01 375.645 251.631Z" fill="#337B94"/>
<path d="M377.638 238.386C378.142 238.368 378.621 238.155 378.971 237.792C379.322 237.429 379.518 236.943 379.518 236.438C379.518 235.933 379.322 235.447 378.971 235.084C378.621 234.721 378.142 234.508 377.638 234.49C377.133 234.508 376.655 234.721 376.304 235.084C375.953 235.447 375.757 235.933 375.757 236.438C375.757 236.943 375.953 237.429 376.304 237.792C376.655 238.155 377.133 238.368 377.638 238.386Z" fill="#337B94"/>
<path d="M305.345 431.606C305.849 431.589 306.328 431.376 306.679 431.013C307.029 430.649 307.225 430.164 307.225 429.659C307.225 429.154 307.029 428.668 306.679 428.305C306.328 427.941 305.849 427.729 305.345 427.711C304.84 427.729 304.362 427.941 304.011 428.305C303.66 428.668 303.464 429.154 303.464 429.659C303.464 430.164 303.66 430.649 304.011 431.013C304.362 431.376 304.84 431.589 305.345 431.606Z" fill="#337B94"/>
<path d="M323.808 423.659C324.312 423.642 324.791 423.429 325.141 423.065C325.492 422.702 325.688 422.217 325.688 421.711C325.688 421.206 325.492 420.721 325.141 420.358C324.791 419.994 324.312 419.781 323.808 419.764C323.303 419.781 322.825 419.994 322.474 420.358C322.123 420.721 321.927 421.206 321.927 421.711C321.927 422.217 322.123 422.702 322.474 423.065C322.825 423.429 323.303 423.642 323.808 423.659Z" fill="#337B94"/>
<path d="M316.562 438.151C317.067 438.134 317.545 437.921 317.896 437.557C318.247 437.194 318.443 436.709 318.443 436.204C318.443 435.699 318.247 435.213 317.896 434.85C317.545 434.486 317.067 434.273 316.562 434.256C316.058 434.273 315.579 434.486 315.229 434.85C314.878 435.213 314.682 435.699 314.682 436.204C314.682 436.709 314.878 437.194 315.229 437.557C315.579 437.921 316.058 438.134 316.562 438.151Z" fill="#337B94"/>
<path d="M313.057 413.142C313.561 413.124 314.04 412.911 314.39 412.548C314.741 412.184 314.937 411.699 314.937 411.194C314.937 410.689 314.741 410.203 314.39 409.84C314.04 409.477 313.561 409.264 313.057 409.246C312.552 409.264 312.074 409.477 311.723 409.84C311.372 410.203 311.176 410.689 311.176 411.194C311.176 411.699 311.372 412.184 311.723 412.548C312.074 412.911 312.552 413.124 313.057 413.142Z" fill="#337B94"/>
<path d="M333.857 408.7C334.362 408.683 334.84 408.47 335.191 408.106C335.542 407.743 335.738 407.258 335.738 406.752C335.738 406.247 335.542 405.762 335.191 405.399C334.84 405.035 334.362 404.822 333.857 404.805C333.353 404.822 332.874 405.035 332.524 405.399C332.173 405.762 331.977 406.247 331.977 406.752C331.977 407.258 332.173 407.743 332.524 408.106C332.874 408.47 333.353 408.683 333.857 408.7Z" fill="#337B94"/>
<path d="M321.704 398.183C322.209 398.165 322.687 397.952 323.038 397.589C323.389 397.225 323.585 396.74 323.585 396.235C323.585 395.73 323.389 395.244 323.038 394.881C322.687 394.518 322.209 394.305 321.704 394.287C321.199 394.305 320.721 394.518 320.37 394.881C320.019 395.244 319.823 395.73 319.823 396.235C319.823 396.74 320.019 397.225 320.37 397.589C320.721 397.952 321.199 398.165 321.704 398.183Z" fill="#337B94"/>
<path d="M322.639 411.505C323.143 411.487 323.622 411.274 323.972 410.911C324.323 410.548 324.519 410.062 324.519 409.557C324.519 409.052 324.323 408.567 323.972 408.203C323.622 407.84 323.143 407.627 322.639 407.609C322.134 407.627 321.656 407.84 321.305 408.203C320.954 408.567 320.758 409.052 320.758 409.557C320.758 410.062 320.954 410.548 321.305 410.911C321.656 411.274 322.134 411.487 322.639 411.505Z" fill="#337B94"/>
<path d="M313.524 424.827C314.029 424.81 314.507 424.597 314.858 424.233C315.209 423.87 315.405 423.385 315.405 422.879C315.405 422.374 315.209 421.889 314.858 421.526C314.507 421.162 314.029 420.949 313.524 420.932C313.02 420.949 312.541 421.162 312.191 421.526C311.84 421.889 311.644 422.374 311.644 422.879C311.644 423.385 311.84 423.87 312.191 424.233C312.541 424.597 313.02 424.81 313.524 424.827Z" fill="#337B94"/>
<path d="M330.865 427.906L328.722 431.016C328.312 430.841 327.974 430.531 327.763 430.138C327.552 429.744 327.481 429.291 327.562 428.852C327.643 428.413 327.87 428.015 328.207 427.723C328.544 427.43 328.971 427.261 329.417 427.244C329.693 427.232 329.968 427.286 330.22 427.401C330.472 427.516 330.692 427.689 330.865 427.906Z" fill="#337B94"/>
<path d="M337.973 417.608L335.785 420.776C335.518 420.502 335.337 420.157 335.263 419.782C335.189 419.407 335.225 419.019 335.368 418.664C335.51 418.309 335.752 418.004 336.065 417.784C336.377 417.564 336.747 417.44 337.129 417.426C337.42 417.421 337.709 417.483 337.973 417.608Z" fill="#337B94"/>
<path d="M367.355 365.382C367.86 365.364 368.338 365.151 368.689 364.788C369.04 364.425 369.236 363.939 369.236 363.434C369.236 362.929 369.04 362.444 368.689 362.08C368.338 361.717 367.86 361.504 367.355 361.486C366.851 361.504 366.372 361.717 366.022 362.08C365.671 362.444 365.475 362.929 365.475 363.434C365.475 363.939 365.671 364.425 366.022 364.788C366.372 365.151 366.851 365.364 367.355 365.382Z" fill="#337B94"/>
<path d="M376.392 371.614C376.896 371.597 377.375 371.384 377.725 371.02C378.076 370.657 378.272 370.172 378.272 369.667C378.272 369.161 378.076 368.676 377.725 368.313C377.375 367.949 376.896 367.736 376.392 367.719C375.887 367.736 375.409 367.949 375.058 368.313C374.707 368.676 374.511 369.161 374.511 369.667C374.511 370.172 374.707 370.657 375.058 371.02C375.409 371.384 375.887 371.597 376.392 371.614Z" fill="#337B94"/>
<path d="M385.74 364.759C386.245 364.741 386.723 364.528 387.074 364.165C387.425 363.802 387.621 363.316 387.621 362.811C387.621 362.306 387.425 361.821 387.074 361.457C386.723 361.094 386.245 360.881 385.74 360.863C385.235 360.881 384.757 361.094 384.406 361.457C384.055 361.821 383.859 362.306 383.859 362.811C383.859 363.316 384.055 363.802 384.406 364.165C384.757 364.528 385.235 364.741 385.74 364.759Z" fill="#337B94"/>
<path d="M368.29 383.146C368.795 383.128 369.273 382.915 369.624 382.552C369.975 382.188 370.171 381.703 370.171 381.198C370.171 380.693 369.975 380.207 369.624 379.844C369.273 379.481 368.795 379.268 368.29 379.25C367.785 379.268 367.307 379.481 366.956 379.844C366.605 380.207 366.409 380.693 366.409 381.198C366.409 381.703 366.605 382.188 366.956 382.552C367.307 382.915 367.785 383.128 368.29 383.146Z" fill="#337B94"/>
<path d="M385.74 381.899C386.245 381.882 386.723 381.669 387.074 381.306C387.425 380.942 387.621 380.457 387.621 379.952C387.621 379.447 387.425 378.961 387.074 378.598C386.723 378.234 386.245 378.022 385.74 378.004C385.235 378.022 384.757 378.234 384.406 378.598C384.055 378.961 383.859 379.447 383.859 379.952C383.859 380.457 384.055 380.942 384.406 381.306C384.757 381.669 385.235 381.882 385.74 381.899Z" fill="#337B94"/>
<path d="M377.015 390.937C377.519 390.919 377.998 390.706 378.348 390.343C378.699 389.979 378.895 389.494 378.895 388.989C378.895 388.484 378.699 387.998 378.348 387.635C377.998 387.272 377.519 387.059 377.015 387.041C376.51 387.059 376.032 387.272 375.681 387.635C375.33 387.998 375.134 388.484 375.134 388.989C375.134 389.494 375.33 389.979 375.681 390.343C376.032 390.706 376.51 390.919 377.015 390.937Z" fill="#337B94"/>
<path d="M368.913 400.286C369.418 400.269 369.896 400.056 370.247 399.692C370.598 399.329 370.794 398.844 370.794 398.338C370.794 397.833 370.598 397.348 370.247 396.985C369.896 396.621 369.418 396.408 368.913 396.391C368.408 396.408 367.93 396.621 367.579 396.985C367.228 397.348 367.032 397.833 367.032 398.338C367.032 398.844 367.228 399.329 367.579 399.692C367.93 400.056 368.408 400.269 368.913 400.286Z" fill="#337B94"/>
<path d="M386.675 400.909C387.179 400.892 387.658 400.679 388.009 400.315C388.359 399.952 388.556 399.467 388.556 398.961C388.556 398.456 388.359 397.971 388.009 397.608C387.658 397.244 387.179 397.031 386.675 397.014C386.17 397.031 385.692 397.244 385.341 397.608C384.99 397.971 384.794 398.456 384.794 398.961C384.794 399.467 384.99 399.952 385.341 400.315C385.692 400.679 386.17 400.892 386.675 400.909Z" fill="#337B94"/>
<path d="M369.848 416.491C370.352 416.474 370.831 416.261 371.181 415.897C371.532 415.534 371.728 415.049 371.728 414.544C371.728 414.038 371.532 413.553 371.181 413.19C370.831 412.826 370.352 412.613 369.848 412.596C369.343 412.613 368.865 412.826 368.514 413.19C368.163 413.553 367.967 414.038 367.967 414.544C367.967 415.049 368.163 415.534 368.514 415.897C368.865 416.261 369.343 416.474 369.848 416.491Z" fill="#337B94"/>
<path d="M386.675 417.114C387.179 417.097 387.658 416.884 388.009 416.52C388.359 416.157 388.556 415.672 388.556 415.167C388.556 414.661 388.359 414.176 388.009 413.813C387.658 413.449 387.179 413.236 386.675 413.219C386.17 413.236 385.692 413.449 385.341 413.813C384.99 414.176 384.794 414.661 384.794 415.167C384.794 415.672 384.99 416.157 385.341 416.52C385.692 416.884 386.17 417.097 386.675 417.114Z" fill="#337B94"/>
<path d="M369.225 430.827C369.729 430.81 370.207 430.597 370.558 430.233C370.909 429.87 371.105 429.385 371.105 428.879C371.105 428.374 370.909 427.889 370.558 427.526C370.207 427.162 369.729 426.949 369.225 426.932C368.72 426.949 368.242 427.162 367.891 427.526C367.54 427.889 367.344 428.374 367.344 428.879C367.344 429.385 367.54 429.87 367.891 430.233C368.242 430.597 368.72 430.81 369.225 430.827Z" fill="#337B94"/>
<path d="M386.675 432.386C387.179 432.368 387.658 432.155 388.009 431.792C388.359 431.429 388.556 430.943 388.556 430.438C388.556 429.933 388.359 429.447 388.009 429.084C387.658 428.721 387.179 428.508 386.675 428.49C386.17 428.508 385.692 428.721 385.341 429.084C384.99 429.447 384.794 429.933 384.794 430.438C384.794 430.943 384.99 431.429 385.341 431.792C385.692 432.155 386.17 432.368 386.675 432.386Z" fill="#337B94"/>
<path d="M369.536 446.722C370.041 446.704 370.519 446.491 370.87 446.128C371.221 445.764 371.417 445.279 371.417 444.774C371.417 444.269 371.221 443.783 370.87 443.42C370.519 443.057 370.041 442.844 369.536 442.826C369.031 442.844 368.553 443.057 368.202 443.42C367.851 443.783 367.655 444.269 367.655 444.774C367.655 445.279 367.851 445.764 368.202 446.128C368.553 446.491 369.031 446.704 369.536 446.722Z" fill="#337B94"/>
<path d="M386.986 447.345C387.491 447.327 387.969 447.114 388.32 446.751C388.671 446.388 388.867 445.902 388.867 445.397C388.867 444.892 388.671 444.406 388.32 444.043C387.969 443.68 387.491 443.467 386.986 443.449C386.481 443.467 386.003 443.68 385.652 444.043C385.302 444.406 385.105 444.892 385.105 445.397C385.105 445.902 385.302 446.388 385.652 446.751C386.003 447.114 386.481 447.327 386.986 447.345Z" fill="#337B94"/>
<path d="M377.949 458.563C378.454 458.546 378.932 458.333 379.283 457.97C379.634 457.606 379.83 457.121 379.83 456.616C379.83 456.111 379.634 455.625 379.283 455.262C378.932 454.898 378.454 454.686 377.949 454.668C377.444 454.686 376.966 454.898 376.615 455.262C376.264 455.625 376.068 456.111 376.068 456.616C376.068 457.121 376.264 457.606 376.615 457.97C376.966 458.333 377.444 458.546 377.949 458.563Z" fill="#337B94"/>
<path d="M391.037 461.058C391.542 461.04 392.02 460.827 392.371 460.464C392.722 460.1 392.918 459.615 392.918 459.11C392.918 458.605 392.722 458.119 392.371 457.756C392.02 457.393 391.542 457.18 391.037 457.162C390.532 457.18 390.054 457.393 389.703 457.756C389.352 458.119 389.156 458.605 389.156 459.11C389.156 459.615 389.352 460.1 389.703 460.464C390.054 460.827 390.532 461.04 391.037 461.058Z" fill="#337B94"/>
<path d="M396.023 370.679C396.528 370.661 397.006 370.448 397.357 370.085C397.708 369.722 397.904 369.236 397.904 368.731C397.904 368.226 397.708 367.74 397.357 367.377C397.006 367.014 396.528 366.801 396.023 366.783C395.519 366.801 395.04 367.014 394.69 367.377C394.339 367.74 394.143 368.226 394.143 368.731C394.143 369.236 394.339 369.722 394.69 370.085C395.04 370.448 395.519 370.661 396.023 370.679Z" fill="#337B94"/>
<path d="M404.125 363.511C404.63 363.493 405.108 363.28 405.459 362.917C405.81 362.554 406.006 362.068 406.006 361.563C406.006 361.058 405.81 360.572 405.459 360.209C405.108 359.846 404.63 359.633 404.125 359.615C403.62 359.633 403.142 359.846 402.791 360.209C402.44 360.572 402.244 361.058 402.244 361.563C402.244 362.068 402.44 362.554 402.791 362.917C403.142 363.28 403.62 363.493 404.125 363.511Z" fill="#337B94"/>
<path d="M414.097 368.497C414.601 368.48 415.08 368.267 415.43 367.903C415.781 367.54 415.977 367.054 415.977 366.549C415.977 366.044 415.781 365.559 415.43 365.195C415.08 364.832 414.601 364.619 414.097 364.602C413.592 364.619 413.114 364.832 412.763 365.195C412.412 365.559 412.216 366.044 412.216 366.549C412.216 367.054 412.412 367.54 412.763 367.903C413.114 368.267 413.592 368.48 414.097 368.497Z" fill="#337B94"/>
<path d="M407.241 376.601C407.746 376.583 408.224 376.37 408.575 376.007C408.926 375.643 409.122 375.158 409.122 374.653C409.122 374.148 408.926 373.662 408.575 373.299C408.224 372.936 407.746 372.723 407.241 372.705C406.736 372.723 406.258 372.936 405.907 373.299C405.556 373.662 405.36 374.148 405.36 374.653C405.36 375.158 405.556 375.643 405.907 376.007C406.258 376.37 406.736 376.583 407.241 376.601Z" fill="#337B94"/>
<path d="M401.32 389.067C401.825 389.05 402.303 388.837 402.654 388.474C403.005 388.11 403.201 387.625 403.201 387.12C403.201 386.615 403.005 386.129 402.654 385.766C402.303 385.402 401.825 385.189 401.32 385.172C400.815 385.189 400.337 385.402 399.986 385.766C399.636 386.129 399.439 386.615 399.439 387.12C399.439 387.625 399.636 388.11 399.986 388.474C400.337 388.837 400.815 389.05 401.32 389.067Z" fill="#337B94"/>
<path d="M419.082 385.327C419.587 385.31 420.065 385.097 420.416 384.733C420.767 384.37 420.963 383.885 420.963 383.379C420.963 382.874 420.767 382.389 420.416 382.026C420.065 381.662 419.587 381.449 419.082 381.432C418.577 381.449 418.099 381.662 417.748 382.026C417.397 382.389 417.201 382.874 417.201 383.379C417.201 383.885 417.397 384.37 417.748 384.733C418.099 385.097 418.577 385.31 419.082 385.327Z" fill="#337B94"/>
<path d="M412.226 394.987C412.731 394.97 413.209 394.757 413.56 394.393C413.911 394.03 414.107 393.545 414.107 393.04C414.107 392.534 413.911 392.049 413.56 391.686C413.209 391.322 412.731 391.109 412.226 391.092C411.722 391.109 411.244 391.322 410.893 391.686C410.542 392.049 410.346 392.534 410.346 393.04C410.346 393.545 410.542 394.03 410.893 394.393C411.244 394.757 411.722 394.97 412.226 394.987Z" fill="#337B94"/>
<path d="M403.502 404.649C404.007 404.632 404.485 404.419 404.836 404.056C405.187 403.692 405.383 403.207 405.383 402.702C405.383 402.197 405.187 401.711 404.836 401.348C404.485 400.984 404.007 400.772 403.502 400.754C402.997 400.772 402.519 400.984 402.168 401.348C401.817 401.711 401.621 402.197 401.621 402.702C401.621 403.207 401.817 403.692 402.168 404.056C402.519 404.419 402.997 404.632 403.502 404.649Z" fill="#337B94"/>
<path d="M421.887 400.597C422.391 400.579 422.87 400.366 423.22 400.003C423.571 399.64 423.767 399.154 423.767 398.649C423.767 398.144 423.571 397.658 423.22 397.295C422.87 396.932 422.391 396.719 421.887 396.701C421.382 396.719 420.904 396.932 420.553 397.295C420.202 397.658 420.006 398.144 420.006 398.649C420.006 399.154 420.202 399.64 420.553 400.003C420.904 400.366 421.382 400.579 421.887 400.597Z" fill="#337B94"/>
<path d="M414.72 411.817C415.224 411.8 415.703 411.587 416.053 411.224C416.404 410.86 416.6 410.375 416.6 409.87C416.6 409.365 416.404 408.879 416.053 408.516C415.703 408.152 415.224 407.939 414.72 407.922C414.215 407.939 413.737 408.152 413.386 408.516C413.035 408.879 412.839 409.365 412.839 409.87C412.839 410.375 413.035 410.86 413.386 411.224C413.737 411.587 414.215 411.8 414.72 411.817Z" fill="#337B94"/>
<path d="M404.748 420.855C405.253 420.837 405.731 420.624 406.082 420.261C406.433 419.897 406.629 419.412 406.629 418.907C406.629 418.402 406.433 417.916 406.082 417.553C405.731 417.19 405.253 416.977 404.748 416.959C404.243 416.977 403.765 417.19 403.414 417.553C403.063 417.916 402.867 418.402 402.867 418.907C402.867 419.412 403.063 419.897 403.414 420.261C403.765 420.624 404.243 420.837 404.748 420.855Z" fill="#337B94"/>
<path d="M418.459 429.269C418.964 429.251 419.442 429.038 419.793 428.675C420.144 428.311 420.34 427.826 420.34 427.321C420.34 426.816 420.144 426.33 419.793 425.967C419.442 425.604 418.964 425.391 418.459 425.373C417.954 425.391 417.476 425.604 417.125 425.967C416.774 426.33 416.578 426.816 416.578 427.321C416.578 427.826 416.774 428.311 417.125 428.675C417.476 429.038 417.954 429.251 418.459 429.269Z" fill="#337B94"/>
<path d="M425.003 417.114C425.508 417.097 425.986 416.884 426.337 416.52C426.688 416.157 426.884 415.672 426.884 415.167C426.884 414.661 426.688 414.176 426.337 413.813C425.986 413.449 425.508 413.236 425.003 413.219C424.498 413.236 424.02 413.449 423.669 413.813C423.318 414.176 423.122 414.661 423.122 415.167C423.122 415.672 423.318 416.157 423.669 416.52C424.02 416.884 424.498 417.097 425.003 417.114Z" fill="#337B94"/>
<path d="M407.241 436.437C407.746 436.419 408.224 436.206 408.575 435.843C408.926 435.479 409.122 434.994 409.122 434.489C409.122 433.984 408.926 433.498 408.575 433.135C408.224 432.772 407.746 432.559 407.241 432.541C406.736 432.559 406.258 432.772 405.907 433.135C405.556 433.498 405.36 433.984 405.36 434.489C405.36 434.994 405.556 435.479 405.907 435.843C406.258 436.206 406.736 436.419 407.241 436.437Z" fill="#337B94"/>
<path d="M421.575 446.409C422.08 446.392 422.558 446.179 422.909 445.815C423.26 445.452 423.456 444.967 423.456 444.461C423.456 443.956 423.26 443.471 422.909 443.108C422.558 442.744 422.08 442.531 421.575 442.514C421.07 442.531 420.592 442.744 420.241 443.108C419.89 443.471 419.694 443.956 419.694 444.461C419.694 444.967 419.89 445.452 420.241 445.815C420.592 446.179 421.07 446.392 421.575 446.409Z" fill="#337B94"/>
<path d="M430.923 432.073C431.427 432.056 431.906 431.843 432.257 431.479C432.607 431.116 432.803 430.631 432.803 430.126C432.803 429.62 432.607 429.135 432.257 428.772C431.906 428.408 431.427 428.195 430.923 428.178C430.418 428.195 429.94 428.408 429.589 428.772C429.238 429.135 429.042 429.62 429.042 430.126C429.042 430.631 429.238 431.116 429.589 431.479C429.94 431.843 430.418 432.056 430.923 432.073Z" fill="#337B94"/>
<path d="M408.799 456.071C409.304 456.054 409.782 455.841 410.133 455.477C410.483 455.114 410.68 454.629 410.68 454.124C410.68 453.618 410.483 453.133 410.133 452.77C409.782 452.406 409.304 452.193 408.799 452.176C408.294 452.193 407.816 452.406 407.465 452.77C407.114 453.133 406.918 453.618 406.918 454.124C406.918 454.629 407.114 455.114 407.465 455.477C407.816 455.841 408.294 456.054 408.799 456.071Z" fill="#337B94"/>
<path d="M424.067 465.421C424.572 465.403 425.05 465.19 425.401 464.827C425.752 464.464 425.948 463.978 425.948 463.473C425.948 462.968 425.752 462.483 425.401 462.119C425.05 461.756 424.572 461.543 424.067 461.525C423.563 461.543 423.084 461.756 422.733 462.119C422.383 462.483 422.187 462.968 422.187 463.473C422.187 463.978 422.383 464.464 422.733 464.827C423.084 465.19 423.563 465.403 424.067 465.421Z" fill="#337B94"/>
<path d="M410.98 471.653C411.485 471.636 411.963 471.423 412.314 471.059C412.665 470.696 412.861 470.211 412.861 469.706C412.861 469.2 412.665 468.715 412.314 468.352C411.963 467.988 411.485 467.775 410.98 467.758C410.476 467.775 409.997 467.988 409.647 468.352C409.296 468.715 409.1 469.2 409.1 469.706C409.1 470.211 409.296 470.696 409.647 471.059C409.997 471.423 410.476 471.636 410.98 471.653Z" fill="#337B94"/>
<path d="M435.909 455.136C436.414 455.118 436.892 454.905 437.243 454.542C437.594 454.179 437.79 453.693 437.79 453.188C437.79 452.683 437.594 452.197 437.243 451.834C436.892 451.471 436.414 451.258 435.909 451.24C435.404 451.258 434.926 451.471 434.575 451.834C434.224 452.197 434.028 452.683 434.028 453.188C434.028 453.693 434.224 454.179 434.575 454.542C434.926 454.905 435.404 455.118 435.909 455.136Z" fill="#337B94"/>
<path d="M445.569 445.786C446.074 445.769 446.552 445.556 446.903 445.192C447.254 444.829 447.45 444.344 447.45 443.838C447.45 443.333 447.254 442.848 446.903 442.485C446.552 442.121 446.074 441.908 445.569 441.891C445.064 441.908 444.586 442.121 444.235 442.485C443.885 442.848 443.688 443.333 443.688 443.838C443.688 444.344 443.885 444.829 444.235 445.192C444.586 445.556 445.064 445.769 445.569 445.786Z" fill="#337B94"/>
<path d="M450.866 461.991C451.371 461.974 451.849 461.761 452.2 461.397C452.551 461.034 452.747 460.549 452.747 460.043C452.747 459.538 452.551 459.053 452.2 458.69C451.849 458.326 451.371 458.113 450.866 458.096C450.361 458.113 449.883 458.326 449.532 458.69C449.181 459.053 448.985 459.538 448.985 460.043C448.985 460.549 449.181 461.034 449.532 461.397C449.883 461.761 450.361 461.974 450.866 461.991Z" fill="#337B94"/>
<path d="M458.968 450.772C459.472 450.755 459.951 450.542 460.302 450.179C460.652 449.815 460.849 449.33 460.849 448.825C460.849 448.32 460.652 447.834 460.302 447.471C459.951 447.107 459.472 446.895 458.968 446.877C458.463 446.895 457.985 447.107 457.634 447.471C457.283 447.834 457.087 448.32 457.087 448.825C457.087 449.33 457.283 449.815 457.634 450.179C457.985 450.542 458.463 450.755 458.968 450.772Z" fill="#337B94"/>
<path d="M469.563 439.241C470.068 439.224 470.546 439.011 470.897 438.647C471.248 438.284 471.444 437.799 471.444 437.293C471.444 436.788 471.248 436.303 470.897 435.94C470.546 435.576 470.068 435.363 469.563 435.346C469.058 435.363 468.58 435.576 468.229 435.94C467.878 436.303 467.682 436.788 467.682 437.293C467.682 437.799 467.878 438.284 468.229 438.647C468.58 439.011 469.058 439.224 469.563 439.241Z" fill="#337B94"/>
<path d="M473.925 455.448C474.43 455.431 474.908 455.218 475.259 454.854C475.61 454.491 475.806 454.006 475.806 453.501C475.806 452.995 475.61 452.51 475.259 452.147C474.908 451.783 474.43 451.57 473.925 451.553C473.42 451.57 472.942 451.783 472.591 452.147C472.241 452.51 472.044 452.995 472.044 453.501C472.044 454.006 472.241 454.491 472.591 454.854C472.942 455.218 473.42 455.431 473.925 455.448Z" fill="#337B94"/>
<path d="M482.027 443.917C482.532 443.899 483.01 443.686 483.361 443.323C483.712 442.96 483.908 442.474 483.908 441.969C483.908 441.464 483.712 440.979 483.361 440.615C483.01 440.252 482.532 440.039 482.027 440.021C481.523 440.039 481.044 440.252 480.693 440.615C480.343 440.979 480.146 441.464 480.146 441.969C480.146 442.474 480.343 442.96 480.693 443.323C481.044 443.686 481.523 443.899 482.027 443.917Z" fill="#337B94"/>
<path d="M490.44 432.696C490.945 432.679 491.423 432.466 491.774 432.102C492.125 431.739 492.321 431.254 492.321 430.749C492.321 430.243 492.125 429.758 491.774 429.395C491.423 429.031 490.945 428.818 490.44 428.801C489.936 428.818 489.457 429.031 489.107 429.395C488.756 429.758 488.56 430.243 488.56 430.749C488.56 431.254 488.756 431.739 489.107 432.102C489.457 432.466 489.936 432.679 490.44 432.696Z" fill="#337B94"/>
<path d="M495.738 448.903C496.242 448.886 496.721 448.673 497.072 448.309C497.422 447.946 497.618 447.461 497.618 446.956C497.618 446.45 497.422 445.965 497.072 445.602C496.721 445.238 496.242 445.025 495.738 445.008C495.233 445.025 494.755 445.238 494.404 445.602C494.053 445.965 493.857 446.45 493.857 446.956C493.857 447.461 494.053 447.946 494.404 448.309C494.755 448.673 495.233 448.886 495.738 448.903Z" fill="#337B94"/>
<path d="M501.035 438.308C501.54 438.29 502.018 438.077 502.369 437.714C502.72 437.35 502.916 436.865 502.916 436.36C502.916 435.855 502.72 435.369 502.369 435.006C502.018 434.643 501.54 434.43 501.035 434.412C500.53 434.43 500.052 434.643 499.701 435.006C499.35 435.369 499.154 435.855 499.154 436.36C499.154 436.865 499.35 437.35 499.701 437.714C500.052 438.077 500.53 438.29 501.035 438.308Z" fill="#337B94"/>
<path d="M511.007 428.335C511.512 428.317 511.99 428.104 512.341 427.741C512.691 427.378 512.888 426.892 512.888 426.387C512.888 425.882 512.691 425.397 512.341 425.033C511.99 424.67 511.512 424.457 511.007 424.439C510.502 424.457 510.024 424.67 509.673 425.033C509.322 425.397 509.126 425.882 509.126 426.387C509.126 426.892 509.322 427.378 509.673 427.741C510.024 428.104 510.502 428.317 511.007 428.335Z" fill="#337B94"/>
<path d="M516.616 446.409C517.12 446.392 517.599 446.179 517.949 445.815C518.3 445.452 518.496 444.967 518.496 444.461C518.496 443.956 518.3 443.471 517.949 443.108C517.599 442.744 517.12 442.531 516.616 442.514C516.111 442.531 515.633 442.744 515.282 443.108C514.931 443.471 514.735 443.956 514.735 444.461C514.735 444.967 514.931 445.452 515.282 445.815C515.633 446.179 516.111 446.392 516.616 446.409Z" fill="#337B94"/>
<path d="M521.913 434.878C522.418 434.86 522.896 434.647 523.247 434.284C523.598 433.921 523.794 433.435 523.794 432.93C523.794 432.425 523.598 431.94 523.247 431.576C522.896 431.213 522.418 431 521.913 430.982C521.408 431 520.93 431.213 520.579 431.576C520.228 431.94 520.032 432.425 520.032 432.93C520.032 433.435 520.228 433.921 520.579 434.284C520.93 434.647 521.408 434.86 521.913 434.878Z" fill="#337B94"/>
<path d="M496.984 422.413C497.489 422.396 497.967 422.183 498.318 421.819C498.669 421.456 498.865 420.97 498.865 420.465C498.865 419.96 498.669 419.475 498.318 419.111C497.967 418.748 497.489 418.535 496.984 418.518C496.48 418.535 496.001 418.748 495.65 419.111C495.3 419.475 495.104 419.96 495.104 420.465C495.104 420.97 495.3 421.456 495.65 421.819C496.001 422.183 496.48 422.396 496.984 422.413Z" fill="#337B94"/>
<path d="M477.041 424.595C477.546 424.577 478.024 424.364 478.375 424.001C478.726 423.638 478.922 423.152 478.922 422.647C478.922 422.142 478.726 421.656 478.375 421.293C478.024 420.93 477.546 420.717 477.041 420.699C476.537 420.717 476.058 420.93 475.708 421.293C475.357 421.656 475.161 422.142 475.161 422.647C475.161 423.152 475.357 423.638 475.708 424.001C476.058 424.364 476.537 424.577 477.041 424.595Z" fill="#337B94"/>
<path d="M484.831 412.751C485.336 412.733 485.814 412.52 486.165 412.157C486.516 411.794 486.712 411.308 486.712 410.803C486.712 410.298 486.516 409.813 486.165 409.449C485.814 409.086 485.336 408.873 484.831 408.855C484.327 408.873 483.848 409.086 483.498 409.449C483.147 409.813 482.951 410.298 482.951 410.803C482.951 411.308 483.147 411.794 483.498 412.157C483.848 412.52 484.327 412.733 484.831 412.751Z" fill="#337B94"/>
<path d="M506.332 410.569C506.837 410.552 507.315 410.339 507.666 409.976C508.017 409.612 508.213 409.127 508.213 408.622C508.213 408.116 508.017 407.631 507.666 407.268C507.315 406.904 506.837 406.691 506.332 406.674C505.828 406.691 505.349 406.904 504.999 407.268C504.648 407.631 504.452 408.116 504.452 408.622C504.452 409.127 504.648 409.612 504.999 409.976C505.349 410.339 505.828 410.552 506.332 410.569Z" fill="#337B94"/>
<path d="M519.108 416.491C519.613 416.474 520.091 416.261 520.442 415.897C520.793 415.534 520.989 415.049 520.989 414.544C520.989 414.038 520.793 413.553 520.442 413.19C520.091 412.826 519.613 412.613 519.108 412.596C518.604 412.613 518.125 412.826 517.774 413.19C517.424 413.553 517.228 414.038 517.228 414.544C517.228 415.049 517.424 415.534 517.774 415.897C518.125 416.261 518.604 416.474 519.108 416.491Z" fill="#337B94"/>
<path d="M512.253 396.858C512.758 396.841 513.236 396.628 513.587 396.265C513.938 395.901 514.134 395.416 514.134 394.911C514.134 394.406 513.938 393.92 513.587 393.557C513.236 393.193 512.758 392.981 512.253 392.963C511.748 392.981 511.27 393.193 510.919 393.557C510.568 393.92 510.372 394.406 510.372 394.911C510.372 395.416 510.568 395.901 510.919 396.265C511.27 396.628 511.748 396.841 512.253 396.858Z" fill="#337B94"/>
<path d="M493.557 399.04C494.061 399.022 494.54 398.81 494.89 398.446C495.241 398.083 495.437 397.597 495.437 397.092C495.437 396.587 495.241 396.102 494.89 395.738C494.54 395.375 494.061 395.162 493.557 395.145C493.052 395.162 492.574 395.375 492.223 395.738C491.872 396.102 491.676 396.587 491.676 397.092C491.676 397.597 491.872 398.083 492.223 398.446C492.574 398.81 493.052 399.022 493.557 399.04Z" fill="#337B94"/>
<path d="M477.664 399.351C478.169 399.333 478.647 399.12 478.998 398.757C479.349 398.393 479.545 397.908 479.545 397.403C479.545 396.898 479.349 396.412 478.998 396.049C478.647 395.686 478.169 395.473 477.664 395.455C477.16 395.473 476.681 395.686 476.331 396.049C475.98 396.412 475.784 396.898 475.784 397.403C475.784 397.908 475.98 398.393 476.331 398.757C476.681 399.12 477.16 399.333 477.664 399.351Z" fill="#337B94"/>
<path d="M482.339 386.886C482.844 386.868 483.322 386.655 483.673 386.292C484.023 385.929 484.22 385.443 484.22 384.938C484.22 384.433 484.023 383.947 483.673 383.584C483.322 383.221 482.844 383.008 482.339 382.99C481.834 383.008 481.356 383.221 481.005 383.584C480.654 383.947 480.458 384.433 480.458 384.938C480.458 385.443 480.654 385.929 481.005 386.292C481.356 386.655 481.834 386.868 482.339 386.886Z" fill="#337B94"/>
<path d="M500.101 384.704C500.605 384.687 501.084 384.474 501.434 384.11C501.785 383.747 501.981 383.262 501.981 382.756C501.981 382.251 501.785 381.766 501.434 381.402C501.084 381.039 500.605 380.826 500.101 380.809C499.596 380.826 499.118 381.039 498.767 381.402C498.416 381.766 498.22 382.251 498.22 382.756C498.22 383.262 498.416 383.747 498.767 384.11C499.118 384.474 499.596 384.687 500.101 384.704Z" fill="#337B94"/>
<path d="M465.2 387.196C465.705 387.179 466.183 386.966 466.534 386.602C466.885 386.239 467.081 385.754 467.081 385.249C467.081 384.743 466.885 384.258 466.534 383.895C466.183 383.531 465.705 383.318 465.2 383.301C464.695 383.318 464.217 383.531 463.866 383.895C463.515 384.258 463.319 384.743 463.319 385.249C463.319 385.754 463.515 386.239 463.866 386.602C464.217 386.966 464.695 387.179 465.2 387.196Z" fill="#337B94"/>
<path d="M473.925 375.978C474.43 375.96 474.908 375.747 475.259 375.384C475.61 375.02 475.806 374.535 475.806 374.03C475.806 373.525 475.61 373.039 475.259 372.676C474.908 372.313 474.43 372.1 473.925 372.082C473.42 372.1 472.942 372.313 472.591 372.676C472.241 373.039 472.044 373.525 472.044 374.03C472.044 374.535 472.241 375.02 472.591 375.384C472.942 375.747 473.42 375.96 473.925 375.978Z" fill="#337B94"/>
<path d="M490.129 376.29C490.634 376.272 491.112 376.06 491.463 375.696C491.814 375.333 492.01 374.847 492.01 374.342C492.01 373.837 491.814 373.352 491.463 372.988C491.112 372.625 490.634 372.412 490.129 372.395C489.624 372.412 489.146 372.625 488.795 372.988C488.444 373.352 488.248 373.837 488.248 374.342C488.248 374.847 488.444 375.333 488.795 375.696C489.146 376.06 489.624 376.272 490.129 376.29Z" fill="#337B94"/>
<path d="M506.956 373.173C507.461 373.155 507.939 372.942 508.29 372.579C508.641 372.216 508.837 371.73 508.837 371.225C508.837 370.72 508.641 370.235 508.29 369.871C507.939 369.508 507.461 369.295 506.956 369.277C506.451 369.295 505.973 369.508 505.622 369.871C505.271 370.235 505.075 370.72 505.075 371.225C505.075 371.73 505.271 372.216 505.622 372.579C505.973 372.942 506.451 373.155 506.956 373.173Z" fill="#337B94"/>
<path d="M517.551 381.587C518.055 381.569 518.534 381.356 518.885 380.993C519.235 380.63 519.432 380.144 519.432 379.639C519.432 379.134 519.235 378.649 518.885 378.285C518.534 377.922 518.055 377.709 517.551 377.691C517.046 377.709 516.568 377.922 516.217 378.285C515.866 378.649 515.67 379.134 515.67 379.639C515.67 380.144 515.866 380.63 516.217 380.993C516.568 381.356 517.046 381.569 517.551 381.587Z" fill="#337B94"/>
<path d="M521.602 404.337C522.106 404.319 522.584 404.106 522.935 403.743C523.286 403.38 523.482 402.894 523.482 402.389C523.482 401.884 523.286 401.399 522.935 401.035C522.584 400.672 522.106 400.459 521.602 400.441C521.097 400.459 520.619 400.672 520.268 401.035C519.917 401.399 519.721 401.884 519.721 402.389C519.721 402.894 519.917 403.38 520.268 403.743C520.619 404.106 521.097 404.319 521.602 404.337Z" fill="#337B94"/>
<path d="M496.673 364.136C497.178 364.118 497.656 363.905 498.007 363.542C498.357 363.179 498.554 362.693 498.554 362.188C498.554 361.683 498.357 361.197 498.007 360.834C497.656 360.471 497.178 360.258 496.673 360.24C496.168 360.258 495.69 360.471 495.339 360.834C494.988 361.197 494.792 361.683 494.792 362.188C494.792 362.693 494.988 363.179 495.339 363.542C495.69 363.905 496.168 364.118 496.673 364.136Z" fill="#337B94"/>
<path d="M480.469 363.823C480.974 363.806 481.452 363.593 481.803 363.229C482.154 362.866 482.35 362.381 482.35 361.876C482.35 361.37 482.154 360.885 481.803 360.522C481.452 360.158 480.974 359.945 480.469 359.928C479.964 359.945 479.486 360.158 479.135 360.522C478.784 360.885 478.588 361.37 478.588 361.876C478.588 362.381 478.784 362.866 479.135 363.229C479.486 363.593 479.964 363.806 480.469 363.823Z" fill="#337B94"/>
<path d="M462.084 367.251C462.589 367.233 463.067 367.02 463.418 366.657C463.769 366.294 463.965 365.808 463.965 365.303C463.965 364.798 463.769 364.313 463.418 363.949C463.067 363.586 462.589 363.373 462.084 363.355C461.579 363.373 461.101 363.586 460.75 363.949C460.399 364.313 460.203 364.798 460.203 365.303C460.203 365.808 460.399 366.294 460.75 366.657C461.101 367.02 461.579 367.233 462.084 367.251Z" fill="#337B94"/>
<path d="M469.563 357.591C470.068 357.573 470.546 357.36 470.897 356.997C471.248 356.634 471.444 356.148 471.444 355.643C471.444 355.138 471.248 354.653 470.897 354.289C470.546 353.926 470.068 353.713 469.563 353.695C469.058 353.713 468.58 353.926 468.229 354.289C467.878 354.653 467.682 355.138 467.682 355.643C467.682 356.148 467.878 356.634 468.229 356.997C468.58 357.36 469.058 357.573 469.563 357.591Z" fill="#337B94"/>
<path d="M487.013 353.538C487.517 353.521 487.996 353.308 488.346 352.944C488.697 352.581 488.893 352.096 488.893 351.59C488.893 351.085 488.697 350.6 488.346 350.236C487.996 349.873 487.517 349.66 487.013 349.643C486.508 349.66 486.03 349.873 485.679 350.236C485.328 350.6 485.132 351.085 485.132 351.59C485.132 352.096 485.328 352.581 485.679 352.944C486.03 353.308 486.508 353.521 487.013 353.538Z" fill="#337B94"/>
<path d="M504.151 350.423C504.656 350.405 505.134 350.192 505.485 349.829C505.836 349.466 506.032 348.98 506.032 348.475C506.032 347.97 505.836 347.485 505.485 347.121C505.134 346.758 504.656 346.545 504.151 346.527C503.647 346.545 503.168 346.758 502.817 347.121C502.467 347.485 502.271 347.97 502.271 348.475C502.271 348.98 502.467 349.466 502.817 349.829C503.168 350.192 503.647 350.405 504.151 350.423Z" fill="#337B94"/>
<path d="M509.137 357.278C509.642 357.261 510.12 357.048 510.471 356.684C510.822 356.321 511.018 355.836 511.018 355.331C511.018 354.825 510.822 354.34 510.471 353.977C510.12 353.613 509.642 353.4 509.137 353.383C508.632 353.4 508.154 353.613 507.803 353.977C507.452 354.34 507.256 354.825 507.256 355.331C507.256 355.836 507.452 356.321 507.803 356.684C508.154 357.048 508.632 357.261 509.137 357.278Z" fill="#337B94"/>
<path d="M514.434 363.823C514.939 363.806 515.417 363.593 515.768 363.229C516.119 362.866 516.315 362.381 516.315 361.876C516.315 361.37 516.119 360.885 515.768 360.522C515.417 360.158 514.939 359.945 514.434 359.928C513.93 359.945 513.452 360.158 513.101 360.522C512.75 360.885 512.554 361.37 512.554 361.876C512.554 362.381 512.75 362.866 513.101 363.229C513.452 363.593 513.93 363.806 514.434 363.823Z" fill="#337B94"/>
<path d="M476.106 347.306C476.611 347.288 477.089 347.075 477.44 346.712C477.791 346.348 477.987 345.863 477.987 345.358C477.987 344.853 477.791 344.367 477.44 344.004C477.089 343.641 476.611 343.428 476.106 343.41C475.602 343.428 475.123 343.641 474.773 344.004C474.422 344.367 474.226 344.853 474.226 345.358C474.226 345.863 474.422 346.348 474.773 346.712C475.123 347.075 475.602 347.288 476.106 347.306Z" fill="#337B94"/>
<path d="M456.787 349.8C457.291 349.782 457.77 349.569 458.12 349.206C458.471 348.843 458.667 348.357 458.667 347.852C458.667 347.347 458.471 346.862 458.12 346.498C457.77 346.135 457.291 345.922 456.787 345.904C456.282 345.922 455.804 346.135 455.453 346.498C455.102 346.862 454.906 347.347 454.906 347.852C454.906 348.357 455.102 348.843 455.453 349.206C455.804 349.569 456.282 349.782 456.787 349.8Z" fill="#337B94"/>
<path d="M493.868 343.565C494.373 343.548 494.851 343.335 495.202 342.972C495.553 342.608 495.749 342.123 495.749 341.618C495.749 341.113 495.553 340.627 495.202 340.264C494.851 339.9 494.373 339.688 493.868 339.67C493.363 339.688 492.885 339.9 492.534 340.264C492.183 340.627 491.987 341.113 491.987 341.618C491.987 342.123 492.183 342.608 492.534 342.972C492.885 343.335 493.363 343.548 493.868 343.565Z" fill="#337B94"/>
<path d="M507.579 341.384C508.084 341.366 508.562 341.153 508.913 340.79C509.264 340.427 509.46 339.941 509.46 339.436C509.46 338.931 509.264 338.446 508.913 338.082C508.562 337.719 508.084 337.506 507.579 337.488C507.074 337.506 506.596 337.719 506.245 338.082C505.894 338.446 505.698 338.931 505.698 339.436C505.698 339.941 505.894 340.427 506.245 340.79C506.596 341.153 507.074 341.366 507.579 341.384Z" fill="#337B94"/>
<path d="M437.778 356.968C438.283 356.95 438.761 356.737 439.112 356.374C439.463 356.011 439.659 355.525 439.659 355.02C439.659 354.515 439.463 354.03 439.112 353.666C438.761 353.303 438.283 353.09 437.778 353.072C437.273 353.09 436.795 353.303 436.444 353.666C436.094 354.03 435.897 354.515 435.897 355.02C435.897 355.525 436.094 356.011 436.444 356.374C436.795 356.737 437.273 356.95 437.778 356.968Z" fill="#337B94"/>
<path d="M447.438 363.823C447.943 363.806 448.421 363.593 448.772 363.229C449.123 362.866 449.319 362.381 449.319 361.876C449.319 361.37 449.123 360.885 448.772 360.522C448.421 360.158 447.943 359.945 447.438 359.928C446.934 359.945 446.455 360.158 446.105 360.522C445.754 360.885 445.558 361.37 445.558 361.876C445.558 362.381 445.754 362.866 446.105 363.229C446.455 363.593 446.934 363.806 447.438 363.823Z" fill="#337B94"/>
<path d="M442.765 374.108C443.269 374.091 443.748 373.878 444.098 373.515C444.449 373.151 444.645 372.666 444.645 372.161C444.645 371.656 444.449 371.17 444.098 370.807C443.748 370.443 443.269 370.231 442.765 370.213C442.26 370.231 441.782 370.443 441.431 370.807C441.08 371.17 440.884 371.656 440.884 372.161C440.884 372.666 441.08 373.151 441.431 373.515C441.782 373.878 442.26 374.091 442.765 374.108Z" fill="#337B94"/>
<path d="M448.684 385.327C449.189 385.31 449.667 385.097 450.018 384.733C450.369 384.37 450.565 383.885 450.565 383.379C450.565 382.874 450.369 382.389 450.018 382.026C449.667 381.662 449.189 381.449 448.684 381.432C448.18 381.449 447.702 381.662 447.351 382.026C447 382.389 446.804 382.874 446.804 383.379C446.804 383.885 447 384.37 447.351 384.733C447.702 385.097 448.18 385.31 448.684 385.327Z" fill="#337B94"/>
<path d="M444.634 394.364C445.138 394.347 445.617 394.134 445.968 393.77C446.318 393.407 446.514 392.922 446.514 392.417C446.514 391.911 446.318 391.426 445.968 391.063C445.617 390.699 445.138 390.486 444.634 390.469C444.129 390.486 443.651 390.699 443.3 391.063C442.949 391.426 442.753 391.911 442.753 392.417C442.753 392.922 442.949 393.407 443.3 393.77C443.651 394.134 444.129 394.347 444.634 394.364Z" fill="#337B94"/>
<path d="M427.495 374.419C428 374.401 428.478 374.188 428.829 373.825C429.18 373.462 429.376 372.976 429.376 372.471C429.376 371.966 429.18 371.481 428.829 371.117C428.478 370.754 428 370.541 427.495 370.523C426.99 370.541 426.512 370.754 426.161 371.117C425.81 371.481 425.614 371.966 425.614 372.471C425.614 372.976 425.81 373.462 426.161 373.825C426.512 374.188 426.99 374.401 427.495 374.419Z" fill="#337B94"/>
<path d="M430.611 390.001C431.116 389.983 431.594 389.771 431.945 389.407C432.296 389.044 432.492 388.558 432.492 388.053C432.492 387.548 432.296 387.063 431.945 386.699C431.594 386.336 431.116 386.123 430.611 386.105C430.106 386.123 429.628 386.336 429.277 386.699C428.927 387.063 428.73 387.548 428.73 388.053C428.73 388.558 428.927 389.044 429.277 389.407C429.628 389.771 430.106 389.983 430.611 390.001Z" fill="#337B94"/>
<path d="M456.475 397.792C456.98 397.774 457.458 397.561 457.809 397.198C458.16 396.835 458.356 396.349 458.356 395.844C458.356 395.339 458.16 394.854 457.809 394.49C457.458 394.127 456.98 393.914 456.475 393.896C455.97 393.914 455.492 394.127 455.141 394.49C454.79 394.854 454.594 395.339 454.594 395.844C454.594 396.349 454.79 396.835 455.141 397.198C455.492 397.561 455.97 397.774 456.475 397.792Z" fill="#337B94"/>
<path d="M447.127 406.519C447.632 406.501 448.11 406.288 448.461 405.925C448.812 405.561 449.008 405.076 449.008 404.571C449.008 404.066 448.812 403.58 448.461 403.217C448.11 402.854 447.632 402.641 447.127 402.623C446.622 402.641 446.144 402.854 445.793 403.217C445.442 403.58 445.246 404.066 445.246 404.571C445.246 405.076 445.442 405.561 445.793 405.925C446.144 406.288 446.622 406.501 447.127 406.519Z" fill="#337B94"/>
<path d="M460.214 409.636C460.719 409.618 461.197 409.405 461.548 409.042C461.899 408.679 462.095 408.193 462.095 407.688C462.095 407.183 461.899 406.697 461.548 406.334C461.197 405.971 460.719 405.758 460.214 405.74C459.71 405.758 459.231 405.971 458.88 406.334C458.53 406.697 458.333 407.183 458.333 407.688C458.333 408.193 458.53 408.679 458.88 409.042C459.231 409.405 459.71 409.618 460.214 409.636Z" fill="#337B94"/>
<path d="M452.424 415.558C452.929 415.54 453.407 415.327 453.758 414.964C454.108 414.6 454.305 414.115 454.305 413.61C454.305 413.105 454.108 412.619 453.758 412.256C453.407 411.893 452.929 411.68 452.424 411.662C451.919 411.68 451.441 411.893 451.09 412.256C450.739 412.619 450.543 413.105 450.543 413.61C450.543 414.115 450.739 414.6 451.09 414.964C451.441 415.327 451.919 415.54 452.424 415.558Z" fill="#337B94"/>
<path d="M383.837 191.76C383.82 192.482 383.519 193.169 383.001 193.671C382.492 194.18 381.904 194.604 381.26 194.926C379.997 195.573 378.635 196.004 377.23 196.203C376.505 196.309 375.767 196.271 375.057 196.092C374.347 195.912 373.68 195.594 373.093 195.155C372.503 194.719 372.026 194.148 371.704 193.489C371.381 192.83 371.222 192.103 371.24 191.369C371.305 190.954 371.503 190.571 371.804 190.278C372.084 190.014 372.404 189.796 372.752 189.632C373.408 189.302 374.059 189.063 374.689 188.809C375.306 188.567 375.903 188.276 376.475 187.939C376.754 187.772 377.016 187.589 377.279 187.404C377.587 187.183 377.91 186.983 378.246 186.806C378.966 186.427 379.794 186.305 380.593 186.46C381.368 186.645 382.05 187.105 382.513 187.754C383.337 188.931 383.797 190.324 383.837 191.76ZM383.73 191.76C383.64 190.401 383.017 189.133 381.997 188.23C381.576 187.816 381.031 187.552 380.444 187.479C379.858 187.405 379.264 187.527 378.754 187.825C378.481 187.952 378.232 188.152 377.961 188.315C377.664 188.534 377.351 188.732 377.025 188.906C376.388 189.239 375.724 189.521 375.042 189.749C374.38 189.987 373.71 190.164 373.105 190.402C372.5 190.645 371.963 190.931 371.813 191.481C371.716 192.129 371.804 192.792 372.066 193.392C372.329 193.993 372.756 194.507 373.298 194.876C373.86 195.214 374.488 195.43 375.139 195.507C375.791 195.585 376.452 195.524 377.078 195.327C378.363 195.001 379.716 194.666 381.002 194.307C381.649 194.129 382.261 193.844 382.814 193.464C383.091 193.273 383.319 193.019 383.478 192.723C383.637 192.427 383.724 192.097 383.73 191.76Z" fill="#337B94"/>
<path d="M374.134 169.941C374.12 170.54 373.985 171.129 373.737 171.674C373.488 172.219 373.132 172.707 372.689 173.11C371.811 173.928 370.805 174.598 369.712 175.094C367.551 176.091 365.263 176.79 362.913 177.17C361.718 177.382 360.493 177.352 359.31 177.083C358.126 176.813 357.009 176.309 356.023 175.601C355.037 174.887 354.246 173.938 353.719 172.841C353.193 171.744 352.948 170.533 353.008 169.317C353.124 168.665 353.449 168.069 353.933 167.617C354.399 167.201 354.926 166.858 355.496 166.6C356.59 166.072 357.701 165.689 358.78 165.264C359.85 164.858 360.886 164.367 361.878 163.798C362.369 163.515 362.828 163.194 363.287 162.871C363.791 162.511 364.319 162.185 364.867 161.895C366.011 161.282 367.329 161.074 368.607 161.305C369.855 161.589 370.965 162.299 371.747 163.313C372.504 164.254 373.084 165.325 373.46 166.472C373.863 167.587 374.09 168.757 374.134 169.941ZM374.028 169.941C373.975 168.777 373.689 167.635 373.186 166.584C372.715 165.538 372.052 164.59 371.231 163.789C370.467 163.023 369.487 162.509 368.423 162.316C367.369 162.179 366.299 162.389 365.375 162.913C364.891 163.177 364.422 163.467 363.969 163.782C363.478 164.143 362.963 164.471 362.428 164.764C361.37 165.331 360.268 165.812 359.133 166.204C358.022 166.612 356.892 166.935 355.848 167.37C355.339 167.573 354.857 167.839 354.414 168.164C354.007 168.484 353.715 168.928 353.581 169.429C353.447 170.559 353.623 171.704 354.089 172.741C354.555 173.779 355.294 174.671 356.227 175.322C357.189 175.93 358.266 176.331 359.392 176.498C360.517 176.666 361.665 176.597 362.762 176.295C364.988 175.778 367.275 175.193 369.454 174.476C370.55 174.124 371.58 173.592 372.502 172.903C372.965 172.558 373.343 172.112 373.608 171.599C373.872 171.085 374.016 170.519 374.028 169.941Z" fill="#337B94"/>
<path d="M369.377 140.521C369.72 141.354 369.891 142.247 369.88 143.148C369.846 144.056 369.564 144.938 369.065 145.697C368.018 147.164 366.652 148.375 365.07 149.237C361.946 150.973 358.673 152.425 355.29 153.576C351.949 154.821 348.565 155.92 345.232 157.141C343.568 157.757 341.902 158.364 340.258 159.02C338.599 159.671 336.92 160.32 335.2 160.83C331.768 161.929 328.183 162.475 324.58 162.448C320.931 162.49 317.391 161.206 314.618 158.834C312.058 156.26 310.445 152.896 310.041 149.288C309.535 145.731 309.58 142.116 310.173 138.572C311.006 135.065 312.403 131.717 314.311 128.659C316.17 125.572 318.435 122.747 321.044 120.261C323.659 117.748 326.684 115.702 329.989 114.21C333.325 112.723 336.952 112.008 340.602 112.116C344.254 112.176 347.842 113.084 351.083 114.768C354.271 116.499 357.075 118.857 359.328 121.7C361.555 124.504 363.473 127.54 365.048 130.756C366.656 133.939 368.078 137.207 369.377 140.521ZM369.278 140.561C366.59 134.004 363.472 127.469 358.793 122.156C356.507 119.493 353.732 117.292 350.619 115.672C347.493 114.115 344.059 113.276 340.568 113.216C333.574 112.987 326.835 116.22 321.729 120.995C319.16 123.403 316.901 126.122 315.007 129.091C313.076 132.041 311.636 135.285 310.744 138.696C310.066 142.167 309.953 145.725 310.412 149.233C310.643 150.983 311.117 152.693 311.821 154.313C312.531 155.924 313.569 157.371 314.867 158.562C317.577 160.845 321.049 162.021 324.589 161.854C328.115 161.772 331.606 161.142 334.937 159.986C338.298 158.956 341.518 157.374 344.923 156.27C348.294 155.105 351.687 154.028 355.07 152.944C358.469 151.929 361.769 150.607 364.929 148.996C366.511 148.202 367.879 147.038 368.916 145.604C369.41 144.873 369.695 144.022 369.739 143.141C369.76 142.259 369.604 141.381 369.278 140.561V140.561Z" fill="#337B94"/>
</svg>
