<svg width="50" height="50" viewBox="0 0 50 50" fill="none" xmlns="http://www.w3.org/2000/svg">
<circle cx="24.56" cy="24.56" r="24.56" fill="#347C94"/>
<g clip-path="url(#clip0)">
<path d="M25 13C21.7691 13 19.1406 15.6285 19.1406 18.8594C19.1406 22.0902 21.7691 24.7187 25 24.7187C28.2309 24.7187 30.8594 22.0902 30.8594 18.8594C30.8594 15.6285 28.2309 13 25 13ZM25 23.3125C22.5445 23.3125 20.5469 21.3148 20.5469 18.8594C20.5469 16.4039 22.5445 14.4062 25 14.4062C27.4555 14.4062 29.4531 16.4039 29.4531 18.8594C29.4531 21.3148 27.4555 23.3125 25 23.3125Z" fill="white"/>
<path d="M34.2677 33.9982C33.5768 29.454 29.6677 26.125 25.0748 26.125H24.8925C20.3102 26.125 16.4193 29.4761 15.7318 33.9982L15.2754 37H34.7241L34.2677 33.9982ZM24.2966 35.5938H16.9116L17.1221 34.2096C17.5224 31.5765 19.2423 29.2806 21.752 28.1868L24.2966 32.1216V35.5938ZM23.1322 27.7314C23.7059 27.5995 24.2962 27.5313 24.8925 27.5313H25.0748C25.6816 27.5313 26.2819 27.601 26.8647 27.7355L24.9998 30.6192L23.1322 27.7314ZM25.7029 35.5938V32.1216L28.2449 28.1909C30.7672 29.2886 32.4786 31.5859 32.8774 34.2096L33.0879 35.5938H25.7029Z" fill="white"/>
</g>
<defs>
<clipPath id="clip0">
<rect width="24" height="24" fill="white" transform="translate(13 13)"/>
</clipPath>
</defs>
</svg>
