<svg width="25" height="25" viewBox="0 0 25 25" fill="none" xmlns="http://www.w3.org/2000/svg">
<path d="M24.6094 11.7203H23.4375C23.2215 11.7203 23.0469 11.8949 23.0469 12.1109V13.6719H22.2625C22.2625 13.4559 22.0879 13.2812 21.8719 13.2812H7.02656C6.81055 13.2812 6.63594 13.4559 6.63594 13.6719H6.24766V13.2828C6.24766 12.2047 5.37031 11.3273 4.29219 11.3273C4.28945 11.3273 4.28711 11.3289 4.28438 11.3289H1.95312V6.63672C1.95312 6.4207 1.77852 6.24609 1.5625 6.24609H0.390625C0.174609 6.24609 0 6.4207 0 6.63672V22.6555C0 22.8715 0.174609 23.0461 0.390625 23.0461H1.5625C1.77852 23.0461 1.95312 22.8715 1.95312 22.6555V20.7039H23.0469V22.6555C23.0469 22.8715 23.2215 23.0461 23.4375 23.0461H24.6094C24.8254 23.0461 25 22.8715 25 22.6555V12.1109C25 11.8949 24.8254 11.7203 24.6094 11.7203ZM23.0469 14.4531V15.2367H22.2625V14.4531H23.0469ZM7.41719 17.5789V14.0625H7.8125V16.7969C7.8125 17.0129 7.98711 17.1875 8.20312 17.1875H20.7031C20.9191 17.1875 21.0938 17.0129 21.0938 16.7969V14.0625H21.4813V17.5789H7.41719ZM20.3125 16.4062H8.59375V14.0625H20.3125V16.4062ZM6.63594 15.2367H1.95312V14.4531H6.63594V15.2367ZM4.29219 12.1102C4.29414 12.1102 4.29531 12.109 4.29727 12.109C4.94219 12.1121 5.46641 12.6375 5.46641 13.2828V13.6719H1.95312V12.1102H4.29219ZM0.78125 22.2648V7.02734H1.17188V11.7078C1.17188 11.7121 1.16953 11.7152 1.16953 11.7191C1.16953 11.723 1.17188 11.727 1.17188 11.7309V22.2648H0.78125ZM1.95312 19.9227V16.018H6.63594V17.9695C6.63594 18.1855 6.81055 18.3602 7.02656 18.3602H21.8719C22.0879 18.3602 22.2625 18.1855 22.2625 17.9695V16.018H23.0469V19.9227H1.95312ZM24.2188 22.2648H23.8281V12.5016H24.2188V22.2648Z" fill="#337B94"/>
<path d="M13.6738 1.95312C11.3047 1.95312 9.37695 3.88086 9.37695 6.25C9.37695 8.61914 11.3047 10.5469 13.6738 10.5469C16.043 10.5469 17.9707 8.61914 17.9707 6.25C17.9707 3.88086 16.043 1.95312 13.6738 1.95312ZM13.6738 9.76563C11.7352 9.76563 10.1582 8.18867 10.1582 6.25C10.1582 4.31133 11.7352 2.73438 13.6738 2.73438C15.6125 2.73438 17.1894 4.31133 17.1894 6.25C17.1894 8.18867 15.6125 9.76563 13.6738 9.76563Z" fill="#337B94"/>
<path d="M15.2324 5.85938H14.0606V4.6875C14.0606 4.47148 13.8859 4.29688 13.6699 4.29688C13.4539 4.29688 13.2793 4.47148 13.2793 4.6875V5.85938H12.1074C11.8914 5.85938 11.7168 6.03399 11.7168 6.25C11.7168 6.46602 11.8914 6.64063 12.1074 6.64063H13.2793V7.8125C13.2793 8.02852 13.4539 8.20313 13.6699 8.20313C13.8859 8.20313 14.0606 8.02852 14.0606 7.8125V6.64063H15.2324C15.4484 6.64063 15.6231 6.46602 15.6231 6.25C15.6231 6.03399 15.4484 5.85938 15.2324 5.85938Z" fill="#337B94"/>
</svg>
