<svg width="120" height="100" viewBox="0 0 120 100" fill="none" xmlns="http://www.w3.org/2000/svg">
<path d="M117.982 86.9019C115.676 84.6317 87.735 73.824 82.6649 71.7852C80.4071 70.8885 78.7569 69.2807 77.6227 67.7783C76.3286 66.064 73.3394 64.109 73.3394 61.9612C73.3394 58.9702 74.9693 62.6777 76.848 55.5989C77.6437 52.6008 79.9528 49.8329 81.3479 47.0624C82.5132 44.748 83.4194 40.9776 82.9783 34.8807C82.9524 34.5227 82.6518 34.2384 82.2929 34.2384C81.8452 34.2384 81.5109 33.8275 81.6057 33.3899C82.3257 30.0638 84.6677 17.8735 81.4141 13.3261C77.6171 8.03797 76.1304 4.51253 67.7931 1.98418C59.4691 -0.539716 62.496 -0.0367171 56.4511 0.221459C53.8216 0.331667 51.3836 1.01212 49.4668 1.89072C46.5661 3.22031 42.3199 5.01386 40.0703 7.27679C38.5569 8.79024 36.0374 15.8411 36.0374 17.6038C36.0374 19.2009 37.0714 29.0846 38.2026 32.7957C38.3569 33.3019 38.1042 33.8832 37.6011 34.0474C37.2711 34.1551 37.0359 34.4591 37.0102 34.8053C36.5544 40.9448 37.4622 44.7358 38.6314 47.0592C40.025 49.8283 42.3316 52.5946 43.1265 55.5911C45.0056 62.6745 46.636 58.9653 46.636 61.9567C46.636 64.1053 43.6456 66.0582 42.3505 67.7726C41.2159 69.2745 39.566 70.8822 37.3105 71.7808C32.2716 73.7972 4.29954 84.6317 2.02491 86.8975C1.17357 87.7655 0.677179 89.7954 0.389238 91.9937C-0.174882 96.3004 3.47532 99.7885 7.81885 99.7885H112.198C116.534 99.7885 120.181 96.3122 119.623 92.0125C119.337 89.8042 118.837 87.7625 117.973 86.893L117.982 86.9019ZM89.7826 94.1353C89.7826 95.6718 88.537 96.9174 87.0005 96.9174H72.2578C70.7213 96.9174 69.4757 95.6718 69.4757 94.1353C69.4757 92.5988 70.7213 91.3532 72.2578 91.3532H87.0005C88.537 91.3532 89.7826 92.5988 89.7826 94.1353Z" fill="#676565"/>
</svg>
