<svg width="375" height="812" viewBox="0 0 375 812" fill="none" xmlns="http://www.w3.org/2000/svg">
<path fill-rule="evenodd" clip-rule="evenodd" d="M474.57 494.508C364.602 534.61 251.385 532.851 135.766 538.647C50.2762 542.932 -9.47566 546.436 -64.264 613.776C-77.2699 629.761 -81.9096 664.599 -84.1822 681.398C-93.8263 752.687 -77.2433 801.448 -45.2826 865.767C-27.1894 902.179 -5.61955 947.079 36.2951 963.366C40.2556 964.904 44.5434 961.142 48.7737 960.713C114.173 954.075 136.377 952.452 198.022 925.101C256.094 899.334 338.895 860.212 393.305 825.539C422.927 806.663 481.259 768.608 501.932 731.607C533.019 675.964 551.912 615.478 525.538 555.402C520.737 544.465 516.194 532.948 508.287 523.995C503.024 518.035 494.417 516.204 487.482 512.309L474.57 494.508Z" fill="#357C95"/>
<path fill-rule="evenodd" clip-rule="evenodd" d="M190.515 568.263C291.821 543.652 414.963 531.684 485.765 443.734C537.526 379.437 548.21 263.856 445.023 244.092C416.859 238.698 388.208 248.063 360.425 249.922C328.48 252.06 339.471 245.198 313.669 250.129C165.759 278.398 287.006 254.514 173.688 286.958C103.193 307.142 49.5837 292.727 -18.1097 338.527C-54.4518 363.115 -76.7314 412.85 -68.9728 455.863C-58.018 516.596 -45.4088 577.026 -32.348 637.341C-31.4711 641.39 -29.3291 645.099 -27.2207 648.673C-25.6415 651.35 -24.1944 654.598 -21.3696 655.95C-19.9501 656.629 -18.9725 653.361 -17.3915 653.377C21.4006 653.776 135.116 581.721 190.515 568.263Z" fill="#A6CDCA"/>
<path fill-rule="evenodd" clip-rule="evenodd" d="M-40.786 299.114C55.6536 366.609 -19.96 317.377 114.109 389.791C142.354 405.047 162.021 424.424 195.684 420.334C220.235 417.352 235.259 397.086 255.209 383.847C282.465 365.76 327.139 360.375 347.394 333.059C390.594 274.799 421.528 214.239 427.813 140.291C429.406 121.547 432.792 82.7179 425.967 58.2892C418.068 30.0139 388.81 -25.6164 382.278 -38.0339C373.473 -54.7738 366.141 -64.4301 352.817 -76.2251C327.752 -98.4128 293.176 -108.809 260.537 -113.165C142.482 -128.921 76.2648 -105.802 -38.1692 -63.9049C-70.0092 -52.2474 -98.762 -31.3094 -113.165 0.224876C-119.399 13.8734 -125.79 36.6982 -126.574 52.9541C-130.592 136.301 -106.306 144.491 -64.3985 223.516C-35.2928 278.401 -44.1024 279.215 -5.19142 324.782" fill="#F9F9F9"/>
</svg>
