<svg width="25" height="25" viewBox="0 0 25 25" fill="none" xmlns="http://www.w3.org/2000/svg">
<g clip-path="url(#clip0)">
<path d="M19.4909 1.6941C17.281 -0.545073 13.6737 -0.568458 11.4346 1.64733C11.417 1.66486 11.4053 1.67656 11.3878 1.6941L6.65223 6.42967C6.55869 6.48229 6.48268 6.5583 6.43007 6.65184L1.66526 11.4108C-0.556375 13.6383 -0.550528 17.2455 1.6711 19.4671C3.91027 21.6829 7.51165 21.6829 9.75667 19.4671L9.76251 19.4613L14.5215 14.6848C14.5566 14.6614 14.5858 14.638 14.615 14.6088C14.6442 14.5795 14.6676 14.5503 14.691 14.5152L19.4441 9.75043C21.6833 7.54049 21.7008 3.93326 19.4909 1.6941ZM8.93232 18.6369C7.14917 20.3967 4.27859 20.4026 2.49544 18.6369C0.735678 16.8655 0.735678 14.0066 2.49544 12.2351L6.96209 7.7685L13.3697 14.1878L8.93232 18.6369ZM18.6198 8.91439L14.1941 13.3518L7.78643 6.94416L12.218 2.51259C13.9836 0.74698 16.8542 0.74698 18.6198 2.51259C20.3854 4.2782 20.3854 7.14878 18.6198 8.91439Z" fill="#357C95"/>
<path d="M14.0807 4.31311C13.8586 4.07925 13.4902 4.07341 13.2564 4.30726L11.2335 6.29504C10.9997 6.52305 10.9997 6.89137 11.2218 7.11938C11.444 7.34739 11.8182 7.35324 12.0462 7.13107L12.052 7.12523L14.069 5.13745C14.3029 4.90944 14.3029 4.54112 14.0807 4.31311Z" fill="#357C95"/>
<path d="M23.342 15.3218C23.342 15.3218 23.342 15.3218 23.3362 15.316C21.1555 13.1002 17.5892 13.0768 15.3734 15.2634C15.3559 15.2809 15.3383 15.2984 15.3208 15.316C13.105 17.5318 13.105 21.1215 15.3149 23.3372C17.5249 25.553 21.1204 25.553 23.3362 23.3431C25.552 21.1273 25.552 17.5376 23.342 15.3218ZM14.8297 19.3266C14.8297 16.8419 16.8467 14.8249 19.3314 14.8249C20.3194 14.8249 21.2841 15.1523 22.0675 15.7545L15.7593 22.0686C15.1571 21.2793 14.8297 20.3146 14.8297 19.3266ZM22.5118 22.507C20.9158 24.1031 18.3784 24.2668 16.5894 22.8929L22.8977 16.5846C24.2775 18.3736 24.1138 20.911 22.5118 22.507Z" fill="#357C95"/>
</g>
<defs>
<clipPath id="clip0">
<rect width="25" height="25" fill="white"/>
</clipPath>
</defs>
</svg>
