<svg width="101" height="101" viewBox="0 0 101 101" fill="none" xmlns="http://www.w3.org/2000/svg">
<g filter="url(#filter0_d)">
<rect x="30" y="26" width="41" height="41" rx="11.7143" fill="white"/>
<path d="M62.6094 45.7203H61.4375C61.2215 45.7203 61.0469 45.8949 61.0469 46.1109V47.6719H60.2625C60.2625 47.4559 60.0879 47.2812 59.8719 47.2812H45.0266C44.8105 47.2812 44.6359 47.4559 44.6359 47.6719H44.2477V47.2828C44.2477 46.2047 43.3703 45.3273 42.2922 45.3273C42.2895 45.3273 42.2871 45.3289 42.2844 45.3289H39.9531V40.6367C39.9531 40.4207 39.7785 40.2461 39.5625 40.2461H38.3906C38.1746 40.2461 38 40.4207 38 40.6367V56.6555C38 56.8715 38.1746 57.0461 38.3906 57.0461H39.5625C39.7785 57.0461 39.9531 56.8715 39.9531 56.6555V54.7039H61.0469V56.6555C61.0469 56.8715 61.2215 57.0461 61.4375 57.0461H62.6094C62.8254 57.0461 63 56.8715 63 56.6555V46.1109C63 45.8949 62.8254 45.7203 62.6094 45.7203ZM61.0469 48.4531V49.2367H60.2625V48.4531H61.0469ZM45.4172 51.5789V48.0625H45.8125V50.7969C45.8125 51.0129 45.9871 51.1875 46.2031 51.1875H58.7031C58.9191 51.1875 59.0938 51.0129 59.0938 50.7969V48.0625H59.4813V51.5789H45.4172ZM58.3125 50.4062H46.5938V48.0625H58.3125V50.4062ZM44.6359 49.2367H39.9531V48.4531H44.6359V49.2367ZM42.2922 46.1102C42.2941 46.1102 42.2953 46.109 42.2973 46.109C42.9422 46.1121 43.4664 46.6375 43.4664 47.2828V47.6719H39.9531V46.1102H42.2922ZM38.7812 56.2648V41.0273H39.1719V45.7078C39.1719 45.7121 39.1695 45.7152 39.1695 45.7191C39.1695 45.723 39.1719 45.727 39.1719 45.7309V56.2648H38.7812ZM39.9531 53.9227V50.018H44.6359V51.9695C44.6359 52.1855 44.8105 52.3602 45.0266 52.3602H59.8719C60.0879 52.3602 60.2625 52.1855 60.2625 51.9695V50.018H61.0469V53.9227H39.9531ZM62.2188 56.2648H61.8281V46.5016H62.2188V56.2648Z" fill="#337B94"/>
<path d="M51.6738 35.9531C49.3047 35.9531 47.377 37.8809 47.377 40.25C47.377 42.6191 49.3047 44.5469 51.6738 44.5469C54.043 44.5469 55.9707 42.6191 55.9707 40.25C55.9707 37.8809 54.043 35.9531 51.6738 35.9531ZM51.6738 43.7656C49.7352 43.7656 48.1582 42.1887 48.1582 40.25C48.1582 38.3113 49.7352 36.7344 51.6738 36.7344C53.6125 36.7344 55.1894 38.3113 55.1894 40.25C55.1894 42.1887 53.6125 43.7656 51.6738 43.7656Z" fill="#337B94"/>
<path d="M53.2324 39.8594H52.0606V38.6875C52.0606 38.4715 51.8859 38.2969 51.6699 38.2969C51.4539 38.2969 51.2793 38.4715 51.2793 38.6875V39.8594H50.1074C49.8914 39.8594 49.7168 40.034 49.7168 40.25C49.7168 40.466 49.8914 40.6406 50.1074 40.6406H51.2793V41.8125C51.2793 42.0285 51.4539 42.2031 51.6699 42.2031C51.8859 42.2031 52.0606 42.0285 52.0606 41.8125V40.6406H53.2324C53.4484 40.6406 53.6231 40.466 53.6231 40.25C53.6231 40.034 53.4484 39.8594 53.2324 39.8594Z" fill="#337B94"/>
</g>
<defs>
<filter id="filter0_d" x="0" y="0" width="101" height="101" filterUnits="userSpaceOnUse" color-interpolation-filters="sRGB">
<feFlood flood-opacity="0" result="BackgroundImageFix"/>
<feColorMatrix in="SourceAlpha" type="matrix" values="0 0 0 0 0 0 0 0 0 0 0 0 0 0 0 0 0 0 127 0"/>
<feOffset dy="4"/>
<feGaussianBlur stdDeviation="15"/>
<feColorMatrix type="matrix" values="0 0 0 0 0 0 0 0 0 0 0 0 0 0 0 0 0 0 0.05 0"/>
<feBlend mode="normal" in2="BackgroundImageFix" result="effect1_dropShadow"/>
<feBlend mode="normal" in="SourceGraphic" in2="effect1_dropShadow" result="shape"/>
</filter>
</defs>
</svg>
