<svg width="25" height="25" viewBox="0 0 25 25" fill="none" xmlns="http://www.w3.org/2000/svg">
<path d="M21.3106 2.92966C18.5807 2.92966 15.9372 2.12927 13.6658 0.615015L12.9277 0.122974C12.6817 -0.0409912 12.3612 -0.0409912 12.1152 0.122974L11.3771 0.615015C9.10576 2.12927 6.46231 2.92966 3.73242 2.92966C3.32793 2.92966 3 3.25759 3 3.66208V12.0246C3 17.8867 6.74531 23.1142 12.2899 24.9624C12.365 24.9874 12.4433 25 12.5215 25C12.5997 25 12.6779 24.9874 12.7531 24.9624C18.2942 23.1154 22.043 17.8899 22.043 12.0245V3.66208C22.043 3.25759 21.715 2.92966 21.3106 2.92966ZM20.5781 12.0245C20.5781 17.1972 17.351 21.7749 12.5215 23.4929C7.69194 21.7749 4.46484 17.1972 4.46484 12.0245V4.37707C7.22393 4.24578 9.88062 3.37322 12.1897 1.83386L12.5215 1.61267L12.8533 1.83386C15.1624 3.37327 17.819 4.24578 20.5781 4.37707V12.0245Z" fill="#357C95"/>
<path d="M11.7891 11.0352V11.7676H11.0566C10.6521 11.7676 10.3242 12.0955 10.3242 12.5C10.3242 12.9045 10.6521 13.2324 11.0566 13.2324H11.7891V13.9648C11.7891 14.3693 12.117 14.6973 12.5215 14.6973C12.926 14.6973 13.2539 14.3693 13.2539 13.9648V13.2324H13.9863C14.3908 13.2324 14.7187 12.9045 14.7187 12.5C14.7187 12.0955 14.3908 11.7676 13.9863 11.7676H13.2539V11.0352C13.2539 10.6307 12.926 10.3027 12.5215 10.3027C12.117 10.3027 11.7891 10.6307 11.7891 11.0352Z" fill="#357C95"/>
<path d="M7.39453 12.5C7.39453 15.327 9.69448 17.627 12.5215 17.627C15.3485 17.627 17.6484 15.327 17.6484 12.5C17.6484 9.673 15.3485 7.37305 12.5215 7.37305C9.69448 7.37305 7.39453 9.673 7.39453 12.5ZM16.1836 12.5C16.1836 14.5193 14.5408 16.1621 12.5215 16.1621C10.5022 16.1621 8.85938 14.5193 8.85938 12.5C8.85938 10.4807 10.5022 8.83789 12.5215 8.83789C14.5408 8.83789 16.1836 10.4807 16.1836 12.5Z" fill="#357C95"/>
</svg>
