<svg width="22" height="21" viewBox="0 0 22 21" fill="none" xmlns="http://www.w3.org/2000/svg">
<path d="M21.2657 16.8116L17.7183 13.2591L14.9897 12.1302C15.8983 10.8363 16.385 9.29274 16.3832 7.71101C16.3832 3.45913 12.9291 0 8.68326 0C4.43746 0 0.983276 3.45913 0.983276 7.71101C0.983276 11.9629 4.43746 15.422 8.68326 15.422C10.2765 15.4238 11.8306 14.928 13.1291 14.0035L14.2535 16.7286L17.8007 20.2813C18.0282 20.5092 18.2983 20.6899 18.5956 20.8132C18.8928 20.9365 19.2114 21 19.5332 21C19.8549 21 20.1735 20.9366 20.4708 20.8133C20.768 20.69 21.0381 20.5093 21.2656 20.2814C21.4931 20.0536 21.6736 19.7831 21.7967 19.4855C21.9199 19.1878 21.9833 18.8687 21.9833 18.5465C21.9833 18.2243 21.9199 17.9053 21.7968 17.6076C21.6737 17.3099 21.4932 17.0394 21.2657 16.8116ZM2.38327 7.71101C2.38327 4.23229 5.20952 1.402 8.68326 1.402C12.157 1.402 14.9832 4.23229 14.9832 7.71101C14.9832 11.1897 12.157 14.02 8.68326 14.02C5.20952 14.02 2.38327 11.1897 2.38327 7.71101ZM20.2757 19.29C20.0786 19.4869 19.8116 19.5975 19.5332 19.5975C19.2548 19.5975 18.9878 19.4869 18.7908 19.29L15.4407 15.9352L14.3954 13.4013L16.9257 14.4481L20.2758 17.8029C20.4724 18.0003 20.5828 18.2677 20.5828 18.5465C20.5828 18.8252 20.4723 19.0926 20.2757 19.29Z" fill="#676565"/>
</svg>
