<svg width="24" height="24" viewBox="0 0 24 24" fill="none" xmlns="http://www.w3.org/2000/svg">
<g clip-path="url(#clip0)">
<path d="M11.9999 12.8438C9.67374 12.8438 7.78125 14.7363 7.78125 17.0625C7.78125 19.3887 9.67374 21.2812 11.9999 21.2812C14.3261 21.2812 16.2186 19.3887 16.2186 17.0625C16.2186 14.7363 14.3261 12.8438 11.9999 12.8438ZM11.9999 19.4062C10.7076 19.4062 9.65621 18.3548 9.65621 17.0625C9.65621 15.7702 10.7076 14.7188 11.9999 14.7188C13.2923 14.7188 14.3436 15.7702 14.3436 17.0625C14.3436 18.3548 13.2923 19.4062 11.9999 19.4062Z" fill="#357C95"/>
<path d="M23.8996 14.8418C22.8657 12.7939 21.2271 11.059 19.16 9.82242L21.6977 7.2847C22.0638 6.91861 22.0638 6.32503 21.6977 5.95889C21.3316 5.5928 20.7381 5.5928 20.3719 5.95889L17.3948 8.93606C15.9916 8.35533 14.4855 8.00602 12.938 7.90547V3.65625C12.938 3.13847 12.5182 2.71875 12.0005 2.71875C11.4827 2.71875 11.063 3.13847 11.063 3.65625V7.90542C9.51539 8.00597 8.0093 8.35528 6.60614 8.93602L3.62906 5.95884C3.26292 5.5927 2.66929 5.5927 2.3032 5.95884C1.93715 6.32494 1.93715 6.91852 2.30325 7.28466L4.84092 9.82238C2.77383 11.059 1.13526 12.7939 0.101295 14.8418C-0.132049 15.304 0.0534823 15.8678 0.51567 16.1012C0.977717 16.3346 1.54176 16.1491 1.77506 15.6869C3.51403 12.2427 7.38937 9.75 12.0005 9.75C16.6151 9.75 20.4885 12.2457 22.2259 15.687C22.4597 16.1499 23.0238 16.3343 23.4853 16.1013C23.9475 15.8679 24.1331 15.304 23.8996 14.8418Z" fill="#357C95"/>
</g>
<defs>
<clipPath id="clip0">
<rect width="24" height="24" fill="white"/>
</clipPath>
</defs>
</svg>
