<svg width="24" height="24" viewBox="0 0 24 24" fill="none" xmlns="http://www.w3.org/2000/svg">
<g clip-path="url(#clip0)">
<path d="M0.101337 9.15816C1.13531 11.2061 2.77387 12.941 4.84096 14.1776L2.30329 16.7153C1.9372 17.0814 1.9372 17.675 2.30324 18.0411C2.66938 18.4072 3.26292 18.4072 3.6291 18.0411L6.60618 15.0639C8.00934 15.6447 9.51543 15.994 11.063 16.0945V20.3438C11.063 20.8615 11.4827 21.2812 12.0005 21.2812C12.5183 21.2812 12.938 20.8615 12.938 20.3438V16.0946C14.4856 15.994 15.9917 15.6447 17.3948 15.064L20.3719 18.0412C20.7381 18.4073 21.3317 18.4073 21.6978 18.0412C22.0638 17.6751 22.0638 17.0815 21.6977 16.7153L19.1601 14.1776C21.2272 12.941 22.8657 11.2061 23.8997 9.1582C24.133 8.69597 23.9475 8.13216 23.4853 7.89877C23.0233 7.66537 22.4592 7.85086 22.2259 8.31309C20.4869 11.7573 16.6116 14.25 12.0005 14.25C7.38585 14.25 3.51248 11.7543 1.77506 8.31305C1.54129 7.85006 0.97715 7.6657 0.515665 7.89872C0.0534306 8.13211 -0.132099 8.69597 0.101337 9.15816Z" fill="#357C95"/>
</g>
<defs>
<clipPath id="clip0">
<rect width="24" height="24" fill="white" transform="matrix(1 0 0 -1 0 24)"/>
</clipPath>
</defs>
</svg>
